[[{"note": 64, "velocity": 83, "duration": 479}, {"note": 71, "velocity": 73, "duration": 408}, {"note": 0, "velocity": 0, "duration": 72}, {"note": 71, "velocity": 73, "duration": 213}, {"note": 69, "velocity": 73, "duration": 203}, {"note": 73, "velocity": 76, "duration": 357}, {"note": 0, "velocity": 0, "duration": 123}, {"note": 64, "velocity": 76, "duration": 446}, {"note": 71, "velocity": 72, "duration": 405}, {"note": 0, "velocity": 0, "duration": 75}, {"note": 71, "velocity": 73, "duration": 235}, {"note": 69, "velocity": 76, "duration": 214}, {"note": 73, "velocity": 74, "duration": 350}, {"note": 0, "velocity": 0, "duration": 130}, {"note": 66, "velocity": 74, "duration": 423}, {"note": 73, "velocity": 74, "duration": 415}, {"note": 0, "velocity": 0, "duration": 65}, {"note": 73, "velocity": 69, "duration": 221}, {"note": 71, "velocity": 73, "duration": 248}, {"note": 74, "velocity": 76, "duration": 400}, {"note": 0, "velocity": 0, "duration": 80}, {"note": 65, "velocity": 76, "duration": 443}, {"note": 73, "velocity": 74, "duration": 412}, {"note": 0, "velocity": 0, "duration": 68}, {"note": 73, "velocity": 74, "duration": 217}, {"note": 71, "velocity": 77, "duration": 223}, {"note": 69, "velocity": 73, "duration": 258}, {"note": 65, "velocity": 76, "duration": 240}, {"note": 64, "velocity": 83, "duration": 479}, {"note": 71, "velocity": 73, "duration": 408}, {"note": 0, "velocity": 0, "duration": 72}, {"note": 71, "velocity": 73, "duration": 213}, {"note": 69, "velocity": 73, "duration": 203}, {"note": 73, "velocity": 76, "duration": 357}, {"note": 0, "velocity": 0, "duration": 123}, {"note": 64, "velocity": 76, "duration": 446}, {"note": 71, "velocity": 72, "duration": 405}, {"note": 0, "velocity": 0, "duration": 75}, {"note": 71, "velocity": 73, "duration": 235}, {"note": 69, "velocity": 76, "duration": 214}, {"note": 73, "velocity": 74, "duration": 350}, {"note": 0, "velocity": 0, "duration": 130}, {"note": 66, "velocity": 74, "duration": 423}, {"note": 73, "velocity": 74, "duration": 415}, {"note": 0, "velocity": 0, "duration": 65}, {"note": 73, "velocity": 69, "duration": 221}, {"note": 71, "velocity": 73, "duration": 248}, {"note": 74, "velocity": 76, "duration": 400}, {"note": 0, "velocity": 0, "duration": 80}, {"note": 65, "velocity": 76, "duration": 443}, {"note": 73, "velocity": 74, "duration": 360}, {"note": 74, "velocity": 73, "duration": 120}, {"note": 73, "velocity": 74, "duration": 217}, {"note": 71, "velocity": 77, "duration": 223}, {"note": 69, "velocity": 73, "duration": 258}, {"note": 78, "velocity": 76, "duration": 240}, {"note": 78, "velocity": 75, "duration": 185}, {"note": 73, "velocity": 71, "duration": 181}, {"note": 73, "velocity": 74, "duration": 211}, {"note": 69, "velocity": 68, "duration": 171}, {"note": 0, "velocity": 0, "duration": 69}, {"note": 69, "velocity": 74, "duration": 236}, {"note": 66, "velocity": 75, "duration": 166}, {"note": 0, "velocity": 0, "duration": 74}, {"note": 69, "velocity": 75, "duration": 207}, {"note": 76, "velocity": 78, "duration": 179}, {"note": 0, "velocity": 0, "duration": 61}, {"note": 76, "velocity": 77, "duration": 184}, {"note": 71, "velocity": 73, "duration": 165}, {"note": 0, "velocity": 0, "duration": 75}, {"note": 71, "velocity": 78, "duration": 182}, {"note": 68, "velocity": 73, "duration": 209}, {"note": 68, "velocity": 72, "duration": 203}, {"note": 64, "velocity": 83, "duration": 198}, {"note": 68, "velocity": 79, "duration": 174}, {"note": 0, "velocity": 0, "duration": 66}, {"note": 69, "velocity": 72, "duration": 288}, {"note": 0, "velocity": 0, "duration": 192}, {"note": 66, "velocity": 73, "duration": 219}, {"note": 69, "velocity": 72, "duration": 209}, {"note": 66, "velocity": 75, "duration": 253}, {"note": 69, "velocity": 72, "duration": 255}, {"note": 66, "velocity": 73, "duration": 150}, {"note": 69, "velocity": 72, "duration": 240}, {"note": 71, "velocity": 70, "duration": 108}, {"note": 73, "velocity": 74, "duration": 216}, {"note": 74, "velocity": 76, "duration": 149}, {"note": 71, "velocity": 74, "duration": 1045}, {"note": 0, "velocity": 0, "duration": 275}, {"note": 73, "velocity": 76, "duration": 248}, {"note": 74, "velocity": 83, "duration": 255}, {"note": 76, "velocity": 76, "duration": 147}, {"note": 74, "velocity": 78, "duration": 122}, {"note": 73, "velocity": 74, "duration": 113}, {"note": 73, "velocity": 73, "duration": 120}, {"note": 74, "velocity": 78, "duration": 94}, {"note": 0, "velocity": 0, "duration": 66}, {"note": 76, "velocity": 73, "duration": 105}, {"note": 76, "velocity": 76, "duration": 102}, {"note": 74, "velocity": 75, "duration": 105}, {"note": 73, "velocity": 73, "duration": 93}, {"note": 0, "velocity": 0, "duration": 67}, {"note": 73, "velocity": 75, "duration": 199}, {"note": 81, "velocity": 73, "duration": 198}, {"note": 76, "velocity": 74, "duration": 128}, {"note": 74, "velocity": 73, "duration": 123}, {"note": 73, "velocity": 72, "duration": 102}, {"note": 73, "velocity": 74, "duration": 124}, {"note": 74, "velocity": 74, "duration": 105}, {"note": 76, "velocity": 73, "duration": 105}, {"note": 76, "velocity": 73, "duration": 116}, {"note": 74, "velocity": 76, "duration": 131}, {"note": 73, "velocity": 72, "duration": 119}, {"note": 73, "velocity": 74, "duration": 153}, {"note": 0, "velocity": 0, "duration": 87}, {"note": 69, "velocity": 76, "duration": 82}, {"note": 71, "velocity": 70, "duration": 84}, {"note": 73, "velocity": 74, "duration": 193}, {"note": 76, "velocity": 78, "duration": 166}, {"note": 0, "velocity": 0, "duration": 74}, {"note": 76, "velocity": 76, "duration": 174}, {"note": 0, "velocity": 0, "duration": 66}, {"note": 69, "velocity": 73, "duration": 69}, {"note": 71, "velocity": 73, "duration": 81}, {"note": 73, "velocity": 72, "duration": 193}, {"note": 76, "velocity": 74, "duration": 173}, {"note": 0, "velocity": 0, "duration": 67}, {"note": 76, "velocity": 77, "duration": 195}, {"note": 69, "velocity": 70, "duration": 114}, {"note": 71, "velocity": 74, "duration": 238}, {"note": 0, "velocity": 0, "duration": 122}, {"note": 69, "velocity": 70, "duration": 93}, {"note": 71, "velocity": 73, "duration": 217}, {"note": 0, "velocity": 0, "duration": 143}, {"note": 69, "velocity": 74, "duration": 86}, {"note": 71, "velocity": 73, "duration": 192}, {"note": 73, "velocity": 74, "duration": 251}, {"note": 71, "velocity": 72, "duration": 124}, {"note": 73, "velocity": 72, "duration": 159}, {"note": 74, "velocity": 78, "duration": 187}, {"note": 73, "velocity": 73, "duration": 124}, {"note": 74, "velocity": 81, "duration": 124}, {"note": 76, "velocity": 76, "duration": 147}, {"note": 74, "velocity": 78, "duration": 122}, {"note": 73, "velocity": 74, "duration": 113}, {"note": 73, "velocity": 73, "duration": 120}, {"note": 74, "velocity": 78, "duration": 94}, {"note": 0, "velocity": 0, "duration": 66}, {"note": 76, "velocity": 73, "duration": 105}, {"note": 76, "velocity": 76, "duration": 102}, {"note": 74, "velocity": 75, "duration": 105}, {"note": 73, "velocity": 73, "duration": 93}, {"note": 0, "velocity": 0, "duration": 67}, {"note": 73, "velocity": 75, "duration": 199}, {"note": 81, "velocity": 73, "duration": 198}, {"note": 76, "velocity": 74, "duration": 128}, {"note": 74, "velocity": 73, "duration": 123}, {"note": 73, "velocity": 72, "duration": 102}, {"note": 73, "velocity": 74, "duration": 124}, {"note": 74, "velocity": 74, "duration": 105}, {"note": 76, "velocity": 73, "duration": 105}, {"note": 76, "velocity": 73, "duration": 116}, {"note": 74, "velocity": 76, "duration": 131}, {"note": 73, "velocity": 72, "duration": 119}, {"note": 73, "velocity": 74, "duration": 153}, {"note": 0, "velocity": 0, "duration": 87}, {"note": 69, "velocity": 76, "duration": 82}, {"note": 71, "velocity": 70, "duration": 84}, {"note": 73, "velocity": 74, "duration": 193}, {"note": 76, "velocity": 78, "duration": 166}, {"note": 0, "velocity": 0, "duration": 74}, {"note": 76, "velocity": 76, "duration": 174}, {"note": 0, "velocity": 0, "duration": 66}, {"note": 69, "velocity": 73, "duration": 69}, {"note": 71, "velocity": 73, "duration": 81}, {"note": 73, "velocity": 72, "duration": 193}, {"note": 76, "velocity": 74, "duration": 173}, {"note": 0, "velocity": 0, "duration": 67}, {"note": 76, "velocity": 77, "duration": 195}, {"note": 69, "velocity": 70, "duration": 114}, {"note": 71, "velocity": 74, "duration": 238}, {"note": 0, "velocity": 0, "duration": 122}, {"note": 69, "velocity": 70, "duration": 93}, {"note": 71, "velocity": 73, "duration": 217}, {"note": 0, "velocity": 0, "duration": 143}, {"note": 69, "velocity": 74, "duration": 86}, {"note": 71, "velocity": 73, "duration": 131}, {"note": 73, "velocity": 74, "duration": 251}, {"note": 74, "velocity": 72, "duration": 272}, {"note": 76, "velocity": 78, "duration": 256}, {"note": 81, "velocity": 73, "duration": 230}, {"note": 69, "velocity": 72, "duration": 231}, {"note": 64, "velocity": 76, "duration": 224}, {"note": 73, "velocity": 71, "duration": 225}, {"note": 69, "velocity": 73, "duration": 234}, {"note": 74, "velocity": 81, "duration": 216}, {"note": 73, "velocity": 73, "duration": 109}, {"note": 69, "velocity": 69, "duration": 143}, {"note": 71, "velocity": 73, "duration": 108}, {"note": 73, "velocity": 73, "duration": 130}, {"note": 71, "velocity": 76, "duration": 174}, {"note": 0, "velocity": 0, "duration": 66}, {"note": 69, "velocity": 71, "duration": 236}, {"note": 64, "velocity": 74, "duration": 189}, {"note": 73, "velocity": 63, "duration": 223}, {"note": 69, "velocity": 73, "duration": 239}, {"note": 74, "velocity": 81, "duration": 264}, {"note": 73, "velocity": 76, "duration": 112}, {"note": 69, "velocity": 66, "duration": 124}, {"note": 71, "velocity": 74, "duration": 125}, {"note": 73, "velocity": 72, "duration": 143}, {"note": 71, "velocity": 73, "duration": 213}, {"note": 69, "velocity": 72, "duration": 231}, {"note": 64, "velocity": 76, "duration": 224}, {"note": 73, "velocity": 71, "duration": 225}, {"note": 69, "velocity": 73, "duration": 234}, {"note": 74, "velocity": 81, "duration": 216}, {"note": 73, "velocity": 73, "duration": 109}, {"note": 69, "velocity": 69, "duration": 143}, {"note": 71, "velocity": 73, "duration": 108}, {"note": 73, "velocity": 73, "duration": 130}, {"note": 71, "velocity": 76, "duration": 174}, {"note": 0, "velocity": 0, "duration": 66}, {"note": 69, "velocity": 71, "duration": 236}, {"note": 64, "velocity": 74, "duration": 189}, {"note": 73, "velocity": 63, "duration": 223}, {"note": 69, "velocity": 73, "duration": 239}, {"note": 74, "velocity": 81, "duration": 264}, {"note": 73, "velocity": 76, "duration": 112}, {"note": 69, "velocity": 66, "duration": 124}, {"note": 71, "velocity": 74, "duration": 125}, {"note": 73, "velocity": 72, "duration": 143}, {"note": 78, "velocity": 73, "duration": 213}, {"note": 78, "velocity": 75, "duration": 153}, {"note": 0, "velocity": 0, "duration": 87}, {"note": 73, "velocity": 65, "duration": 240}, {"note": 73, "velocity": 74, "duration": 206}, {"note": 69, "velocity": 66, "duration": 160}, {"note": 0, "velocity": 0, "duration": 80}, {"note": 69, "velocity": 75, "duration": 180}, {"note": 66, "velocity": 75, "duration": 191}, {"note": 69, "velocity": 73, "duration": 225}, {"note": 76, "velocity": 68, "duration": 186}, {"note": 76, "velocity": 76, "duration": 166}, {"note": 0, "velocity": 0, "duration": 74}, {"note": 71, "velocity": 68, "duration": 178}, {"note": 0, "velocity": 0, "duration": 62}, {"note": 71, "velocity": 76, "duration": 181}, {"note": 68, "velocity": 72, "duration": 186}, {"note": 68, "velocity": 74, "duration": 205}, {"note": 64, "velocity": 78, "duration": 192}, {"note": 68, "velocity": 74, "duration": 192}, {"note": 69, "velocity": 81, "duration": 240}, {"note": 0, "velocity": 0, "duration": 240}, {"note": 66, "velocity": 74, "duration": 193}, {"note": 69, "velocity": 72, "duration": 180}, {"note": 66, "velocity": 78, "duration": 191}, {"note": 69, "velocity": 73, "duration": 207}, {"note": 66, "velocity": 78, "duration": 82}, {"note": 69, "velocity": 76, "duration": 196}, {"note": 71, "velocity": 72, "duration": 131}, {"note": 73, "velocity": 77, "duration": 135}, {"note": 74, "velocity": 83, "duration": 84}, {"note": 71, "velocity": 74, "duration": 990}, {"note": 0, "velocity": 0, "duration": 450}, {"note": 73, "velocity": 76, "duration": 248}, {"note": 74, "velocity": 83, "duration": 255}, {"note": 76, "velocity": 76, "duration": 147}, {"note": 74, "velocity": 78, "duration": 122}, {"note": 73, "velocity": 74, "duration": 113}, {"note": 73, "velocity": 73, "duration": 120}, {"note": 74, "velocity": 78, "duration": 94}, {"note": 0, "velocity": 0, "duration": 66}, {"note": 76, "velocity": 73, "duration": 105}, {"note": 76, "velocity": 76, "duration": 102}, {"note": 74, "velocity": 75, "duration": 105}, {"note": 73, "velocity": 73, "duration": 93}, {"note": 0, "velocity": 0, "duration": 67}, {"note": 73, "velocity": 75, "duration": 199}, {"note": 81, "velocity": 73, "duration": 198}, {"note": 76, "velocity": 74, "duration": 128}, {"note": 74, "velocity": 73, "duration": 123}, {"note": 73, "velocity": 72, "duration": 102}, {"note": 73, "velocity": 74, "duration": 124}, {"note": 74, "velocity": 74, "duration": 105}, {"note": 76, "velocity": 73, "duration": 105}, {"note": 76, "velocity": 73, "duration": 116}, {"note": 74, "velocity": 76, "duration": 131}, {"note": 73, "velocity": 72, "duration": 119}, {"note": 73, "velocity": 74, "duration": 153}, {"note": 0, "velocity": 0, "duration": 87}, {"note": 69, "velocity": 76, "duration": 82}, {"note": 71, "velocity": 70, "duration": 84}, {"note": 73, "velocity": 74, "duration": 193}, {"note": 76, "velocity": 78, "duration": 166}, {"note": 0, "velocity": 0, "duration": 74}, {"note": 76, "velocity": 76, "duration": 174}, {"note": 0, "velocity": 0, "duration": 66}, {"note": 69, "velocity": 73, "duration": 69}, {"note": 71, "velocity": 73, "duration": 81}, {"note": 73, "velocity": 72, "duration": 193}, {"note": 76, "velocity": 74, "duration": 173}, {"note": 0, "velocity": 0, "duration": 67}, {"note": 76, "velocity": 77, "duration": 195}, {"note": 69, "velocity": 70, "duration": 114}, {"note": 71, "velocity": 74, "duration": 238}, {"note": 0, "velocity": 0, "duration": 122}, {"note": 69, "velocity": 70, "duration": 93}, {"note": 71, "velocity": 73, "duration": 217}, {"note": 0, "velocity": 0, "duration": 143}, {"note": 69, "velocity": 74, "duration": 86}, {"note": 71, "velocity": 73, "duration": 192}, {"note": 73, "velocity": 74, "duration": 251}, {"note": 71, "velocity": 72, "duration": 124}, {"note": 73, "velocity": 72, "duration": 159}, {"note": 74, "velocity": 78, "duration": 187}, {"note": 73, "velocity": 73, "duration": 124}, {"note": 74, "velocity": 81, "duration": 124}, {"note": 76, "velocity": 76, "duration": 147}, {"note": 74, "velocity": 78, "duration": 122}, {"note": 73, "velocity": 74, "duration": 113}, {"note": 73, "velocity": 73, "duration": 120}, {"note": 74, "velocity": 78, "duration": 94}, {"note": 0, "velocity": 0, "duration": 66}, {"note": 76, "velocity": 73, "duration": 105}, {"note": 76, "velocity": 76, "duration": 102}, {"note": 74, "velocity": 75, "duration": 105}, {"note": 73, "velocity": 73, "duration": 93}, {"note": 0, "velocity": 0, "duration": 67}, {"note": 73, "velocity": 75, "duration": 199}, {"note": 81, "velocity": 73, "duration": 198}, {"note": 76, "velocity": 74, "duration": 128}, {"note": 74, "velocity": 73, "duration": 123}, {"note": 73, "velocity": 72, "duration": 102}, {"note": 73, "velocity": 74, "duration": 124}, {"note": 74, "velocity": 74, "duration": 105}, {"note": 76, "velocity": 73, "duration": 105}, {"note": 76, "velocity": 73, "duration": 116}, {"note": 74, "velocity": 76, "duration": 131}, {"note": 73, "velocity": 72, "duration": 119}, {"note": 73, "velocity": 74, "duration": 153}, {"note": 0, "velocity": 0, "duration": 87}, {"note": 69, "velocity": 76, "duration": 82}, {"note": 71, "velocity": 70, "duration": 84}, {"note": 73, "velocity": 74, "duration": 193}, {"note": 76, "velocity": 78, "duration": 166}, {"note": 0, "velocity": 0, "duration": 74}, {"note": 76, "velocity": 76, "duration": 174}, {"note": 0, "velocity": 0, "duration": 66}, {"note": 69, "velocity": 73, "duration": 69}, {"note": 71, "velocity": 73, "duration": 81}, {"note": 73, "velocity": 72, "duration": 193}, {"note": 76, "velocity": 74, "duration": 173}, {"note": 0, "velocity": 0, "duration": 67}, {"note": 76, "velocity": 77, "duration": 195}, {"note": 69, "velocity": 70, "duration": 114}, {"note": 71, "velocity": 74, "duration": 238}, {"note": 0, "velocity": 0, "duration": 122}, {"note": 69, "velocity": 70, "duration": 93}, {"note": 71, "velocity": 73, "duration": 217}, {"note": 0, "velocity": 0, "duration": 143}, {"note": 69, "velocity": 74, "duration": 86}, {"note": 71, "velocity": 73, "duration": 131}, {"note": 73, "velocity": 74, "duration": 251}, {"note": 74, "velocity": 72, "duration": 272}, {"note": 76, "velocity": 78, "duration": 256}, {"note": 81, "velocity": 73, "duration": 1200}, {"note": 0, "velocity": 0, "duration": 13920}, {"note": 73, "velocity": 76, "duration": 248}, {"note": 74, "velocity": 83, "duration": 255}, {"note": 76, "velocity": 76, "duration": 147}, {"note": 74, "velocity": 78, "duration": 122}, {"note": 73, "velocity": 74, "duration": 113}, {"note": 73, "velocity": 73, "duration": 120}, {"note": 74, "velocity": 78, "duration": 94}, {"note": 0, "velocity": 0, "duration": 66}, {"note": 76, "velocity": 73, "duration": 105}, {"note": 76, "velocity": 76, "duration": 102}, {"note": 74, "velocity": 75, "duration": 105}, {"note": 73, "velocity": 73, "duration": 93}, {"note": 0, "velocity": 0, "duration": 67}, {"note": 73, "velocity": 75, "duration": 199}, {"note": 81, "velocity": 73, "duration": 198}, {"note": 76, "velocity": 74, "duration": 128}, {"note": 74, "velocity": 73, "duration": 123}, {"note": 73, "velocity": 72, "duration": 102}, {"note": 73, "velocity": 74, "duration": 124}, {"note": 74, "velocity": 74, "duration": 105}, {"note": 76, "velocity": 73, "duration": 105}, {"note": 76, "velocity": 73, "duration": 116}, {"note": 74, "velocity": 76, "duration": 131}, {"note": 73, "velocity": 72, "duration": 119}, {"note": 73, "velocity": 74, "duration": 153}, {"note": 0, "velocity": 0, "duration": 87}, {"note": 69, "velocity": 76, "duration": 82}, {"note": 71, "velocity": 70, "duration": 84}, {"note": 73, "velocity": 74, "duration": 193}, {"note": 76, "velocity": 78, "duration": 166}, {"note": 0, "velocity": 0, "duration": 74}, {"note": 76, "velocity": 76, "duration": 174}, {"note": 0, "velocity": 0, "duration": 66}, {"note": 69, "velocity": 73, "duration": 69}, {"note": 71, "velocity": 73, "duration": 81}, {"note": 73, "velocity": 72, "duration": 193}, {"note": 76, "velocity": 74, "duration": 173}, {"note": 0, "velocity": 0, "duration": 67}, {"note": 76, "velocity": 77, "duration": 195}, {"note": 69, "velocity": 70, "duration": 114}, {"note": 71, "velocity": 74, "duration": 238}, {"note": 0, "velocity": 0, "duration": 122}, {"note": 69, "velocity": 70, "duration": 93}, {"note": 71, "velocity": 73, "duration": 217}, {"note": 0, "velocity": 0, "duration": 143}, {"note": 69, "velocity": 74, "duration": 86}, {"note": 71, "velocity": 73, "duration": 192}, {"note": 73, "velocity": 74, "duration": 251}, {"note": 71, "velocity": 72, "duration": 124}, {"note": 73, "velocity": 72, "duration": 159}, {"note": 74, "velocity": 78, "duration": 187}, {"note": 73, "velocity": 73, "duration": 124}, {"note": 74, "velocity": 81, "duration": 124}, {"note": 76, "velocity": 76, "duration": 147}, {"note": 74, "velocity": 78, "duration": 122}, {"note": 73, "velocity": 74, "duration": 113}, {"note": 73, "velocity": 73, "duration": 120}, {"note": 74, "velocity": 78, "duration": 94}, {"note": 0, "velocity": 0, "duration": 66}, {"note": 76, "velocity": 73, "duration": 105}, {"note": 76, "velocity": 76, "duration": 102}, {"note": 74, "velocity": 75, "duration": 105}, {"note": 73, "velocity": 73, "duration": 93}, {"note": 0, "velocity": 0, "duration": 67}, {"note": 73, "velocity": 75, "duration": 199}, {"note": 81, "velocity": 73, "duration": 198}, {"note": 76, "velocity": 74, "duration": 128}, {"note": 74, "velocity": 73, "duration": 123}, {"note": 73, "velocity": 72, "duration": 102}, {"note": 73, "velocity": 74, "duration": 124}, {"note": 74, "velocity": 74, "duration": 105}, {"note": 76, "velocity": 73, "duration": 105}, {"note": 76, "velocity": 73, "duration": 116}, {"note": 74, "velocity": 76, "duration": 131}, {"note": 73, "velocity": 72, "duration": 119}, {"note": 73, "velocity": 74, "duration": 153}, {"note": 0, "velocity": 0, "duration": 87}, {"note": 69, "velocity": 76, "duration": 82}, {"note": 71, "velocity": 70, "duration": 84}, {"note": 73, "velocity": 74, "duration": 193}, {"note": 76, "velocity": 78, "duration": 166}, {"note": 0, "velocity": 0, "duration": 74}, {"note": 76, "velocity": 76, "duration": 174}, {"note": 0, "velocity": 0, "duration": 66}, {"note": 69, "velocity": 73, "duration": 69}, {"note": 71, "velocity": 73, "duration": 81}, {"note": 73, "velocity": 72, "duration": 193}, {"note": 76, "velocity": 74, "duration": 173}, {"note": 0, "velocity": 0, "duration": 67}, {"note": 76, "velocity": 77, "duration": 195}, {"note": 69, "velocity": 70, "duration": 114}, {"note": 71, "velocity": 74, "duration": 238}, {"note": 0, "velocity": 0, "duration": 122}, {"note": 69, "velocity": 70, "duration": 93}, {"note": 71, "velocity": 73, "duration": 217}, {"note": 0, "velocity": 0, "duration": 143}, {"note": 69, "velocity": 74, "duration": 86}, {"note": 71, "velocity": 73, "duration": 131}, {"note": 73, "velocity": 74, "duration": 251}, {"note": 74, "velocity": 72, "duration": 272}, {"note": 76, "velocity": 78, "duration": 256}, {"note": 81, "velocity": 73, "duration": 1200}, {"note": 69, "velocity": 72, "duration": 231}, {"note": 64, "velocity": 76, "duration": 224}, {"note": 73, "velocity": 71, "duration": 225}, {"note": 69, "velocity": 73, "duration": 234}, {"note": 74, "velocity": 81, "duration": 216}, {"note": 73, "velocity": 73, "duration": 109}, {"note": 69, "velocity": 69, "duration": 143}, {"note": 71, "velocity": 73, "duration": 108}, {"note": 73, "velocity": 73, "duration": 130}, {"note": 71, "velocity": 76, "duration": 174}, {"note": 0, "velocity": 0, "duration": 66}, {"note": 69, "velocity": 71, "duration": 236}, {"note": 64, "velocity": 74, "duration": 189}, {"note": 73, "velocity": 63, "duration": 223}, {"note": 69, "velocity": 73, "duration": 239}, {"note": 74, "velocity": 81, "duration": 264}, {"note": 73, "velocity": 76, "duration": 112}, {"note": 69, "velocity": 66, "duration": 124}, {"note": 71, "velocity": 74, "duration": 125}, {"note": 73, "velocity": 72, "duration": 143}, {"note": 71, "velocity": 73, "duration": 213}, {"note": 69, "velocity": 72, "duration": 231}, {"note": 64, "velocity": 76, "duration": 224}, {"note": 73, "velocity": 71, "duration": 225}, {"note": 69, "velocity": 73, "duration": 234}, {"note": 74, "velocity": 81, "duration": 216}, {"note": 73, "velocity": 73, "duration": 109}, {"note": 69, "velocity": 69, "duration": 143}, {"note": 71, "velocity": 73, "duration": 108}, {"note": 73, "velocity": 73, "duration": 130}, {"note": 71, "velocity": 76, "duration": 174}, {"note": 0, "velocity": 0, "duration": 66}, {"note": 68, "velocity": 71, "duration": 236}, {"note": 64, "velocity": 74, "duration": 189}, {"note": 69, "velocity": 63, "duration": 223}, {"note": 64, "velocity": 73, "duration": 239}, {"note": 71, "velocity": 81, "duration": 264}, {"note": 69, "velocity": 76, "duration": 112}, {"note": 68, "velocity": 66, "duration": 124}, {"note": 69, "velocity": 74, "duration": 240}, {"note": 71, "velocity": 72, "duration": 240}, {"note": 69, "velocity": 72, "duration": 231}, {"note": 64, "velocity": 76, "duration": 224}, {"note": 73, "velocity": 71, "duration": 225}, {"note": 69, "velocity": 73, "duration": 234}, {"note": 74, "velocity": 81, "duration": 216}, {"note": 73, "velocity": 73, "duration": 109}, {"note": 69, "velocity": 69, "duration": 143}, {"note": 71, "velocity": 73, "duration": 108}, {"note": 73, "velocity": 73, "duration": 130}, {"note": 71, "velocity": 76, "duration": 174}, {"note": 0, "velocity": 0, "duration": 66}, {"note": 69, "velocity": 71, "duration": 236}, {"note": 64, "velocity": 74, "duration": 189}, {"note": 73, "velocity": 63, "duration": 223}, {"note": 69, "velocity": 73, "duration": 239}, {"note": 74, "velocity": 81, "duration": 264}, {"note": 73, "velocity": 76, "duration": 112}, {"note": 69, "velocity": 66, "duration": 124}, {"note": 71, "velocity": 74, "duration": 125}, {"note": 73, "velocity": 72, "duration": 143}, {"note": 71, "velocity": 73, "duration": 213}, {"note": 69, "velocity": 72, "duration": 231}, {"note": 64, "velocity": 76, "duration": 224}, {"note": 73, "velocity": 71, "duration": 225}, {"note": 69, "velocity": 73, "duration": 234}, {"note": 74, "velocity": 81, "duration": 216}, {"note": 73, "velocity": 73, "duration": 109}, {"note": 69, "velocity": 69, "duration": 143}, {"note": 71, "velocity": 73, "duration": 108}, {"note": 73, "velocity": 73, "duration": 130}, {"note": 71, "velocity": 76, "duration": 174}, {"note": 0, "velocity": 0, "duration": 66}, {"note": 68, "velocity": 71, "duration": 236}, {"note": 64, "velocity": 74, "duration": 189}, {"note": 69, "velocity": 63, "duration": 223}, {"note": 64, "velocity": 73, "duration": 239}, {"note": 74, "velocity": 81, "duration": 264}, {"note": 73, "velocity": 76, "duration": 112}, {"note": 69, "velocity": 66, "duration": 124}, {"note": 71, "velocity": 74, "duration": 120}, {"note": 73, "velocity": 73, "duration": 120}, {"note": 71, "velocity": 72, "duration": 240}, {"note": 69, "velocity": 72, "duration": 231}, {"note": 64, "velocity": 76, "duration": 224}, {"note": 73, "velocity": 71, "duration": 225}, {"note": 69, "velocity": 73, "duration": 234}, {"note": 74, "velocity": 81, "duration": 216}, {"note": 73, "velocity": 73, "duration": 109}, {"note": 69, "velocity": 69, "duration": 143}, {"note": 71, "velocity": 73, "duration": 108}, {"note": 73, "velocity": 73, "duration": 130}, {"note": 71, "velocity": 76, "duration": 174}, {"note": 0, "velocity": 0, "duration": 66}, {"note": 69, "velocity": 71, "duration": 236}, {"note": 64, "velocity": 74, "duration": 189}, {"note": 73, "velocity": 63, "duration": 223}, {"note": 69, "velocity": 73, "duration": 239}, {"note": 74, "velocity": 76, "duration": 275}, {"note": 73, "velocity": 68, "duration": 156}, {"note": 69, "velocity": 61, "duration": 166}, {"note": 71, "velocity": 70, "duration": 154}, {"note": 73, "velocity": 71, "duration": 166}, {"note": 71, "velocity": 73, "duration": 195}, {"note": 0, "velocity": 0, "duration": 108}, {"note": 69, "velocity": 70, "duration": 249}, {"note": 64, "velocity": 65, "duration": 232}, {"note": 73, "velocity": 74, "duration": 270}, {"note": 69, "velocity": 69, "duration": 120}, {"note": 0, "velocity": 0, "duration": 112}, {"note": 69, "velocity": 79, "duration": 304}, {"note": 64, "velocity": 58, "duration": 335}, {"note": 73, "velocity": 69, "duration": 325}, {"note": 69, "velocity": 60, "duration": 1623}]]