[[{"note": 67, "velocity": 76, "duration": 279}, {"note": 76, "velocity": 80, "duration": 457}, {"note": 74, "velocity": 78, "duration": 279}, {"note": 76, "velocity": 79, "duration": 928}, {"note": 79, "velocity": 76, "duration": 198}, {"note": 79, "velocity": 75, "duration": 494}, {"note": 74, "velocity": 70, "duration": 238}, {"note": 76, "velocity": 75, "duration": 1352}, {"note": 0, "velocity": 0, "duration": 328}, {"note": 76, "velocity": 85, "duration": 183}, {"note": 74, "velocity": 75, "duration": 199}, {"note": 72, "velocity": 76, "duration": 550}, {"note": 0, "velocity": 0, "duration": 170}, {"note": 72, "velocity": 74, "duration": 173}, {"note": 0, "velocity": 0, "duration": 67}, {"note": 72, "velocity": 74, "duration": 209}, {"note": 74, "velocity": 80, "duration": 246}, {"note": 72, "velocity": 75, "duration": 236}, {"note": 76, "velocity": 75, "duration": 1505}, {"note": 0, "velocity": 0, "duration": 175}, {"note": 69, "velocity": 74, "duration": 187}, {"note": 72, "velocity": 80, "duration": 246}, {"note": 74, "velocity": 76, "duration": 185}, {"note": 74, "velocity": 77, "duration": 650}, {"note": 0, "velocity": 0, "duration": 70}, {"note": 74, "velocity": 78, "duration": 414}, {"note": 0, "velocity": 0, "duration": 66}, {"note": 72, "velocity": 72, "duration": 231}, {"note": 76, "velocity": 76, "duration": 487}, {"note": 79, "velocity": 76, "duration": 1021}, {"note": 0, "velocity": 0, "duration": 179}, {"note": 69, "velocity": 75, "duration": 187}, {"note": 72, "velocity": 76, "duration": 188}, {"note": 74, "velocity": 76, "duration": 159}, {"note": 0, "velocity": 0, "duration": 81}, {"note": 74, "velocity": 77, "duration": 392}, {"note": 0, "velocity": 0, "duration": 88}, {"note": 76, "velocity": 77, "duration": 255}, {"note": 74, "velocity": 79, "duration": 462}, {"note": 72, "velocity": 71, "duration": 276}, {"note": 74, "velocity": 76, "duration": 892}, {"note": 0, "velocity": 0, "duration": 68}, {"note": 67, "velocity": 76, "duration": 279}, {"note": 76, "velocity": 80, "duration": 457}, {"note": 74, "velocity": 78, "duration": 279}, {"note": 76, "velocity": 79, "duration": 928}, {"note": 79, "velocity": 76, "duration": 198}, {"note": 79, "velocity": 75, "duration": 494}, {"note": 74, "velocity": 70, "duration": 238}, {"note": 76, "velocity": 75, "duration": 1352}, {"note": 0, "velocity": 0, "duration": 328}, {"note": 76, "velocity": 85, "duration": 183}, {"note": 74, "velocity": 75, "duration": 199}, {"note": 72, "velocity": 76, "duration": 478}, {"note": 72, "velocity": 74, "duration": 173}, {"note": 0, "velocity": 0, "duration": 67}, {"note": 72, "velocity": 74, "duration": 478}, {"note": 74, "velocity": 80, "duration": 246}, {"note": 72, "velocity": 75, "duration": 236}, {"note": 76, "velocity": 75, "duration": 1505}, {"note": 0, "velocity": 0, "duration": 175}, {"note": 69, "velocity": 74, "duration": 187}, {"note": 72, "velocity": 80, "duration": 246}, {"note": 74, "velocity": 76, "duration": 185}, {"note": 74, "velocity": 77, "duration": 478}, {"note": 74, "velocity": 77, "duration": 238}, {"note": 74, "velocity": 78, "duration": 414}, {"note": 0, "velocity": 0, "duration": 66}, {"note": 72, "velocity": 72, "duration": 231}, {"note": 76, "velocity": 76, "duration": 487}, {"note": 79, "velocity": 76, "duration": 1021}, {"note": 0, "velocity": 0, "duration": 179}, {"note": 76, "velocity": 78, "duration": 266}, {"note": 79, "velocity": 76, "duration": 177}, {"note": 0, "velocity": 0, "duration": 63}, {"note": 81, "velocity": 76, "duration": 169}, {"note": 0, "velocity": 0, "duration": 71}, {"note": 81, "velocity": 78, "duration": 2428}, {"note": 0, "velocity": 0, "duration": 212}, {"note": 81, "velocity": 80, "duration": 367}, {"note": 0, "velocity": 0, "duration": 113}, {"note": 83, "velocity": 75, "duration": 150}, {"note": 0, "velocity": 0, "duration": 90}, {"note": 81, "velocity": 76, "duration": 738}, {"note": 79, "velocity": 76, "duration": 3397}, {"note": 0, "velocity": 0, "duration": 1883}, {"note": 84, "velocity": 78, "duration": 1016}, {"note": 83, "velocity": 77, "duration": 796}, {"note": 0, "velocity": 0, "duration": 164}, {"note": 81, "velocity": 78, "duration": 238}, {"note": 79, "velocity": 78, "duration": 238}, {"note": 79, "velocity": 75, "duration": 238}, {"note": 76, "velocity": 77, "duration": 161}, {"note": 0, "velocity": 0, "duration": 79}, {"note": 79, "velocity": 79, "duration": 442}, {"note": 79, "velocity": 77, "duration": 238}, {"note": 76, "velocity": 77, "duration": 238}, {"note": 79, "velocity": 81, "duration": 209}, {"note": 81, "velocity": 75, "duration": 350}, {"note": 0, "velocity": 0, "duration": 130}, {"note": 79, "velocity": 76, "duration": 530}, {"note": 0, "velocity": 0, "duration": 190}, {"note": 84, "velocity": 80, "duration": 195}, {"note": 83, "velocity": 78, "duration": 183}, {"note": 81, "velocity": 74, "duration": 215}, {"note": 79, "velocity": 75, "duration": 141}, {"note": 0, "velocity": 0, "duration": 99}, {"note": 79, "velocity": 74, "duration": 146}, {"note": 0, "velocity": 0, "duration": 94}, {"note": 76, "velocity": 76, "duration": 169}, {"note": 0, "velocity": 0, "duration": 71}, {"note": 79, "velocity": 78, "duration": 340}, {"note": 0, "velocity": 0, "duration": 140}, {"note": 79, "velocity": 72, "duration": 177}, {"note": 0, "velocity": 0, "duration": 63}, {"note": 76, "velocity": 76, "duration": 215}, {"note": 79, "velocity": 74, "duration": 224}, {"note": 81, "velocity": 73, "duration": 416}, {"note": 0, "velocity": 0, "duration": 64}, {"note": 72, "velocity": 78, "duration": 718}, {"note": 72, "velocity": 76, "duration": 198}, {"note": 84, "velocity": 76, "duration": 163}, {"note": 0, "velocity": 0, "duration": 77}, {"note": 84, "velocity": 78, "duration": 161}, {"note": 0, "velocity": 0, "duration": 79}, {"note": 81, "velocity": 78, "duration": 133}, {"note": 0, "velocity": 0, "duration": 107}, {"note": 81, "velocity": 74, "duration": 130}, {"note": 0, "velocity": 0, "duration": 110}, {"note": 81, "velocity": 74, "duration": 156}, {"note": 0, "velocity": 0, "duration": 84}, {"note": 79, "velocity": 70, "duration": 403}, {"note": 0, "velocity": 0, "duration": 77}, {"note": 72, "velocity": 78, "duration": 175}, {"note": 0, "velocity": 0, "duration": 65}, {"note": 76, "velocity": 68, "duration": 347}, {"note": 0, "velocity": 0, "duration": 133}, {"note": 79, "velocity": 63, "duration": 768}, {"note": 0, "velocity": 0, "duration": 432}, {"note": 67, "velocity": 76, "duration": 209}, {"note": 76, "velocity": 79, "duration": 181}, {"note": 74, "velocity": 75, "duration": 144}, {"note": 0, "velocity": 0, "duration": 96}, {"note": 74, "velocity": 76, "duration": 130}, {"note": 0, "velocity": 0, "duration": 110}, {"note": 74, "velocity": 76, "duration": 131}, {"note": 0, "velocity": 0, "duration": 109}, {"note": 74, "velocity": 80, "duration": 146}, {"note": 0, "velocity": 0, "duration": 94}, {"note": 74, "velocity": 76, "duration": 443}, {"note": 72, "velocity": 72, "duration": 257}, {"note": 76, "velocity": 76, "duration": 503}, {"note": 74, "velocity": 83, "duration": 690}, {"note": 84, "velocity": 78, "duration": 478}, {"note": 83, "velocity": 77, "duration": 478}, {"note": 81, "velocity": 78, "duration": 238}, {"note": 79, "velocity": 78, "duration": 238}, {"note": 79, "velocity": 75, "duration": 238}, {"note": 76, "velocity": 77, "duration": 161}, {"note": 0, "velocity": 0, "duration": 79}, {"note": 79, "velocity": 79, "duration": 442}, {"note": 79, "velocity": 77, "duration": 238}, {"note": 76, "velocity": 77, "duration": 238}, {"note": 79, "velocity": 81, "duration": 209}, {"note": 81, "velocity": 75, "duration": 350}, {"note": 0, "velocity": 0, "duration": 130}, {"note": 79, "velocity": 76, "duration": 530}, {"note": 0, "velocity": 0, "duration": 190}, {"note": 84, "velocity": 80, "duration": 195}, {"note": 83, "velocity": 78, "duration": 183}, {"note": 81, "velocity": 74, "duration": 215}, {"note": 79, "velocity": 75, "duration": 141}, {"note": 0, "velocity": 0, "duration": 99}, {"note": 79, "velocity": 74, "duration": 146}, {"note": 0, "velocity": 0, "duration": 94}, {"note": 76, "velocity": 76, "duration": 169}, {"note": 0, "velocity": 0, "duration": 71}, {"note": 79, "velocity": 78, "duration": 340}, {"note": 0, "velocity": 0, "duration": 140}, {"note": 79, "velocity": 72, "duration": 177}, {"note": 0, "velocity": 0, "duration": 63}, {"note": 76, "velocity": 76, "duration": 215}, {"note": 79, "velocity": 74, "duration": 224}, {"note": 81, "velocity": 73, "duration": 416}, {"note": 0, "velocity": 0, "duration": 64}, {"note": 72, "velocity": 78, "duration": 718}, {"note": 72, "velocity": 76, "duration": 198}, {"note": 84, "velocity": 76, "duration": 163}, {"note": 0, "velocity": 0, "duration": 77}, {"note": 84, "velocity": 78, "duration": 161}, {"note": 0, "velocity": 0, "duration": 79}, {"note": 81, "velocity": 78, "duration": 133}, {"note": 0, "velocity": 0, "duration": 107}, {"note": 81, "velocity": 74, "duration": 130}, {"note": 0, "velocity": 0, "duration": 110}, {"note": 81, "velocity": 74, "duration": 156}, {"note": 0, "velocity": 0, "duration": 84}, {"note": 79, "velocity": 70, "duration": 403}, {"note": 0, "velocity": 0, "duration": 77}, {"note": 72, "velocity": 78, "duration": 175}, {"note": 0, "velocity": 0, "duration": 65}, {"note": 76, "velocity": 68, "duration": 347}, {"note": 0, "velocity": 0, "duration": 133}, {"note": 79, "velocity": 63, "duration": 768}, {"note": 0, "velocity": 0, "duration": 432}, {"note": 67, "velocity": 76, "duration": 209}, {"note": 76, "velocity": 79, "duration": 181}, {"note": 74, "velocity": 75, "duration": 144}, {"note": 0, "velocity": 0, "duration": 96}, {"note": 74, "velocity": 76, "duration": 478}, {"note": 72, "velocity": 72, "duration": 257}, {"note": 74, "velocity": 76, "duration": 1438}, {"note": 0, "velocity": 0, "duration": 242}, {"note": 67, "velocity": 74, "duration": 256}, {"note": 76, "velocity": 81, "duration": 550}, {"note": 74, "velocity": 81, "duration": 281}, {"note": 72, "velocity": 74, "duration": 125}, {"note": 0, "velocity": 0, "duration": 115}, {"note": 72, "velocity": 80, "duration": 2539}, {"note": 0, "velocity": 0, "duration": 34661}, {"note": 67, "velocity": 76, "duration": 279}, {"note": 76, "velocity": 80, "duration": 457}, {"note": 74, "velocity": 78, "duration": 279}, {"note": 76, "velocity": 79, "duration": 928}, {"note": 79, "velocity": 76, "duration": 198}, {"note": 79, "velocity": 75, "duration": 494}, {"note": 74, "velocity": 70, "duration": 238}, {"note": 76, "velocity": 75, "duration": 1352}, {"note": 0, "velocity": 0, "duration": 328}, {"note": 76, "velocity": 85, "duration": 183}, {"note": 74, "velocity": 75, "duration": 199}, {"note": 72, "velocity": 76, "duration": 550}, {"note": 0, "velocity": 0, "duration": 170}, {"note": 72, "velocity": 74, "duration": 173}, {"note": 0, "velocity": 0, "duration": 67}, {"note": 72, "velocity": 74, "duration": 209}, {"note": 74, "velocity": 80, "duration": 246}, {"note": 72, "velocity": 75, "duration": 236}, {"note": 76, "velocity": 75, "duration": 1505}, {"note": 0, "velocity": 0, "duration": 175}, {"note": 69, "velocity": 74, "duration": 187}, {"note": 72, "velocity": 80, "duration": 246}, {"note": 74, "velocity": 76, "duration": 185}, {"note": 74, "velocity": 77, "duration": 650}, {"note": 0, "velocity": 0, "duration": 70}, {"note": 74, "velocity": 78, "duration": 414}, {"note": 0, "velocity": 0, "duration": 66}, {"note": 72, "velocity": 72, "duration": 231}, {"note": 76, "velocity": 76, "duration": 487}, {"note": 79, "velocity": 76, "duration": 1021}, {"note": 0, "velocity": 0, "duration": 179}, {"note": 69, "velocity": 75, "duration": 187}, {"note": 72, "velocity": 76, "duration": 188}, {"note": 74, "velocity": 76, "duration": 159}, {"note": 0, "velocity": 0, "duration": 81}, {"note": 74, "velocity": 77, "duration": 392}, {"note": 0, "velocity": 0, "duration": 88}, {"note": 76, "velocity": 77, "duration": 255}, {"note": 74, "velocity": 79, "duration": 462}, {"note": 72, "velocity": 71, "duration": 276}, {"note": 74, "velocity": 76, "duration": 892}, {"note": 0, "velocity": 0, "duration": 68}, {"note": 67, "velocity": 76, "duration": 279}, {"note": 76, "velocity": 80, "duration": 457}, {"note": 74, "velocity": 78, "duration": 279}, {"note": 76, "velocity": 79, "duration": 928}, {"note": 79, "velocity": 76, "duration": 198}, {"note": 79, "velocity": 75, "duration": 494}, {"note": 74, "velocity": 70, "duration": 238}, {"note": 76, "velocity": 75, "duration": 1352}, {"note": 0, "velocity": 0, "duration": 328}, {"note": 76, "velocity": 85, "duration": 183}, {"note": 74, "velocity": 75, "duration": 199}, {"note": 72, "velocity": 76, "duration": 478}, {"note": 72, "velocity": 74, "duration": 173}, {"note": 0, "velocity": 0, "duration": 67}, {"note": 72, "velocity": 74, "duration": 478}, {"note": 74, "velocity": 80, "duration": 246}, {"note": 72, "velocity": 75, "duration": 236}, {"note": 76, "velocity": 75, "duration": 1505}, {"note": 0, "velocity": 0, "duration": 175}, {"note": 69, "velocity": 74, "duration": 187}, {"note": 72, "velocity": 80, "duration": 246}, {"note": 74, "velocity": 76, "duration": 185}, {"note": 74, "velocity": 77, "duration": 478}, {"note": 74, "velocity": 77, "duration": 238}, {"note": 74, "velocity": 78, "duration": 414}, {"note": 0, "velocity": 0, "duration": 66}, {"note": 72, "velocity": 72, "duration": 231}, {"note": 76, "velocity": 76, "duration": 487}, {"note": 79, "velocity": 76, "duration": 1021}, {"note": 0, "velocity": 0, "duration": 179}, {"note": 76, "velocity": 78, "duration": 266}, {"note": 79, "velocity": 76, "duration": 177}, {"note": 0, "velocity": 0, "duration": 63}, {"note": 81, "velocity": 76, "duration": 169}, {"note": 0, "velocity": 0, "duration": 71}, {"note": 81, "velocity": 78, "duration": 2428}, {"note": 0, "velocity": 0, "duration": 212}, {"note": 81, "velocity": 80, "duration": 367}, {"note": 0, "velocity": 0, "duration": 113}, {"note": 83, "velocity": 75, "duration": 150}, {"note": 0, "velocity": 0, "duration": 90}, {"note": 81, "velocity": 76, "duration": 738}, {"note": 79, "velocity": 76, "duration": 3397}, {"note": 0, "velocity": 0, "duration": 1883}, {"note": 84, "velocity": 78, "duration": 1016}, {"note": 83, "velocity": 77, "duration": 796}, {"note": 0, "velocity": 0, "duration": 164}, {"note": 81, "velocity": 78, "duration": 238}, {"note": 79, "velocity": 78, "duration": 238}, {"note": 79, "velocity": 75, "duration": 238}, {"note": 76, "velocity": 77, "duration": 161}, {"note": 0, "velocity": 0, "duration": 79}, {"note": 79, "velocity": 79, "duration": 442}, {"note": 79, "velocity": 77, "duration": 238}, {"note": 76, "velocity": 77, "duration": 238}, {"note": 79, "velocity": 81, "duration": 209}, {"note": 81, "velocity": 75, "duration": 350}, {"note": 0, "velocity": 0, "duration": 130}, {"note": 79, "velocity": 76, "duration": 530}, {"note": 0, "velocity": 0, "duration": 190}, {"note": 84, "velocity": 80, "duration": 195}, {"note": 83, "velocity": 78, "duration": 183}, {"note": 81, "velocity": 74, "duration": 215}, {"note": 79, "velocity": 75, "duration": 141}, {"note": 0, "velocity": 0, "duration": 99}, {"note": 79, "velocity": 74, "duration": 146}, {"note": 0, "velocity": 0, "duration": 94}, {"note": 76, "velocity": 76, "duration": 169}, {"note": 0, "velocity": 0, "duration": 71}, {"note": 79, "velocity": 78, "duration": 340}, {"note": 0, "velocity": 0, "duration": 140}, {"note": 79, "velocity": 72, "duration": 177}, {"note": 0, "velocity": 0, "duration": 63}, {"note": 76, "velocity": 76, "duration": 215}, {"note": 79, "velocity": 74, "duration": 224}, {"note": 81, "velocity": 73, "duration": 416}, {"note": 0, "velocity": 0, "duration": 64}, {"note": 72, "velocity": 78, "duration": 718}, {"note": 72, "velocity": 76, "duration": 198}, {"note": 84, "velocity": 76, "duration": 163}, {"note": 0, "velocity": 0, "duration": 77}, {"note": 84, "velocity": 78, "duration": 161}, {"note": 0, "velocity": 0, "duration": 79}, {"note": 81, "velocity": 78, "duration": 133}, {"note": 0, "velocity": 0, "duration": 107}, {"note": 81, "velocity": 74, "duration": 130}, {"note": 0, "velocity": 0, "duration": 110}, {"note": 81, "velocity": 74, "duration": 156}, {"note": 0, "velocity": 0, "duration": 84}, {"note": 79, "velocity": 70, "duration": 403}, {"note": 0, "velocity": 0, "duration": 77}, {"note": 72, "velocity": 78, "duration": 175}, {"note": 0, "velocity": 0, "duration": 65}, {"note": 76, "velocity": 68, "duration": 347}, {"note": 0, "velocity": 0, "duration": 133}, {"note": 79, "velocity": 63, "duration": 768}, {"note": 0, "velocity": 0, "duration": 432}, {"note": 67, "velocity": 76, "duration": 209}, {"note": 76, "velocity": 79, "duration": 181}, {"note": 74, "velocity": 75, "duration": 144}, {"note": 0, "velocity": 0, "duration": 96}, {"note": 74, "velocity": 76, "duration": 130}, {"note": 0, "velocity": 0, "duration": 110}, {"note": 74, "velocity": 76, "duration": 131}, {"note": 0, "velocity": 0, "duration": 109}, {"note": 74, "velocity": 80, "duration": 146}, {"note": 0, "velocity": 0, "duration": 94}, {"note": 74, "velocity": 76, "duration": 443}, {"note": 72, "velocity": 72, "duration": 257}, {"note": 76, "velocity": 76, "duration": 503}, {"note": 74, "velocity": 83, "duration": 690}, {"note": 84, "velocity": 78, "duration": 478}, {"note": 83, "velocity": 77, "duration": 478}, {"note": 81, "velocity": 78, "duration": 238}, {"note": 79, "velocity": 78, "duration": 238}, {"note": 79, "velocity": 75, "duration": 238}, {"note": 76, "velocity": 77, "duration": 161}, {"note": 0, "velocity": 0, "duration": 79}, {"note": 79, "velocity": 79, "duration": 442}, {"note": 79, "velocity": 77, "duration": 238}, {"note": 76, "velocity": 77, "duration": 238}, {"note": 79, "velocity": 81, "duration": 209}, {"note": 81, "velocity": 75, "duration": 350}, {"note": 0, "velocity": 0, "duration": 130}, {"note": 79, "velocity": 76, "duration": 530}, {"note": 0, "velocity": 0, "duration": 190}, {"note": 84, "velocity": 80, "duration": 195}, {"note": 83, "velocity": 78, "duration": 183}, {"note": 81, "velocity": 74, "duration": 215}, {"note": 79, "velocity": 75, "duration": 141}, {"note": 0, "velocity": 0, "duration": 99}, {"note": 79, "velocity": 74, "duration": 146}, {"note": 0, "velocity": 0, "duration": 94}, {"note": 76, "velocity": 76, "duration": 169}, {"note": 0, "velocity": 0, "duration": 71}, {"note": 79, "velocity": 78, "duration": 340}, {"note": 0, "velocity": 0, "duration": 140}, {"note": 79, "velocity": 72, "duration": 177}, {"note": 0, "velocity": 0, "duration": 63}, {"note": 76, "velocity": 76, "duration": 215}, {"note": 79, "velocity": 74, "duration": 224}, {"note": 81, "velocity": 73, "duration": 416}, {"note": 0, "velocity": 0, "duration": 64}, {"note": 72, "velocity": 78, "duration": 718}, {"note": 72, "velocity": 76, "duration": 198}, {"note": 84, "velocity": 76, "duration": 163}, {"note": 0, "velocity": 0, "duration": 77}, {"note": 84, "velocity": 78, "duration": 161}, {"note": 0, "velocity": 0, "duration": 79}, {"note": 81, "velocity": 78, "duration": 133}, {"note": 0, "velocity": 0, "duration": 107}, {"note": 81, "velocity": 74, "duration": 130}, {"note": 0, "velocity": 0, "duration": 110}, {"note": 81, "velocity": 74, "duration": 156}, {"note": 0, "velocity": 0, "duration": 84}, {"note": 79, "velocity": 70, "duration": 403}, {"note": 0, "velocity": 0, "duration": 77}, {"note": 72, "velocity": 78, "duration": 175}, {"note": 0, "velocity": 0, "duration": 65}, {"note": 76, "velocity": 68, "duration": 347}, {"note": 0, "velocity": 0, "duration": 133}, {"note": 79, "velocity": 63, "duration": 768}, {"note": 0, "velocity": 0, "duration": 432}, {"note": 67, "velocity": 76, "duration": 209}, {"note": 76, "velocity": 79, "duration": 181}, {"note": 74, "velocity": 75, "duration": 144}, {"note": 0, "velocity": 0, "duration": 96}, {"note": 74, "velocity": 76, "duration": 478}, {"note": 72, "velocity": 72, "duration": 257}, {"note": 74, "velocity": 76, "duration": 1438}, {"note": 0, "velocity": 0, "duration": 242}, {"note": 74, "velocity": 78, "duration": 238}, {"note": 76, "velocity": 75, "duration": 478}, {"note": 84, "velocity": 75, "duration": 238}, {"note": 83, "velocity": 75, "duration": 238}, {"note": 81, "velocity": 78, "duration": 238}, {"note": 79, "velocity": 78, "duration": 238}, {"note": 79, "velocity": 75, "duration": 238}, {"note": 76, "velocity": 77, "duration": 161}, {"note": 0, "velocity": 0, "duration": 79}, {"note": 79, "velocity": 79, "duration": 442}, {"note": 79, "velocity": 77, "duration": 238}, {"note": 76, "velocity": 77, "duration": 238}, {"note": 79, "velocity": 81, "duration": 209}, {"note": 81, "velocity": 75, "duration": 350}, {"note": 0, "velocity": 0, "duration": 130}, {"note": 79, "velocity": 76, "duration": 530}, {"note": 0, "velocity": 0, "duration": 190}, {"note": 84, "velocity": 80, "duration": 195}, {"note": 83, "velocity": 78, "duration": 183}, {"note": 81, "velocity": 74, "duration": 215}, {"note": 79, "velocity": 75, "duration": 141}, {"note": 0, "velocity": 0, "duration": 99}, {"note": 79, "velocity": 74, "duration": 146}, {"note": 0, "velocity": 0, "duration": 94}, {"note": 76, "velocity": 76, "duration": 169}, {"note": 0, "velocity": 0, "duration": 71}, {"note": 79, "velocity": 78, "duration": 340}, {"note": 0, "velocity": 0, "duration": 140}, {"note": 79, "velocity": 72, "duration": 177}, {"note": 0, "velocity": 0, "duration": 63}, {"note": 76, "velocity": 76, "duration": 215}, {"note": 79, "velocity": 74, "duration": 224}, {"note": 81, "velocity": 73, "duration": 416}, {"note": 0, "velocity": 0, "duration": 64}, {"note": 72, "velocity": 78, "duration": 718}, {"note": 72, "velocity": 76, "duration": 198}, {"note": 84, "velocity": 76, "duration": 163}, {"note": 0, "velocity": 0, "duration": 77}, {"note": 84, "velocity": 78, "duration": 161}, {"note": 0, "velocity": 0, "duration": 79}, {"note": 81, "velocity": 78, "duration": 133}, {"note": 0, "velocity": 0, "duration": 107}, {"note": 81, "velocity": 74, "duration": 130}, {"note": 0, "velocity": 0, "duration": 110}, {"note": 81, "velocity": 74, "duration": 156}, {"note": 0, "velocity": 0, "duration": 84}, {"note": 79, "velocity": 70, "duration": 403}, {"note": 0, "velocity": 0, "duration": 77}, {"note": 72, "velocity": 78, "duration": 175}, {"note": 0, "velocity": 0, "duration": 65}, {"note": 76, "velocity": 68, "duration": 347}, {"note": 0, "velocity": 0, "duration": 133}, {"note": 79, "velocity": 63, "duration": 768}, {"note": 0, "velocity": 0, "duration": 432}, {"note": 67, "velocity": 76, "duration": 209}, {"note": 76, "velocity": 79, "duration": 181}, {"note": 74, "velocity": 75, "duration": 144}, {"note": 0, "velocity": 0, "duration": 96}, {"note": 74, "velocity": 76, "duration": 130}, {"note": 0, "velocity": 0, "duration": 110}, {"note": 74, "velocity": 76, "duration": 131}, {"note": 0, "velocity": 0, "duration": 109}, {"note": 74, "velocity": 80, "duration": 146}, {"note": 0, "velocity": 0, "duration": 94}, {"note": 74, "velocity": 76, "duration": 443}, {"note": 72, "velocity": 72, "duration": 257}, {"note": 76, "velocity": 76, "duration": 503}, {"note": 74, "velocity": 83, "duration": 690}, {"note": 84, "velocity": 78, "duration": 478}, {"note": 83, "velocity": 77, "duration": 478}, {"note": 81, "velocity": 78, "duration": 238}, {"note": 79, "velocity": 78, "duration": 238}, {"note": 79, "velocity": 75, "duration": 238}, {"note": 76, "velocity": 77, "duration": 161}, {"note": 0, "velocity": 0, "duration": 79}, {"note": 79, "velocity": 79, "duration": 442}, {"note": 79, "velocity": 77, "duration": 238}, {"note": 76, "velocity": 77, "duration": 238}, {"note": 79, "velocity": 81, "duration": 209}, {"note": 81, "velocity": 75, "duration": 350}, {"note": 0, "velocity": 0, "duration": 130}, {"note": 79, "velocity": 76, "duration": 530}, {"note": 0, "velocity": 0, "duration": 190}, {"note": 84, "velocity": 80, "duration": 195}, {"note": 83, "velocity": 78, "duration": 183}, {"note": 81, "velocity": 74, "duration": 215}, {"note": 79, "velocity": 75, "duration": 141}, {"note": 0, "velocity": 0, "duration": 99}, {"note": 79, "velocity": 74, "duration": 146}, {"note": 0, "velocity": 0, "duration": 94}, {"note": 76, "velocity": 76, "duration": 169}, {"note": 0, "velocity": 0, "duration": 71}, {"note": 79, "velocity": 78, "duration": 340}, {"note": 0, "velocity": 0, "duration": 140}, {"note": 79, "velocity": 72, "duration": 177}, {"note": 0, "velocity": 0, "duration": 63}, {"note": 76, "velocity": 76, "duration": 215}, {"note": 79, "velocity": 74, "duration": 224}, {"note": 81, "velocity": 73, "duration": 416}, {"note": 0, "velocity": 0, "duration": 64}, {"note": 72, "velocity": 78, "duration": 718}, {"note": 72, "velocity": 76, "duration": 198}, {"note": 84, "velocity": 76, "duration": 163}, {"note": 0, "velocity": 0, "duration": 77}, {"note": 84, "velocity": 78, "duration": 161}, {"note": 0, "velocity": 0, "duration": 79}, {"note": 81, "velocity": 78, "duration": 133}, {"note": 0, "velocity": 0, "duration": 107}, {"note": 81, "velocity": 74, "duration": 130}, {"note": 0, "velocity": 0, "duration": 110}, {"note": 81, "velocity": 74, "duration": 156}, {"note": 0, "velocity": 0, "duration": 84}, {"note": 79, "velocity": 70, "duration": 403}, {"note": 0, "velocity": 0, "duration": 77}, {"note": 72, "velocity": 78, "duration": 175}, {"note": 0, "velocity": 0, "duration": 65}, {"note": 76, "velocity": 68, "duration": 347}, {"note": 0, "velocity": 0, "duration": 133}, {"note": 79, "velocity": 63, "duration": 768}, {"note": 0, "velocity": 0, "duration": 432}, {"note": 67, "velocity": 76, "duration": 209}, {"note": 76, "velocity": 79, "duration": 181}, {"note": 74, "velocity": 75, "duration": 144}, {"note": 0, "velocity": 0, "duration": 96}, {"note": 74, "velocity": 76, "duration": 478}, {"note": 72, "velocity": 72, "duration": 257}, {"note": 74, "velocity": 76, "duration": 1438}, {"note": 0, "velocity": 0, "duration": 242}, {"note": 67, "velocity": 74, "duration": 256}, {"note": 76, "velocity": 81, "duration": 550}, {"note": 74, "velocity": 81, "duration": 281}, {"note": 72, "velocity": 74, "duration": 125}, {"note": 0, "velocity": 0, "duration": 115}, {"note": 72, "velocity": 80, "duration": 2539}]]