[[{"note": 64, "velocity": 76, "duration": 374}, {"note": 0, "velocity": 0, "duration": 106}, {"note": 64, "velocity": 77, "duration": 167}, {"note": 0, "velocity": 0, "duration": 73}, {"note": 61, "velocity": 75, "duration": 198}, {"note": 59, "velocity": 77, "duration": 446}, {"note": 61, "velocity": 76, "duration": 253}, {"note": 64, "velocity": 75, "duration": 183}, {"note": 64, "velocity": 77, "duration": 856}, {"note": 0, "velocity": 0, "duration": 1064}, {"note": 64, "velocity": 75, "duration": 360}, {"note": 0, "velocity": 0, "duration": 120}, {"note": 64, "velocity": 76, "duration": 214}, {"note": 61, "velocity": 75, "duration": 219}, {"note": 59, "velocity": 75, "duration": 415}, {"note": 0, "velocity": 0, "duration": 65}, {"note": 61, "velocity": 75, "duration": 236}, {"note": 66, "velocity": 69, "duration": 145}, {"note": 0, "velocity": 0, "duration": 95}, {"note": 66, "velocity": 73, "duration": 853}, {"note": 0, "velocity": 0, "duration": 1067}, {"note": 68, "velocity": 77, "duration": 409}, {"note": 0, "velocity": 0, "duration": 71}, {"note": 64, "velocity": 75, "duration": 251}, {"note": 61, "velocity": 75, "duration": 177}, {"note": 0, "velocity": 0, "duration": 63}, {"note": 68, "velocity": 75, "duration": 420}, {"note": 64, "velocity": 69, "duration": 225}, {"note": 61, "velocity": 76, "duration": 223}, {"note": 66, "velocity": 72, "duration": 651}, {"note": 0, "velocity": 0, "duration": 69}, {"note": 64, "velocity": 73, "duration": 200}, {"note": 61, "velocity": 76, "duration": 685}, {"note": 0, "velocity": 0, "duration": 275}, {"note": 69, "velocity": 77, "duration": 389}, {"note": 0, "velocity": 0, "duration": 91}, {"note": 69, "velocity": 79, "duration": 187}, {"note": 64, "velocity": 75, "duration": 213}, {"note": 61, "velocity": 75, "duration": 217}, {"note": 64, "velocity": 77, "duration": 263}, {"note": 61, "velocity": 76, "duration": 234}, {"note": 66, "velocity": 72, "duration": 1730}, {"note": 0, "velocity": 0, "duration": 430}, {"note": 64, "velocity": 76, "duration": 374}, {"note": 0, "velocity": 0, "duration": 106}, {"note": 64, "velocity": 77, "duration": 167}, {"note": 0, "velocity": 0, "duration": 73}, {"note": 61, "velocity": 75, "duration": 198}, {"note": 59, "velocity": 77, "duration": 446}, {"note": 61, "velocity": 76, "duration": 253}, {"note": 64, "velocity": 75, "duration": 183}, {"note": 64, "velocity": 77, "duration": 856}, {"note": 0, "velocity": 0, "duration": 1064}, {"note": 64, "velocity": 75, "duration": 360}, {"note": 0, "velocity": 0, "duration": 120}, {"note": 64, "velocity": 76, "duration": 214}, {"note": 61, "velocity": 75, "duration": 219}, {"note": 59, "velocity": 75, "duration": 415}, {"note": 0, "velocity": 0, "duration": 65}, {"note": 61, "velocity": 75, "duration": 236}, {"note": 66, "velocity": 69, "duration": 145}, {"note": 0, "velocity": 0, "duration": 95}, {"note": 66, "velocity": 73, "duration": 853}, {"note": 0, "velocity": 0, "duration": 1067}, {"note": 68, "velocity": 77, "duration": 409}, {"note": 0, "velocity": 0, "duration": 71}, {"note": 64, "velocity": 75, "duration": 251}, {"note": 61, "velocity": 75, "duration": 177}, {"note": 0, "velocity": 0, "duration": 63}, {"note": 68, "velocity": 75, "duration": 420}, {"note": 64, "velocity": 69, "duration": 225}, {"note": 61, "velocity": 76, "duration": 223}, {"note": 66, "velocity": 72, "duration": 651}, {"note": 0, "velocity": 0, "duration": 69}, {"note": 64, "velocity": 73, "duration": 200}, {"note": 61, "velocity": 76, "duration": 685}, {"note": 0, "velocity": 0, "duration": 275}, {"note": 69, "velocity": 77, "duration": 389}, {"note": 0, "velocity": 0, "duration": 91}, {"note": 69, "velocity": 79, "duration": 187}, {"note": 64, "velocity": 75, "duration": 213}, {"note": 61, "velocity": 75, "duration": 217}, {"note": 64, "velocity": 77, "duration": 465}, {"note": 66, "velocity": 72, "duration": 1730}, {"note": 0, "velocity": 0, "duration": 430}, {"note": 66, "velocity": 75, "duration": 423}, {"note": 59, "velocity": 81, "duration": 413}, {"note": 0, "velocity": 0, "duration": 67}, {"note": 63, "velocity": 81, "duration": 378}, {"note": 61, "velocity": 75, "duration": 313}, {"note": 64, "velocity": 76, "duration": 1895}, {"note": 0, "velocity": 0, "duration": 2185}, {"note": 68, "velocity": 73, "duration": 246}, {"note": 66, "velocity": 73, "duration": 250}, {"note": 68, "velocity": 76, "duration": 255}, {"note": 66, "velocity": 75, "duration": 246}, {"note": 68, "velocity": 77, "duration": 486}, {"note": 64, "velocity": 72, "duration": 220}, {"note": 61, "velocity": 78, "duration": 243}, {"note": 69, "velocity": 81, "duration": 450}, {"note": 71, "velocity": 79, "duration": 255}, {"note": 69, "velocity": 79, "duration": 284}, {"note": 68, "velocity": 76, "duration": 233}, {"note": 66, "velocity": 74, "duration": 262}, {"note": 64, "velocity": 79, "duration": 434}, {"note": 66, "velocity": 76, "duration": 741}, {"note": 0, "velocity": 0, "duration": 699}, {"note": 73, "velocity": 81, "duration": 217}, {"note": 71, "velocity": 71, "duration": 233}, {"note": 66, "velocity": 78, "duration": 1666}, {"note": 0, "velocity": 0, "duration": 254}, {"note": 68, "velocity": 76, "duration": 240}, {"note": 66, "velocity": 70, "duration": 239}, {"note": 68, "velocity": 76, "duration": 262}, {"note": 66, "velocity": 75, "duration": 243}, {"note": 68, "velocity": 73, "duration": 252}, {"note": 66, "velocity": 76, "duration": 231}, {"note": 64, "velocity": 76, "duration": 392}, {"note": 0, "velocity": 0, "duration": 88}, {"note": 69, "velocity": 77, "duration": 493}, {"note": 71, "velocity": 77, "duration": 240}, {"note": 69, "velocity": 76, "duration": 258}, {"note": 68, "velocity": 77, "duration": 233}, {"note": 64, "velocity": 74, "duration": 404}, {"note": 0, "velocity": 0, "duration": 76}, {"note": 64, "velocity": 77, "duration": 200}, {"note": 66, "velocity": 73, "duration": 800}, {"note": 0, "velocity": 0, "duration": 400}, {"note": 71, "velocity": 76, "duration": 200}, {"note": 73, "velocity": 63, "duration": 205}, {"note": 71, "velocity": 78, "duration": 246}, {"note": 66, "velocity": 72, "duration": 1901}, {"note": 0, "velocity": 0, "duration": 1939}, {"note": 64, "velocity": 76, "duration": 374}, {"note": 0, "velocity": 0, "duration": 106}, {"note": 64, "velocity": 77, "duration": 167}, {"note": 0, "velocity": 0, "duration": 73}, {"note": 61, "velocity": 75, "duration": 198}, {"note": 59, "velocity": 77, "duration": 446}, {"note": 61, "velocity": 76, "duration": 253}, {"note": 64, "velocity": 75, "duration": 183}, {"note": 64, "velocity": 77, "duration": 856}, {"note": 0, "velocity": 0, "duration": 1064}, {"note": 64, "velocity": 75, "duration": 360}, {"note": 0, "velocity": 0, "duration": 120}, {"note": 64, "velocity": 76, "duration": 214}, {"note": 61, "velocity": 75, "duration": 219}, {"note": 59, "velocity": 75, "duration": 415}, {"note": 0, "velocity": 0, "duration": 65}, {"note": 61, "velocity": 75, "duration": 236}, {"note": 66, "velocity": 69, "duration": 145}, {"note": 0, "velocity": 0, "duration": 95}, {"note": 66, "velocity": 73, "duration": 853}, {"note": 0, "velocity": 0, "duration": 1067}, {"note": 68, "velocity": 77, "duration": 409}, {"note": 0, "velocity": 0, "duration": 71}, {"note": 64, "velocity": 75, "duration": 251}, {"note": 61, "velocity": 75, "duration": 177}, {"note": 0, "velocity": 0, "duration": 63}, {"note": 68, "velocity": 75, "duration": 420}, {"note": 64, "velocity": 69, "duration": 225}, {"note": 61, "velocity": 76, "duration": 223}, {"note": 66, "velocity": 72, "duration": 651}, {"note": 0, "velocity": 0, "duration": 69}, {"note": 64, "velocity": 73, "duration": 200}, {"note": 61, "velocity": 76, "duration": 685}, {"note": 0, "velocity": 0, "duration": 275}, {"note": 69, "velocity": 77, "duration": 389}, {"note": 0, "velocity": 0, "duration": 91}, {"note": 69, "velocity": 79, "duration": 187}, {"note": 64, "velocity": 75, "duration": 213}, {"note": 61, "velocity": 75, "duration": 217}, {"note": 64, "velocity": 77, "duration": 263}, {"note": 61, "velocity": 76, "duration": 234}, {"note": 66, "velocity": 72, "duration": 1730}, {"note": 0, "velocity": 0, "duration": 430}, {"note": 66, "velocity": 76, "duration": 374}, {"note": 0, "velocity": 0, "duration": 96}, {"note": 59, "velocity": 77, "duration": 486}, {"note": 63, "velocity": 77, "duration": 446}, {"note": 61, "velocity": 76, "duration": 253}, {"note": 63, "velocity": 75, "duration": 183}, {"note": 64, "velocity": 77, "duration": 1598}, {"note": 0, "velocity": 0, "duration": 23362}, {"note": 64, "velocity": 76, "duration": 374}, {"note": 0, "velocity": 0, "duration": 106}, {"note": 64, "velocity": 77, "duration": 167}, {"note": 0, "velocity": 0, "duration": 73}, {"note": 61, "velocity": 75, "duration": 198}, {"note": 59, "velocity": 77, "duration": 446}, {"note": 61, "velocity": 76, "duration": 253}, {"note": 64, "velocity": 75, "duration": 183}, {"note": 64, "velocity": 77, "duration": 856}, {"note": 0, "velocity": 0, "duration": 1064}, {"note": 64, "velocity": 75, "duration": 360}, {"note": 0, "velocity": 0, "duration": 120}, {"note": 64, "velocity": 76, "duration": 214}, {"note": 61, "velocity": 75, "duration": 219}, {"note": 59, "velocity": 75, "duration": 415}, {"note": 0, "velocity": 0, "duration": 65}, {"note": 61, "velocity": 75, "duration": 236}, {"note": 66, "velocity": 69, "duration": 145}, {"note": 0, "velocity": 0, "duration": 95}, {"note": 66, "velocity": 73, "duration": 853}, {"note": 0, "velocity": 0, "duration": 1067}, {"note": 68, "velocity": 77, "duration": 409}, {"note": 0, "velocity": 0, "duration": 71}, {"note": 64, "velocity": 75, "duration": 251}, {"note": 61, "velocity": 75, "duration": 177}, {"note": 0, "velocity": 0, "duration": 63}, {"note": 68, "velocity": 75, "duration": 420}, {"note": 64, "velocity": 69, "duration": 225}, {"note": 61, "velocity": 76, "duration": 223}, {"note": 66, "velocity": 72, "duration": 651}, {"note": 0, "velocity": 0, "duration": 69}, {"note": 64, "velocity": 73, "duration": 200}, {"note": 61, "velocity": 76, "duration": 685}, {"note": 0, "velocity": 0, "duration": 275}, {"note": 69, "velocity": 77, "duration": 389}, {"note": 0, "velocity": 0, "duration": 91}, {"note": 69, "velocity": 79, "duration": 187}, {"note": 64, "velocity": 75, "duration": 213}, {"note": 61, "velocity": 75, "duration": 217}, {"note": 64, "velocity": 77, "duration": 465}, {"note": 66, "velocity": 72, "duration": 1730}, {"note": 0, "velocity": 0, "duration": 430}, {"note": 66, "velocity": 75, "duration": 423}, {"note": 59, "velocity": 81, "duration": 413}, {"note": 0, "velocity": 0, "duration": 67}, {"note": 63, "velocity": 81, "duration": 378}, {"note": 61, "velocity": 75, "duration": 313}, {"note": 64, "velocity": 76, "duration": 1895}, {"note": 0, "velocity": 0, "duration": 2185}, {"note": 68, "velocity": 73, "duration": 246}, {"note": 66, "velocity": 73, "duration": 250}, {"note": 68, "velocity": 76, "duration": 255}, {"note": 66, "velocity": 75, "duration": 246}, {"note": 68, "velocity": 77, "duration": 486}, {"note": 64, "velocity": 72, "duration": 220}, {"note": 61, "velocity": 78, "duration": 243}, {"note": 69, "velocity": 81, "duration": 450}, {"note": 71, "velocity": 79, "duration": 255}, {"note": 69, "velocity": 79, "duration": 284}, {"note": 68, "velocity": 76, "duration": 233}, {"note": 66, "velocity": 74, "duration": 262}, {"note": 64, "velocity": 79, "duration": 434}, {"note": 66, "velocity": 76, "duration": 741}, {"note": 0, "velocity": 0, "duration": 699}, {"note": 73, "velocity": 81, "duration": 217}, {"note": 71, "velocity": 71, "duration": 233}, {"note": 66, "velocity": 78, "duration": 1666}, {"note": 0, "velocity": 0, "duration": 254}, {"note": 68, "velocity": 76, "duration": 240}, {"note": 66, "velocity": 70, "duration": 239}, {"note": 68, "velocity": 76, "duration": 262}, {"note": 66, "velocity": 75, "duration": 243}, {"note": 68, "velocity": 73, "duration": 252}, {"note": 66, "velocity": 76, "duration": 231}, {"note": 64, "velocity": 76, "duration": 392}, {"note": 0, "velocity": 0, "duration": 88}, {"note": 69, "velocity": 77, "duration": 493}, {"note": 71, "velocity": 77, "duration": 240}, {"note": 69, "velocity": 76, "duration": 258}, {"note": 68, "velocity": 77, "duration": 233}, {"note": 64, "velocity": 74, "duration": 404}, {"note": 0, "velocity": 0, "duration": 76}, {"note": 64, "velocity": 77, "duration": 200}, {"note": 66, "velocity": 73, "duration": 800}, {"note": 0, "velocity": 0, "duration": 400}, {"note": 71, "velocity": 76, "duration": 200}, {"note": 73, "velocity": 63, "duration": 205}, {"note": 71, "velocity": 78, "duration": 246}, {"note": 66, "velocity": 72, "duration": 1901}, {"note": 64, "velocity": 75, "duration": 215}, {"note": 66, "velocity": 72, "duration": 1263}, {"note": 68, "velocity": 76, "duration": 232}, {"note": 64, "velocity": 77, "duration": 236}, {"note": 66, "velocity": 76, "duration": 1970}, {"note": 0, "velocity": 0, "duration": 3790}, {"note": 64, "velocity": 76, "duration": 374}, {"note": 0, "velocity": 0, "duration": 106}, {"note": 64, "velocity": 77, "duration": 167}, {"note": 0, "velocity": 0, "duration": 73}, {"note": 61, "velocity": 75, "duration": 198}, {"note": 59, "velocity": 77, "duration": 446}, {"note": 61, "velocity": 76, "duration": 253}, {"note": 64, "velocity": 75, "duration": 183}, {"note": 64, "velocity": 77, "duration": 856}, {"note": 0, "velocity": 0, "duration": 1064}, {"note": 64, "velocity": 75, "duration": 360}, {"note": 0, "velocity": 0, "duration": 120}, {"note": 64, "velocity": 76, "duration": 214}, {"note": 61, "velocity": 75, "duration": 219}, {"note": 59, "velocity": 75, "duration": 415}, {"note": 0, "velocity": 0, "duration": 65}, {"note": 61, "velocity": 75, "duration": 236}, {"note": 66, "velocity": 69, "duration": 145}, {"note": 0, "velocity": 0, "duration": 95}, {"note": 66, "velocity": 73, "duration": 853}, {"note": 0, "velocity": 0, "duration": 1067}, {"note": 68, "velocity": 77, "duration": 409}, {"note": 0, "velocity": 0, "duration": 71}, {"note": 64, "velocity": 75, "duration": 251}, {"note": 61, "velocity": 75, "duration": 177}, {"note": 0, "velocity": 0, "duration": 63}, {"note": 68, "velocity": 75, "duration": 420}, {"note": 64, "velocity": 69, "duration": 225}, {"note": 61, "velocity": 76, "duration": 223}, {"note": 66, "velocity": 72, "duration": 651}, {"note": 0, "velocity": 0, "duration": 69}, {"note": 64, "velocity": 73, "duration": 200}, {"note": 61, "velocity": 76, "duration": 685}, {"note": 0, "velocity": 0, "duration": 275}, {"note": 69, "velocity": 77, "duration": 389}, {"note": 0, "velocity": 0, "duration": 91}, {"note": 69, "velocity": 79, "duration": 187}, {"note": 64, "velocity": 75, "duration": 213}, {"note": 61, "velocity": 75, "duration": 217}, {"note": 64, "velocity": 77, "duration": 445}, {"note": 66, "velocity": 72, "duration": 1730}, {"note": 0, "velocity": 0, "duration": 375}, {"note": 66, "velocity": 76, "duration": 374}, {"note": 0, "velocity": 0, "duration": 151}, {"note": 59, "velocity": 77, "duration": 486}, {"note": 63, "velocity": 77, "duration": 446}, {"note": 61, "velocity": 76, "duration": 253}, {"note": 63, "velocity": 75, "duration": 183}, {"note": 64, "velocity": 77, "duration": 1598}]]