[[{"note": 69, "velocity": 75, "duration": 271}, {"note": 72, "velocity": 83, "duration": 206}, {"note": 72, "velocity": 80, "duration": 220}, {"note": 69, "velocity": 80, "duration": 247}, {"note": 76, "velocity": 79, "duration": 375}, {"note": 79, "velocity": 79, "duration": 390}, {"note": 76, "velocity": 80, "duration": 1211}, {"note": 0, "velocity": 0, "duration": 709}, {"note": 74, "velocity": 80, "duration": 102}, {"note": 72, "velocity": 79, "duration": 69}, {"note": 74, "velocity": 85, "duration": 186}, {"note": 72, "velocity": 81, "duration": 229}, {"note": 69, "velocity": 78, "duration": 251}, {"note": 65, "velocity": 80, "duration": 497}, {"note": 69, "velocity": 75, "duration": 663}, {"note": 65, "velocity": 81, "duration": 472}, {"note": 67, "velocity": 78, "duration": 429}, {"note": 69, "velocity": 74, "duration": 152}, {"note": 0, "velocity": 0, "duration": 88}, {"note": 69, "velocity": 79, "duration": 176}, {"note": 0, "velocity": 0, "duration": 64}, {"note": 69, "velocity": 80, "duration": 190}, {"note": 74, "velocity": 81, "duration": 84}, {"note": 74, "velocity": 83, "duration": 448}, {"note": 0, "velocity": 0, "duration": 152}, {"note": 76, "velocity": 81, "duration": 75}, {"note": 77, "velocity": 77, "duration": 305}, {"note": 76, "velocity": 80, "duration": 229}, {"note": 72, "velocity": 80, "duration": 206}, {"note": 67, "velocity": 77, "duration": 253}, {"note": 69, "velocity": 72, "duration": 480}, {"note": 0, "velocity": 0, "duration": 120}, {"note": 60, "velocity": 81, "duration": 118}, {"note": 72, "velocity": 81, "duration": 131}, {"note": 69, "velocity": 79, "duration": 207}, {"note": 65, "velocity": 78, "duration": 796}, {"note": 0, "velocity": 0, "duration": 284}, {"note": 69, "velocity": 83, "duration": 183}, {"note": 72, "velocity": 80, "duration": 257}, {"note": 74, "velocity": 80, "duration": 240}, {"note": 69, "velocity": 73, "duration": 120}, {"note": 67, "velocity": 75, "duration": 1112}, {"note": 0, "velocity": 0, "duration": 1888}, {"note": 69, "velocity": 75, "duration": 271}, {"note": 72, "velocity": 83, "duration": 206}, {"note": 72, "velocity": 80, "duration": 220}, {"note": 69, "velocity": 80, "duration": 247}, {"note": 76, "velocity": 79, "duration": 375}, {"note": 79, "velocity": 79, "duration": 390}, {"note": 76, "velocity": 80, "duration": 1211}, {"note": 0, "velocity": 0, "duration": 709}, {"note": 74, "velocity": 80, "duration": 102}, {"note": 72, "velocity": 79, "duration": 69}, {"note": 74, "velocity": 85, "duration": 186}, {"note": 77, "velocity": 81, "duration": 229}, {"note": 79, "velocity": 78, "duration": 251}, {"note": 77, "velocity": 80, "duration": 497}, {"note": 81, "velocity": 75, "duration": 663}, {"note": 0, "velocity": 0, "duration": 537}, {"note": 79, "velocity": 80, "duration": 242}, {"note": 77, "velocity": 75, "duration": 482}, {"note": 79, "velocity": 76, "duration": 388}, {"note": 0, "velocity": 0, "duration": 332}, {"note": 74, "velocity": 88, "duration": 238}, {"note": 76, "velocity": 80, "duration": 139}, {"note": 77, "velocity": 79, "duration": 339}, {"note": 79, "velocity": 75, "duration": 239}, {"note": 76, "velocity": 79, "duration": 250}, {"note": 72, "velocity": 71, "duration": 276}, {"note": 69, "velocity": 80, "duration": 248}, {"note": 77, "velocity": 79, "duration": 440}, {"note": 69, "velocity": 81, "duration": 226}, {"note": 72, "velocity": 78, "duration": 250}, {"note": 74, "velocity": 86, "duration": 391}, {"note": 72, "velocity": 68, "duration": 121}, {"note": 71, "velocity": 72, "duration": 597}, {"note": 0, "velocity": 0, "duration": 123}, {"note": 74, "velocity": 82, "duration": 264}, {"note": 77, "velocity": 80, "duration": 256}, {"note": 81, "velocity": 79, "duration": 718}, {"note": 72, "velocity": 80, "duration": 645}, {"note": 0, "velocity": 0, "duration": 75}, {"note": 72, "velocity": 80, "duration": 161}, {"note": 0, "velocity": 0, "duration": 79}, {"note": 72, "velocity": 81, "duration": 441}, {"note": 81, "velocity": 81, "duration": 412}, {"note": 79, "velocity": 74, "duration": 115}, {"note": 77, "velocity": 72, "duration": 620}, {"note": 0, "velocity": 0, "duration": 100}, {"note": 81, "velocity": 80, "duration": 232}, {"note": 79, "velocity": 81, "duration": 258}, {"note": 77, "velocity": 76, "duration": 269}, {"note": 81, "velocity": 79, "duration": 487}, {"note": 76, "velocity": 78, "duration": 522}, {"note": 0, "velocity": 0, "duration": 198}, {"note": 81, "velocity": 79, "duration": 248}, {"note": 79, "velocity": 79, "duration": 285}, {"note": 77, "velocity": 79, "duration": 253}, {"note": 79, "velocity": 76, "duration": 490}, {"note": 77, "velocity": 75, "duration": 505}, {"note": 79, "velocity": 75, "duration": 552}, {"note": 0, "velocity": 0, "duration": 408}, {"note": 74, "velocity": 86, "duration": 90}, {"note": 77, "velocity": 72, "duration": 102}, {"note": 81, "velocity": 80, "duration": 199}, {"note": 79, "velocity": 74, "duration": 72}, {"note": 79, "velocity": 77, "duration": 327}, {"note": 74, "velocity": 85, "duration": 69}, {"note": 77, "velocity": 75, "duration": 85}, {"note": 81, "velocity": 79, "duration": 189}, {"note": 79, "velocity": 74, "duration": 240}, {"note": 79, "velocity": 77, "duration": 240}, {"note": 77, "velocity": 81, "duration": 228}, {"note": 81, "velocity": 77, "duration": 245}, {"note": 84, "velocity": 80, "duration": 139}, {"note": 81, "velocity": 78, "duration": 502}, {"note": 0, "velocity": 0, "duration": 98}, {"note": 81, "velocity": 79, "duration": 263}, {"note": 79, "velocity": 79, "duration": 242}, {"note": 77, "velocity": 79, "duration": 255}, {"note": 81, "velocity": 79, "duration": 240}, {"note": 76, "velocity": 81, "duration": 533}, {"note": 0, "velocity": 0, "duration": 427}, {"note": 81, "velocity": 80, "duration": 228}, {"note": 79, "velocity": 81, "duration": 259}, {"note": 77, "velocity": 79, "duration": 242}, {"note": 79, "velocity": 78, "duration": 479}, {"note": 77, "velocity": 78, "duration": 480}, {"note": 79, "velocity": 80, "duration": 480}, {"note": 0, "velocity": 0, "duration": 360}, {"note": 74, "velocity": 83, "duration": 65}, {"note": 74, "velocity": 83, "duration": 88}, {"note": 77, "velocity": 79, "duration": 96}, {"note": 81, "velocity": 81, "duration": 186}, {"note": 79, "velocity": 74, "duration": 79}, {"note": 79, "velocity": 78, "duration": 319}, {"note": 74, "velocity": 84, "duration": 85}, {"note": 77, "velocity": 74, "duration": 127}, {"note": 81, "velocity": 80, "duration": 225}, {"note": 79, "velocity": 75, "duration": 65}, {"note": 79, "velocity": 79, "duration": 324}, {"note": 74, "velocity": 90, "duration": 83}, {"note": 77, "velocity": 80, "duration": 112}, {"note": 80, "velocity": 86, "duration": 213}, {"note": 79, "velocity": 80, "duration": 183}, {"note": 79, "velocity": 79, "duration": 243}, {"note": 77, "velocity": 75, "duration": 480}, {"note": 73, "velocity": 77, "duration": 447}, {"note": 72, "velocity": 79, "duration": 952}, {"note": 0, "velocity": 0, "duration": 7928}, {"note": 69, "velocity": 75, "duration": 271}, {"note": 72, "velocity": 83, "duration": 206}, {"note": 72, "velocity": 80, "duration": 220}, {"note": 69, "velocity": 80, "duration": 247}, {"note": 76, "velocity": 79, "duration": 375}, {"note": 79, "velocity": 79, "duration": 390}, {"note": 76, "velocity": 80, "duration": 1211}, {"note": 0, "velocity": 0, "duration": 709}, {"note": 74, "velocity": 80, "duration": 102}, {"note": 72, "velocity": 79, "duration": 69}, {"note": 74, "velocity": 85, "duration": 186}, {"note": 77, "velocity": 81, "duration": 229}, {"note": 79, "velocity": 78, "duration": 251}, {"note": 77, "velocity": 80, "duration": 497}, {"note": 81, "velocity": 75, "duration": 663}, {"note": 0, "velocity": 0, "duration": 537}, {"note": 79, "velocity": 80, "duration": 242}, {"note": 77, "velocity": 75, "duration": 482}, {"note": 79, "velocity": 76, "duration": 388}, {"note": 0, "velocity": 0, "duration": 332}, {"note": 74, "velocity": 88, "duration": 238}, {"note": 76, "velocity": 80, "duration": 139}, {"note": 77, "velocity": 79, "duration": 339}, {"note": 79, "velocity": 75, "duration": 239}, {"note": 76, "velocity": 79, "duration": 250}, {"note": 72, "velocity": 71, "duration": 276}, {"note": 69, "velocity": 80, "duration": 248}, {"note": 77, "velocity": 79, "duration": 440}, {"note": 69, "velocity": 81, "duration": 226}, {"note": 72, "velocity": 78, "duration": 250}, {"note": 74, "velocity": 86, "duration": 391}, {"note": 72, "velocity": 68, "duration": 121}, {"note": 71, "velocity": 72, "duration": 597}, {"note": 0, "velocity": 0, "duration": 123}, {"note": 74, "velocity": 82, "duration": 264}, {"note": 77, "velocity": 80, "duration": 256}, {"note": 81, "velocity": 79, "duration": 718}, {"note": 72, "velocity": 80, "duration": 645}, {"note": 0, "velocity": 0, "duration": 75}, {"note": 72, "velocity": 80, "duration": 161}, {"note": 0, "velocity": 0, "duration": 79}, {"note": 72, "velocity": 81, "duration": 441}, {"note": 81, "velocity": 81, "duration": 412}, {"note": 79, "velocity": 74, "duration": 115}, {"note": 77, "velocity": 72, "duration": 620}, {"note": 0, "velocity": 0, "duration": 100}, {"note": 81, "velocity": 80, "duration": 232}, {"note": 79, "velocity": 81, "duration": 258}, {"note": 77, "velocity": 76, "duration": 269}, {"note": 81, "velocity": 79, "duration": 487}, {"note": 76, "velocity": 78, "duration": 522}, {"note": 0, "velocity": 0, "duration": 198}, {"note": 81, "velocity": 79, "duration": 248}, {"note": 79, "velocity": 79, "duration": 285}, {"note": 77, "velocity": 79, "duration": 253}, {"note": 79, "velocity": 76, "duration": 490}, {"note": 77, "velocity": 75, "duration": 505}, {"note": 79, "velocity": 75, "duration": 552}, {"note": 0, "velocity": 0, "duration": 408}, {"note": 74, "velocity": 86, "duration": 90}, {"note": 77, "velocity": 72, "duration": 102}, {"note": 81, "velocity": 80, "duration": 199}, {"note": 79, "velocity": 74, "duration": 72}, {"note": 79, "velocity": 77, "duration": 327}, {"note": 74, "velocity": 85, "duration": 69}, {"note": 77, "velocity": 75, "duration": 85}, {"note": 81, "velocity": 79, "duration": 189}, {"note": 79, "velocity": 74, "duration": 240}, {"note": 79, "velocity": 77, "duration": 240}, {"note": 77, "velocity": 81, "duration": 228}, {"note": 81, "velocity": 77, "duration": 245}, {"note": 84, "velocity": 80, "duration": 139}, {"note": 81, "velocity": 78, "duration": 502}, {"note": 0, "velocity": 0, "duration": 98}, {"note": 81, "velocity": 79, "duration": 263}, {"note": 79, "velocity": 79, "duration": 242}, {"note": 77, "velocity": 79, "duration": 255}, {"note": 81, "velocity": 79, "duration": 240}, {"note": 76, "velocity": 81, "duration": 533}, {"note": 0, "velocity": 0, "duration": 427}, {"note": 81, "velocity": 80, "duration": 228}, {"note": 79, "velocity": 81, "duration": 259}, {"note": 77, "velocity": 79, "duration": 242}, {"note": 79, "velocity": 78, "duration": 479}, {"note": 77, "velocity": 78, "duration": 480}, {"note": 79, "velocity": 80, "duration": 480}, {"note": 0, "velocity": 0, "duration": 360}, {"note": 74, "velocity": 83, "duration": 65}, {"note": 74, "velocity": 83, "duration": 88}, {"note": 77, "velocity": 79, "duration": 96}, {"note": 81, "velocity": 81, "duration": 186}, {"note": 79, "velocity": 74, "duration": 79}, {"note": 79, "velocity": 78, "duration": 319}, {"note": 74, "velocity": 84, "duration": 85}, {"note": 77, "velocity": 74, "duration": 127}, {"note": 81, "velocity": 80, "duration": 225}, {"note": 79, "velocity": 75, "duration": 65}, {"note": 79, "velocity": 79, "duration": 324}, {"note": 74, "velocity": 90, "duration": 83}, {"note": 77, "velocity": 80, "duration": 112}, {"note": 80, "velocity": 86, "duration": 213}, {"note": 79, "velocity": 80, "duration": 183}, {"note": 79, "velocity": 79, "duration": 243}, {"note": 77, "velocity": 75, "duration": 480}, {"note": 84, "velocity": 77, "duration": 240}, {"note": 82, "velocity": 77, "duration": 240}, {"note": 81, "velocity": 79, "duration": 952}, {"note": 0, "velocity": 0, "duration": 13688}, {"note": 72, "velocity": 80, "duration": 161}, {"note": 0, "velocity": 0, "duration": 79}, {"note": 72, "velocity": 81, "duration": 441}, {"note": 81, "velocity": 81, "duration": 412}, {"note": 79, "velocity": 74, "duration": 115}, {"note": 77, "velocity": 72, "duration": 620}, {"note": 0, "velocity": 0, "duration": 100}, {"note": 81, "velocity": 80, "duration": 232}, {"note": 79, "velocity": 81, "duration": 258}, {"note": 77, "velocity": 76, "duration": 269}, {"note": 81, "velocity": 79, "duration": 487}, {"note": 76, "velocity": 78, "duration": 522}, {"note": 0, "velocity": 0, "duration": 198}, {"note": 81, "velocity": 79, "duration": 248}, {"note": 79, "velocity": 79, "duration": 285}, {"note": 77, "velocity": 79, "duration": 253}, {"note": 79, "velocity": 76, "duration": 490}, {"note": 77, "velocity": 75, "duration": 505}, {"note": 79, "velocity": 75, "duration": 552}, {"note": 0, "velocity": 0, "duration": 408}, {"note": 74, "velocity": 86, "duration": 90}, {"note": 77, "velocity": 72, "duration": 102}, {"note": 81, "velocity": 80, "duration": 199}, {"note": 79, "velocity": 74, "duration": 72}, {"note": 79, "velocity": 77, "duration": 327}, {"note": 74, "velocity": 85, "duration": 69}, {"note": 77, "velocity": 75, "duration": 85}, {"note": 81, "velocity": 79, "duration": 189}, {"note": 79, "velocity": 74, "duration": 240}, {"note": 79, "velocity": 77, "duration": 240}, {"note": 77, "velocity": 81, "duration": 228}, {"note": 81, "velocity": 77, "duration": 245}, {"note": 84, "velocity": 80, "duration": 139}, {"note": 81, "velocity": 78, "duration": 502}, {"note": 0, "velocity": 0, "duration": 98}, {"note": 81, "velocity": 79, "duration": 263}, {"note": 79, "velocity": 79, "duration": 242}, {"note": 77, "velocity": 79, "duration": 255}, {"note": 81, "velocity": 79, "duration": 240}, {"note": 76, "velocity": 81, "duration": 533}, {"note": 0, "velocity": 0, "duration": 427}, {"note": 81, "velocity": 80, "duration": 228}, {"note": 79, "velocity": 81, "duration": 259}, {"note": 77, "velocity": 79, "duration": 242}, {"note": 79, "velocity": 78, "duration": 479}, {"note": 77, "velocity": 78, "duration": 480}, {"note": 79, "velocity": 80, "duration": 480}, {"note": 0, "velocity": 0, "duration": 360}, {"note": 74, "velocity": 83, "duration": 65}, {"note": 74, "velocity": 83, "duration": 88}, {"note": 77, "velocity": 79, "duration": 96}, {"note": 81, "velocity": 81, "duration": 186}, {"note": 79, "velocity": 74, "duration": 79}, {"note": 79, "velocity": 78, "duration": 319}, {"note": 74, "velocity": 84, "duration": 85}, {"note": 77, "velocity": 74, "duration": 127}, {"note": 81, "velocity": 80, "duration": 225}, {"note": 79, "velocity": 75, "duration": 65}, {"note": 79, "velocity": 79, "duration": 324}, {"note": 74, "velocity": 90, "duration": 83}, {"note": 77, "velocity": 80, "duration": 112}, {"note": 80, "velocity": 86, "duration": 213}, {"note": 79, "velocity": 80, "duration": 183}, {"note": 79, "velocity": 79, "duration": 243}, {"note": 77, "velocity": 75, "duration": 480}, {"note": 73, "velocity": 77, "duration": 447}, {"note": 72, "velocity": 79, "duration": 952}]]