[[{"note": 67, "velocity": 74, "duration": 217}, {"note": 65, "velocity": 78, "duration": 281}, {"note": 67, "velocity": 79, "duration": 264}, {"note": 70, "velocity": 73, "duration": 167}, {"note": 0, "velocity": 0, "duration": 73}, {"note": 70, "velocity": 83, "duration": 175}, {"note": 0, "velocity": 0, "duration": 65}, {"note": 72, "velocity": 84, "duration": 417}, {"note": 0, "velocity": 0, "duration": 63}, {"note": 70, "velocity": 84, "duration": 634}, {"note": 0, "velocity": 0, "duration": 86}, {"note": 67, "velocity": 82, "duration": 268}, {"note": 70, "velocity": 76, "duration": 162}, {"note": 0, "velocity": 0, "duration": 78}, {"note": 70, "velocity": 82, "duration": 248}, {"note": 72, "velocity": 82, "duration": 495}, {"note": 70, "velocity": 83, "duration": 343}, {"note": 0, "velocity": 0, "duration": 377}, {"note": 72, "velocity": 83, "duration": 189}, {"note": 70, "velocity": 85, "duration": 149}, {"note": 0, "velocity": 0, "duration": 91}, {"note": 70, "velocity": 82, "duration": 161}, {"note": 0, "velocity": 0, "duration": 79}, {"note": 67, "velocity": 74, "duration": 370}, {"note": 0, "velocity": 0, "duration": 110}, {"note": 67, "velocity": 73, "duration": 216}, {"note": 65, "velocity": 77, "duration": 197}, {"note": 67, "velocity": 78, "duration": 1316}, {"note": 0, "velocity": 0, "duration": 364}, {"note": 72, "velocity": 78, "duration": 198}, {"note": 70, "velocity": 88, "duration": 163}, {"note": 0, "velocity": 0, "duration": 77}, {"note": 72, "velocity": 83, "duration": 149}, {"note": 0, "velocity": 0, "duration": 91}, {"note": 75, "velocity": 74, "duration": 142}, {"note": 0, "velocity": 0, "duration": 98}, {"note": 75, "velocity": 78, "duration": 159}, {"note": 0, "velocity": 0, "duration": 81}, {"note": 77, "velocity": 82, "duration": 406}, {"note": 0, "velocity": 0, "duration": 74}, {"note": 75, "velocity": 84, "duration": 476}, {"note": 70, "velocity": 83, "duration": 216}, {"note": 72, "velocity": 79, "duration": 141}, {"note": 0, "velocity": 0, "duration": 99}, {"note": 75, "velocity": 80, "duration": 162}, {"note": 0, "velocity": 0, "duration": 78}, {"note": 75, "velocity": 83, "duration": 175}, {"note": 0, "velocity": 0, "duration": 65}, {"note": 77, "velocity": 79, "duration": 438}, {"note": 75, "velocity": 83, "duration": 349}, {"note": 0, "velocity": 0, "duration": 371}, {"note": 72, "velocity": 75, "duration": 162}, {"note": 0, "velocity": 0, "duration": 78}, {"note": 70, "velocity": 83, "duration": 162}, {"note": 0, "velocity": 0, "duration": 78}, {"note": 72, "velocity": 78, "duration": 135}, {"note": 0, "velocity": 0, "duration": 105}, {"note": 75, "velocity": 82, "duration": 167}, {"note": 0, "velocity": 0, "duration": 73}, {"note": 72, "velocity": 79, "duration": 334}, {"note": 0, "velocity": 0, "duration": 146}, {"note": 70, "velocity": 77, "duration": 158}, {"note": 0, "velocity": 0, "duration": 82}, {"note": 67, "velocity": 76, "duration": 455}, {"note": 65, "velocity": 77, "duration": 1021}, {"note": 0, "velocity": 0, "duration": 659}, {"note": 72, "velocity": 76, "duration": 154}, {"note": 0, "velocity": 0, "duration": 86}, {"note": 72, "velocity": 78, "duration": 138}, {"note": 0, "velocity": 0, "duration": 102}, {"note": 72, "velocity": 76, "duration": 116}, {"note": 0, "velocity": 0, "duration": 124}, {"note": 72, "velocity": 76, "duration": 145}, {"note": 0, "velocity": 0, "duration": 95}, {"note": 72, "velocity": 81, "duration": 387}, {"note": 0, "velocity": 0, "duration": 93}, {"note": 72, "velocity": 82, "duration": 373}, {"note": 0, "velocity": 0, "duration": 107}, {"note": 71, "velocity": 80, "duration": 361}, {"note": 0, "velocity": 0, "duration": 119}, {"note": 71, "velocity": 78, "duration": 167}, {"note": 0, "velocity": 0, "duration": 73}, {"note": 72, "velocity": 81, "duration": 387}, {"note": 0, "velocity": 0, "duration": 93}, {"note": 74, "velocity": 84, "duration": 581}, {"note": 0, "velocity": 0, "duration": 139}, {"note": 75, "velocity": 77, "duration": 154}, {"note": 0, "velocity": 0, "duration": 86}, {"note": 75, "velocity": 74, "duration": 144}, {"note": 0, "velocity": 0, "duration": 96}, {"note": 75, "velocity": 76, "duration": 158}, {"note": 0, "velocity": 0, "duration": 82}, {"note": 75, "velocity": 77, "duration": 176}, {"note": 0, "velocity": 0, "duration": 64}, {"note": 77, "velocity": 78, "duration": 374}, {"note": 0, "velocity": 0, "duration": 106}, {"note": 75, "velocity": 81, "duration": 186}, {"note": 79, "velocity": 83, "duration": 960}, {"note": 77, "velocity": 83, "duration": 480}, {"note": 0, "velocity": 0, "duration": 240}, {"note": 67, "velocity": 77, "duration": 165}, {"note": 0, "velocity": 0, "duration": 75}, {"note": 65, "velocity": 82, "duration": 140}, {"note": 0, "velocity": 0, "duration": 100}, {"note": 67, "velocity": 80, "duration": 139}, {"note": 0, "velocity": 0, "duration": 101}, {"note": 70, "velocity": 82, "duration": 167}, {"note": 0, "velocity": 0, "duration": 73}, {"note": 70, "velocity": 77, "duration": 133}, {"note": 0, "velocity": 0, "duration": 107}, {"note": 67, "velocity": 75, "duration": 133}, {"note": 0, "velocity": 0, "duration": 107}, {"note": 70, "velocity": 78, "duration": 365}, {"note": 0, "velocity": 0, "duration": 115}, {"note": 70, "velocity": 73, "duration": 159}, {"note": 0, "velocity": 0, "duration": 81}, {"note": 72, "velocity": 84, "duration": 400}, {"note": 0, "velocity": 0, "duration": 80}, {"note": 70, "velocity": 82, "duration": 960}, {"note": 0, "velocity": 0, "duration": 240}, {"note": 72, "velocity": 78, "duration": 180}, {"note": 70, "velocity": 86, "duration": 189}, {"note": 72, "velocity": 78, "duration": 148}, {"note": 0, "velocity": 0, "duration": 92}, {"note": 75, "velocity": 83, "duration": 559}, {"note": 0, "velocity": 0, "duration": 161}, {"note": 79, "velocity": 82, "duration": 362}, {"note": 0, "velocity": 0, "duration": 118}, {"note": 82, "velocity": 70, "duration": 163}, {"note": 0, "velocity": 0, "duration": 77}, {"note": 79, "velocity": 78, "duration": 409}, {"note": 0, "velocity": 0, "duration": 71}, {"note": 77, "velocity": 80, "duration": 419}, {"note": 0, "velocity": 0, "duration": 61}, {"note": 70, "velocity": 84, "duration": 170}, {"note": 0, "velocity": 0, "duration": 70}, {"note": 79, "velocity": 84, "duration": 144}, {"note": 0, "velocity": 0, "duration": 96}, {"note": 77, "velocity": 75, "duration": 154}, {"note": 0, "velocity": 0, "duration": 86}, {"note": 75, "velocity": 82, "duration": 145}, {"note": 0, "velocity": 0, "duration": 95}, {"note": 77, "velocity": 84, "duration": 131}, {"note": 0, "velocity": 0, "duration": 109}, {"note": 79, "velocity": 84, "duration": 106}, {"note": 0, "velocity": 0, "duration": 134}, {"note": 79, "velocity": 80, "duration": 123}, {"note": 0, "velocity": 0, "duration": 117}, {"note": 79, "velocity": 78, "duration": 130}, {"note": 0, "velocity": 0, "duration": 110}, {"note": 77, "velocity": 81, "duration": 140}, {"note": 0, "velocity": 0, "duration": 100}, {"note": 79, "velocity": 80, "duration": 148}, {"note": 0, "velocity": 0, "duration": 92}, {"note": 82, "velocity": 83, "duration": 334}, {"note": 0, "velocity": 0, "duration": 146}, {"note": 77, "velocity": 81, "duration": 324}, {"note": 0, "velocity": 0, "duration": 156}, {"note": 77, "velocity": 81, "duration": 140}, {"note": 0, "velocity": 0, "duration": 100}, {"note": 77, "velocity": 82, "duration": 162}, {"note": 0, "velocity": 0, "duration": 78}, {"note": 75, "velocity": 86, "duration": 167}, {"note": 0, "velocity": 0, "duration": 73}, {"note": 77, "velocity": 82, "duration": 158}, {"note": 0, "velocity": 0, "duration": 82}, {"note": 82, "velocity": 83, "duration": 310}, {"note": 0, "velocity": 0, "duration": 170}, {"note": 75, "velocity": 84, "duration": 406}, {"note": 0, "velocity": 0, "duration": 74}, {"note": 75, "velocity": 89, "duration": 167}, {"note": 0, "velocity": 0, "duration": 73}, {"note": 75, "velocity": 86, "duration": 158}, {"note": 0, "velocity": 0, "duration": 82}, {"note": 72, "velocity": 84, "duration": 151}, {"note": 0, "velocity": 0, "duration": 89}, {"note": 75, "velocity": 83, "duration": 383}, {"note": 0, "velocity": 0, "duration": 97}, {"note": 77, "velocity": 82, "duration": 165}, {"note": 0, "velocity": 0, "duration": 75}, {"note": 79, "velocity": 81, "duration": 191}, {"note": 74, "velocity": 77, "duration": 372}, {"note": 0, "velocity": 0, "duration": 108}, {"note": 72, "velocity": 86, "duration": 176}, {"note": 0, "velocity": 0, "duration": 64}, {"note": 72, "velocity": 82, "duration": 405}, {"note": 0, "velocity": 0, "duration": 75}, {"note": 70, "velocity": 84, "duration": 554}, {"note": 0, "velocity": 0, "duration": 646}, {"note": 72, "velocity": 80, "duration": 178}, {"note": 0, "velocity": 0, "duration": 62}, {"note": 70, "velocity": 82, "duration": 186}, {"note": 72, "velocity": 83, "duration": 135}, {"note": 0, "velocity": 0, "duration": 105}, {"note": 75, "velocity": 83, "duration": 361}, {"note": 0, "velocity": 0, "duration": 119}, {"note": 84, "velocity": 85, "duration": 240}, {"note": 82, "velocity": 86, "duration": 240}, {"note": 79, "velocity": 75, "duration": 240}, {"note": 77, "velocity": 67, "duration": 240}, {"note": 75, "velocity": 83, "duration": 720}, {"note": 0, "velocity": 0, "duration": 240}, {"note": 70, "velocity": 85, "duration": 176}, {"note": 0, "velocity": 0, "duration": 64}, {"note": 79, "velocity": 85, "duration": 243}, {"note": 0, "velocity": 0, "duration": 117}, {"note": 77, "velocity": 84, "duration": 248}, {"note": 0, "velocity": 0, "duration": 112}, {"note": 75, "velocity": 85, "duration": 199}, {"note": 75, "velocity": 84, "duration": 252}, {"note": 0, "velocity": 0, "duration": 108}, {"note": 77, "velocity": 83, "duration": 252}, {"note": 0, "velocity": 0, "duration": 108}, {"note": 79, "velocity": 77, "duration": 183}, {"note": 77, "velocity": 80, "duration": 703}, {"note": 70, "velocity": 84, "duration": 170}, {"note": 0, "velocity": 0, "duration": 70}, {"note": 79, "velocity": 84, "duration": 144}, {"note": 0, "velocity": 0, "duration": 96}, {"note": 77, "velocity": 75, "duration": 154}, {"note": 0, "velocity": 0, "duration": 86}, {"note": 75, "velocity": 82, "duration": 145}, {"note": 0, "velocity": 0, "duration": 95}, {"note": 77, "velocity": 84, "duration": 131}, {"note": 0, "velocity": 0, "duration": 109}, {"note": 79, "velocity": 84, "duration": 106}, {"note": 0, "velocity": 0, "duration": 134}, {"note": 79, "velocity": 80, "duration": 123}, {"note": 0, "velocity": 0, "duration": 117}, {"note": 79, "velocity": 78, "duration": 130}, {"note": 0, "velocity": 0, "duration": 110}, {"note": 77, "velocity": 81, "duration": 140}, {"note": 0, "velocity": 0, "duration": 100}, {"note": 79, "velocity": 80, "duration": 148}, {"note": 0, "velocity": 0, "duration": 92}, {"note": 82, "velocity": 83, "duration": 334}, {"note": 0, "velocity": 0, "duration": 146}, {"note": 77, "velocity": 81, "duration": 324}, {"note": 0, "velocity": 0, "duration": 156}, {"note": 77, "velocity": 81, "duration": 140}, {"note": 0, "velocity": 0, "duration": 100}, {"note": 77, "velocity": 82, "duration": 162}, {"note": 0, "velocity": 0, "duration": 78}, {"note": 75, "velocity": 86, "duration": 167}, {"note": 0, "velocity": 0, "duration": 73}, {"note": 77, "velocity": 82, "duration": 158}, {"note": 0, "velocity": 0, "duration": 82}, {"note": 82, "velocity": 83, "duration": 310}, {"note": 0, "velocity": 0, "duration": 170}, {"note": 82, "velocity": 80, "duration": 235}, {"note": 84, "velocity": 84, "duration": 299}, {"note": 0, "velocity": 0, "duration": 61}, {"note": 82, "velocity": 82, "duration": 285}, {"note": 0, "velocity": 0, "duration": 75}, {"note": 80, "velocity": 87, "duration": 179}, {"note": 0, "velocity": 0, "duration": 61}, {"note": 80, "velocity": 89, "duration": 248}, {"note": 0, "velocity": 0, "duration": 112}, {"note": 82, "velocity": 86, "duration": 291}, {"note": 0, "velocity": 0, "duration": 69}, {"note": 84, "velocity": 83, "duration": 171}, {"note": 0, "velocity": 0, "duration": 69}, {"note": 82, "velocity": 83, "duration": 310}, {"note": 82, "velocity": 83, "duration": 320}, {"note": 79, "velocity": 81, "duration": 198}, {"note": 77, "velocity": 84, "duration": 349}, {"note": 75, "velocity": 84, "duration": 366}, {"note": 0, "velocity": 0, "duration": 714}, {"note": 72, "velocity": 80, "duration": 178}, {"note": 0, "velocity": 0, "duration": 62}, {"note": 70, "velocity": 82, "duration": 186}, {"note": 72, "velocity": 83, "duration": 135}, {"note": 0, "velocity": 0, "duration": 105}, {"note": 75, "velocity": 83, "duration": 240}, {"note": 77, "velocity": 83, "duration": 240}, {"note": 75, "velocity": 83, "duration": 240}, {"note": 79, "velocity": 82, "duration": 204}, {"note": 82, "velocity": 83, "duration": 212}, {"note": 84, "velocity": 82, "duration": 198}, {"note": 75, "velocity": 83, "duration": 841}, {"note": 0, "velocity": 0, "duration": 119}, {"note": 70, "velocity": 84, "duration": 184}, {"note": 79, "velocity": 84, "duration": 271}, {"note": 0, "velocity": 0, "duration": 89}, {"note": 77, "velocity": 84, "duration": 234}, {"note": 0, "velocity": 0, "duration": 126}, {"note": 75, "velocity": 82, "duration": 185}, {"note": 75, "velocity": 82, "duration": 282}, {"note": 0, "velocity": 0, "duration": 78}, {"note": 72, "velocity": 84, "duration": 230}, {"note": 0, "velocity": 0, "duration": 130}, {"note": 70, "velocity": 81, "duration": 252}, {"note": 75, "velocity": 80, "duration": 1925}, {"note": 0, "velocity": 0, "duration": 22555}, {"note": 67, "velocity": 74, "duration": 217}, {"note": 65, "velocity": 78, "duration": 281}, {"note": 67, "velocity": 79, "duration": 264}, {"note": 70, "velocity": 73, "duration": 167}, {"note": 0, "velocity": 0, "duration": 73}, {"note": 70, "velocity": 83, "duration": 175}, {"note": 0, "velocity": 0, "duration": 65}, {"note": 72, "velocity": 84, "duration": 417}, {"note": 0, "velocity": 0, "duration": 63}, {"note": 70, "velocity": 84, "duration": 634}, {"note": 0, "velocity": 0, "duration": 86}, {"note": 67, "velocity": 82, "duration": 268}, {"note": 70, "velocity": 76, "duration": 162}, {"note": 0, "velocity": 0, "duration": 78}, {"note": 70, "velocity": 82, "duration": 248}, {"note": 72, "velocity": 82, "duration": 495}, {"note": 70, "velocity": 83, "duration": 343}, {"note": 0, "velocity": 0, "duration": 377}, {"note": 72, "velocity": 83, "duration": 189}, {"note": 70, "velocity": 85, "duration": 149}, {"note": 0, "velocity": 0, "duration": 91}, {"note": 70, "velocity": 82, "duration": 161}, {"note": 0, "velocity": 0, "duration": 79}, {"note": 67, "velocity": 74, "duration": 370}, {"note": 0, "velocity": 0, "duration": 110}, {"note": 67, "velocity": 73, "duration": 216}, {"note": 65, "velocity": 77, "duration": 197}, {"note": 67, "velocity": 78, "duration": 1316}, {"note": 0, "velocity": 0, "duration": 364}, {"note": 72, "velocity": 78, "duration": 198}, {"note": 70, "velocity": 88, "duration": 163}, {"note": 0, "velocity": 0, "duration": 77}, {"note": 72, "velocity": 83, "duration": 149}, {"note": 0, "velocity": 0, "duration": 91}, {"note": 75, "velocity": 74, "duration": 142}, {"note": 0, "velocity": 0, "duration": 98}, {"note": 75, "velocity": 78, "duration": 159}, {"note": 0, "velocity": 0, "duration": 81}, {"note": 77, "velocity": 82, "duration": 406}, {"note": 0, "velocity": 0, "duration": 74}, {"note": 75, "velocity": 84, "duration": 476}, {"note": 70, "velocity": 83, "duration": 216}, {"note": 72, "velocity": 79, "duration": 141}, {"note": 0, "velocity": 0, "duration": 99}, {"note": 75, "velocity": 80, "duration": 162}, {"note": 0, "velocity": 0, "duration": 78}, {"note": 75, "velocity": 83, "duration": 175}, {"note": 0, "velocity": 0, "duration": 65}, {"note": 77, "velocity": 79, "duration": 438}, {"note": 75, "velocity": 83, "duration": 349}, {"note": 0, "velocity": 0, "duration": 371}, {"note": 72, "velocity": 75, "duration": 162}, {"note": 0, "velocity": 0, "duration": 78}, {"note": 70, "velocity": 83, "duration": 162}, {"note": 0, "velocity": 0, "duration": 78}, {"note": 72, "velocity": 78, "duration": 135}, {"note": 0, "velocity": 0, "duration": 105}, {"note": 75, "velocity": 82, "duration": 167}, {"note": 0, "velocity": 0, "duration": 73}, {"note": 72, "velocity": 79, "duration": 334}, {"note": 0, "velocity": 0, "duration": 146}, {"note": 70, "velocity": 77, "duration": 158}, {"note": 0, "velocity": 0, "duration": 82}, {"note": 67, "velocity": 76, "duration": 455}, {"note": 65, "velocity": 77, "duration": 1021}, {"note": 0, "velocity": 0, "duration": 659}, {"note": 72, "velocity": 76, "duration": 154}, {"note": 0, "velocity": 0, "duration": 86}, {"note": 72, "velocity": 78, "duration": 138}, {"note": 0, "velocity": 0, "duration": 102}, {"note": 72, "velocity": 76, "duration": 116}, {"note": 0, "velocity": 0, "duration": 124}, {"note": 72, "velocity": 76, "duration": 145}, {"note": 0, "velocity": 0, "duration": 95}, {"note": 72, "velocity": 81, "duration": 387}, {"note": 0, "velocity": 0, "duration": 93}, {"note": 72, "velocity": 82, "duration": 373}, {"note": 0, "velocity": 0, "duration": 107}, {"note": 71, "velocity": 80, "duration": 361}, {"note": 0, "velocity": 0, "duration": 119}, {"note": 71, "velocity": 78, "duration": 167}, {"note": 0, "velocity": 0, "duration": 73}, {"note": 72, "velocity": 81, "duration": 387}, {"note": 0, "velocity": 0, "duration": 93}, {"note": 74, "velocity": 84, "duration": 581}, {"note": 0, "velocity": 0, "duration": 139}, {"note": 75, "velocity": 77, "duration": 154}, {"note": 0, "velocity": 0, "duration": 86}, {"note": 75, "velocity": 74, "duration": 144}, {"note": 0, "velocity": 0, "duration": 96}, {"note": 75, "velocity": 76, "duration": 158}, {"note": 0, "velocity": 0, "duration": 82}, {"note": 75, "velocity": 77, "duration": 176}, {"note": 0, "velocity": 0, "duration": 64}, {"note": 77, "velocity": 78, "duration": 374}, {"note": 0, "velocity": 0, "duration": 106}, {"note": 75, "velocity": 81, "duration": 186}, {"note": 79, "velocity": 83, "duration": 960}, {"note": 77, "velocity": 83, "duration": 480}, {"note": 0, "velocity": 0, "duration": 240}, {"note": 67, "velocity": 77, "duration": 165}, {"note": 0, "velocity": 0, "duration": 75}, {"note": 65, "velocity": 82, "duration": 140}, {"note": 0, "velocity": 0, "duration": 100}, {"note": 67, "velocity": 80, "duration": 139}, {"note": 0, "velocity": 0, "duration": 101}, {"note": 70, "velocity": 82, "duration": 167}, {"note": 0, "velocity": 0, "duration": 73}, {"note": 70, "velocity": 77, "duration": 133}, {"note": 0, "velocity": 0, "duration": 107}, {"note": 67, "velocity": 75, "duration": 133}, {"note": 0, "velocity": 0, "duration": 107}, {"note": 70, "velocity": 78, "duration": 365}, {"note": 0, "velocity": 0, "duration": 115}, {"note": 70, "velocity": 73, "duration": 159}, {"note": 0, "velocity": 0, "duration": 81}, {"note": 72, "velocity": 84, "duration": 400}, {"note": 0, "velocity": 0, "duration": 80}, {"note": 70, "velocity": 82, "duration": 960}, {"note": 0, "velocity": 0, "duration": 240}, {"note": 72, "velocity": 78, "duration": 180}, {"note": 70, "velocity": 86, "duration": 189}, {"note": 72, "velocity": 78, "duration": 148}, {"note": 0, "velocity": 0, "duration": 92}, {"note": 75, "velocity": 83, "duration": 559}, {"note": 0, "velocity": 0, "duration": 161}, {"note": 79, "velocity": 82, "duration": 362}, {"note": 0, "velocity": 0, "duration": 118}, {"note": 82, "velocity": 70, "duration": 163}, {"note": 0, "velocity": 0, "duration": 77}, {"note": 79, "velocity": 78, "duration": 409}, {"note": 0, "velocity": 0, "duration": 71}, {"note": 77, "velocity": 80, "duration": 419}, {"note": 0, "velocity": 0, "duration": 61}, {"note": 70, "velocity": 84, "duration": 170}, {"note": 0, "velocity": 0, "duration": 70}, {"note": 79, "velocity": 84, "duration": 144}, {"note": 0, "velocity": 0, "duration": 96}, {"note": 77, "velocity": 75, "duration": 154}, {"note": 0, "velocity": 0, "duration": 86}, {"note": 75, "velocity": 82, "duration": 145}, {"note": 0, "velocity": 0, "duration": 95}, {"note": 77, "velocity": 84, "duration": 131}, {"note": 0, "velocity": 0, "duration": 109}, {"note": 79, "velocity": 84, "duration": 106}, {"note": 0, "velocity": 0, "duration": 134}, {"note": 79, "velocity": 80, "duration": 123}, {"note": 0, "velocity": 0, "duration": 117}, {"note": 79, "velocity": 78, "duration": 130}, {"note": 0, "velocity": 0, "duration": 110}, {"note": 77, "velocity": 81, "duration": 140}, {"note": 0, "velocity": 0, "duration": 100}, {"note": 79, "velocity": 80, "duration": 148}, {"note": 0, "velocity": 0, "duration": 92}, {"note": 82, "velocity": 83, "duration": 334}, {"note": 0, "velocity": 0, "duration": 146}, {"note": 77, "velocity": 81, "duration": 324}, {"note": 0, "velocity": 0, "duration": 156}, {"note": 77, "velocity": 81, "duration": 140}, {"note": 0, "velocity": 0, "duration": 100}, {"note": 77, "velocity": 82, "duration": 162}, {"note": 0, "velocity": 0, "duration": 78}, {"note": 75, "velocity": 86, "duration": 167}, {"note": 0, "velocity": 0, "duration": 73}, {"note": 77, "velocity": 82, "duration": 158}, {"note": 0, "velocity": 0, "duration": 82}, {"note": 82, "velocity": 83, "duration": 310}, {"note": 0, "velocity": 0, "duration": 170}, {"note": 75, "velocity": 84, "duration": 406}, {"note": 0, "velocity": 0, "duration": 74}, {"note": 75, "velocity": 89, "duration": 167}, {"note": 0, "velocity": 0, "duration": 73}, {"note": 75, "velocity": 86, "duration": 158}, {"note": 0, "velocity": 0, "duration": 82}, {"note": 72, "velocity": 84, "duration": 151}, {"note": 0, "velocity": 0, "duration": 89}, {"note": 75, "velocity": 83, "duration": 383}, {"note": 0, "velocity": 0, "duration": 97}, {"note": 77, "velocity": 82, "duration": 165}, {"note": 0, "velocity": 0, "duration": 75}, {"note": 79, "velocity": 81, "duration": 191}, {"note": 74, "velocity": 77, "duration": 372}, {"note": 0, "velocity": 0, "duration": 108}, {"note": 72, "velocity": 86, "duration": 176}, {"note": 0, "velocity": 0, "duration": 64}, {"note": 72, "velocity": 82, "duration": 405}, {"note": 0, "velocity": 0, "duration": 75}, {"note": 70, "velocity": 84, "duration": 554}, {"note": 0, "velocity": 0, "duration": 646}, {"note": 72, "velocity": 80, "duration": 178}, {"note": 0, "velocity": 0, "duration": 62}, {"note": 70, "velocity": 82, "duration": 186}, {"note": 72, "velocity": 83, "duration": 135}, {"note": 0, "velocity": 0, "duration": 105}, {"note": 75, "velocity": 83, "duration": 361}, {"note": 0, "velocity": 0, "duration": 119}, {"note": 84, "velocity": 85, "duration": 240}, {"note": 82, "velocity": 86, "duration": 240}, {"note": 79, "velocity": 75, "duration": 240}, {"note": 77, "velocity": 67, "duration": 240}, {"note": 75, "velocity": 83, "duration": 720}, {"note": 0, "velocity": 0, "duration": 240}, {"note": 70, "velocity": 85, "duration": 176}, {"note": 0, "velocity": 0, "duration": 64}, {"note": 79, "velocity": 85, "duration": 243}, {"note": 0, "velocity": 0, "duration": 117}, {"note": 77, "velocity": 84, "duration": 248}, {"note": 0, "velocity": 0, "duration": 112}, {"note": 75, "velocity": 85, "duration": 199}, {"note": 75, "velocity": 84, "duration": 252}, {"note": 0, "velocity": 0, "duration": 108}, {"note": 77, "velocity": 83, "duration": 252}, {"note": 0, "velocity": 0, "duration": 108}, {"note": 79, "velocity": 77, "duration": 183}, {"note": 77, "velocity": 80, "duration": 703}, {"note": 70, "velocity": 84, "duration": 170}, {"note": 0, "velocity": 0, "duration": 70}, {"note": 79, "velocity": 84, "duration": 144}, {"note": 0, "velocity": 0, "duration": 96}, {"note": 77, "velocity": 75, "duration": 154}, {"note": 0, "velocity": 0, "duration": 86}, {"note": 75, "velocity": 82, "duration": 145}, {"note": 0, "velocity": 0, "duration": 95}, {"note": 77, "velocity": 84, "duration": 131}, {"note": 0, "velocity": 0, "duration": 109}, {"note": 79, "velocity": 84, "duration": 106}, {"note": 0, "velocity": 0, "duration": 134}, {"note": 79, "velocity": 80, "duration": 123}, {"note": 0, "velocity": 0, "duration": 117}, {"note": 79, "velocity": 78, "duration": 130}, {"note": 0, "velocity": 0, "duration": 110}, {"note": 77, "velocity": 81, "duration": 140}, {"note": 0, "velocity": 0, "duration": 100}, {"note": 79, "velocity": 80, "duration": 148}, {"note": 0, "velocity": 0, "duration": 92}, {"note": 82, "velocity": 83, "duration": 334}, {"note": 0, "velocity": 0, "duration": 146}, {"note": 77, "velocity": 81, "duration": 324}, {"note": 0, "velocity": 0, "duration": 156}, {"note": 77, "velocity": 81, "duration": 140}, {"note": 0, "velocity": 0, "duration": 100}, {"note": 77, "velocity": 82, "duration": 162}, {"note": 0, "velocity": 0, "duration": 78}, {"note": 75, "velocity": 86, "duration": 167}, {"note": 0, "velocity": 0, "duration": 73}, {"note": 77, "velocity": 82, "duration": 158}, {"note": 0, "velocity": 0, "duration": 82}, {"note": 82, "velocity": 83, "duration": 310}, {"note": 0, "velocity": 0, "duration": 170}, {"note": 82, "velocity": 80, "duration": 235}, {"note": 84, "velocity": 84, "duration": 299}, {"note": 0, "velocity": 0, "duration": 61}, {"note": 82, "velocity": 82, "duration": 285}, {"note": 0, "velocity": 0, "duration": 75}, {"note": 80, "velocity": 87, "duration": 179}, {"note": 0, "velocity": 0, "duration": 61}, {"note": 80, "velocity": 89, "duration": 248}, {"note": 0, "velocity": 0, "duration": 112}, {"note": 82, "velocity": 86, "duration": 291}, {"note": 0, "velocity": 0, "duration": 69}, {"note": 84, "velocity": 83, "duration": 171}, {"note": 0, "velocity": 0, "duration": 69}, {"note": 82, "velocity": 83, "duration": 310}, {"note": 82, "velocity": 83, "duration": 320}, {"note": 79, "velocity": 81, "duration": 198}, {"note": 77, "velocity": 84, "duration": 349}, {"note": 75, "velocity": 84, "duration": 366}, {"note": 0, "velocity": 0, "duration": 714}, {"note": 72, "velocity": 80, "duration": 178}, {"note": 0, "velocity": 0, "duration": 62}, {"note": 70, "velocity": 82, "duration": 186}, {"note": 72, "velocity": 83, "duration": 135}, {"note": 0, "velocity": 0, "duration": 105}, {"note": 75, "velocity": 83, "duration": 240}, {"note": 77, "velocity": 83, "duration": 240}, {"note": 75, "velocity": 83, "duration": 240}, {"note": 79, "velocity": 82, "duration": 204}, {"note": 82, "velocity": 83, "duration": 212}, {"note": 84, "velocity": 82, "duration": 198}, {"note": 75, "velocity": 83, "duration": 841}, {"note": 0, "velocity": 0, "duration": 119}, {"note": 70, "velocity": 84, "duration": 184}, {"note": 79, "velocity": 84, "duration": 271}, {"note": 0, "velocity": 0, "duration": 89}, {"note": 77, "velocity": 84, "duration": 234}, {"note": 0, "velocity": 0, "duration": 126}, {"note": 75, "velocity": 82, "duration": 185}, {"note": 75, "velocity": 82, "duration": 282}, {"note": 0, "velocity": 0, "duration": 78}, {"note": 72, "velocity": 84, "duration": 230}, {"note": 0, "velocity": 0, "duration": 130}, {"note": 70, "velocity": 81, "duration": 252}, {"note": 75, "velocity": 80, "duration": 480}, {"note": 0, "velocity": 0, "duration": 240}, {"note": 70, "velocity": 84, "duration": 170}, {"note": 0, "velocity": 0, "duration": 70}, {"note": 79, "velocity": 84, "duration": 144}, {"note": 0, "velocity": 0, "duration": 96}, {"note": 77, "velocity": 75, "duration": 154}, {"note": 0, "velocity": 0, "duration": 86}, {"note": 75, "velocity": 82, "duration": 145}, {"note": 0, "velocity": 0, "duration": 95}, {"note": 77, "velocity": 84, "duration": 131}, {"note": 0, "velocity": 0, "duration": 109}, {"note": 79, "velocity": 84, "duration": 106}, {"note": 0, "velocity": 0, "duration": 134}, {"note": 79, "velocity": 80, "duration": 123}, {"note": 0, "velocity": 0, "duration": 117}, {"note": 79, "velocity": 78, "duration": 130}, {"note": 0, "velocity": 0, "duration": 110}, {"note": 77, "velocity": 81, "duration": 140}, {"note": 0, "velocity": 0, "duration": 100}, {"note": 79, "velocity": 80, "duration": 148}, {"note": 0, "velocity": 0, "duration": 92}, {"note": 82, "velocity": 83, "duration": 334}, {"note": 0, "velocity": 0, "duration": 146}, {"note": 77, "velocity": 81, "duration": 324}, {"note": 0, "velocity": 0, "duration": 156}, {"note": 77, "velocity": 81, "duration": 140}, {"note": 0, "velocity": 0, "duration": 100}, {"note": 77, "velocity": 82, "duration": 162}, {"note": 0, "velocity": 0, "duration": 78}, {"note": 75, "velocity": 86, "duration": 167}, {"note": 0, "velocity": 0, "duration": 73}, {"note": 77, "velocity": 82, "duration": 158}, {"note": 0, "velocity": 0, "duration": 82}, {"note": 82, "velocity": 83, "duration": 310}, {"note": 0, "velocity": 0, "duration": 170}, {"note": 75, "velocity": 84, "duration": 406}, {"note": 0, "velocity": 0, "duration": 74}, {"note": 75, "velocity": 89, "duration": 167}, {"note": 0, "velocity": 0, "duration": 73}, {"note": 75, "velocity": 86, "duration": 158}, {"note": 0, "velocity": 0, "duration": 82}, {"note": 72, "velocity": 84, "duration": 151}, {"note": 0, "velocity": 0, "duration": 89}, {"note": 75, "velocity": 83, "duration": 383}, {"note": 0, "velocity": 0, "duration": 97}, {"note": 77, "velocity": 82, "duration": 165}, {"note": 0, "velocity": 0, "duration": 75}, {"note": 79, "velocity": 81, "duration": 191}, {"note": 74, "velocity": 77, "duration": 372}, {"note": 0, "velocity": 0, "duration": 108}, {"note": 72, "velocity": 86, "duration": 176}, {"note": 0, "velocity": 0, "duration": 64}, {"note": 72, "velocity": 82, "duration": 405}, {"note": 0, "velocity": 0, "duration": 75}, {"note": 70, "velocity": 84, "duration": 554}, {"note": 0, "velocity": 0, "duration": 646}, {"note": 72, "velocity": 80, "duration": 178}, {"note": 0, "velocity": 0, "duration": 62}, {"note": 70, "velocity": 82, "duration": 186}, {"note": 72, "velocity": 83, "duration": 135}, {"note": 0, "velocity": 0, "duration": 105}, {"note": 75, "velocity": 83, "duration": 361}, {"note": 0, "velocity": 0, "duration": 119}, {"note": 84, "velocity": 85, "duration": 240}, {"note": 82, "velocity": 86, "duration": 240}, {"note": 79, "velocity": 75, "duration": 240}, {"note": 77, "velocity": 67, "duration": 240}, {"note": 75, "velocity": 83, "duration": 720}, {"note": 0, "velocity": 0, "duration": 240}, {"note": 70, "velocity": 85, "duration": 176}, {"note": 0, "velocity": 0, "duration": 64}, {"note": 79, "velocity": 85, "duration": 243}, {"note": 0, "velocity": 0, "duration": 117}, {"note": 77, "velocity": 84, "duration": 248}, {"note": 0, "velocity": 0, "duration": 112}, {"note": 75, "velocity": 85, "duration": 199}, {"note": 75, "velocity": 84, "duration": 252}, {"note": 0, "velocity": 0, "duration": 108}, {"note": 77, "velocity": 83, "duration": 252}, {"note": 0, "velocity": 0, "duration": 108}, {"note": 79, "velocity": 77, "duration": 183}, {"note": 77, "velocity": 80, "duration": 703}, {"note": 70, "velocity": 84, "duration": 170}, {"note": 0, "velocity": 0, "duration": 70}, {"note": 79, "velocity": 84, "duration": 144}, {"note": 0, "velocity": 0, "duration": 96}, {"note": 77, "velocity": 75, "duration": 154}, {"note": 0, "velocity": 0, "duration": 86}, {"note": 75, "velocity": 82, "duration": 145}, {"note": 0, "velocity": 0, "duration": 95}, {"note": 77, "velocity": 84, "duration": 131}, {"note": 0, "velocity": 0, "duration": 109}, {"note": 79, "velocity": 84, "duration": 106}, {"note": 0, "velocity": 0, "duration": 134}, {"note": 79, "velocity": 80, "duration": 123}, {"note": 0, "velocity": 0, "duration": 117}, {"note": 79, "velocity": 78, "duration": 130}, {"note": 0, "velocity": 0, "duration": 110}, {"note": 77, "velocity": 81, "duration": 140}, {"note": 0, "velocity": 0, "duration": 100}, {"note": 79, "velocity": 80, "duration": 148}, {"note": 0, "velocity": 0, "duration": 92}, {"note": 82, "velocity": 83, "duration": 334}, {"note": 0, "velocity": 0, "duration": 146}, {"note": 77, "velocity": 81, "duration": 324}, {"note": 0, "velocity": 0, "duration": 156}, {"note": 77, "velocity": 81, "duration": 140}, {"note": 0, "velocity": 0, "duration": 100}, {"note": 77, "velocity": 82, "duration": 162}, {"note": 0, "velocity": 0, "duration": 78}, {"note": 75, "velocity": 86, "duration": 167}, {"note": 0, "velocity": 0, "duration": 73}, {"note": 77, "velocity": 82, "duration": 158}, {"note": 0, "velocity": 0, "duration": 82}, {"note": 82, "velocity": 83, "duration": 310}, {"note": 0, "velocity": 0, "duration": 170}, {"note": 82, "velocity": 80, "duration": 235}, {"note": 84, "velocity": 84, "duration": 299}, {"note": 0, "velocity": 0, "duration": 61}, {"note": 82, "velocity": 82, "duration": 285}, {"note": 0, "velocity": 0, "duration": 75}, {"note": 80, "velocity": 87, "duration": 179}, {"note": 0, "velocity": 0, "duration": 61}, {"note": 80, "velocity": 89, "duration": 248}, {"note": 0, "velocity": 0, "duration": 112}, {"note": 82, "velocity": 86, "duration": 291}, {"note": 0, "velocity": 0, "duration": 69}, {"note": 84, "velocity": 83, "duration": 171}, {"note": 0, "velocity": 0, "duration": 69}, {"note": 82, "velocity": 83, "duration": 310}, {"note": 82, "velocity": 83, "duration": 320}, {"note": 79, "velocity": 81, "duration": 198}, {"note": 77, "velocity": 84, "duration": 349}, {"note": 75, "velocity": 84, "duration": 366}, {"note": 0, "velocity": 0, "duration": 714}, {"note": 72, "velocity": 80, "duration": 178}, {"note": 0, "velocity": 0, "duration": 62}, {"note": 70, "velocity": 82, "duration": 186}, {"note": 72, "velocity": 83, "duration": 135}, {"note": 0, "velocity": 0, "duration": 105}, {"note": 75, "velocity": 83, "duration": 240}, {"note": 77, "velocity": 83, "duration": 240}, {"note": 75, "velocity": 83, "duration": 240}, {"note": 79, "velocity": 82, "duration": 204}, {"note": 82, "velocity": 83, "duration": 212}, {"note": 84, "velocity": 82, "duration": 198}, {"note": 75, "velocity": 83, "duration": 841}, {"note": 0, "velocity": 0, "duration": 119}, {"note": 70, "velocity": 84, "duration": 184}, {"note": 79, "velocity": 84, "duration": 271}, {"note": 0, "velocity": 0, "duration": 89}, {"note": 77, "velocity": 84, "duration": 234}, {"note": 0, "velocity": 0, "duration": 126}, {"note": 75, "velocity": 82, "duration": 185}, {"note": 75, "velocity": 82, "duration": 282}, {"note": 0, "velocity": 0, "duration": 78}, {"note": 72, "velocity": 84, "duration": 230}, {"note": 0, "velocity": 0, "duration": 130}, {"note": 70, "velocity": 81, "duration": 252}, {"note": 75, "velocity": 80, "duration": 1925}]]