[[{"note": 69, "velocity": 77, "duration": 112}, {"note": 67, "velocity": 71, "duration": 83}, {"note": 69, "velocity": 79, "duration": 224}, {"note": 67, "velocity": 68, "duration": 104}, {"note": 69, "velocity": 76, "duration": 359}, {"note": 67, "velocity": 68, "duration": 132}, {"note": 69, "velocity": 78, "duration": 358}, {"note": 67, "velocity": 71, "duration": 137}, {"note": 69, "velocity": 74, "duration": 1023}, {"note": 0, "velocity": 0, "duration": 1257}, {"note": 69, "velocity": 72, "duration": 104}, {"note": 67, "velocity": 69, "duration": 91}, {"note": 69, "velocity": 78, "duration": 243}, {"note": 67, "velocity": 69, "duration": 126}, {"note": 69, "velocity": 73, "duration": 373}, {"note": 67, "velocity": 66, "duration": 128}, {"note": 69, "velocity": 78, "duration": 370}, {"note": 72, "velocity": 75, "duration": 115}, {"note": 69, "velocity": 73, "duration": 979}, {"note": 0, "velocity": 0, "duration": 341}, {"note": 67, "velocity": 68, "duration": 672}, {"note": 0, "velocity": 0, "duration": 288}, {"note": 69, "velocity": 77, "duration": 112}, {"note": 67, "velocity": 71, "duration": 83}, {"note": 69, "velocity": 79, "duration": 224}, {"note": 67, "velocity": 68, "duration": 104}, {"note": 69, "velocity": 76, "duration": 359}, {"note": 67, "velocity": 68, "duration": 132}, {"note": 69, "velocity": 78, "duration": 358}, {"note": 72, "velocity": 71, "duration": 137}, {"note": 69, "velocity": 74, "duration": 1023}, {"note": 0, "velocity": 0, "duration": 1257}, {"note": 69, "velocity": 72, "duration": 104}, {"note": 67, "velocity": 69, "duration": 91}, {"note": 69, "velocity": 78, "duration": 243}, {"note": 67, "velocity": 69, "duration": 126}, {"note": 69, "velocity": 73, "duration": 373}, {"note": 67, "velocity": 66, "duration": 128}, {"note": 74, "velocity": 78, "duration": 370}, {"note": 72, "velocity": 75, "duration": 115}, {"note": 67, "velocity": 73, "duration": 979}, {"note": 0, "velocity": 0, "duration": 821}, {"note": 65, "velocity": 81, "duration": 242}, {"note": 74, "velocity": 88, "duration": 665}, {"note": 74, "velocity": 91, "duration": 202}, {"note": 76, "velocity": 83, "duration": 215}, {"note": 77, "velocity": 73, "duration": 97}, {"note": 76, "velocity": 86, "duration": 234}, {"note": 72, "velocity": 78, "duration": 122}, {"note": 69, "velocity": 77, "duration": 140}, {"note": 72, "velocity": 79, "duration": 595}, {"note": 0, "velocity": 0, "duration": 365}, {"note": 69, "velocity": 78, "duration": 91}, {"note": 74, "velocity": 84, "duration": 197}, {"note": 69, "velocity": 78, "duration": 96}, {"note": 67, "velocity": 64, "duration": 356}, {"note": 69, "velocity": 72, "duration": 93}, {"note": 70, "velocity": 76, "duration": 366}, {"note": 69, "velocity": 77, "duration": 118}, {"note": 70, "velocity": 77, "duration": 358}, {"note": 69, "velocity": 77, "duration": 129}, {"note": 70, "velocity": 80, "duration": 377}, {"note": 69, "velocity": 77, "duration": 104}, {"note": 72, "velocity": 78, "duration": 367}, {"note": 65, "velocity": 77, "duration": 126}, {"note": 69, "velocity": 72, "duration": 1033}, {"note": 0, "velocity": 0, "duration": 527}, {"note": 65, "velocity": 77, "duration": 102}, {"note": 64, "velocity": 83, "duration": 123}, {"note": 65, "velocity": 79, "duration": 121}, {"note": 74, "velocity": 83, "duration": 809}, {"note": 0, "velocity": 0, "duration": 151}, {"note": 74, "velocity": 88, "duration": 113}, {"note": 79, "velocity": 79, "duration": 237}, {"note": 77, "velocity": 70, "duration": 128}, {"note": 76, "velocity": 79, "duration": 261}, {"note": 72, "velocity": 73, "duration": 121}, {"note": 69, "velocity": 72, "duration": 137}, {"note": 72, "velocity": 78, "duration": 578}, {"note": 0, "velocity": 0, "duration": 262}, {"note": 77, "velocity": 75, "duration": 648}, {"note": 0, "velocity": 0, "duration": 72}, {"note": 67, "velocity": 78, "duration": 248}, {"note": 69, "velocity": 74, "duration": 75}, {"note": 69, "velocity": 80, "duration": 212}, {"note": 70, "velocity": 75, "duration": 90}, {"note": 70, "velocity": 76, "duration": 192}, {"note": 69, "velocity": 77, "duration": 210}, {"note": 65, "velocity": 77, "duration": 73}, {"note": 69, "velocity": 81, "duration": 215}, {"note": 70, "velocity": 78, "duration": 72}, {"note": 70, "velocity": 75, "duration": 213}, {"note": 69, "velocity": 77, "duration": 224}, {"note": 65, "velocity": 76, "duration": 108}, {"note": 72, "velocity": 77, "duration": 1156}, {"note": 0, "velocity": 0, "duration": 644}, {"note": 74, "velocity": 86, "duration": 97}, {"note": 76, "velocity": 79, "duration": 89}, {"note": 77, "velocity": 77, "duration": 186}, {"note": 69, "velocity": 81, "duration": 65}, {"note": 69, "velocity": 78, "duration": 281}, {"note": 0, "velocity": 0, "duration": 79}, {"note": 77, "velocity": 77, "duration": 73}, {"note": 76, "velocity": 78, "duration": 347}, {"note": 69, "velocity": 78, "duration": 67}, {"note": 69, "velocity": 79, "duration": 312}, {"note": 76, "velocity": 78, "duration": 75}, {"note": 74, "velocity": 78, "duration": 339}, {"note": 65, "velocity": 78, "duration": 70}, {"note": 65, "velocity": 79, "duration": 336}, {"note": 74, "velocity": 81, "duration": 87}, {"note": 72, "velocity": 78, "duration": 688}, {"note": 0, "velocity": 0, "duration": 152}, {"note": 74, "velocity": 83, "duration": 59}, {"note": 0, "velocity": 0, "duration": 61}, {"note": 76, "velocity": 81, "duration": 78}, {"note": 77, "velocity": 78, "duration": 186}, {"note": 69, "velocity": 78, "duration": 62}, {"note": 69, "velocity": 77, "duration": 310}, {"note": 77, "velocity": 78, "duration": 68}, {"note": 76, "velocity": 79, "duration": 373}, {"note": 67, "velocity": 77, "duration": 64}, {"note": 67, "velocity": 75, "duration": 309}, {"note": 76, "velocity": 77, "duration": 76}, {"note": 74, "velocity": 78, "duration": 1054}, {"note": 0, "velocity": 0, "duration": 746}, {"note": 74, "velocity": 78, "duration": 65}, {"note": 72, "velocity": 77, "duration": 102}, {"note": 70, "velocity": 80, "duration": 203}, {"note": 72, "velocity": 78, "duration": 94}, {"note": 74, "velocity": 84, "duration": 332}, {"note": 77, "velocity": 77, "duration": 70}, {"note": 77, "velocity": 77, "duration": 208}, {"note": 76, "velocity": 78, "duration": 426}, {"note": 0, "velocity": 0, "duration": 174}, {"note": 72, "velocity": 77, "duration": 83}, {"note": 70, "velocity": 76, "duration": 117}, {"note": 69, "velocity": 78, "duration": 209}, {"note": 70, "velocity": 78, "duration": 98}, {"note": 72, "velocity": 80, "duration": 340}, {"note": 79, "velocity": 79, "duration": 62}, {"note": 79, "velocity": 77, "duration": 213}, {"note": 77, "velocity": 68, "duration": 408}, {"note": 0, "velocity": 0, "duration": 432}, {"note": 70, "velocity": 77, "duration": 92}, {"note": 72, "velocity": 72, "duration": 110}, {"note": 70, "velocity": 78, "duration": 86}, {"note": 72, "velocity": 69, "duration": 110}, {"note": 70, "velocity": 78, "duration": 231}, {"note": 69, "velocity": 76, "duration": 104}, {"note": 70, "velocity": 78, "duration": 235}, {"note": 72, "velocity": 72, "duration": 129}, {"note": 70, "velocity": 73, "duration": 102}, {"note": 72, "velocity": 73, "duration": 116}, {"note": 70, "velocity": 79, "duration": 242}, {"note": 69, "velocity": 73, "duration": 253}, {"note": 72, "velocity": 79, "duration": 1144}, {"note": 0, "velocity": 0, "duration": 536}, {"note": 74, "velocity": 86, "duration": 97}, {"note": 76, "velocity": 79, "duration": 89}, {"note": 77, "velocity": 77, "duration": 186}, {"note": 69, "velocity": 81, "duration": 65}, {"note": 69, "velocity": 78, "duration": 281}, {"note": 0, "velocity": 0, "duration": 79}, {"note": 77, "velocity": 77, "duration": 73}, {"note": 76, "velocity": 78, "duration": 347}, {"note": 69, "velocity": 78, "duration": 67}, {"note": 69, "velocity": 79, "duration": 312}, {"note": 76, "velocity": 78, "duration": 75}, {"note": 74, "velocity": 78, "duration": 339}, {"note": 65, "velocity": 78, "duration": 70}, {"note": 65, "velocity": 79, "duration": 336}, {"note": 74, "velocity": 81, "duration": 87}, {"note": 72, "velocity": 78, "duration": 688}, {"note": 0, "velocity": 0, "duration": 152}, {"note": 74, "velocity": 83, "duration": 59}, {"note": 0, "velocity": 0, "duration": 61}, {"note": 76, "velocity": 81, "duration": 78}, {"note": 77, "velocity": 78, "duration": 186}, {"note": 69, "velocity": 78, "duration": 62}, {"note": 69, "velocity": 77, "duration": 310}, {"note": 77, "velocity": 78, "duration": 68}, {"note": 76, "velocity": 79, "duration": 373}, {"note": 67, "velocity": 77, "duration": 64}, {"note": 67, "velocity": 75, "duration": 309}, {"note": 76, "velocity": 77, "duration": 76}, {"note": 74, "velocity": 78, "duration": 1054}, {"note": 0, "velocity": 0, "duration": 746}, {"note": 74, "velocity": 78, "duration": 65}, {"note": 72, "velocity": 77, "duration": 102}, {"note": 70, "velocity": 80, "duration": 203}, {"note": 72, "velocity": 78, "duration": 94}, {"note": 74, "velocity": 84, "duration": 332}, {"note": 77, "velocity": 77, "duration": 70}, {"note": 77, "velocity": 77, "duration": 208}, {"note": 76, "velocity": 78, "duration": 358}, {"note": 74, "velocity": 78, "duration": 238}, {"note": 72, "velocity": 77, "duration": 83}, {"note": 70, "velocity": 76, "duration": 117}, {"note": 69, "velocity": 78, "duration": 209}, {"note": 70, "velocity": 78, "duration": 98}, {"note": 72, "velocity": 80, "duration": 340}, {"note": 79, "velocity": 79, "duration": 62}, {"note": 79, "velocity": 77, "duration": 213}, {"note": 77, "velocity": 68, "duration": 408}, {"note": 0, "velocity": 0, "duration": 432}, {"note": 74, "velocity": 83, "duration": 203}, {"note": 76, "velocity": 79, "duration": 113}, {"note": 77, "velocity": 78, "duration": 291}, {"note": 0, "velocity": 0, "duration": 69}, {"note": 65, "velocity": 80, "duration": 78}, {"note": 65, "velocity": 77, "duration": 221}, {"note": 69, "velocity": 77, "duration": 361}, {"note": 67, "velocity": 78, "duration": 384}, {"note": 65, "velocity": 69, "duration": 86}, {"note": 65, "velocity": 78, "duration": 1773}, {"note": 0, "velocity": 0, "duration": 7347}, {"note": 65, "velocity": 77, "duration": 102}, {"note": 64, "velocity": 83, "duration": 123}, {"note": 65, "velocity": 79, "duration": 121}, {"note": 74, "velocity": 83, "duration": 809}, {"note": 0, "velocity": 0, "duration": 151}, {"note": 74, "velocity": 88, "duration": 113}, {"note": 79, "velocity": 79, "duration": 237}, {"note": 77, "velocity": 70, "duration": 128}, {"note": 76, "velocity": 79, "duration": 261}, {"note": 72, "velocity": 73, "duration": 121}, {"note": 69, "velocity": 72, "duration": 137}, {"note": 72, "velocity": 78, "duration": 578}, {"note": 0, "velocity": 0, "duration": 262}, {"note": 77, "velocity": 75, "duration": 648}, {"note": 0, "velocity": 0, "duration": 72}, {"note": 67, "velocity": 78, "duration": 248}, {"note": 69, "velocity": 74, "duration": 75}, {"note": 69, "velocity": 80, "duration": 212}, {"note": 70, "velocity": 75, "duration": 90}, {"note": 70, "velocity": 76, "duration": 192}, {"note": 69, "velocity": 77, "duration": 210}, {"note": 65, "velocity": 77, "duration": 73}, {"note": 69, "velocity": 81, "duration": 215}, {"note": 70, "velocity": 78, "duration": 72}, {"note": 70, "velocity": 75, "duration": 213}, {"note": 69, "velocity": 77, "duration": 224}, {"note": 65, "velocity": 76, "duration": 108}, {"note": 72, "velocity": 77, "duration": 1156}, {"note": 0, "velocity": 0, "duration": 644}, {"note": 74, "velocity": 86, "duration": 97}, {"note": 76, "velocity": 79, "duration": 89}, {"note": 77, "velocity": 77, "duration": 186}, {"note": 69, "velocity": 81, "duration": 65}, {"note": 69, "velocity": 78, "duration": 281}, {"note": 0, "velocity": 0, "duration": 79}, {"note": 77, "velocity": 77, "duration": 73}, {"note": 76, "velocity": 78, "duration": 347}, {"note": 69, "velocity": 78, "duration": 67}, {"note": 69, "velocity": 79, "duration": 312}, {"note": 76, "velocity": 78, "duration": 75}, {"note": 74, "velocity": 78, "duration": 339}, {"note": 65, "velocity": 78, "duration": 70}, {"note": 65, "velocity": 79, "duration": 336}, {"note": 74, "velocity": 81, "duration": 87}, {"note": 72, "velocity": 78, "duration": 688}, {"note": 0, "velocity": 0, "duration": 152}, {"note": 74, "velocity": 83, "duration": 59}, {"note": 0, "velocity": 0, "duration": 61}, {"note": 76, "velocity": 81, "duration": 78}, {"note": 77, "velocity": 78, "duration": 186}, {"note": 69, "velocity": 78, "duration": 62}, {"note": 69, "velocity": 77, "duration": 310}, {"note": 77, "velocity": 78, "duration": 68}, {"note": 76, "velocity": 79, "duration": 373}, {"note": 67, "velocity": 77, "duration": 64}, {"note": 67, "velocity": 75, "duration": 309}, {"note": 76, "velocity": 77, "duration": 76}, {"note": 74, "velocity": 78, "duration": 1054}, {"note": 0, "velocity": 0, "duration": 746}, {"note": 74, "velocity": 78, "duration": 65}, {"note": 72, "velocity": 77, "duration": 102}, {"note": 70, "velocity": 80, "duration": 203}, {"note": 72, "velocity": 78, "duration": 94}, {"note": 74, "velocity": 84, "duration": 332}, {"note": 77, "velocity": 77, "duration": 70}, {"note": 77, "velocity": 77, "duration": 208}, {"note": 76, "velocity": 78, "duration": 426}, {"note": 0, "velocity": 0, "duration": 174}, {"note": 72, "velocity": 77, "duration": 83}, {"note": 70, "velocity": 76, "duration": 117}, {"note": 69, "velocity": 78, "duration": 209}, {"note": 70, "velocity": 78, "duration": 98}, {"note": 72, "velocity": 80, "duration": 340}, {"note": 79, "velocity": 79, "duration": 62}, {"note": 79, "velocity": 77, "duration": 213}, {"note": 77, "velocity": 68, "duration": 408}, {"note": 0, "velocity": 0, "duration": 432}, {"note": 70, "velocity": 77, "duration": 92}, {"note": 72, "velocity": 72, "duration": 110}, {"note": 70, "velocity": 78, "duration": 86}, {"note": 72, "velocity": 69, "duration": 110}, {"note": 70, "velocity": 78, "duration": 231}, {"note": 69, "velocity": 76, "duration": 104}, {"note": 70, "velocity": 78, "duration": 235}, {"note": 72, "velocity": 72, "duration": 129}, {"note": 70, "velocity": 73, "duration": 102}, {"note": 72, "velocity": 73, "duration": 116}, {"note": 70, "velocity": 79, "duration": 242}, {"note": 69, "velocity": 73, "duration": 253}, {"note": 72, "velocity": 79, "duration": 1144}, {"note": 0, "velocity": 0, "duration": 536}, {"note": 74, "velocity": 86, "duration": 97}, {"note": 76, "velocity": 79, "duration": 89}, {"note": 77, "velocity": 77, "duration": 186}, {"note": 69, "velocity": 81, "duration": 65}, {"note": 69, "velocity": 78, "duration": 281}, {"note": 0, "velocity": 0, "duration": 79}, {"note": 77, "velocity": 77, "duration": 73}, {"note": 76, "velocity": 78, "duration": 347}, {"note": 69, "velocity": 78, "duration": 67}, {"note": 69, "velocity": 79, "duration": 312}, {"note": 76, "velocity": 78, "duration": 75}, {"note": 74, "velocity": 78, "duration": 339}, {"note": 65, "velocity": 78, "duration": 70}, {"note": 65, "velocity": 79, "duration": 336}, {"note": 74, "velocity": 81, "duration": 87}, {"note": 72, "velocity": 78, "duration": 688}, {"note": 0, "velocity": 0, "duration": 152}, {"note": 74, "velocity": 83, "duration": 59}, {"note": 0, "velocity": 0, "duration": 61}, {"note": 76, "velocity": 81, "duration": 78}, {"note": 77, "velocity": 78, "duration": 186}, {"note": 69, "velocity": 78, "duration": 62}, {"note": 69, "velocity": 77, "duration": 310}, {"note": 77, "velocity": 78, "duration": 68}, {"note": 76, "velocity": 79, "duration": 373}, {"note": 67, "velocity": 77, "duration": 64}, {"note": 67, "velocity": 75, "duration": 309}, {"note": 76, "velocity": 77, "duration": 76}, {"note": 74, "velocity": 78, "duration": 1054}, {"note": 0, "velocity": 0, "duration": 746}, {"note": 74, "velocity": 78, "duration": 65}, {"note": 72, "velocity": 77, "duration": 102}, {"note": 70, "velocity": 80, "duration": 203}, {"note": 72, "velocity": 78, "duration": 94}, {"note": 74, "velocity": 84, "duration": 332}, {"note": 77, "velocity": 77, "duration": 70}, {"note": 77, "velocity": 77, "duration": 208}, {"note": 76, "velocity": 78, "duration": 358}, {"note": 74, "velocity": 78, "duration": 238}, {"note": 72, "velocity": 77, "duration": 83}, {"note": 70, "velocity": 76, "duration": 117}, {"note": 69, "velocity": 78, "duration": 209}, {"note": 70, "velocity": 78, "duration": 98}, {"note": 72, "velocity": 80, "duration": 340}, {"note": 79, "velocity": 79, "duration": 62}, {"note": 79, "velocity": 77, "duration": 213}, {"note": 77, "velocity": 68, "duration": 408}, {"note": 0, "velocity": 0, "duration": 432}, {"note": 74, "velocity": 83, "duration": 203}, {"note": 76, "velocity": 79, "duration": 113}, {"note": 77, "velocity": 78, "duration": 291}, {"note": 0, "velocity": 0, "duration": 69}, {"note": 65, "velocity": 80, "duration": 78}, {"note": 65, "velocity": 77, "duration": 221}, {"note": 69, "velocity": 77, "duration": 361}, {"note": 67, "velocity": 78, "duration": 384}, {"note": 65, "velocity": 69, "duration": 86}, {"note": 65, "velocity": 78, "duration": 1773}, {"note": 0, "velocity": 0, "duration": 5667}, {"note": 74, "velocity": 78, "duration": 65}, {"note": 72, "velocity": 77, "duration": 102}, {"note": 70, "velocity": 80, "duration": 203}, {"note": 72, "velocity": 78, "duration": 94}, {"note": 74, "velocity": 84, "duration": 332}, {"note": 77, "velocity": 77, "duration": 70}, {"note": 77, "velocity": 77, "duration": 208}, {"note": 76, "velocity": 78, "duration": 358}, {"note": 74, "velocity": 78, "duration": 238}, {"note": 72, "velocity": 77, "duration": 83}, {"note": 70, "velocity": 76, "duration": 117}, {"note": 69, "velocity": 78, "duration": 209}, {"note": 70, "velocity": 78, "duration": 98}, {"note": 72, "velocity": 80, "duration": 340}, {"note": 79, "velocity": 79, "duration": 62}, {"note": 79, "velocity": 77, "duration": 213}, {"note": 77, "velocity": 68, "duration": 408}, {"note": 0, "velocity": 0, "duration": 432}, {"note": 74, "velocity": 83, "duration": 203}, {"note": 76, "velocity": 79, "duration": 113}, {"note": 77, "velocity": 78, "duration": 291}, {"note": 0, "velocity": 0, "duration": 69}, {"note": 65, "velocity": 80, "duration": 78}, {"note": 65, "velocity": 77, "duration": 221}, {"note": 69, "velocity": 77, "duration": 361}, {"note": 67, "velocity": 78, "duration": 384}, {"note": 65, "velocity": 69, "duration": 86}, {"note": 65, "velocity": 78, "duration": 1773}, {"note": 0, "velocity": 0, "duration": 156}, {"note": 74, "velocity": 91, "duration": 266}, {"note": 76, "velocity": 78, "duration": 186}, {"note": 77, "velocity": 70, "duration": 422}, {"note": 65, "velocity": 77, "duration": 156}, {"note": 0, "velocity": 0, "duration": 82}, {"note": 65, "velocity": 73, "duration": 276}, {"note": 69, "velocity": 72, "duration": 1208}, {"note": 0, "velocity": 0, "duration": 1001}, {"note": 67, "velocity": 75, "duration": 430}, {"note": 65, "velocity": 73, "duration": 251}, {"note": 65, "velocity": 73, "duration": 1514}]]