[[{"note": 69, "velocity": 102, "duration": 376}, {"note": 70, "velocity": 100, "duration": 184}, {"note": 0, "velocity": 0, "duration": 296}, {"note": 70, "velocity": 107, "duration": 475}, {"note": 69, "velocity": 99, "duration": 317}, {"note": 0, "velocity": 0, "duration": 163}, {"note": 67, "velocity": 96, "duration": 293}, {"note": 0, "velocity": 0, "duration": 187}, {"note": 65, "velocity": 90, "duration": 236}, {"note": 0, "velocity": 0, "duration": 244}, {"note": 67, "velocity": 95, "duration": 435}, {"note": 65, "velocity": 96, "duration": 227}, {"note": 0, "velocity": 0, "duration": 253}, {"note": 67, "velocity": 97, "duration": 332}, {"note": 0, "velocity": 0, "duration": 148}, {"note": 65, "velocity": 86, "duration": 276}, {"note": 0, "velocity": 0, "duration": 204}, {"note": 62, "velocity": 88, "duration": 1353}, {"note": 0, "velocity": 0, "duration": 1527}, {"note": 70, "velocity": 102, "duration": 270}, {"note": 0, "velocity": 0, "duration": 210}, {"note": 70, "velocity": 112, "duration": 221}, {"note": 0, "velocity": 0, "duration": 259}, {"note": 70, "velocity": 102, "duration": 226}, {"note": 0, "velocity": 0, "duration": 254}, {"note": 67, "velocity": 92, "duration": 187}, {"note": 0, "velocity": 0, "duration": 293}, {"note": 65, "velocity": 90, "duration": 483}, {"note": 0, "velocity": 0, "duration": 477}, {"note": 67, "velocity": 92, "duration": 436}, {"note": 0, "velocity": 0, "duration": 524}, {"note": 62, "velocity": 89, "duration": 1071}, {"note": 0, "velocity": 0, "duration": 1329}, {"note": 65, "velocity": 89, "duration": 358}, {"note": 0, "velocity": 0, "duration": 122}, {"note": 67, "velocity": 93, "duration": 350}, {"note": 0, "velocity": 0, "duration": 130}, {"note": 74, "velocity": 97, "duration": 212}, {"note": 0, "velocity": 0, "duration": 268}, {"note": 74, "velocity": 97, "duration": 364}, {"note": 72, "velocity": 95, "duration": 301}, {"note": 0, "velocity": 0, "duration": 179}, {"note": 72, "velocity": 117, "duration": 409}, {"note": 0, "velocity": 0, "duration": 1031}, {"note": 65, "velocity": 92, "duration": 285}, {"note": 0, "velocity": 0, "duration": 195}, {"note": 65, "velocity": 85, "duration": 363}, {"note": 72, "velocity": 88, "duration": 334}, {"note": 0, "velocity": 0, "duration": 146}, {"note": 72, "velocity": 93, "duration": 325}, {"note": 0, "velocity": 0, "duration": 155}, {"note": 70, "velocity": 90, "duration": 274}, {"note": 0, "velocity": 0, "duration": 206}, {"note": 67, "velocity": 88, "duration": 785}, {"note": 0, "velocity": 0, "duration": 655}, {"note": 67, "velocity": 88, "duration": 388}, {"note": 70, "velocity": 96, "duration": 302}, {"note": 0, "velocity": 0, "duration": 178}, {"note": 70, "velocity": 97, "duration": 306}, {"note": 0, "velocity": 0, "duration": 174}, {"note": 70, "velocity": 100, "duration": 251}, {"note": 0, "velocity": 0, "duration": 229}, {"note": 67, "velocity": 88, "duration": 319}, {"note": 0, "velocity": 0, "duration": 161}, {"note": 70, "velocity": 117, "duration": 815}, {"note": 0, "velocity": 0, "duration": 145}, {"note": 72, "velocity": 100, "duration": 406}, {"note": 70, "velocity": 83, "duration": 431}, {"note": 69, "velocity": 92, "duration": 2120}, {"note": 0, "velocity": 0, "duration": 2315}, {"note": 70, "velocity": 102, "duration": 376}, {"note": 70, "velocity": 100, "duration": 184}, {"note": 0, "velocity": 0, "duration": 296}, {"note": 70, "velocity": 107, "duration": 475}, {"note": 69, "velocity": 99, "duration": 317}, {"note": 0, "velocity": 0, "duration": 163}, {"note": 67, "velocity": 96, "duration": 293}, {"note": 0, "velocity": 0, "duration": 187}, {"note": 65, "velocity": 90, "duration": 236}, {"note": 0, "velocity": 0, "duration": 244}, {"note": 67, "velocity": 95, "duration": 435}, {"note": 65, "velocity": 96, "duration": 227}, {"note": 0, "velocity": 0, "duration": 253}, {"note": 67, "velocity": 97, "duration": 332}, {"note": 0, "velocity": 0, "duration": 148}, {"note": 65, "velocity": 86, "duration": 276}, {"note": 0, "velocity": 0, "duration": 204}, {"note": 62, "velocity": 88, "duration": 1353}, {"note": 0, "velocity": 0, "duration": 1527}, {"note": 70, "velocity": 102, "duration": 270}, {"note": 0, "velocity": 0, "duration": 210}, {"note": 70, "velocity": 112, "duration": 221}, {"note": 0, "velocity": 0, "duration": 259}, {"note": 70, "velocity": 102, "duration": 226}, {"note": 0, "velocity": 0, "duration": 254}, {"note": 67, "velocity": 92, "duration": 187}, {"note": 0, "velocity": 0, "duration": 293}, {"note": 65, "velocity": 90, "duration": 376}, {"note": 67, "velocity": 97, "duration": 183}, {"note": 0, "velocity": 0, "duration": 297}, {"note": 65, "velocity": 92, "duration": 436}, {"note": 0, "velocity": 0, "duration": 364}, {"note": 62, "velocity": 89, "duration": 1071}, {"note": 0, "velocity": 0, "duration": 1489}, {"note": 65, "velocity": 89, "duration": 358}, {"note": 0, "velocity": 0, "duration": 122}, {"note": 67, "velocity": 93, "duration": 350}, {"note": 0, "velocity": 0, "duration": 130}, {"note": 74, "velocity": 97, "duration": 212}, {"note": 0, "velocity": 0, "duration": 268}, {"note": 74, "velocity": 97, "duration": 364}, {"note": 72, "velocity": 95, "duration": 301}, {"note": 0, "velocity": 0, "duration": 179}, {"note": 72, "velocity": 117, "duration": 409}, {"note": 0, "velocity": 0, "duration": 1031}, {"note": 65, "velocity": 92, "duration": 285}, {"note": 0, "velocity": 0, "duration": 195}, {"note": 65, "velocity": 85, "duration": 363}, {"note": 72, "velocity": 88, "duration": 334}, {"note": 0, "velocity": 0, "duration": 146}, {"note": 72, "velocity": 93, "duration": 325}, {"note": 0, "velocity": 0, "duration": 155}, {"note": 70, "velocity": 90, "duration": 274}, {"note": 0, "velocity": 0, "duration": 206}, {"note": 67, "velocity": 88, "duration": 785}, {"note": 0, "velocity": 0, "duration": 655}, {"note": 67, "velocity": 88, "duration": 388}, {"note": 70, "velocity": 96, "duration": 302}, {"note": 0, "velocity": 0, "duration": 178}, {"note": 70, "velocity": 97, "duration": 306}, {"note": 0, "velocity": 0, "duration": 174}, {"note": 70, "velocity": 100, "duration": 251}, {"note": 0, "velocity": 0, "duration": 229}, {"note": 70, "velocity": 102, "duration": 325}, {"note": 0, "velocity": 0, "duration": 155}, {"note": 70, "velocity": 127, "duration": 258}, {"note": 0, "velocity": 0, "duration": 222}, {"note": 67, "velocity": 100, "duration": 315}, {"note": 0, "velocity": 0, "duration": 165}, {"note": 70, "velocity": 122, "duration": 358}, {"note": 0, "velocity": 0, "duration": 122}, {"note": 74, "velocity": 112, "duration": 333}, {"note": 0, "velocity": 0, "duration": 147}, {"note": 74, "velocity": 127, "duration": 2270}, {"note": 0, "velocity": 0, "duration": 1570}, {"note": 82, "velocity": 127, "duration": 405}, {"note": 81, "velocity": 97, "duration": 365}, {"note": 82, "velocity": 127, "duration": 306}, {"note": 0, "velocity": 0, "duration": 174}, {"note": 74, "velocity": 112, "duration": 404}, {"note": 81, "velocity": 122, "duration": 1301}, {"note": 0, "velocity": 0, "duration": 139}, {"note": 77, "velocity": 107, "duration": 345}, {"note": 0, "velocity": 0, "duration": 135}, {"note": 79, "velocity": 127, "duration": 351}, {"note": 0, "velocity": 0, "duration": 129}, {"note": 77, "velocity": 117, "duration": 310}, {"note": 0, "velocity": 0, "duration": 170}, {"note": 79, "velocity": 112, "duration": 308}, {"note": 0, "velocity": 0, "duration": 172}, {"note": 77, "velocity": 112, "duration": 276}, {"note": 0, "velocity": 0, "duration": 204}, {"note": 74, "velocity": 117, "duration": 701}, {"note": 0, "velocity": 0, "duration": 259}, {"note": 77, "velocity": 127, "duration": 325}, {"note": 0, "velocity": 0, "duration": 155}, {"note": 74, "velocity": 112, "duration": 294}, {"note": 0, "velocity": 0, "duration": 186}, {"note": 72, "velocity": 96, "duration": 356}, {"note": 0, "velocity": 0, "duration": 124}, {"note": 70, "velocity": 100, "duration": 348}, {"note": 0, "velocity": 0, "duration": 132}, {"note": 72, "velocity": 107, "duration": 297}, {"note": 0, "velocity": 0, "duration": 183}, {"note": 70, "velocity": 117, "duration": 279}, {"note": 0, "velocity": 0, "duration": 201}, {"note": 67, "velocity": 102, "duration": 382}, {"note": 70, "velocity": 127, "duration": 336}, {"note": 0, "velocity": 0, "duration": 144}, {"note": 72, "velocity": 112, "duration": 389}, {"note": 77, "velocity": 127, "duration": 320}, {"note": 0, "velocity": 0, "duration": 640}, {"note": 74, "velocity": 127, "duration": 802}, {"note": 0, "velocity": 0, "duration": 1598}, {"note": 77, "velocity": 112, "duration": 312}, {"note": 0, "velocity": 0, "duration": 168}, {"note": 74, "velocity": 107, "duration": 312}, {"note": 0, "velocity": 0, "duration": 168}, {"note": 72, "velocity": 100, "duration": 316}, {"note": 0, "velocity": 0, "duration": 164}, {"note": 70, "velocity": 95, "duration": 331}, {"note": 0, "velocity": 0, "duration": 149}, {"note": 72, "velocity": 95, "duration": 261}, {"note": 0, "velocity": 0, "duration": 219}, {"note": 70, "velocity": 100, "duration": 328}, {"note": 0, "velocity": 0, "duration": 152}, {"note": 72, "velocity": 100, "duration": 631}, {"note": 0, "velocity": 0, "duration": 329}, {"note": 74, "velocity": 102, "duration": 319}, {"note": 0, "velocity": 0, "duration": 161}, {"note": 77, "velocity": 117, "duration": 301}, {"note": 0, "velocity": 0, "duration": 179}, {"note": 79, "velocity": 112, "duration": 318}, {"note": 0, "velocity": 0, "duration": 162}, {"note": 77, "velocity": 102, "duration": 307}, {"note": 0, "velocity": 0, "duration": 173}, {"note": 74, "velocity": 100, "duration": 331}, {"note": 0, "velocity": 0, "duration": 149}, {"note": 77, "velocity": 102, "duration": 223}, {"note": 0, "velocity": 0, "duration": 257}, {"note": 74, "velocity": 122, "duration": 481}, {"note": 0, "velocity": 0, "duration": 479}, {"note": 67, "velocity": 97, "duration": 389}, {"note": 74, "velocity": 102, "duration": 330}, {"note": 0, "velocity": 0, "duration": 150}, {"note": 72, "velocity": 107, "duration": 614}, {"note": 0, "velocity": 0, "duration": 346}, {"note": 72, "velocity": 102, "duration": 262}, {"note": 0, "velocity": 0, "duration": 218}, {"note": 70, "velocity": 102, "duration": 288}, {"note": 0, "velocity": 0, "duration": 192}, {"note": 72, "velocity": 112, "duration": 306}, {"note": 0, "velocity": 0, "duration": 174}, {"note": 74, "velocity": 107, "duration": 303}, {"note": 0, "velocity": 0, "duration": 177}, {"note": 77, "velocity": 112, "duration": 286}, {"note": 0, "velocity": 0, "duration": 194}, {"note": 79, "velocity": 122, "duration": 514}, {"note": 0, "velocity": 0, "duration": 446}, {"note": 74, "velocity": 112, "duration": 699}, {"note": 0, "velocity": 0, "duration": 2661}, {"note": 82, "velocity": 127, "duration": 405}, {"note": 81, "velocity": 97, "duration": 365}, {"note": 82, "velocity": 127, "duration": 306}, {"note": 0, "velocity": 0, "duration": 174}, {"note": 74, "velocity": 112, "duration": 404}, {"note": 81, "velocity": 122, "duration": 1301}, {"note": 0, "velocity": 0, "duration": 139}, {"note": 77, "velocity": 107, "duration": 345}, {"note": 0, "velocity": 0, "duration": 135}, {"note": 79, "velocity": 127, "duration": 351}, {"note": 0, "velocity": 0, "duration": 129}, {"note": 77, "velocity": 117, "duration": 310}, {"note": 0, "velocity": 0, "duration": 170}, {"note": 79, "velocity": 112, "duration": 308}, {"note": 0, "velocity": 0, "duration": 172}, {"note": 77, "velocity": 112, "duration": 276}, {"note": 0, "velocity": 0, "duration": 204}, {"note": 74, "velocity": 117, "duration": 701}, {"note": 0, "velocity": 0, "duration": 259}, {"note": 77, "velocity": 127, "duration": 325}, {"note": 0, "velocity": 0, "duration": 155}, {"note": 74, "velocity": 112, "duration": 294}, {"note": 0, "velocity": 0, "duration": 186}, {"note": 72, "velocity": 96, "duration": 356}, {"note": 0, "velocity": 0, "duration": 124}, {"note": 70, "velocity": 100, "duration": 348}, {"note": 0, "velocity": 0, "duration": 132}, {"note": 72, "velocity": 107, "duration": 297}, {"note": 0, "velocity": 0, "duration": 183}, {"note": 70, "velocity": 117, "duration": 279}, {"note": 0, "velocity": 0, "duration": 201}, {"note": 67, "velocity": 102, "duration": 382}, {"note": 70, "velocity": 127, "duration": 336}, {"note": 0, "velocity": 0, "duration": 144}, {"note": 72, "velocity": 112, "duration": 389}, {"note": 77, "velocity": 127, "duration": 320}, {"note": 0, "velocity": 0, "duration": 640}, {"note": 74, "velocity": 127, "duration": 802}, {"note": 0, "velocity": 0, "duration": 1598}, {"note": 77, "velocity": 112, "duration": 312}, {"note": 0, "velocity": 0, "duration": 168}, {"note": 74, "velocity": 107, "duration": 312}, {"note": 0, "velocity": 0, "duration": 168}, {"note": 72, "velocity": 100, "duration": 316}, {"note": 0, "velocity": 0, "duration": 164}, {"note": 70, "velocity": 95, "duration": 331}, {"note": 0, "velocity": 0, "duration": 149}, {"note": 72, "velocity": 95, "duration": 261}, {"note": 0, "velocity": 0, "duration": 219}, {"note": 70, "velocity": 100, "duration": 328}, {"note": 0, "velocity": 0, "duration": 152}, {"note": 72, "velocity": 100, "duration": 631}, {"note": 0, "velocity": 0, "duration": 329}, {"note": 74, "velocity": 102, "duration": 319}, {"note": 0, "velocity": 0, "duration": 161}, {"note": 77, "velocity": 117, "duration": 301}, {"note": 0, "velocity": 0, "duration": 179}, {"note": 79, "velocity": 112, "duration": 318}, {"note": 0, "velocity": 0, "duration": 162}, {"note": 77, "velocity": 102, "duration": 307}, {"note": 0, "velocity": 0, "duration": 173}, {"note": 74, "velocity": 100, "duration": 331}, {"note": 0, "velocity": 0, "duration": 149}, {"note": 77, "velocity": 102, "duration": 223}, {"note": 0, "velocity": 0, "duration": 257}, {"note": 74, "velocity": 122, "duration": 481}, {"note": 0, "velocity": 0, "duration": 479}, {"note": 67, "velocity": 97, "duration": 389}, {"note": 74, "velocity": 102, "duration": 330}, {"note": 0, "velocity": 0, "duration": 150}, {"note": 72, "velocity": 102, "duration": 295}, {"note": 0, "velocity": 0, "duration": 185}, {"note": 70, "velocity": 95, "duration": 312}, {"note": 0, "velocity": 0, "duration": 168}, {"note": 72, "velocity": 102, "duration": 430}, {"note": 74, "velocity": 112, "duration": 267}, {"note": 0, "velocity": 0, "duration": 213}, {"note": 74, "velocity": 122, "duration": 571}, {"note": 72, "velocity": 99, "duration": 266}, {"note": 0, "velocity": 0, "duration": 214}, {"note": 72, "velocity": 95, "duration": 251}, {"note": 0, "velocity": 0, "duration": 229}, {"note": 65, "velocity": 100, "duration": 659}, {"note": 0, "velocity": 0, "duration": 301}, {"note": 67, "velocity": 100, "duration": 1805}, {"note": 0, "velocity": 0, "duration": 33600}, {"note": 70, "velocity": 102, "duration": 376}, {"note": 70, "velocity": 100, "duration": 184}, {"note": 0, "velocity": 0, "duration": 296}, {"note": 70, "velocity": 107, "duration": 475}, {"note": 69, "velocity": 99, "duration": 317}, {"note": 0, "velocity": 0, "duration": 163}, {"note": 67, "velocity": 96, "duration": 293}, {"note": 0, "velocity": 0, "duration": 187}, {"note": 65, "velocity": 90, "duration": 236}, {"note": 0, "velocity": 0, "duration": 244}, {"note": 67, "velocity": 95, "duration": 435}, {"note": 65, "velocity": 96, "duration": 227}, {"note": 0, "velocity": 0, "duration": 253}, {"note": 67, "velocity": 97, "duration": 332}, {"note": 0, "velocity": 0, "duration": 148}, {"note": 65, "velocity": 86, "duration": 276}, {"note": 0, "velocity": 0, "duration": 204}, {"note": 62, "velocity": 88, "duration": 1353}, {"note": 0, "velocity": 0, "duration": 1527}, {"note": 70, "velocity": 102, "duration": 270}, {"note": 0, "velocity": 0, "duration": 210}, {"note": 70, "velocity": 112, "duration": 221}, {"note": 0, "velocity": 0, "duration": 259}, {"note": 70, "velocity": 102, "duration": 226}, {"note": 0, "velocity": 0, "duration": 254}, {"note": 67, "velocity": 92, "duration": 187}, {"note": 0, "velocity": 0, "duration": 293}, {"note": 65, "velocity": 90, "duration": 376}, {"note": 67, "velocity": 97, "duration": 183}, {"note": 0, "velocity": 0, "duration": 297}, {"note": 65, "velocity": 92, "duration": 436}, {"note": 0, "velocity": 0, "duration": 364}, {"note": 62, "velocity": 89, "duration": 1071}, {"note": 0, "velocity": 0, "duration": 1489}, {"note": 65, "velocity": 89, "duration": 358}, {"note": 0, "velocity": 0, "duration": 122}, {"note": 67, "velocity": 93, "duration": 350}, {"note": 0, "velocity": 0, "duration": 130}, {"note": 74, "velocity": 97, "duration": 212}, {"note": 0, "velocity": 0, "duration": 268}, {"note": 74, "velocity": 97, "duration": 364}, {"note": 72, "velocity": 95, "duration": 301}, {"note": 0, "velocity": 0, "duration": 179}, {"note": 72, "velocity": 117, "duration": 409}, {"note": 0, "velocity": 0, "duration": 1031}, {"note": 65, "velocity": 92, "duration": 285}, {"note": 0, "velocity": 0, "duration": 195}, {"note": 65, "velocity": 85, "duration": 363}, {"note": 72, "velocity": 88, "duration": 334}, {"note": 0, "velocity": 0, "duration": 146}, {"note": 72, "velocity": 93, "duration": 325}, {"note": 0, "velocity": 0, "duration": 155}, {"note": 70, "velocity": 90, "duration": 274}, {"note": 0, "velocity": 0, "duration": 206}, {"note": 67, "velocity": 88, "duration": 785}, {"note": 0, "velocity": 0, "duration": 655}, {"note": 67, "velocity": 88, "duration": 388}, {"note": 70, "velocity": 96, "duration": 302}, {"note": 0, "velocity": 0, "duration": 178}, {"note": 70, "velocity": 97, "duration": 306}, {"note": 0, "velocity": 0, "duration": 174}, {"note": 70, "velocity": 100, "duration": 251}, {"note": 0, "velocity": 0, "duration": 229}, {"note": 70, "velocity": 102, "duration": 325}, {"note": 0, "velocity": 0, "duration": 155}, {"note": 70, "velocity": 127, "duration": 258}, {"note": 0, "velocity": 0, "duration": 222}, {"note": 67, "velocity": 100, "duration": 315}, {"note": 0, "velocity": 0, "duration": 165}, {"note": 70, "velocity": 122, "duration": 358}, {"note": 0, "velocity": 0, "duration": 122}, {"note": 74, "velocity": 112, "duration": 333}, {"note": 0, "velocity": 0, "duration": 147}, {"note": 74, "velocity": 127, "duration": 2270}, {"note": 0, "velocity": 0, "duration": 1570}, {"note": 82, "velocity": 127, "duration": 405}, {"note": 81, "velocity": 97, "duration": 365}, {"note": 82, "velocity": 127, "duration": 306}, {"note": 0, "velocity": 0, "duration": 174}, {"note": 74, "velocity": 112, "duration": 404}, {"note": 81, "velocity": 122, "duration": 1301}, {"note": 0, "velocity": 0, "duration": 139}, {"note": 77, "velocity": 107, "duration": 345}, {"note": 0, "velocity": 0, "duration": 135}, {"note": 79, "velocity": 127, "duration": 351}, {"note": 0, "velocity": 0, "duration": 129}, {"note": 77, "velocity": 117, "duration": 310}, {"note": 0, "velocity": 0, "duration": 170}, {"note": 79, "velocity": 112, "duration": 308}, {"note": 0, "velocity": 0, "duration": 172}, {"note": 77, "velocity": 112, "duration": 276}, {"note": 0, "velocity": 0, "duration": 204}, {"note": 74, "velocity": 117, "duration": 701}, {"note": 0, "velocity": 0, "duration": 259}, {"note": 77, "velocity": 127, "duration": 325}, {"note": 0, "velocity": 0, "duration": 155}, {"note": 74, "velocity": 112, "duration": 294}, {"note": 0, "velocity": 0, "duration": 186}, {"note": 72, "velocity": 96, "duration": 356}, {"note": 0, "velocity": 0, "duration": 124}, {"note": 70, "velocity": 100, "duration": 348}, {"note": 0, "velocity": 0, "duration": 132}, {"note": 72, "velocity": 107, "duration": 297}, {"note": 0, "velocity": 0, "duration": 183}, {"note": 70, "velocity": 117, "duration": 279}, {"note": 0, "velocity": 0, "duration": 201}, {"note": 67, "velocity": 102, "duration": 382}, {"note": 70, "velocity": 127, "duration": 336}, {"note": 0, "velocity": 0, "duration": 144}, {"note": 72, "velocity": 112, "duration": 389}, {"note": 77, "velocity": 127, "duration": 320}, {"note": 0, "velocity": 0, "duration": 640}, {"note": 74, "velocity": 127, "duration": 802}, {"note": 0, "velocity": 0, "duration": 1598}, {"note": 77, "velocity": 112, "duration": 312}, {"note": 0, "velocity": 0, "duration": 168}, {"note": 74, "velocity": 107, "duration": 312}, {"note": 0, "velocity": 0, "duration": 168}, {"note": 72, "velocity": 100, "duration": 316}, {"note": 0, "velocity": 0, "duration": 164}, {"note": 70, "velocity": 95, "duration": 331}, {"note": 0, "velocity": 0, "duration": 149}, {"note": 72, "velocity": 95, "duration": 261}, {"note": 0, "velocity": 0, "duration": 219}, {"note": 70, "velocity": 100, "duration": 328}, {"note": 0, "velocity": 0, "duration": 152}, {"note": 72, "velocity": 100, "duration": 631}, {"note": 0, "velocity": 0, "duration": 329}, {"note": 74, "velocity": 102, "duration": 319}, {"note": 0, "velocity": 0, "duration": 161}, {"note": 77, "velocity": 117, "duration": 301}, {"note": 0, "velocity": 0, "duration": 179}, {"note": 79, "velocity": 112, "duration": 318}, {"note": 0, "velocity": 0, "duration": 162}, {"note": 77, "velocity": 102, "duration": 307}, {"note": 0, "velocity": 0, "duration": 173}, {"note": 74, "velocity": 100, "duration": 331}, {"note": 0, "velocity": 0, "duration": 149}, {"note": 77, "velocity": 102, "duration": 223}, {"note": 0, "velocity": 0, "duration": 257}, {"note": 74, "velocity": 122, "duration": 481}, {"note": 0, "velocity": 0, "duration": 479}, {"note": 67, "velocity": 97, "duration": 389}, {"note": 74, "velocity": 102, "duration": 330}, {"note": 0, "velocity": 0, "duration": 150}, {"note": 72, "velocity": 107, "duration": 614}, {"note": 0, "velocity": 0, "duration": 346}, {"note": 72, "velocity": 102, "duration": 262}, {"note": 0, "velocity": 0, "duration": 218}, {"note": 70, "velocity": 102, "duration": 288}, {"note": 0, "velocity": 0, "duration": 192}, {"note": 72, "velocity": 112, "duration": 306}, {"note": 0, "velocity": 0, "duration": 174}, {"note": 74, "velocity": 107, "duration": 303}, {"note": 0, "velocity": 0, "duration": 177}, {"note": 77, "velocity": 112, "duration": 286}, {"note": 0, "velocity": 0, "duration": 194}, {"note": 79, "velocity": 122, "duration": 514}, {"note": 0, "velocity": 0, "duration": 446}, {"note": 74, "velocity": 112, "duration": 699}, {"note": 0, "velocity": 0, "duration": 2661}, {"note": 82, "velocity": 127, "duration": 405}, {"note": 81, "velocity": 97, "duration": 365}, {"note": 82, "velocity": 127, "duration": 306}, {"note": 0, "velocity": 0, "duration": 174}, {"note": 74, "velocity": 112, "duration": 404}, {"note": 81, "velocity": 122, "duration": 1301}, {"note": 0, "velocity": 0, "duration": 139}, {"note": 77, "velocity": 107, "duration": 345}, {"note": 0, "velocity": 0, "duration": 135}, {"note": 79, "velocity": 127, "duration": 351}, {"note": 0, "velocity": 0, "duration": 129}, {"note": 77, "velocity": 117, "duration": 310}, {"note": 0, "velocity": 0, "duration": 170}, {"note": 79, "velocity": 112, "duration": 308}, {"note": 0, "velocity": 0, "duration": 172}, {"note": 77, "velocity": 112, "duration": 276}, {"note": 0, "velocity": 0, "duration": 204}, {"note": 74, "velocity": 117, "duration": 701}, {"note": 0, "velocity": 0, "duration": 259}, {"note": 77, "velocity": 127, "duration": 325}, {"note": 0, "velocity": 0, "duration": 155}, {"note": 74, "velocity": 112, "duration": 294}, {"note": 0, "velocity": 0, "duration": 186}, {"note": 72, "velocity": 96, "duration": 356}, {"note": 0, "velocity": 0, "duration": 124}, {"note": 70, "velocity": 100, "duration": 348}, {"note": 0, "velocity": 0, "duration": 132}, {"note": 72, "velocity": 107, "duration": 297}, {"note": 0, "velocity": 0, "duration": 183}, {"note": 70, "velocity": 117, "duration": 279}, {"note": 0, "velocity": 0, "duration": 201}, {"note": 67, "velocity": 102, "duration": 382}, {"note": 70, "velocity": 127, "duration": 336}, {"note": 0, "velocity": 0, "duration": 144}, {"note": 72, "velocity": 112, "duration": 389}, {"note": 77, "velocity": 127, "duration": 320}, {"note": 0, "velocity": 0, "duration": 640}, {"note": 74, "velocity": 127, "duration": 802}, {"note": 0, "velocity": 0, "duration": 1598}, {"note": 77, "velocity": 112, "duration": 312}, {"note": 0, "velocity": 0, "duration": 168}, {"note": 74, "velocity": 107, "duration": 312}, {"note": 0, "velocity": 0, "duration": 168}, {"note": 72, "velocity": 100, "duration": 316}, {"note": 0, "velocity": 0, "duration": 164}, {"note": 70, "velocity": 95, "duration": 331}, {"note": 0, "velocity": 0, "duration": 149}, {"note": 72, "velocity": 95, "duration": 261}, {"note": 0, "velocity": 0, "duration": 219}, {"note": 70, "velocity": 100, "duration": 328}, {"note": 0, "velocity": 0, "duration": 152}, {"note": 72, "velocity": 100, "duration": 631}, {"note": 0, "velocity": 0, "duration": 329}, {"note": 74, "velocity": 102, "duration": 319}, {"note": 0, "velocity": 0, "duration": 161}, {"note": 77, "velocity": 117, "duration": 301}, {"note": 0, "velocity": 0, "duration": 179}, {"note": 79, "velocity": 112, "duration": 318}, {"note": 0, "velocity": 0, "duration": 162}, {"note": 77, "velocity": 102, "duration": 307}, {"note": 0, "velocity": 0, "duration": 173}, {"note": 74, "velocity": 100, "duration": 331}, {"note": 0, "velocity": 0, "duration": 149}, {"note": 77, "velocity": 102, "duration": 223}, {"note": 0, "velocity": 0, "duration": 257}, {"note": 74, "velocity": 122, "duration": 481}, {"note": 0, "velocity": 0, "duration": 479}, {"note": 67, "velocity": 97, "duration": 389}, {"note": 74, "velocity": 102, "duration": 330}, {"note": 0, "velocity": 0, "duration": 150}, {"note": 72, "velocity": 102, "duration": 295}, {"note": 0, "velocity": 0, "duration": 185}, {"note": 70, "velocity": 95, "duration": 312}, {"note": 0, "velocity": 0, "duration": 168}, {"note": 72, "velocity": 102, "duration": 430}, {"note": 74, "velocity": 112, "duration": 267}, {"note": 0, "velocity": 0, "duration": 213}, {"note": 74, "velocity": 122, "duration": 571}, {"note": 72, "velocity": 99, "duration": 266}, {"note": 0, "velocity": 0, "duration": 214}, {"note": 72, "velocity": 95, "duration": 251}, {"note": 0, "velocity": 0, "duration": 229}, {"note": 65, "velocity": 100, "duration": 659}, {"note": 0, "velocity": 0, "duration": 301}, {"note": 67, "velocity": 100, "duration": 1805}, {"note": 0, "velocity": 0, "duration": 9235}, {"note": 82, "velocity": 127, "duration": 405}, {"note": 81, "velocity": 97, "duration": 365}, {"note": 82, "velocity": 127, "duration": 306}, {"note": 0, "velocity": 0, "duration": 174}, {"note": 74, "velocity": 112, "duration": 404}, {"note": 81, "velocity": 122, "duration": 1301}, {"note": 0, "velocity": 0, "duration": 139}, {"note": 77, "velocity": 107, "duration": 345}, {"note": 0, "velocity": 0, "duration": 135}, {"note": 79, "velocity": 127, "duration": 351}, {"note": 0, "velocity": 0, "duration": 129}, {"note": 77, "velocity": 117, "duration": 310}, {"note": 0, "velocity": 0, "duration": 170}, {"note": 79, "velocity": 112, "duration": 308}, {"note": 0, "velocity": 0, "duration": 172}, {"note": 77, "velocity": 112, "duration": 276}, {"note": 0, "velocity": 0, "duration": 204}, {"note": 74, "velocity": 117, "duration": 701}, {"note": 0, "velocity": 0, "duration": 259}, {"note": 77, "velocity": 127, "duration": 325}, {"note": 0, "velocity": 0, "duration": 155}, {"note": 74, "velocity": 112, "duration": 294}, {"note": 0, "velocity": 0, "duration": 186}, {"note": 72, "velocity": 96, "duration": 356}, {"note": 0, "velocity": 0, "duration": 124}, {"note": 70, "velocity": 100, "duration": 348}, {"note": 0, "velocity": 0, "duration": 132}, {"note": 72, "velocity": 107, "duration": 297}, {"note": 0, "velocity": 0, "duration": 183}, {"note": 70, "velocity": 117, "duration": 279}, {"note": 0, "velocity": 0, "duration": 201}, {"note": 67, "velocity": 102, "duration": 382}, {"note": 70, "velocity": 127, "duration": 336}, {"note": 0, "velocity": 0, "duration": 144}, {"note": 72, "velocity": 112, "duration": 389}, {"note": 77, "velocity": 127, "duration": 320}, {"note": 0, "velocity": 0, "duration": 640}, {"note": 74, "velocity": 127, "duration": 802}, {"note": 0, "velocity": 0, "duration": 1598}, {"note": 77, "velocity": 112, "duration": 312}, {"note": 0, "velocity": 0, "duration": 168}, {"note": 74, "velocity": 107, "duration": 312}, {"note": 0, "velocity": 0, "duration": 168}, {"note": 72, "velocity": 100, "duration": 316}, {"note": 0, "velocity": 0, "duration": 164}, {"note": 70, "velocity": 95, "duration": 331}, {"note": 0, "velocity": 0, "duration": 149}, {"note": 72, "velocity": 95, "duration": 261}, {"note": 0, "velocity": 0, "duration": 219}, {"note": 70, "velocity": 100, "duration": 328}, {"note": 0, "velocity": 0, "duration": 152}, {"note": 72, "velocity": 100, "duration": 631}, {"note": 0, "velocity": 0, "duration": 329}, {"note": 74, "velocity": 102, "duration": 319}, {"note": 0, "velocity": 0, "duration": 161}, {"note": 77, "velocity": 117, "duration": 301}, {"note": 0, "velocity": 0, "duration": 179}, {"note": 79, "velocity": 112, "duration": 318}, {"note": 0, "velocity": 0, "duration": 162}, {"note": 77, "velocity": 102, "duration": 307}, {"note": 0, "velocity": 0, "duration": 173}, {"note": 74, "velocity": 100, "duration": 331}, {"note": 0, "velocity": 0, "duration": 149}, {"note": 77, "velocity": 102, "duration": 223}, {"note": 0, "velocity": 0, "duration": 257}, {"note": 74, "velocity": 122, "duration": 481}, {"note": 0, "velocity": 0, "duration": 479}, {"note": 67, "velocity": 97, "duration": 389}, {"note": 74, "velocity": 102, "duration": 330}, {"note": 0, "velocity": 0, "duration": 150}, {"note": 72, "velocity": 107, "duration": 614}, {"note": 0, "velocity": 0, "duration": 346}, {"note": 72, "velocity": 102, "duration": 262}, {"note": 0, "velocity": 0, "duration": 218}, {"note": 70, "velocity": 102, "duration": 288}, {"note": 0, "velocity": 0, "duration": 192}, {"note": 72, "velocity": 112, "duration": 306}, {"note": 0, "velocity": 0, "duration": 174}, {"note": 74, "velocity": 107, "duration": 303}, {"note": 0, "velocity": 0, "duration": 177}, {"note": 77, "velocity": 112, "duration": 286}, {"note": 0, "velocity": 0, "duration": 194}, {"note": 79, "velocity": 122, "duration": 514}, {"note": 0, "velocity": 0, "duration": 446}, {"note": 74, "velocity": 112, "duration": 699}, {"note": 0, "velocity": 0, "duration": 2661}, {"note": 82, "velocity": 127, "duration": 405}, {"note": 81, "velocity": 97, "duration": 365}, {"note": 82, "velocity": 127, "duration": 306}, {"note": 0, "velocity": 0, "duration": 174}, {"note": 74, "velocity": 112, "duration": 404}, {"note": 81, "velocity": 122, "duration": 1301}, {"note": 0, "velocity": 0, "duration": 139}, {"note": 77, "velocity": 107, "duration": 345}, {"note": 0, "velocity": 0, "duration": 135}, {"note": 79, "velocity": 127, "duration": 351}, {"note": 0, "velocity": 0, "duration": 129}, {"note": 77, "velocity": 117, "duration": 310}, {"note": 0, "velocity": 0, "duration": 170}, {"note": 79, "velocity": 112, "duration": 308}, {"note": 0, "velocity": 0, "duration": 172}, {"note": 77, "velocity": 112, "duration": 276}, {"note": 0, "velocity": 0, "duration": 204}, {"note": 74, "velocity": 117, "duration": 701}, {"note": 0, "velocity": 0, "duration": 259}, {"note": 77, "velocity": 127, "duration": 325}, {"note": 0, "velocity": 0, "duration": 155}, {"note": 74, "velocity": 112, "duration": 294}, {"note": 0, "velocity": 0, "duration": 186}, {"note": 72, "velocity": 96, "duration": 356}, {"note": 0, "velocity": 0, "duration": 124}, {"note": 70, "velocity": 100, "duration": 348}, {"note": 0, "velocity": 0, "duration": 132}, {"note": 72, "velocity": 107, "duration": 297}, {"note": 0, "velocity": 0, "duration": 183}, {"note": 70, "velocity": 117, "duration": 279}, {"note": 0, "velocity": 0, "duration": 201}, {"note": 67, "velocity": 102, "duration": 382}, {"note": 70, "velocity": 127, "duration": 336}, {"note": 0, "velocity": 0, "duration": 144}, {"note": 72, "velocity": 112, "duration": 389}, {"note": 77, "velocity": 127, "duration": 320}, {"note": 0, "velocity": 0, "duration": 640}, {"note": 74, "velocity": 127, "duration": 802}, {"note": 0, "velocity": 0, "duration": 1598}, {"note": 77, "velocity": 112, "duration": 312}, {"note": 0, "velocity": 0, "duration": 168}, {"note": 74, "velocity": 107, "duration": 312}, {"note": 0, "velocity": 0, "duration": 168}, {"note": 72, "velocity": 100, "duration": 316}, {"note": 0, "velocity": 0, "duration": 164}, {"note": 70, "velocity": 95, "duration": 331}, {"note": 0, "velocity": 0, "duration": 149}, {"note": 72, "velocity": 95, "duration": 261}, {"note": 0, "velocity": 0, "duration": 219}, {"note": 70, "velocity": 100, "duration": 328}, {"note": 0, "velocity": 0, "duration": 152}, {"note": 72, "velocity": 100, "duration": 631}, {"note": 0, "velocity": 0, "duration": 329}, {"note": 74, "velocity": 102, "duration": 319}, {"note": 0, "velocity": 0, "duration": 161}, {"note": 77, "velocity": 117, "duration": 301}, {"note": 0, "velocity": 0, "duration": 179}, {"note": 79, "velocity": 112, "duration": 318}, {"note": 0, "velocity": 0, "duration": 162}, {"note": 77, "velocity": 102, "duration": 307}, {"note": 0, "velocity": 0, "duration": 173}, {"note": 74, "velocity": 100, "duration": 331}, {"note": 0, "velocity": 0, "duration": 149}, {"note": 77, "velocity": 102, "duration": 223}, {"note": 0, "velocity": 0, "duration": 257}, {"note": 74, "velocity": 122, "duration": 481}, {"note": 0, "velocity": 0, "duration": 479}, {"note": 67, "velocity": 97, "duration": 389}, {"note": 74, "velocity": 102, "duration": 330}, {"note": 0, "velocity": 0, "duration": 150}, {"note": 72, "velocity": 102, "duration": 295}, {"note": 0, "velocity": 0, "duration": 185}, {"note": 70, "velocity": 95, "duration": 312}, {"note": 0, "velocity": 0, "duration": 168}, {"note": 72, "velocity": 102, "duration": 430}, {"note": 74, "velocity": 112, "duration": 267}, {"note": 0, "velocity": 0, "duration": 213}, {"note": 74, "velocity": 122, "duration": 571}, {"note": 72, "velocity": 99, "duration": 266}, {"note": 0, "velocity": 0, "duration": 214}, {"note": 72, "velocity": 95, "duration": 251}, {"note": 0, "velocity": 0, "duration": 229}, {"note": 65, "velocity": 100, "duration": 659}, {"note": 0, "velocity": 0, "duration": 301}, {"note": 67, "velocity": 100, "duration": 1805}, {"note": 0, "velocity": 0, "duration": 595}, {"note": 67, "velocity": 96, "duration": 316}, {"note": 0, "velocity": 0, "duration": 164}, {"note": 74, "velocity": 99, "duration": 253}, {"note": 0, "velocity": 0, "duration": 227}, {"note": 72, "velocity": 112, "duration": 537}, {"note": 70, "velocity": 100, "duration": 332}, {"note": 0, "velocity": 0, "duration": 148}, {"note": 72, "velocity": 112, "duration": 378}, {"note": 74, "velocity": 117, "duration": 311}, {"note": 0, "velocity": 0, "duration": 169}, {"note": 74, "velocity": 117, "duration": 404}, {"note": 72, "velocity": 97, "duration": 288}, {"note": 0, "velocity": 0, "duration": 192}, {"note": 72, "velocity": 107, "duration": 226}, {"note": 0, "velocity": 0, "duration": 254}, {"note": 65, "velocity": 100, "duration": 571}, {"note": 0, "velocity": 0, "duration": 1349}, {"note": 67, "velocity": 99, "duration": 2643}]]