[[{"note": 55, "velocity": 88, "duration": 247}, {"note": 57, "velocity": 93, "duration": 241}, {"note": 60, "velocity": 92, "duration": 1057}, {"note": 0, "velocity": 0, "duration": 383}, {"note": 67, "velocity": 88, "duration": 245}, {"note": 69, "velocity": 81, "duration": 200}, {"note": 67, "velocity": 97, "duration": 150}, {"note": 0, "velocity": 0, "duration": 90}, {"note": 64, "velocity": 69, "duration": 1068}, {"note": 0, "velocity": 0, "duration": 132}, {"note": 57, "velocity": 85, "duration": 222}, {"note": 60, "velocity": 70, "duration": 261}, {"note": 64, "velocity": 70, "duration": 221}, {"note": 62, "velocity": 66, "duration": 825}, {"note": 0, "velocity": 0, "duration": 375}, {"note": 64, "velocity": 88, "duration": 226}, {"note": 69, "velocity": 79, "duration": 223}, {"note": 64, "velocity": 76, "duration": 254}, {"note": 67, "velocity": 74, "duration": 894}, {"note": 0, "velocity": 0, "duration": 306}, {"note": 67, "velocity": 88, "duration": 363}, {"note": 0, "velocity": 0, "duration": 117}, {"note": 69, "velocity": 99, "duration": 1040}, {"note": 0, "velocity": 0, "duration": 400}, {"note": 71, "velocity": 102, "duration": 302}, {"note": 0, "velocity": 0, "duration": 178}, {"note": 67, "velocity": 73, "duration": 225}, {"note": 64, "velocity": 82, "duration": 740}, {"note": 0, "velocity": 0, "duration": 460}, {"note": 55, "velocity": 90, "duration": 202}, {"note": 67, "velocity": 97, "duration": 281}, {"note": 0, "velocity": 0, "duration": 199}, {"note": 62, "velocity": 95, "duration": 687}, {"note": 0, "velocity": 0, "duration": 513}, {"note": 57, "velocity": 92, "duration": 249}, {"note": 59, "velocity": 69, "duration": 237}, {"note": 60, "velocity": 75, "duration": 1185}, {"note": 0, "velocity": 0, "duration": 255}, {"note": 55, "velocity": 92, "duration": 246}, {"note": 57, "velocity": 77, "duration": 229}, {"note": 60, "velocity": 79, "duration": 1003}, {"note": 0, "velocity": 0, "duration": 437}, {"note": 67, "velocity": 112, "duration": 271}, {"note": 69, "velocity": 95, "duration": 212}, {"note": 64, "velocity": 100, "duration": 821}, {"note": 0, "velocity": 0, "duration": 619}, {"note": 57, "velocity": 97, "duration": 178}, {"note": 0, "velocity": 0, "duration": 62}, {"note": 60, "velocity": 86, "duration": 227}, {"note": 64, "velocity": 81, "duration": 180}, {"note": 62, "velocity": 90, "duration": 1025}, {"note": 0, "velocity": 0, "duration": 295}, {"note": 64, "velocity": 90, "duration": 242}, {"note": 69, "velocity": 82, "duration": 244}, {"note": 64, "velocity": 79, "duration": 260}, {"note": 67, "velocity": 82, "duration": 550}, {"note": 0, "velocity": 0, "duration": 650}, {"note": 67, "velocity": 102, "duration": 360}, {"note": 0, "velocity": 0, "duration": 120}, {"note": 69, "velocity": 112, "duration": 1173}, {"note": 0, "velocity": 0, "duration": 267}, {"note": 71, "velocity": 107, "duration": 237}, {"note": 69, "velocity": 76, "duration": 214}, {"note": 67, "velocity": 96, "duration": 233}, {"note": 64, "velocity": 93, "duration": 994}, {"note": 0, "velocity": 0, "duration": 206}, {"note": 55, "velocity": 96, "duration": 219}, {"note": 67, "velocity": 93, "duration": 284}, {"note": 0, "velocity": 0, "duration": 196}, {"note": 62, "velocity": 90, "duration": 683}, {"note": 0, "velocity": 0, "duration": 517}, {"note": 57, "velocity": 90, "duration": 250}, {"note": 59, "velocity": 78, "duration": 247}, {"note": 60, "velocity": 90, "duration": 904}, {"note": 0, "velocity": 0, "duration": 1016}, {"note": 72, "velocity": 122, "duration": 590}, {"note": 0, "velocity": 0, "duration": 130}, {"note": 71, "velocity": 112, "duration": 232}, {"note": 69, "velocity": 97, "duration": 206}, {"note": 71, "velocity": 93, "duration": 218}, {"note": 72, "velocity": 117, "duration": 165}, {"note": 0, "velocity": 0, "duration": 315}, {"note": 64, "velocity": 100, "duration": 259}, {"note": 65, "velocity": 100, "duration": 259}, {"note": 67, "velocity": 107, "duration": 411}, {"note": 0, "velocity": 0, "duration": 1040}, {"note": 69, "velocity": 97, "duration": 520}, {"note": 67, "velocity": 96, "duration": 201}, {"note": 65, "velocity": 81, "duration": 194}, {"note": 64, "velocity": 89, "duration": 280}, {"note": 62, "velocity": 68, "duration": 127}, {"note": 0, "velocity": 0, "duration": 113}, {"note": 57, "velocity": 96, "duration": 123}, {"note": 60, "velocity": 78, "duration": 122}, {"note": 64, "velocity": 92, "duration": 200}, {"note": 62, "velocity": 97, "duration": 498}, {"note": 0, "velocity": 0, "duration": 931}, {"note": 64, "velocity": 97, "duration": 212}, {"note": 65, "velocity": 99, "duration": 203}, {"note": 67, "velocity": 107, "duration": 501}, {"note": 0, "velocity": 0, "duration": 219}, {"note": 69, "velocity": 107, "duration": 201}, {"note": 67, "velocity": 93, "duration": 325}, {"note": 0, "velocity": 0, "duration": 155}, {"note": 65, "velocity": 112, "duration": 233}, {"note": 64, "velocity": 90, "duration": 248}, {"note": 62, "velocity": 92, "duration": 658}, {"note": 0, "velocity": 0, "duration": 782}, {"note": 62, "velocity": 96, "duration": 228}, {"note": 64, "velocity": 93, "duration": 250}, {"note": 65, "velocity": 88, "duration": 453}, {"note": 0, "velocity": 0, "duration": 267}, {"note": 72, "velocity": 117, "duration": 230}, {"note": 71, "velocity": 96, "duration": 319}, {"note": 0, "velocity": 0, "duration": 161}, {"note": 62, "velocity": 92, "duration": 254}, {"note": 69, "velocity": 93, "duration": 225}, {"note": 67, "velocity": 122, "duration": 363}, {"note": 0, "velocity": 0, "duration": 1557}, {"note": 72, "velocity": 122, "duration": 731}, {"note": 71, "velocity": 112, "duration": 232}, {"note": 69, "velocity": 97, "duration": 206}, {"note": 71, "velocity": 93, "duration": 218}, {"note": 72, "velocity": 117, "duration": 165}, {"note": 0, "velocity": 0, "duration": 315}, {"note": 64, "velocity": 100, "duration": 259}, {"note": 65, "velocity": 90, "duration": 198}, {"note": 67, "velocity": 107, "duration": 411}, {"note": 0, "velocity": 0, "duration": 1029}, {"note": 69, "velocity": 97, "duration": 322}, {"note": 0, "velocity": 0, "duration": 158}, {"note": 67, "velocity": 96, "duration": 201}, {"note": 65, "velocity": 81, "duration": 194}, {"note": 64, "velocity": 89, "duration": 312}, {"note": 62, "velocity": 96, "duration": 127}, {"note": 0, "velocity": 0, "duration": 113}, {"note": 57, "velocity": 96, "duration": 123}, {"note": 60, "velocity": 78, "duration": 122}, {"note": 64, "velocity": 92, "duration": 200}, {"note": 62, "velocity": 97, "duration": 498}, {"note": 0, "velocity": 0, "duration": 942}, {"note": 64, "velocity": 97, "duration": 212}, {"note": 65, "velocity": 99, "duration": 203}, {"note": 67, "velocity": 107, "duration": 501}, {"note": 0, "velocity": 0, "duration": 219}, {"note": 69, "velocity": 107, "duration": 201}, {"note": 67, "velocity": 93, "duration": 325}, {"note": 0, "velocity": 0, "duration": 155}, {"note": 65, "velocity": 112, "duration": 233}, {"note": 64, "velocity": 90, "duration": 248}, {"note": 62, "velocity": 92, "duration": 658}, {"note": 0, "velocity": 0, "duration": 782}, {"note": 62, "velocity": 96, "duration": 228}, {"note": 64, "velocity": 93, "duration": 250}, {"note": 65, "velocity": 88, "duration": 453}, {"note": 71, "velocity": 127, "duration": 241}, {"note": 69, "velocity": 100, "duration": 229}, {"note": 67, "velocity": 92, "duration": 369}, {"note": 0, "velocity": 0, "duration": 111}, {"note": 59, "velocity": 97, "duration": 247}, {"note": 62, "velocity": 95, "duration": 241}, {"note": 60, "velocity": 97, "duration": 1101}, {"note": 0, "velocity": 0, "duration": 16179}, {"note": 72, "velocity": 122, "duration": 590}, {"note": 0, "velocity": 0, "duration": 130}, {"note": 71, "velocity": 112, "duration": 232}, {"note": 69, "velocity": 97, "duration": 206}, {"note": 71, "velocity": 93, "duration": 218}, {"note": 72, "velocity": 117, "duration": 165}, {"note": 0, "velocity": 0, "duration": 315}, {"note": 64, "velocity": 100, "duration": 259}, {"note": 65, "velocity": 100, "duration": 259}, {"note": 67, "velocity": 107, "duration": 411}, {"note": 0, "velocity": 0, "duration": 1029}, {"note": 69, "velocity": 97, "duration": 531}, {"note": 67, "velocity": 96, "duration": 231}, {"note": 65, "velocity": 81, "duration": 194}, {"note": 64, "velocity": 89, "duration": 231}, {"note": 57, "velocity": 89, "duration": 271}, {"note": 60, "velocity": 78, "duration": 238}, {"note": 64, "velocity": 92, "duration": 200}, {"note": 62, "velocity": 97, "duration": 498}, {"note": 0, "velocity": 0, "duration": 942}, {"note": 64, "velocity": 97, "duration": 212}, {"note": 65, "velocity": 99, "duration": 203}, {"note": 67, "velocity": 107, "duration": 501}, {"note": 0, "velocity": 0, "duration": 219}, {"note": 69, "velocity": 107, "duration": 201}, {"note": 67, "velocity": 93, "duration": 325}, {"note": 0, "velocity": 0, "duration": 155}, {"note": 65, "velocity": 112, "duration": 233}, {"note": 64, "velocity": 90, "duration": 248}, {"note": 62, "velocity": 92, "duration": 658}, {"note": 0, "velocity": 0, "duration": 782}, {"note": 62, "velocity": 96, "duration": 228}, {"note": 64, "velocity": 93, "duration": 250}, {"note": 65, "velocity": 88, "duration": 453}, {"note": 0, "velocity": 0, "duration": 267}, {"note": 72, "velocity": 117, "duration": 230}, {"note": 71, "velocity": 96, "duration": 319}, {"note": 0, "velocity": 0, "duration": 161}, {"note": 62, "velocity": 92, "duration": 254}, {"note": 69, "velocity": 93, "duration": 225}, {"note": 67, "velocity": 122, "duration": 363}, {"note": 0, "velocity": 0, "duration": 1557}, {"note": 72, "velocity": 122, "duration": 590}, {"note": 0, "velocity": 0, "duration": 130}, {"note": 71, "velocity": 112, "duration": 232}, {"note": 69, "velocity": 97, "duration": 206}, {"note": 71, "velocity": 93, "duration": 218}, {"note": 72, "velocity": 117, "duration": 165}, {"note": 0, "velocity": 0, "duration": 315}, {"note": 64, "velocity": 100, "duration": 259}, {"note": 65, "velocity": 90, "duration": 198}, {"note": 67, "velocity": 107, "duration": 411}, {"note": 0, "velocity": 0, "duration": 1029}, {"note": 69, "velocity": 97, "duration": 322}, {"note": 0, "velocity": 0, "duration": 158}, {"note": 67, "velocity": 96, "duration": 201}, {"note": 65, "velocity": 81, "duration": 194}, {"note": 64, "velocity": 89, "duration": 236}, {"note": 57, "velocity": 65, "duration": 264}, {"note": 57, "velocity": 78, "duration": 10}, {"note": 0, "velocity": 0, "duration": 229}, {"note": 64, "velocity": 92, "duration": 200}, {"note": 62, "velocity": 97, "duration": 498}, {"note": 0, "velocity": 0, "duration": 942}, {"note": 64, "velocity": 97, "duration": 212}, {"note": 65, "velocity": 99, "duration": 203}, {"note": 67, "velocity": 107, "duration": 501}, {"note": 0, "velocity": 0, "duration": 219}, {"note": 69, "velocity": 107, "duration": 201}, {"note": 67, "velocity": 93, "duration": 325}, {"note": 0, "velocity": 0, "duration": 155}, {"note": 65, "velocity": 112, "duration": 233}, {"note": 64, "velocity": 90, "duration": 248}, {"note": 62, "velocity": 92, "duration": 658}, {"note": 0, "velocity": 0, "duration": 782}, {"note": 62, "velocity": 96, "duration": 228}, {"note": 64, "velocity": 93, "duration": 250}, {"note": 65, "velocity": 88, "duration": 453}, {"note": 71, "velocity": 127, "duration": 241}, {"note": 69, "velocity": 100, "duration": 229}, {"note": 67, "velocity": 92, "duration": 369}, {"note": 0, "velocity": 0, "duration": 111}, {"note": 59, "velocity": 97, "duration": 247}, {"note": 62, "velocity": 95, "duration": 241}, {"note": 60, "velocity": 97, "duration": 1101}, {"note": 0, "velocity": 0, "duration": 2259}, {"note": 67, "velocity": 99, "duration": 257}, {"note": 69, "velocity": 83, "duration": 237}, {"note": 64, "velocity": 89, "duration": 665}, {"note": 0, "velocity": 0, "duration": 775}, {"note": 57, "velocity": 92, "duration": 223}, {"note": 60, "velocity": 86, "duration": 263}, {"note": 64, "velocity": 97, "duration": 243}, {"note": 62, "velocity": 92, "duration": 1049}, {"note": 0, "velocity": 0, "duration": 151}, {"note": 64, "velocity": 92, "duration": 246}, {"note": 69, "velocity": 90, "duration": 244}, {"note": 64, "velocity": 83, "duration": 261}, {"note": 67, "velocity": 85, "duration": 765}, {"note": 0, "velocity": 0, "duration": 435}, {"note": 67, "velocity": 97, "duration": 452}, {"note": 69, "velocity": 112, "duration": 767}, {"note": 0, "velocity": 0, "duration": 673}, {"note": 71, "velocity": 112, "duration": 258}, {"note": 69, "velocity": 89, "duration": 137}, {"note": 67, "velocity": 76, "duration": 131}, {"note": 64, "velocity": 88, "duration": 623}, {"note": 0, "velocity": 0, "duration": 816}, {"note": 55, "velocity": 88, "duration": 208}, {"note": 67, "velocity": 93, "duration": 245}, {"note": 0, "velocity": 0, "duration": 247}, {"note": 62, "velocity": 92, "duration": 1106}, {"note": 0, "velocity": 0, "duration": 397}, {"note": 57, "velocity": 82, "duration": 462}, {"note": 59, "velocity": 59, "duration": 468}, {"note": 60, "velocity": 67, "duration": 3291}]]