[[{"note": 64, "velocity": 112, "duration": 199}, {"note": 0, "velocity": 0, "duration": 281}, {"note": 64, "velocity": 112, "duration": 273}, {"note": 0, "velocity": 0, "duration": 207}, {"note": 67, "velocity": 117, "duration": 328}, {"note": 0, "velocity": 0, "duration": 152}, {"note": 69, "velocity": 117, "duration": 230}, {"note": 0, "velocity": 0, "duration": 250}, {"note": 71, "velocity": 122, "duration": 201}, {"note": 0, "velocity": 0, "duration": 279}, {"note": 71, "velocity": 127, "duration": 190}, {"note": 0, "velocity": 0, "duration": 290}, {"note": 69, "velocity": 127, "duration": 222}, {"note": 0, "velocity": 0, "duration": 258}, {"note": 67, "velocity": 122, "duration": 179}, {"note": 0, "velocity": 0, "duration": 301}, {"note": 71, "velocity": 127, "duration": 186}, {"note": 0, "velocity": 0, "duration": 294}, {"note": 71, "velocity": 122, "duration": 206}, {"note": 0, "velocity": 0, "duration": 274}, {"note": 69, "velocity": 127, "duration": 198}, {"note": 0, "velocity": 0, "duration": 282}, {"note": 67, "velocity": 122, "duration": 165}, {"note": 0, "velocity": 0, "duration": 315}, {"note": 71, "velocity": 127, "duration": 388}, {"note": 0, "velocity": 0, "duration": 572}, {"note": 64, "velocity": 117, "duration": 387}, {"note": 0, "velocity": 0, "duration": 573}, {"note": 71, "velocity": 117, "duration": 165}, {"note": 0, "velocity": 0, "duration": 315}, {"note": 71, "velocity": 99, "duration": 207}, {"note": 0, "velocity": 0, "duration": 273}, {"note": 74, "velocity": 117, "duration": 175}, {"note": 0, "velocity": 0, "duration": 305}, {"note": 76, "velocity": 127, "duration": 237}, {"note": 0, "velocity": 0, "duration": 243}, {"note": 74, "velocity": 127, "duration": 203}, {"note": 0, "velocity": 0, "duration": 277}, {"note": 71, "velocity": 122, "duration": 163}, {"note": 0, "velocity": 0, "duration": 317}, {"note": 71, "velocity": 96, "duration": 181}, {"note": 0, "velocity": 0, "duration": 299}, {"note": 71, "velocity": 112, "duration": 185}, {"note": 0, "velocity": 0, "duration": 295}, {"note": 71, "velocity": 122, "duration": 168}, {"note": 0, "velocity": 0, "duration": 312}, {"note": 71, "velocity": 127, "duration": 233}, {"note": 0, "velocity": 0, "duration": 247}, {"note": 69, "velocity": 96, "duration": 167}, {"note": 0, "velocity": 0, "duration": 313}, {"note": 67, "velocity": 100, "duration": 245}, {"note": 0, "velocity": 0, "duration": 235}, {"note": 71, "velocity": 127, "duration": 487}, {"note": 0, "velocity": 0, "duration": 1433}, {"note": 69, "velocity": 127, "duration": 188}, {"note": 0, "velocity": 0, "duration": 292}, {"note": 69, "velocity": 102, "duration": 184}, {"note": 0, "velocity": 0, "duration": 296}, {"note": 69, "velocity": 127, "duration": 194}, {"note": 0, "velocity": 0, "duration": 286}, {"note": 67, "velocity": 112, "duration": 189}, {"note": 0, "velocity": 0, "duration": 291}, {"note": 69, "velocity": 127, "duration": 195}, {"note": 0, "velocity": 0, "duration": 1725}, {"note": 69, "velocity": 122, "duration": 151}, {"note": 0, "velocity": 0, "duration": 329}, {"note": 69, "velocity": 99, "duration": 159}, {"note": 0, "velocity": 0, "duration": 321}, {"note": 69, "velocity": 127, "duration": 189}, {"note": 0, "velocity": 0, "duration": 291}, {"note": 67, "velocity": 112, "duration": 163}, {"note": 0, "velocity": 0, "duration": 317}, {"note": 69, "velocity": 127, "duration": 310}, {"note": 0, "velocity": 0, "duration": 1610}, {"note": 71, "velocity": 127, "duration": 162}, {"note": 0, "velocity": 0, "duration": 318}, {"note": 71, "velocity": 102, "duration": 169}, {"note": 0, "velocity": 0, "duration": 311}, {"note": 71, "velocity": 117, "duration": 187}, {"note": 0, "velocity": 0, "duration": 293}, {"note": 69, "velocity": 112, "duration": 180}, {"note": 0, "velocity": 0, "duration": 300}, {"note": 71, "velocity": 127, "duration": 184}, {"note": 0, "velocity": 0, "duration": 296}, {"note": 71, "velocity": 112, "duration": 163}, {"note": 0, "velocity": 0, "duration": 317}, {"note": 71, "velocity": 117, "duration": 185}, {"note": 0, "velocity": 0, "duration": 295}, {"note": 69, "velocity": 122, "duration": 158}, {"note": 0, "velocity": 0, "duration": 322}, {"note": 71, "velocity": 127, "duration": 139}, {"note": 0, "velocity": 0, "duration": 341}, {"note": 71, "velocity": 122, "duration": 193}, {"note": 0, "velocity": 0, "duration": 287}, {"note": 75, "velocity": 127, "duration": 156}, {"note": 0, "velocity": 0, "duration": 324}, {"note": 76, "velocity": 112, "duration": 179}, {"note": 0, "velocity": 0, "duration": 301}, {"note": 78, "velocity": 127, "duration": 391}, {"note": 0, "velocity": 0, "duration": 1529}, {"note": 64, "velocity": 112, "duration": 199}, {"note": 0, "velocity": 0, "duration": 281}, {"note": 64, "velocity": 112, "duration": 273}, {"note": 0, "velocity": 0, "duration": 207}, {"note": 67, "velocity": 117, "duration": 328}, {"note": 0, "velocity": 0, "duration": 152}, {"note": 69, "velocity": 117, "duration": 230}, {"note": 0, "velocity": 0, "duration": 250}, {"note": 71, "velocity": 122, "duration": 201}, {"note": 0, "velocity": 0, "duration": 279}, {"note": 71, "velocity": 127, "duration": 190}, {"note": 0, "velocity": 0, "duration": 290}, {"note": 69, "velocity": 127, "duration": 222}, {"note": 0, "velocity": 0, "duration": 258}, {"note": 67, "velocity": 122, "duration": 179}, {"note": 0, "velocity": 0, "duration": 301}, {"note": 71, "velocity": 127, "duration": 186}, {"note": 0, "velocity": 0, "duration": 294}, {"note": 71, "velocity": 122, "duration": 206}, {"note": 0, "velocity": 0, "duration": 274}, {"note": 69, "velocity": 127, "duration": 198}, {"note": 0, "velocity": 0, "duration": 282}, {"note": 67, "velocity": 122, "duration": 165}, {"note": 0, "velocity": 0, "duration": 315}, {"note": 71, "velocity": 127, "duration": 388}, {"note": 0, "velocity": 0, "duration": 572}, {"note": 64, "velocity": 117, "duration": 387}, {"note": 0, "velocity": 0, "duration": 573}, {"note": 71, "velocity": 117, "duration": 165}, {"note": 0, "velocity": 0, "duration": 315}, {"note": 71, "velocity": 99, "duration": 207}, {"note": 0, "velocity": 0, "duration": 273}, {"note": 74, "velocity": 117, "duration": 175}, {"note": 0, "velocity": 0, "duration": 305}, {"note": 76, "velocity": 127, "duration": 237}, {"note": 0, "velocity": 0, "duration": 243}, {"note": 74, "velocity": 127, "duration": 203}, {"note": 0, "velocity": 0, "duration": 277}, {"note": 71, "velocity": 122, "duration": 163}, {"note": 0, "velocity": 0, "duration": 317}, {"note": 71, "velocity": 96, "duration": 181}, {"note": 0, "velocity": 0, "duration": 299}, {"note": 71, "velocity": 112, "duration": 185}, {"note": 0, "velocity": 0, "duration": 295}, {"note": 71, "velocity": 122, "duration": 168}, {"note": 0, "velocity": 0, "duration": 312}, {"note": 71, "velocity": 127, "duration": 233}, {"note": 0, "velocity": 0, "duration": 247}, {"note": 69, "velocity": 96, "duration": 167}, {"note": 0, "velocity": 0, "duration": 313}, {"note": 67, "velocity": 100, "duration": 245}, {"note": 0, "velocity": 0, "duration": 235}, {"note": 71, "velocity": 127, "duration": 487}, {"note": 0, "velocity": 0, "duration": 1433}, {"note": 69, "velocity": 127, "duration": 188}, {"note": 0, "velocity": 0, "duration": 292}, {"note": 69, "velocity": 102, "duration": 184}, {"note": 0, "velocity": 0, "duration": 296}, {"note": 69, "velocity": 127, "duration": 194}, {"note": 0, "velocity": 0, "duration": 286}, {"note": 67, "velocity": 112, "duration": 189}, {"note": 0, "velocity": 0, "duration": 291}, {"note": 69, "velocity": 127, "duration": 195}, {"note": 0, "velocity": 0, "duration": 1725}, {"note": 69, "velocity": 122, "duration": 151}, {"note": 0, "velocity": 0, "duration": 329}, {"note": 69, "velocity": 99, "duration": 159}, {"note": 0, "velocity": 0, "duration": 321}, {"note": 69, "velocity": 127, "duration": 189}, {"note": 0, "velocity": 0, "duration": 291}, {"note": 67, "velocity": 112, "duration": 163}, {"note": 0, "velocity": 0, "duration": 317}, {"note": 69, "velocity": 127, "duration": 310}, {"note": 0, "velocity": 0, "duration": 1130}, {"note": 59, "velocity": 102, "duration": 287}, {"note": 0, "velocity": 0, "duration": 193}, {"note": 71, "velocity": 117, "duration": 277}, {"note": 0, "velocity": 0, "duration": 363}, {"note": 71, "velocity": 127, "duration": 379}, {"note": 0, "velocity": 0, "duration": 261}, {"note": 69, "velocity": 127, "duration": 261}, {"note": 0, "velocity": 0, "duration": 379}, {"note": 67, "velocity": 117, "duration": 381}, {"note": 0, "velocity": 0, "duration": 579}, {"note": 66, "velocity": 127, "duration": 460}, {"note": 0, "velocity": 0, "duration": 500}, {"note": 64, "velocity": 127, "duration": 2376}, {"note": 0, "velocity": 0, "duration": 1944}, {"note": 79, "velocity": 127, "duration": 483}, {"note": 0, "velocity": 0, "duration": 477}, {"note": 78, "velocity": 127, "duration": 280}, {"note": 0, "velocity": 0, "duration": 200}, {"note": 76, "velocity": 127, "duration": 347}, {"note": 0, "velocity": 0, "duration": 133}, {"note": 71, "velocity": 112, "duration": 417}, {"note": 0, "velocity": 0, "duration": 543}, {"note": 74, "velocity": 127, "duration": 973}, {"note": 0, "velocity": 0, "duration": 947}, {"note": 72, "velocity": 122, "duration": 2290}, {"note": 0, "velocity": 0, "duration": 590}, {"note": 78, "velocity": 127, "duration": 606}, {"note": 0, "velocity": 0, "duration": 354}, {"note": 76, "velocity": 100, "duration": 300}, {"note": 0, "velocity": 0, "duration": 180}, {"note": 74, "velocity": 100, "duration": 439}, {"note": 69, "velocity": 112, "duration": 480}, {"note": 0, "velocity": 0, "duration": 240}, {"note": 72, "velocity": 122, "duration": 192}, {"note": 0, "velocity": 0, "duration": 528}, {"note": 71, "velocity": 107, "duration": 548}, {"note": 0, "velocity": 0, "duration": 412}, {"note": 69, "velocity": 102, "duration": 417}, {"note": 71, "velocity": 117, "duration": 1585}, {"note": 0, "velocity": 0, "duration": 1295}, {"note": 76, "velocity": 122, "duration": 504}, {"note": 0, "velocity": 0, "duration": 456}, {"note": 74, "velocity": 127, "duration": 285}, {"note": 0, "velocity": 0, "duration": 195}, {"note": 72, "velocity": 117, "duration": 411}, {"note": 67, "velocity": 102, "duration": 606}, {"note": 0, "velocity": 0, "duration": 354}, {"note": 71, "velocity": 117, "duration": 249}, {"note": 0, "velocity": 0, "duration": 231}, {"note": 71, "velocity": 127, "duration": 493}, {"note": 69, "velocity": 127, "duration": 189}, {"note": 0, "velocity": 0, "duration": 771}, {"note": 67, "velocity": 107, "duration": 187}, {"note": 0, "velocity": 0, "duration": 293}, {"note": 69, "velocity": 127, "duration": 1165}, {"note": 0, "velocity": 0, "duration": 275}, {"note": 67, "velocity": 102, "duration": 346}, {"note": 0, "velocity": 0, "duration": 134}, {"note": 69, "velocity": 122, "duration": 374}, {"note": 71, "velocity": 107, "duration": 277}, {"note": 0, "velocity": 0, "duration": 203}, {"note": 72, "velocity": 127, "duration": 314}, {"note": 0, "velocity": 0, "duration": 166}, {"note": 76, "velocity": 112, "duration": 303}, {"note": 0, "velocity": 0, "duration": 177}, {"note": 78, "velocity": 127, "duration": 519}, {"note": 0, "velocity": 0, "duration": 441}, {"note": 78, "velocity": 127, "duration": 292}, {"note": 0, "velocity": 0, "duration": 188}, {"note": 76, "velocity": 122, "duration": 422}, {"note": 0, "velocity": 0, "duration": 538}, {"note": 78, "velocity": 127, "duration": 2597}, {"note": 0, "velocity": 0, "duration": 1243}, {"note": 79, "velocity": 107, "duration": 566}, {"note": 0, "velocity": 0, "duration": 154}, {"note": 78, "velocity": 122, "duration": 331}, {"note": 0, "velocity": 0, "duration": 389}, {"note": 76, "velocity": 117, "duration": 443}, {"note": 0, "velocity": 0, "duration": 277}, {"note": 71, "velocity": 102, "duration": 436}, {"note": 0, "velocity": 0, "duration": 284}, {"note": 74, "velocity": 117, "duration": 1393}, {"note": 0, "velocity": 0, "duration": 527}, {"note": 72, "velocity": 100, "duration": 1779}, {"note": 0, "velocity": 0, "duration": 1101}, {"note": 69, "velocity": 102, "duration": 326}, {"note": 0, "velocity": 0, "duration": 154}, {"note": 78, "velocity": 127, "duration": 400}, {"note": 76, "velocity": 107, "duration": 278}, {"note": 0, "velocity": 0, "duration": 202}, {"note": 74, "velocity": 122, "duration": 370}, {"note": 0, "velocity": 0, "duration": 350}, {"note": 69, "velocity": 107, "duration": 343}, {"note": 0, "velocity": 0, "duration": 377}, {"note": 72, "velocity": 122, "duration": 469}, {"note": 0, "velocity": 0, "duration": 491}, {"note": 71, "velocity": 127, "duration": 1976}, {"note": 0, "velocity": 0, "duration": 1864}, {"note": 76, "velocity": 127, "duration": 470}, {"note": 0, "velocity": 0, "duration": 490}, {"note": 74, "velocity": 117, "duration": 381}, {"note": 72, "velocity": 127, "duration": 295}, {"note": 0, "velocity": 0, "duration": 185}, {"note": 67, "velocity": 112, "duration": 390}, {"note": 0, "velocity": 0, "duration": 570}, {"note": 71, "velocity": 127, "duration": 337}, {"note": 0, "velocity": 0, "duration": 143}, {"note": 69, "velocity": 127, "duration": 354}, {"note": 0, "velocity": 0, "duration": 366}, {"note": 69, "velocity": 127, "duration": 305}, {"note": 0, "velocity": 0, "duration": 415}, {"note": 67, "velocity": 107, "duration": 278}, {"note": 0, "velocity": 0, "duration": 202}, {"note": 69, "velocity": 127, "duration": 927}, {"note": 0, "velocity": 0, "duration": 513}, {"note": 69, "velocity": 102, "duration": 146}, {"note": 0, "velocity": 0, "duration": 334}, {"note": 69, "velocity": 122, "duration": 289}, {"note": 0, "velocity": 0, "duration": 191}, {"note": 71, "velocity": 122, "duration": 217}, {"note": 0, "velocity": 0, "duration": 263}, {"note": 72, "velocity": 122, "duration": 310}, {"note": 0, "velocity": 0, "duration": 170}, {"note": 76, "velocity": 107, "duration": 228}, {"note": 0, "velocity": 0, "duration": 252}, {"note": 78, "velocity": 127, "duration": 774}, {"note": 0, "velocity": 0, "duration": 186}, {"note": 76, "velocity": 127, "duration": 176}, {"note": 0, "velocity": 0, "duration": 304}, {"note": 76, "velocity": 107, "duration": 165}, {"note": 0, "velocity": 0, "duration": 315}, {"note": 78, "velocity": 127, "duration": 188}, {"note": 0, "velocity": 0, "duration": 292}, {"note": 78, "velocity": 127, "duration": 201}, {"note": 0, "velocity": 0, "duration": 759}, {"note": 76, "velocity": 122, "duration": 178}, {"note": 0, "velocity": 0, "duration": 302}, {"note": 78, "velocity": 127, "duration": 301}, {"note": 0, "velocity": 0, "duration": 419}, {"note": 78, "velocity": 127, "duration": 234}, {"note": 0, "velocity": 0, "duration": 486}, {"note": 76, "velocity": 107, "duration": 184}, {"note": 0, "velocity": 0, "duration": 296}, {"note": 78, "velocity": 127, "duration": 225}, {"note": 0, "velocity": 0, "duration": 495}, {"note": 78, "velocity": 127, "duration": 208}, {"note": 0, "velocity": 0, "duration": 272}, {"note": 76, "velocity": 117, "duration": 192}, {"note": 0, "velocity": 0, "duration": 528}, {"note": 78, "velocity": 127, "duration": 276}, {"note": 0, "velocity": 0, "duration": 1644}, {"note": 64, "velocity": 112, "duration": 199}, {"note": 0, "velocity": 0, "duration": 281}, {"note": 64, "velocity": 112, "duration": 273}, {"note": 0, "velocity": 0, "duration": 207}, {"note": 67, "velocity": 117, "duration": 328}, {"note": 0, "velocity": 0, "duration": 152}, {"note": 69, "velocity": 117, "duration": 230}, {"note": 0, "velocity": 0, "duration": 250}, {"note": 71, "velocity": 122, "duration": 201}, {"note": 0, "velocity": 0, "duration": 279}, {"note": 71, "velocity": 127, "duration": 190}, {"note": 0, "velocity": 0, "duration": 290}, {"note": 69, "velocity": 127, "duration": 222}, {"note": 0, "velocity": 0, "duration": 258}, {"note": 67, "velocity": 122, "duration": 179}, {"note": 0, "velocity": 0, "duration": 301}, {"note": 71, "velocity": 127, "duration": 186}, {"note": 0, "velocity": 0, "duration": 294}, {"note": 71, "velocity": 122, "duration": 206}, {"note": 0, "velocity": 0, "duration": 274}, {"note": 69, "velocity": 127, "duration": 198}, {"note": 0, "velocity": 0, "duration": 282}, {"note": 67, "velocity": 122, "duration": 165}, {"note": 0, "velocity": 0, "duration": 315}, {"note": 71, "velocity": 127, "duration": 388}, {"note": 0, "velocity": 0, "duration": 572}, {"note": 64, "velocity": 117, "duration": 387}, {"note": 0, "velocity": 0, "duration": 573}, {"note": 71, "velocity": 117, "duration": 165}, {"note": 0, "velocity": 0, "duration": 315}, {"note": 71, "velocity": 99, "duration": 207}, {"note": 0, "velocity": 0, "duration": 273}, {"note": 74, "velocity": 117, "duration": 175}, {"note": 0, "velocity": 0, "duration": 305}, {"note": 76, "velocity": 127, "duration": 237}, {"note": 0, "velocity": 0, "duration": 243}, {"note": 74, "velocity": 127, "duration": 203}, {"note": 0, "velocity": 0, "duration": 277}, {"note": 71, "velocity": 122, "duration": 163}, {"note": 0, "velocity": 0, "duration": 317}, {"note": 71, "velocity": 96, "duration": 181}, {"note": 0, "velocity": 0, "duration": 299}, {"note": 71, "velocity": 112, "duration": 185}, {"note": 0, "velocity": 0, "duration": 295}, {"note": 71, "velocity": 122, "duration": 168}, {"note": 0, "velocity": 0, "duration": 312}, {"note": 71, "velocity": 127, "duration": 233}, {"note": 0, "velocity": 0, "duration": 247}, {"note": 69, "velocity": 96, "duration": 167}, {"note": 0, "velocity": 0, "duration": 313}, {"note": 67, "velocity": 100, "duration": 245}, {"note": 0, "velocity": 0, "duration": 235}, {"note": 71, "velocity": 127, "duration": 487}, {"note": 0, "velocity": 0, "duration": 1433}, {"note": 69, "velocity": 127, "duration": 188}, {"note": 0, "velocity": 0, "duration": 292}, {"note": 69, "velocity": 102, "duration": 184}, {"note": 0, "velocity": 0, "duration": 296}, {"note": 69, "velocity": 127, "duration": 194}, {"note": 0, "velocity": 0, "duration": 286}, {"note": 67, "velocity": 112, "duration": 189}, {"note": 0, "velocity": 0, "duration": 291}, {"note": 69, "velocity": 127, "duration": 195}, {"note": 0, "velocity": 0, "duration": 1725}, {"note": 69, "velocity": 122, "duration": 151}, {"note": 0, "velocity": 0, "duration": 329}, {"note": 69, "velocity": 99, "duration": 159}, {"note": 0, "velocity": 0, "duration": 321}, {"note": 69, "velocity": 127, "duration": 189}, {"note": 0, "velocity": 0, "duration": 291}, {"note": 67, "velocity": 112, "duration": 163}, {"note": 0, "velocity": 0, "duration": 317}, {"note": 69, "velocity": 127, "duration": 310}, {"note": 0, "velocity": 0, "duration": 1130}, {"note": 59, "velocity": 102, "duration": 287}, {"note": 0, "velocity": 0, "duration": 193}, {"note": 71, "velocity": 117, "duration": 277}, {"note": 0, "velocity": 0, "duration": 363}, {"note": 71, "velocity": 127, "duration": 379}, {"note": 0, "velocity": 0, "duration": 261}, {"note": 69, "velocity": 127, "duration": 261}, {"note": 0, "velocity": 0, "duration": 379}, {"note": 67, "velocity": 117, "duration": 381}, {"note": 0, "velocity": 0, "duration": 579}, {"note": 66, "velocity": 127, "duration": 460}, {"note": 0, "velocity": 0, "duration": 500}, {"note": 64, "velocity": 127, "duration": 2376}, {"note": 0, "velocity": 0, "duration": 51384}, {"note": 64, "velocity": 112, "duration": 199}, {"note": 0, "velocity": 0, "duration": 281}, {"note": 64, "velocity": 112, "duration": 273}, {"note": 0, "velocity": 0, "duration": 207}, {"note": 67, "velocity": 117, "duration": 328}, {"note": 0, "velocity": 0, "duration": 152}, {"note": 69, "velocity": 117, "duration": 230}, {"note": 0, "velocity": 0, "duration": 250}, {"note": 71, "velocity": 122, "duration": 201}, {"note": 0, "velocity": 0, "duration": 279}, {"note": 71, "velocity": 127, "duration": 190}, {"note": 0, "velocity": 0, "duration": 290}, {"note": 69, "velocity": 127, "duration": 222}, {"note": 0, "velocity": 0, "duration": 258}, {"note": 67, "velocity": 122, "duration": 179}, {"note": 0, "velocity": 0, "duration": 301}, {"note": 71, "velocity": 127, "duration": 186}, {"note": 0, "velocity": 0, "duration": 294}, {"note": 71, "velocity": 122, "duration": 206}, {"note": 0, "velocity": 0, "duration": 274}, {"note": 69, "velocity": 127, "duration": 198}, {"note": 0, "velocity": 0, "duration": 282}, {"note": 67, "velocity": 122, "duration": 165}, {"note": 0, "velocity": 0, "duration": 315}, {"note": 71, "velocity": 127, "duration": 388}, {"note": 0, "velocity": 0, "duration": 572}, {"note": 64, "velocity": 117, "duration": 387}, {"note": 0, "velocity": 0, "duration": 573}, {"note": 71, "velocity": 117, "duration": 165}, {"note": 0, "velocity": 0, "duration": 315}, {"note": 71, "velocity": 99, "duration": 207}, {"note": 0, "velocity": 0, "duration": 273}, {"note": 74, "velocity": 117, "duration": 175}, {"note": 0, "velocity": 0, "duration": 305}, {"note": 76, "velocity": 127, "duration": 237}, {"note": 0, "velocity": 0, "duration": 243}, {"note": 74, "velocity": 127, "duration": 203}, {"note": 0, "velocity": 0, "duration": 277}, {"note": 71, "velocity": 122, "duration": 163}, {"note": 0, "velocity": 0, "duration": 317}, {"note": 71, "velocity": 96, "duration": 181}, {"note": 0, "velocity": 0, "duration": 299}, {"note": 71, "velocity": 112, "duration": 185}, {"note": 0, "velocity": 0, "duration": 295}, {"note": 71, "velocity": 122, "duration": 168}, {"note": 0, "velocity": 0, "duration": 312}, {"note": 71, "velocity": 127, "duration": 233}, {"note": 0, "velocity": 0, "duration": 247}, {"note": 69, "velocity": 96, "duration": 167}, {"note": 0, "velocity": 0, "duration": 313}, {"note": 67, "velocity": 100, "duration": 245}, {"note": 0, "velocity": 0, "duration": 235}, {"note": 71, "velocity": 127, "duration": 487}, {"note": 0, "velocity": 0, "duration": 1433}, {"note": 69, "velocity": 127, "duration": 188}, {"note": 0, "velocity": 0, "duration": 292}, {"note": 69, "velocity": 102, "duration": 184}, {"note": 0, "velocity": 0, "duration": 296}, {"note": 69, "velocity": 127, "duration": 194}, {"note": 0, "velocity": 0, "duration": 286}, {"note": 67, "velocity": 112, "duration": 189}, {"note": 0, "velocity": 0, "duration": 291}, {"note": 69, "velocity": 127, "duration": 195}, {"note": 0, "velocity": 0, "duration": 1725}, {"note": 69, "velocity": 122, "duration": 151}, {"note": 0, "velocity": 0, "duration": 329}, {"note": 69, "velocity": 99, "duration": 159}, {"note": 0, "velocity": 0, "duration": 321}, {"note": 69, "velocity": 127, "duration": 189}, {"note": 0, "velocity": 0, "duration": 291}, {"note": 67, "velocity": 112, "duration": 163}, {"note": 0, "velocity": 0, "duration": 317}, {"note": 69, "velocity": 127, "duration": 310}, {"note": 0, "velocity": 0, "duration": 1610}, {"note": 71, "velocity": 127, "duration": 162}, {"note": 0, "velocity": 0, "duration": 318}, {"note": 71, "velocity": 102, "duration": 169}, {"note": 0, "velocity": 0, "duration": 311}, {"note": 71, "velocity": 117, "duration": 187}, {"note": 0, "velocity": 0, "duration": 293}, {"note": 69, "velocity": 112, "duration": 180}, {"note": 0, "velocity": 0, "duration": 300}, {"note": 71, "velocity": 127, "duration": 184}, {"note": 0, "velocity": 0, "duration": 296}, {"note": 71, "velocity": 112, "duration": 163}, {"note": 0, "velocity": 0, "duration": 317}, {"note": 71, "velocity": 117, "duration": 185}, {"note": 0, "velocity": 0, "duration": 295}, {"note": 69, "velocity": 122, "duration": 158}, {"note": 0, "velocity": 0, "duration": 322}, {"note": 71, "velocity": 127, "duration": 139}, {"note": 0, "velocity": 0, "duration": 341}, {"note": 71, "velocity": 122, "duration": 193}, {"note": 0, "velocity": 0, "duration": 287}, {"note": 75, "velocity": 127, "duration": 156}, {"note": 0, "velocity": 0, "duration": 324}, {"note": 76, "velocity": 112, "duration": 179}, {"note": 0, "velocity": 0, "duration": 301}, {"note": 78, "velocity": 127, "duration": 391}, {"note": 0, "velocity": 0, "duration": 1529}, {"note": 64, "velocity": 112, "duration": 199}, {"note": 0, "velocity": 0, "duration": 281}, {"note": 64, "velocity": 112, "duration": 273}, {"note": 0, "velocity": 0, "duration": 207}, {"note": 67, "velocity": 117, "duration": 328}, {"note": 0, "velocity": 0, "duration": 152}, {"note": 69, "velocity": 117, "duration": 230}, {"note": 0, "velocity": 0, "duration": 250}, {"note": 71, "velocity": 122, "duration": 201}, {"note": 0, "velocity": 0, "duration": 279}, {"note": 71, "velocity": 127, "duration": 190}, {"note": 0, "velocity": 0, "duration": 290}, {"note": 69, "velocity": 127, "duration": 222}, {"note": 0, "velocity": 0, "duration": 258}, {"note": 67, "velocity": 122, "duration": 179}, {"note": 0, "velocity": 0, "duration": 301}, {"note": 71, "velocity": 127, "duration": 186}, {"note": 0, "velocity": 0, "duration": 294}, {"note": 71, "velocity": 122, "duration": 206}, {"note": 0, "velocity": 0, "duration": 274}, {"note": 69, "velocity": 127, "duration": 198}, {"note": 0, "velocity": 0, "duration": 282}, {"note": 67, "velocity": 122, "duration": 165}, {"note": 0, "velocity": 0, "duration": 315}, {"note": 71, "velocity": 127, "duration": 388}, {"note": 0, "velocity": 0, "duration": 572}, {"note": 64, "velocity": 117, "duration": 387}, {"note": 0, "velocity": 0, "duration": 573}, {"note": 71, "velocity": 117, "duration": 165}, {"note": 0, "velocity": 0, "duration": 315}, {"note": 71, "velocity": 99, "duration": 207}, {"note": 0, "velocity": 0, "duration": 273}, {"note": 74, "velocity": 117, "duration": 175}, {"note": 0, "velocity": 0, "duration": 305}, {"note": 76, "velocity": 127, "duration": 237}, {"note": 0, "velocity": 0, "duration": 243}, {"note": 74, "velocity": 127, "duration": 203}, {"note": 0, "velocity": 0, "duration": 277}, {"note": 71, "velocity": 122, "duration": 163}, {"note": 0, "velocity": 0, "duration": 317}, {"note": 71, "velocity": 96, "duration": 181}, {"note": 0, "velocity": 0, "duration": 299}, {"note": 71, "velocity": 112, "duration": 185}, {"note": 0, "velocity": 0, "duration": 295}, {"note": 71, "velocity": 122, "duration": 168}, {"note": 0, "velocity": 0, "duration": 312}, {"note": 71, "velocity": 127, "duration": 233}, {"note": 0, "velocity": 0, "duration": 247}, {"note": 69, "velocity": 96, "duration": 167}, {"note": 0, "velocity": 0, "duration": 313}, {"note": 67, "velocity": 100, "duration": 245}, {"note": 0, "velocity": 0, "duration": 235}, {"note": 71, "velocity": 127, "duration": 487}, {"note": 0, "velocity": 0, "duration": 1433}, {"note": 69, "velocity": 127, "duration": 188}, {"note": 0, "velocity": 0, "duration": 292}, {"note": 69, "velocity": 102, "duration": 184}, {"note": 0, "velocity": 0, "duration": 296}, {"note": 69, "velocity": 127, "duration": 194}, {"note": 0, "velocity": 0, "duration": 286}, {"note": 67, "velocity": 112, "duration": 189}, {"note": 0, "velocity": 0, "duration": 291}, {"note": 69, "velocity": 127, "duration": 195}, {"note": 0, "velocity": 0, "duration": 1725}, {"note": 69, "velocity": 122, "duration": 151}, {"note": 0, "velocity": 0, "duration": 329}, {"note": 69, "velocity": 99, "duration": 159}, {"note": 0, "velocity": 0, "duration": 321}, {"note": 69, "velocity": 127, "duration": 189}, {"note": 0, "velocity": 0, "duration": 291}, {"note": 67, "velocity": 112, "duration": 163}, {"note": 0, "velocity": 0, "duration": 317}, {"note": 69, "velocity": 127, "duration": 310}, {"note": 0, "velocity": 0, "duration": 1130}, {"note": 59, "velocity": 102, "duration": 287}, {"note": 0, "velocity": 0, "duration": 193}, {"note": 71, "velocity": 117, "duration": 277}, {"note": 0, "velocity": 0, "duration": 363}, {"note": 71, "velocity": 127, "duration": 379}, {"note": 0, "velocity": 0, "duration": 261}, {"note": 69, "velocity": 127, "duration": 261}, {"note": 0, "velocity": 0, "duration": 379}, {"note": 67, "velocity": 117, "duration": 381}, {"note": 0, "velocity": 0, "duration": 579}, {"note": 66, "velocity": 127, "duration": 460}, {"note": 0, "velocity": 0, "duration": 500}, {"note": 64, "velocity": 127, "duration": 2376}, {"note": 0, "velocity": 0, "duration": 1944}, {"note": 79, "velocity": 127, "duration": 483}, {"note": 0, "velocity": 0, "duration": 477}, {"note": 78, "velocity": 127, "duration": 280}, {"note": 0, "velocity": 0, "duration": 200}, {"note": 76, "velocity": 127, "duration": 347}, {"note": 0, "velocity": 0, "duration": 133}, {"note": 71, "velocity": 112, "duration": 417}, {"note": 0, "velocity": 0, "duration": 543}, {"note": 74, "velocity": 127, "duration": 973}, {"note": 0, "velocity": 0, "duration": 947}, {"note": 72, "velocity": 122, "duration": 2290}, {"note": 0, "velocity": 0, "duration": 590}, {"note": 78, "velocity": 127, "duration": 606}, {"note": 0, "velocity": 0, "duration": 354}, {"note": 76, "velocity": 100, "duration": 300}, {"note": 0, "velocity": 0, "duration": 180}, {"note": 74, "velocity": 100, "duration": 439}, {"note": 69, "velocity": 112, "duration": 480}, {"note": 0, "velocity": 0, "duration": 240}, {"note": 72, "velocity": 122, "duration": 192}, {"note": 0, "velocity": 0, "duration": 528}, {"note": 71, "velocity": 107, "duration": 548}, {"note": 0, "velocity": 0, "duration": 412}, {"note": 69, "velocity": 102, "duration": 417}, {"note": 71, "velocity": 117, "duration": 1585}, {"note": 0, "velocity": 0, "duration": 1295}, {"note": 76, "velocity": 122, "duration": 504}, {"note": 0, "velocity": 0, "duration": 456}, {"note": 74, "velocity": 127, "duration": 285}, {"note": 0, "velocity": 0, "duration": 195}, {"note": 72, "velocity": 117, "duration": 411}, {"note": 67, "velocity": 102, "duration": 606}, {"note": 0, "velocity": 0, "duration": 354}, {"note": 71, "velocity": 117, "duration": 249}, {"note": 0, "velocity": 0, "duration": 231}, {"note": 71, "velocity": 127, "duration": 493}, {"note": 69, "velocity": 127, "duration": 189}, {"note": 0, "velocity": 0, "duration": 771}, {"note": 67, "velocity": 107, "duration": 187}, {"note": 0, "velocity": 0, "duration": 293}, {"note": 69, "velocity": 127, "duration": 1165}, {"note": 0, "velocity": 0, "duration": 275}, {"note": 67, "velocity": 102, "duration": 346}, {"note": 0, "velocity": 0, "duration": 134}, {"note": 69, "velocity": 122, "duration": 374}, {"note": 71, "velocity": 107, "duration": 277}, {"note": 0, "velocity": 0, "duration": 203}, {"note": 72, "velocity": 127, "duration": 314}, {"note": 0, "velocity": 0, "duration": 166}, {"note": 76, "velocity": 112, "duration": 303}, {"note": 0, "velocity": 0, "duration": 177}, {"note": 78, "velocity": 127, "duration": 519}, {"note": 0, "velocity": 0, "duration": 441}, {"note": 78, "velocity": 127, "duration": 292}, {"note": 0, "velocity": 0, "duration": 188}, {"note": 76, "velocity": 122, "duration": 422}, {"note": 0, "velocity": 0, "duration": 538}, {"note": 78, "velocity": 127, "duration": 2597}, {"note": 0, "velocity": 0, "duration": 1243}, {"note": 79, "velocity": 107, "duration": 566}, {"note": 0, "velocity": 0, "duration": 154}, {"note": 78, "velocity": 122, "duration": 331}, {"note": 0, "velocity": 0, "duration": 389}, {"note": 76, "velocity": 117, "duration": 443}, {"note": 0, "velocity": 0, "duration": 277}, {"note": 71, "velocity": 102, "duration": 436}, {"note": 0, "velocity": 0, "duration": 284}, {"note": 74, "velocity": 117, "duration": 1393}, {"note": 0, "velocity": 0, "duration": 527}, {"note": 72, "velocity": 100, "duration": 1779}, {"note": 0, "velocity": 0, "duration": 1101}, {"note": 69, "velocity": 102, "duration": 326}, {"note": 0, "velocity": 0, "duration": 154}, {"note": 78, "velocity": 127, "duration": 400}, {"note": 76, "velocity": 107, "duration": 278}, {"note": 0, "velocity": 0, "duration": 202}, {"note": 74, "velocity": 122, "duration": 370}, {"note": 0, "velocity": 0, "duration": 350}, {"note": 69, "velocity": 107, "duration": 343}, {"note": 0, "velocity": 0, "duration": 377}, {"note": 72, "velocity": 122, "duration": 469}, {"note": 0, "velocity": 0, "duration": 491}, {"note": 71, "velocity": 127, "duration": 1976}, {"note": 0, "velocity": 0, "duration": 1864}, {"note": 76, "velocity": 127, "duration": 470}, {"note": 0, "velocity": 0, "duration": 490}, {"note": 74, "velocity": 117, "duration": 381}, {"note": 72, "velocity": 127, "duration": 295}, {"note": 0, "velocity": 0, "duration": 185}, {"note": 67, "velocity": 112, "duration": 390}, {"note": 0, "velocity": 0, "duration": 570}, {"note": 71, "velocity": 127, "duration": 337}, {"note": 0, "velocity": 0, "duration": 143}, {"note": 69, "velocity": 127, "duration": 354}, {"note": 0, "velocity": 0, "duration": 366}, {"note": 69, "velocity": 127, "duration": 305}, {"note": 0, "velocity": 0, "duration": 415}, {"note": 67, "velocity": 107, "duration": 278}, {"note": 0, "velocity": 0, "duration": 202}, {"note": 69, "velocity": 127, "duration": 927}, {"note": 0, "velocity": 0, "duration": 513}, {"note": 69, "velocity": 102, "duration": 146}, {"note": 0, "velocity": 0, "duration": 334}, {"note": 69, "velocity": 122, "duration": 289}, {"note": 0, "velocity": 0, "duration": 191}, {"note": 71, "velocity": 122, "duration": 217}, {"note": 0, "velocity": 0, "duration": 263}, {"note": 72, "velocity": 122, "duration": 310}, {"note": 0, "velocity": 0, "duration": 170}, {"note": 76, "velocity": 107, "duration": 228}, {"note": 0, "velocity": 0, "duration": 252}, {"note": 78, "velocity": 127, "duration": 774}, {"note": 0, "velocity": 0, "duration": 186}, {"note": 76, "velocity": 127, "duration": 176}, {"note": 0, "velocity": 0, "duration": 304}, {"note": 76, "velocity": 107, "duration": 165}, {"note": 0, "velocity": 0, "duration": 315}, {"note": 78, "velocity": 127, "duration": 188}, {"note": 0, "velocity": 0, "duration": 292}, {"note": 78, "velocity": 127, "duration": 201}, {"note": 0, "velocity": 0, "duration": 759}, {"note": 76, "velocity": 122, "duration": 178}, {"note": 0, "velocity": 0, "duration": 302}, {"note": 78, "velocity": 127, "duration": 301}, {"note": 0, "velocity": 0, "duration": 419}, {"note": 78, "velocity": 127, "duration": 234}, {"note": 0, "velocity": 0, "duration": 486}, {"note": 76, "velocity": 107, "duration": 184}, {"note": 0, "velocity": 0, "duration": 296}, {"note": 78, "velocity": 127, "duration": 225}, {"note": 0, "velocity": 0, "duration": 495}, {"note": 78, "velocity": 127, "duration": 208}, {"note": 0, "velocity": 0, "duration": 272}, {"note": 76, "velocity": 117, "duration": 192}, {"note": 0, "velocity": 0, "duration": 528}, {"note": 78, "velocity": 127, "duration": 276}, {"note": 0, "velocity": 0, "duration": 2124}, {"note": 79, "velocity": 127, "duration": 483}, {"note": 0, "velocity": 0, "duration": 477}, {"note": 78, "velocity": 127, "duration": 280}, {"note": 0, "velocity": 0, "duration": 200}, {"note": 76, "velocity": 127, "duration": 347}, {"note": 0, "velocity": 0, "duration": 133}, {"note": 71, "velocity": 112, "duration": 417}, {"note": 0, "velocity": 0, "duration": 543}, {"note": 74, "velocity": 127, "duration": 973}, {"note": 0, "velocity": 0, "duration": 947}, {"note": 72, "velocity": 122, "duration": 2290}, {"note": 0, "velocity": 0, "duration": 590}, {"note": 78, "velocity": 127, "duration": 606}, {"note": 0, "velocity": 0, "duration": 354}, {"note": 76, "velocity": 100, "duration": 300}, {"note": 0, "velocity": 0, "duration": 180}, {"note": 74, "velocity": 100, "duration": 439}, {"note": 69, "velocity": 112, "duration": 480}, {"note": 0, "velocity": 0, "duration": 240}, {"note": 72, "velocity": 122, "duration": 192}, {"note": 0, "velocity": 0, "duration": 528}, {"note": 71, "velocity": 107, "duration": 548}, {"note": 0, "velocity": 0, "duration": 412}, {"note": 69, "velocity": 102, "duration": 417}, {"note": 71, "velocity": 117, "duration": 1585}, {"note": 0, "velocity": 0, "duration": 1295}, {"note": 76, "velocity": 122, "duration": 504}, {"note": 0, "velocity": 0, "duration": 456}, {"note": 74, "velocity": 127, "duration": 285}, {"note": 0, "velocity": 0, "duration": 195}, {"note": 72, "velocity": 117, "duration": 411}, {"note": 67, "velocity": 102, "duration": 606}, {"note": 0, "velocity": 0, "duration": 354}, {"note": 71, "velocity": 117, "duration": 249}, {"note": 0, "velocity": 0, "duration": 231}, {"note": 71, "velocity": 127, "duration": 493}, {"note": 69, "velocity": 127, "duration": 189}, {"note": 0, "velocity": 0, "duration": 771}, {"note": 67, "velocity": 107, "duration": 187}, {"note": 0, "velocity": 0, "duration": 293}, {"note": 69, "velocity": 127, "duration": 1165}, {"note": 0, "velocity": 0, "duration": 275}, {"note": 67, "velocity": 102, "duration": 346}, {"note": 0, "velocity": 0, "duration": 134}, {"note": 69, "velocity": 122, "duration": 374}, {"note": 71, "velocity": 107, "duration": 277}, {"note": 0, "velocity": 0, "duration": 203}, {"note": 72, "velocity": 127, "duration": 314}, {"note": 0, "velocity": 0, "duration": 166}, {"note": 76, "velocity": 112, "duration": 303}, {"note": 0, "velocity": 0, "duration": 177}, {"note": 78, "velocity": 127, "duration": 519}, {"note": 0, "velocity": 0, "duration": 441}, {"note": 78, "velocity": 127, "duration": 292}, {"note": 0, "velocity": 0, "duration": 188}, {"note": 76, "velocity": 122, "duration": 422}, {"note": 0, "velocity": 0, "duration": 538}, {"note": 78, "velocity": 127, "duration": 2597}, {"note": 0, "velocity": 0, "duration": 1243}, {"note": 79, "velocity": 107, "duration": 566}, {"note": 0, "velocity": 0, "duration": 154}, {"note": 78, "velocity": 122, "duration": 331}, {"note": 0, "velocity": 0, "duration": 389}, {"note": 76, "velocity": 117, "duration": 443}, {"note": 0, "velocity": 0, "duration": 277}, {"note": 71, "velocity": 102, "duration": 436}, {"note": 0, "velocity": 0, "duration": 284}, {"note": 74, "velocity": 117, "duration": 1393}, {"note": 0, "velocity": 0, "duration": 527}, {"note": 72, "velocity": 100, "duration": 1779}, {"note": 0, "velocity": 0, "duration": 1101}, {"note": 69, "velocity": 102, "duration": 326}, {"note": 0, "velocity": 0, "duration": 154}, {"note": 78, "velocity": 127, "duration": 400}, {"note": 76, "velocity": 107, "duration": 278}, {"note": 0, "velocity": 0, "duration": 202}, {"note": 74, "velocity": 122, "duration": 370}, {"note": 0, "velocity": 0, "duration": 350}, {"note": 69, "velocity": 107, "duration": 343}, {"note": 0, "velocity": 0, "duration": 377}, {"note": 72, "velocity": 122, "duration": 469}, {"note": 0, "velocity": 0, "duration": 491}, {"note": 71, "velocity": 127, "duration": 1976}, {"note": 0, "velocity": 0, "duration": 1864}, {"note": 76, "velocity": 127, "duration": 470}, {"note": 0, "velocity": 0, "duration": 490}, {"note": 74, "velocity": 117, "duration": 381}, {"note": 72, "velocity": 127, "duration": 295}, {"note": 0, "velocity": 0, "duration": 185}, {"note": 67, "velocity": 112, "duration": 390}, {"note": 0, "velocity": 0, "duration": 570}, {"note": 71, "velocity": 127, "duration": 337}, {"note": 0, "velocity": 0, "duration": 143}, {"note": 69, "velocity": 127, "duration": 354}, {"note": 0, "velocity": 0, "duration": 366}, {"note": 69, "velocity": 127, "duration": 305}, {"note": 0, "velocity": 0, "duration": 415}, {"note": 67, "velocity": 107, "duration": 278}, {"note": 0, "velocity": 0, "duration": 202}, {"note": 69, "velocity": 127, "duration": 927}, {"note": 0, "velocity": 0, "duration": 513}, {"note": 69, "velocity": 102, "duration": 146}, {"note": 0, "velocity": 0, "duration": 334}, {"note": 69, "velocity": 122, "duration": 289}, {"note": 0, "velocity": 0, "duration": 191}, {"note": 71, "velocity": 122, "duration": 217}, {"note": 0, "velocity": 0, "duration": 263}, {"note": 72, "velocity": 122, "duration": 310}, {"note": 0, "velocity": 0, "duration": 170}, {"note": 76, "velocity": 107, "duration": 228}, {"note": 0, "velocity": 0, "duration": 252}, {"note": 78, "velocity": 127, "duration": 774}, {"note": 0, "velocity": 0, "duration": 186}, {"note": 76, "velocity": 127, "duration": 176}, {"note": 0, "velocity": 0, "duration": 304}, {"note": 76, "velocity": 107, "duration": 165}, {"note": 0, "velocity": 0, "duration": 315}, {"note": 78, "velocity": 127, "duration": 188}, {"note": 0, "velocity": 0, "duration": 532}, {"note": 78, "velocity": 127, "duration": 201}, {"note": 0, "velocity": 0, "duration": 519}, {"note": 76, "velocity": 122, "duration": 178}, {"note": 0, "velocity": 0, "duration": 302}, {"note": 78, "velocity": 127, "duration": 301}, {"note": 0, "velocity": 0, "duration": 419}, {"note": 78, "velocity": 127, "duration": 234}, {"note": 0, "velocity": 0, "duration": 486}, {"note": 76, "velocity": 107, "duration": 184}, {"note": 0, "velocity": 0, "duration": 296}, {"note": 78, "velocity": 127, "duration": 225}, {"note": 0, "velocity": 0, "duration": 495}, {"note": 78, "velocity": 127, "duration": 208}, {"note": 0, "velocity": 0, "duration": 512}, {"note": 76, "velocity": 117, "duration": 192}, {"note": 0, "velocity": 0, "duration": 288}, {"note": 78, "velocity": 127, "duration": 276}, {"note": 0, "velocity": 0, "duration": 1644}, {"note": 64, "velocity": 112, "duration": 199}, {"note": 0, "velocity": 0, "duration": 281}, {"note": 64, "velocity": 112, "duration": 273}, {"note": 0, "velocity": 0, "duration": 207}, {"note": 67, "velocity": 117, "duration": 328}, {"note": 0, "velocity": 0, "duration": 152}, {"note": 69, "velocity": 117, "duration": 230}, {"note": 0, "velocity": 0, "duration": 250}, {"note": 71, "velocity": 122, "duration": 201}, {"note": 0, "velocity": 0, "duration": 279}, {"note": 71, "velocity": 127, "duration": 190}, {"note": 0, "velocity": 0, "duration": 290}, {"note": 69, "velocity": 127, "duration": 222}, {"note": 0, "velocity": 0, "duration": 258}, {"note": 67, "velocity": 122, "duration": 179}, {"note": 0, "velocity": 0, "duration": 301}, {"note": 71, "velocity": 127, "duration": 186}, {"note": 0, "velocity": 0, "duration": 294}, {"note": 71, "velocity": 122, "duration": 206}, {"note": 0, "velocity": 0, "duration": 274}, {"note": 69, "velocity": 127, "duration": 198}, {"note": 0, "velocity": 0, "duration": 282}, {"note": 67, "velocity": 122, "duration": 165}, {"note": 0, "velocity": 0, "duration": 315}, {"note": 71, "velocity": 127, "duration": 388}, {"note": 0, "velocity": 0, "duration": 572}, {"note": 64, "velocity": 117, "duration": 387}, {"note": 0, "velocity": 0, "duration": 573}, {"note": 71, "velocity": 117, "duration": 165}, {"note": 0, "velocity": 0, "duration": 315}, {"note": 71, "velocity": 99, "duration": 207}, {"note": 0, "velocity": 0, "duration": 273}, {"note": 74, "velocity": 117, "duration": 175}, {"note": 0, "velocity": 0, "duration": 305}, {"note": 76, "velocity": 127, "duration": 237}, {"note": 0, "velocity": 0, "duration": 243}, {"note": 74, "velocity": 127, "duration": 203}, {"note": 0, "velocity": 0, "duration": 277}, {"note": 71, "velocity": 122, "duration": 163}, {"note": 0, "velocity": 0, "duration": 317}, {"note": 71, "velocity": 96, "duration": 181}, {"note": 0, "velocity": 0, "duration": 299}, {"note": 71, "velocity": 112, "duration": 185}, {"note": 0, "velocity": 0, "duration": 295}, {"note": 71, "velocity": 122, "duration": 168}, {"note": 0, "velocity": 0, "duration": 312}, {"note": 71, "velocity": 127, "duration": 233}, {"note": 0, "velocity": 0, "duration": 247}, {"note": 69, "velocity": 96, "duration": 167}, {"note": 0, "velocity": 0, "duration": 313}, {"note": 67, "velocity": 100, "duration": 245}, {"note": 0, "velocity": 0, "duration": 235}, {"note": 71, "velocity": 127, "duration": 487}, {"note": 0, "velocity": 0, "duration": 1433}, {"note": 69, "velocity": 127, "duration": 188}, {"note": 0, "velocity": 0, "duration": 292}, {"note": 69, "velocity": 102, "duration": 184}, {"note": 0, "velocity": 0, "duration": 296}, {"note": 69, "velocity": 127, "duration": 194}, {"note": 0, "velocity": 0, "duration": 286}, {"note": 67, "velocity": 112, "duration": 189}, {"note": 0, "velocity": 0, "duration": 291}, {"note": 69, "velocity": 127, "duration": 195}, {"note": 0, "velocity": 0, "duration": 1725}, {"note": 69, "velocity": 122, "duration": 151}, {"note": 0, "velocity": 0, "duration": 329}, {"note": 69, "velocity": 99, "duration": 159}, {"note": 0, "velocity": 0, "duration": 321}, {"note": 69, "velocity": 127, "duration": 189}, {"note": 0, "velocity": 0, "duration": 291}, {"note": 67, "velocity": 112, "duration": 163}, {"note": 0, "velocity": 0, "duration": 317}, {"note": 69, "velocity": 127, "duration": 310}, {"note": 0, "velocity": 0, "duration": 1130}, {"note": 59, "velocity": 102, "duration": 287}, {"note": 0, "velocity": 0, "duration": 193}, {"note": 71, "velocity": 117, "duration": 277}, {"note": 0, "velocity": 0, "duration": 363}, {"note": 71, "velocity": 127, "duration": 379}, {"note": 0, "velocity": 0, "duration": 261}, {"note": 69, "velocity": 127, "duration": 261}, {"note": 0, "velocity": 0, "duration": 379}, {"note": 67, "velocity": 117, "duration": 381}, {"note": 0, "velocity": 0, "duration": 579}, {"note": 66, "velocity": 127, "duration": 1920}, {"note": 64, "velocity": 127, "duration": 2376}]]