[[{"note": 55, "velocity": 78, "duration": 161}, {"note": 0, "velocity": 0, "duration": 79}, {"note": 55, "velocity": 77, "duration": 201}, {"note": 57, "velocity": 85, "duration": 151}, {"note": 0, "velocity": 0, "duration": 89}, {"note": 58, "velocity": 85, "duration": 207}, {"note": 57, "velocity": 76, "duration": 41}, {"note": 0, "velocity": 0, "duration": 79}, {"note": 55, "velocity": 74, "duration": 140}, {"note": 0, "velocity": 0, "duration": 100}, {"note": 57, "velocity": 78, "duration": 311}, {"note": 0, "velocity": 0, "duration": 289}, {"note": 55, "velocity": 79, "duration": 172}, {"note": 0, "velocity": 0, "duration": 68}, {"note": 55, "velocity": 74, "duration": 160}, {"note": 0, "velocity": 0, "duration": 80}, {"note": 57, "velocity": 71, "duration": 120}, {"note": 0, "velocity": 0, "duration": 120}, {"note": 58, "velocity": 89, "duration": 235}, {"note": 57, "velocity": 92, "duration": 128}, {"note": 0, "velocity": 0, "duration": 112}, {"note": 55, "velocity": 72, "duration": 221}, {"note": 53, "velocity": 68, "duration": 230}, {"note": 0, "velocity": 0, "duration": 250}, {"note": 60, "velocity": 86, "duration": 175}, {"note": 0, "velocity": 0, "duration": 65}, {"note": 60, "velocity": 89, "duration": 162}, {"note": 0, "velocity": 0, "duration": 78}, {"note": 60, "velocity": 78, "duration": 151}, {"note": 0, "velocity": 0, "duration": 89}, {"note": 58, "velocity": 76, "duration": 175}, {"note": 0, "velocity": 0, "duration": 65}, {"note": 57, "velocity": 74, "duration": 149}, {"note": 0, "velocity": 0, "duration": 91}, {"note": 55, "velocity": 66, "duration": 159}, {"note": 0, "velocity": 0, "duration": 81}, {"note": 53, "velocity": 73, "duration": 188}, {"note": 0, "velocity": 0, "duration": 292}, {"note": 60, "velocity": 82, "duration": 168}, {"note": 0, "velocity": 0, "duration": 72}, {"note": 60, "velocity": 77, "duration": 167}, {"note": 0, "velocity": 0, "duration": 73}, {"note": 61, "velocity": 89, "duration": 195}, {"note": 60, "velocity": 83, "duration": 217}, {"note": 58, "velocity": 90, "duration": 158}, {"note": 0, "velocity": 0, "duration": 82}, {"note": 58, "velocity": 96, "duration": 182}, {"note": 57, "velocity": 83, "duration": 395}, {"note": 0, "velocity": 0, "duration": 85}, {"note": 55, "velocity": 83, "duration": 138}, {"note": 0, "velocity": 0, "duration": 102}, {"note": 55, "velocity": 81, "duration": 129}, {"note": 0, "velocity": 0, "duration": 111}, {"note": 57, "velocity": 75, "duration": 113}, {"note": 0, "velocity": 0, "duration": 127}, {"note": 58, "velocity": 97, "duration": 138}, {"note": 0, "velocity": 0, "duration": 102}, {"note": 57, "velocity": 92, "duration": 45}, {"note": 0, "velocity": 0, "duration": 75}, {"note": 55, "velocity": 86, "duration": 131}, {"note": 0, "velocity": 0, "duration": 109}, {"note": 57, "velocity": 78, "duration": 317}, {"note": 0, "velocity": 0, "duration": 283}, {"note": 55, "velocity": 81, "duration": 154}, {"note": 0, "velocity": 0, "duration": 86}, {"note": 55, "velocity": 85, "duration": 154}, {"note": 0, "velocity": 0, "duration": 86}, {"note": 57, "velocity": 75, "duration": 157}, {"note": 0, "velocity": 0, "duration": 83}, {"note": 58, "velocity": 81, "duration": 158}, {"note": 0, "velocity": 0, "duration": 82}, {"note": 57, "velocity": 82, "duration": 47}, {"note": 0, "velocity": 0, "duration": 73}, {"note": 55, "velocity": 86, "duration": 110}, {"note": 0, "velocity": 0, "duration": 130}, {"note": 53, "velocity": 86, "duration": 342}, {"note": 0, "velocity": 0, "duration": 258}, {"note": 60, "velocity": 90, "duration": 170}, {"note": 0, "velocity": 0, "duration": 70}, {"note": 60, "velocity": 88, "duration": 163}, {"note": 0, "velocity": 0, "duration": 77}, {"note": 60, "velocity": 85, "duration": 154}, {"note": 0, "velocity": 0, "duration": 86}, {"note": 58, "velocity": 85, "duration": 189}, {"note": 57, "velocity": 79, "duration": 240}, {"note": 55, "velocity": 72, "duration": 182}, {"note": 53, "velocity": 77, "duration": 228}, {"note": 0, "velocity": 0, "duration": 252}, {"note": 60, "velocity": 86, "duration": 173}, {"note": 0, "velocity": 0, "duration": 67}, {"note": 60, "velocity": 86, "duration": 163}, {"note": 0, "velocity": 0, "duration": 77}, {"note": 61, "velocity": 90, "duration": 142}, {"note": 0, "velocity": 0, "duration": 98}, {"note": 60, "velocity": 92, "duration": 243}, {"note": 58, "velocity": 76, "duration": 97}, {"note": 0, "velocity": 0, "duration": 143}, {"note": 58, "velocity": 82, "duration": 315}, {"note": 60, "velocity": 92, "duration": 486}, {"note": 0, "velocity": 0, "duration": 834}, {"note": 53, "velocity": 83, "duration": 180}, {"note": 60, "velocity": 96, "duration": 203}, {"note": 64, "velocity": 93, "duration": 191}, {"note": 65, "velocity": 96, "duration": 236}, {"note": 65, "velocity": 99, "duration": 167}, {"note": 0, "velocity": 0, "duration": 73}, {"note": 64, "velocity": 89, "duration": 169}, {"note": 0, "velocity": 0, "duration": 71}, {"note": 62, "velocity": 93, "duration": 213}, {"note": 0, "velocity": 0, "duration": 267}, {"note": 62, "velocity": 90, "duration": 151}, {"note": 0, "velocity": 0, "duration": 89}, {"note": 62, "velocity": 89, "duration": 177}, {"note": 0, "velocity": 0, "duration": 63}, {"note": 64, "velocity": 77, "duration": 166}, {"note": 0, "velocity": 0, "duration": 74}, {"note": 65, "velocity": 85, "duration": 203}, {"note": 65, "velocity": 82, "duration": 137}, {"note": 0, "velocity": 0, "duration": 103}, {"note": 64, "velocity": 90, "duration": 172}, {"note": 0, "velocity": 0, "duration": 68}, {"note": 65, "velocity": 93, "duration": 280}, {"note": 0, "velocity": 0, "duration": 200}, {"note": 62, "velocity": 90, "duration": 150}, {"note": 0, "velocity": 0, "duration": 90}, {"note": 62, "velocity": 96, "duration": 178}, {"note": 0, "velocity": 0, "duration": 62}, {"note": 65, "velocity": 99, "duration": 175}, {"note": 0, "velocity": 0, "duration": 65}, {"note": 67, "velocity": 102, "duration": 168}, {"note": 0, "velocity": 0, "duration": 72}, {"note": 67, "velocity": 99, "duration": 159}, {"note": 0, "velocity": 0, "duration": 81}, {"note": 65, "velocity": 97, "duration": 151}, {"note": 0, "velocity": 0, "duration": 89}, {"note": 67, "velocity": 117, "duration": 523}, {"note": 0, "velocity": 0, "duration": 197}, {"note": 60, "velocity": 100, "duration": 178}, {"note": 0, "velocity": 0, "duration": 62}, {"note": 67, "velocity": 99, "duration": 155}, {"note": 0, "velocity": 0, "duration": 85}, {"note": 67, "velocity": 107, "duration": 150}, {"note": 0, "velocity": 0, "duration": 90}, {"note": 65, "velocity": 107, "duration": 91}, {"note": 0, "velocity": 0, "duration": 149}, {"note": 67, "velocity": 117, "duration": 115}, {"note": 0, "velocity": 0, "duration": 125}, {"note": 67, "velocity": 127, "duration": 72}, {"note": 65, "velocity": 102, "duration": 63}, {"note": 67, "velocity": 127, "duration": 183}, {"note": 69, "velocity": 122, "duration": 197}, {"note": 0, "velocity": 0, "duration": 283}, {"note": 60, "velocity": 112, "duration": 63}, {"note": 65, "velocity": 99, "duration": 64}, {"note": 67, "velocity": 112, "duration": 128}, {"note": 0, "velocity": 0, "duration": 112}, {"note": 65, "velocity": 112, "duration": 138}, {"note": 0, "velocity": 0, "duration": 102}, {"note": 67, "velocity": 122, "duration": 67}, {"note": 67, "velocity": 112, "duration": 92}, {"note": 0, "velocity": 0, "duration": 148}, {"note": 65, "velocity": 102, "duration": 58}, {"note": 0, "velocity": 0, "duration": 62}, {"note": 69, "velocity": 122, "duration": 172}, {"note": 0, "velocity": 0, "duration": 308}, {"note": 69, "velocity": 112, "duration": 175}, {"note": 0, "velocity": 0, "duration": 65}, {"note": 70, "velocity": 122, "duration": 135}, {"note": 0, "velocity": 0, "duration": 105}, {"note": 72, "velocity": 117, "duration": 207}, {"note": 70, "velocity": 99, "duration": 35}, {"note": 0, "velocity": 0, "duration": 205}, {"note": 70, "velocity": 127, "duration": 200}, {"note": 0, "velocity": 0, "duration": 160}, {"note": 65, "velocity": 102, "duration": 283}, {"note": 0, "velocity": 0, "duration": 317}, {"note": 62, "velocity": 102, "duration": 211}, {"note": 65, "velocity": 112, "duration": 180}, {"note": 72, "velocity": 99, "duration": 195}, {"note": 70, "velocity": 122, "duration": 212}, {"note": 69, "velocity": 127, "duration": 148}, {"note": 0, "velocity": 0, "duration": 92}, {"note": 70, "velocity": 127, "duration": 68}, {"note": 69, "velocity": 127, "duration": 241}, {"note": 0, "velocity": 0, "duration": 119}, {"note": 70, "velocity": 112, "duration": 66}, {"note": 69, "velocity": 100, "duration": 148}, {"note": 0, "velocity": 0, "duration": 92}, {"note": 65, "velocity": 100, "duration": 181}, {"note": 65, "velocity": 95, "duration": 70}, {"note": 67, "velocity": 122, "duration": 118}, {"note": 0, "velocity": 0, "duration": 122}, {"note": 65, "velocity": 99, "duration": 139}, {"note": 0, "velocity": 0, "duration": 101}, {"note": 67, "velocity": 127, "duration": 145}, {"note": 0, "velocity": 0, "duration": 95}, {"note": 65, "velocity": 102, "duration": 147}, {"note": 0, "velocity": 0, "duration": 93}, {"note": 67, "velocity": 127, "duration": 152}, {"note": 65, "velocity": 107, "duration": 167}, {"note": 0, "velocity": 0, "duration": 73}, {"note": 69, "velocity": 122, "duration": 184}, {"note": 0, "velocity": 0, "duration": 176}, {"note": 60, "velocity": 99, "duration": 58}, {"note": 0, "velocity": 0, "duration": 62}, {"note": 65, "velocity": 99, "duration": 55}, {"note": 0, "velocity": 0, "duration": 65}, {"note": 67, "velocity": 127, "duration": 150}, {"note": 0, "velocity": 0, "duration": 90}, {"note": 65, "velocity": 102, "duration": 129}, {"note": 0, "velocity": 0, "duration": 111}, {"note": 67, "velocity": 122, "duration": 129}, {"note": 67, "velocity": 112, "duration": 9}, {"note": 0, "velocity": 0, "duration": 231}, {"note": 65, "velocity": 96, "duration": 91}, {"note": 67, "velocity": 107, "duration": 122}, {"note": 0, "velocity": 0, "duration": 118}, {"note": 69, "velocity": 112, "duration": 218}, {"note": 0, "velocity": 0, "duration": 262}, {"note": 69, "velocity": 102, "duration": 83}, {"note": 70, "velocity": 117, "duration": 56}, {"note": 0, "velocity": 0, "duration": 64}, {"note": 72, "velocity": 112, "duration": 137}, {"note": 0, "velocity": 0, "duration": 103}, {"note": 70, "velocity": 127, "duration": 142}, {"note": 0, "velocity": 0, "duration": 98}, {"note": 69, "velocity": 122, "duration": 161}, {"note": 0, "velocity": 0, "duration": 79}, {"note": 65, "velocity": 100, "duration": 159}, {"note": 0, "velocity": 0, "duration": 561}, {"note": 62, "velocity": 107, "duration": 186}, {"note": 65, "velocity": 102, "duration": 174}, {"note": 0, "velocity": 0, "duration": 66}, {"note": 72, "velocity": 127, "duration": 206}, {"note": 70, "velocity": 117, "duration": 156}, {"note": 0, "velocity": 0, "duration": 84}, {"note": 69, "velocity": 122, "duration": 145}, {"note": 0, "velocity": 0, "duration": 95}, {"note": 70, "velocity": 122, "duration": 64}, {"note": 69, "velocity": 117, "duration": 189}, {"note": 0, "velocity": 0, "duration": 171}, {"note": 65, "velocity": 96, "duration": 140}, {"note": 0, "velocity": 0, "duration": 100}, {"note": 67, "velocity": 127, "duration": 159}, {"note": 0, "velocity": 0, "duration": 81}, {"note": 67, "velocity": 112, "duration": 199}, {"note": 65, "velocity": 117, "duration": 1033}, {"note": 0, "velocity": 0, "duration": 6887}, {"note": 55, "velocity": 78, "duration": 161}, {"note": 0, "velocity": 0, "duration": 79}, {"note": 55, "velocity": 77, "duration": 201}, {"note": 57, "velocity": 85, "duration": 151}, {"note": 0, "velocity": 0, "duration": 89}, {"note": 58, "velocity": 85, "duration": 207}, {"note": 57, "velocity": 76, "duration": 41}, {"note": 0, "velocity": 0, "duration": 79}, {"note": 55, "velocity": 74, "duration": 140}, {"note": 0, "velocity": 0, "duration": 100}, {"note": 57, "velocity": 78, "duration": 311}, {"note": 0, "velocity": 0, "duration": 289}, {"note": 55, "velocity": 79, "duration": 172}, {"note": 0, "velocity": 0, "duration": 68}, {"note": 55, "velocity": 74, "duration": 160}, {"note": 0, "velocity": 0, "duration": 80}, {"note": 57, "velocity": 71, "duration": 120}, {"note": 0, "velocity": 0, "duration": 120}, {"note": 58, "velocity": 89, "duration": 235}, {"note": 57, "velocity": 92, "duration": 128}, {"note": 0, "velocity": 0, "duration": 112}, {"note": 55, "velocity": 72, "duration": 221}, {"note": 53, "velocity": 68, "duration": 230}, {"note": 0, "velocity": 0, "duration": 250}, {"note": 60, "velocity": 86, "duration": 175}, {"note": 0, "velocity": 0, "duration": 65}, {"note": 60, "velocity": 89, "duration": 162}, {"note": 0, "velocity": 0, "duration": 78}, {"note": 60, "velocity": 78, "duration": 151}, {"note": 0, "velocity": 0, "duration": 89}, {"note": 58, "velocity": 76, "duration": 175}, {"note": 0, "velocity": 0, "duration": 65}, {"note": 57, "velocity": 74, "duration": 149}, {"note": 0, "velocity": 0, "duration": 91}, {"note": 55, "velocity": 66, "duration": 159}, {"note": 0, "velocity": 0, "duration": 81}, {"note": 53, "velocity": 73, "duration": 188}, {"note": 0, "velocity": 0, "duration": 292}, {"note": 60, "velocity": 82, "duration": 168}, {"note": 0, "velocity": 0, "duration": 72}, {"note": 60, "velocity": 77, "duration": 167}, {"note": 0, "velocity": 0, "duration": 73}, {"note": 61, "velocity": 89, "duration": 195}, {"note": 60, "velocity": 83, "duration": 217}, {"note": 58, "velocity": 90, "duration": 158}, {"note": 0, "velocity": 0, "duration": 82}, {"note": 58, "velocity": 96, "duration": 182}, {"note": 57, "velocity": 83, "duration": 395}, {"note": 0, "velocity": 0, "duration": 85}, {"note": 55, "velocity": 83, "duration": 138}, {"note": 0, "velocity": 0, "duration": 102}, {"note": 55, "velocity": 81, "duration": 129}, {"note": 0, "velocity": 0, "duration": 111}, {"note": 57, "velocity": 75, "duration": 113}, {"note": 0, "velocity": 0, "duration": 127}, {"note": 58, "velocity": 97, "duration": 138}, {"note": 0, "velocity": 0, "duration": 102}, {"note": 57, "velocity": 92, "duration": 45}, {"note": 0, "velocity": 0, "duration": 75}, {"note": 55, "velocity": 86, "duration": 131}, {"note": 0, "velocity": 0, "duration": 109}, {"note": 57, "velocity": 78, "duration": 317}, {"note": 0, "velocity": 0, "duration": 283}, {"note": 55, "velocity": 81, "duration": 154}, {"note": 0, "velocity": 0, "duration": 86}, {"note": 55, "velocity": 85, "duration": 154}, {"note": 0, "velocity": 0, "duration": 86}, {"note": 57, "velocity": 75, "duration": 157}, {"note": 0, "velocity": 0, "duration": 83}, {"note": 58, "velocity": 81, "duration": 158}, {"note": 0, "velocity": 0, "duration": 82}, {"note": 57, "velocity": 82, "duration": 47}, {"note": 0, "velocity": 0, "duration": 73}, {"note": 55, "velocity": 86, "duration": 110}, {"note": 0, "velocity": 0, "duration": 130}, {"note": 53, "velocity": 86, "duration": 342}, {"note": 0, "velocity": 0, "duration": 258}, {"note": 60, "velocity": 90, "duration": 170}, {"note": 0, "velocity": 0, "duration": 70}, {"note": 60, "velocity": 88, "duration": 163}, {"note": 0, "velocity": 0, "duration": 77}, {"note": 60, "velocity": 85, "duration": 154}, {"note": 0, "velocity": 0, "duration": 86}, {"note": 58, "velocity": 85, "duration": 189}, {"note": 57, "velocity": 79, "duration": 240}, {"note": 55, "velocity": 72, "duration": 182}, {"note": 53, "velocity": 77, "duration": 228}, {"note": 0, "velocity": 0, "duration": 252}, {"note": 60, "velocity": 86, "duration": 173}, {"note": 0, "velocity": 0, "duration": 67}, {"note": 60, "velocity": 86, "duration": 163}, {"note": 0, "velocity": 0, "duration": 77}, {"note": 61, "velocity": 90, "duration": 142}, {"note": 0, "velocity": 0, "duration": 98}, {"note": 60, "velocity": 92, "duration": 243}, {"note": 58, "velocity": 76, "duration": 97}, {"note": 0, "velocity": 0, "duration": 143}, {"note": 58, "velocity": 82, "duration": 315}, {"note": 60, "velocity": 92, "duration": 486}, {"note": 0, "velocity": 0, "duration": 834}, {"note": 53, "velocity": 83, "duration": 180}, {"note": 60, "velocity": 96, "duration": 203}, {"note": 64, "velocity": 93, "duration": 191}, {"note": 65, "velocity": 96, "duration": 236}, {"note": 65, "velocity": 99, "duration": 167}, {"note": 0, "velocity": 0, "duration": 73}, {"note": 64, "velocity": 89, "duration": 169}, {"note": 0, "velocity": 0, "duration": 71}, {"note": 62, "velocity": 93, "duration": 213}, {"note": 0, "velocity": 0, "duration": 267}, {"note": 62, "velocity": 90, "duration": 151}, {"note": 0, "velocity": 0, "duration": 89}, {"note": 62, "velocity": 89, "duration": 177}, {"note": 0, "velocity": 0, "duration": 63}, {"note": 64, "velocity": 77, "duration": 166}, {"note": 0, "velocity": 0, "duration": 74}, {"note": 65, "velocity": 85, "duration": 203}, {"note": 65, "velocity": 82, "duration": 137}, {"note": 0, "velocity": 0, "duration": 103}, {"note": 64, "velocity": 90, "duration": 172}, {"note": 0, "velocity": 0, "duration": 68}, {"note": 65, "velocity": 93, "duration": 280}, {"note": 0, "velocity": 0, "duration": 200}, {"note": 62, "velocity": 90, "duration": 150}, {"note": 0, "velocity": 0, "duration": 90}, {"note": 62, "velocity": 96, "duration": 178}, {"note": 0, "velocity": 0, "duration": 62}, {"note": 65, "velocity": 99, "duration": 175}, {"note": 0, "velocity": 0, "duration": 65}, {"note": 67, "velocity": 102, "duration": 168}, {"note": 0, "velocity": 0, "duration": 72}, {"note": 67, "velocity": 99, "duration": 159}, {"note": 0, "velocity": 0, "duration": 81}, {"note": 65, "velocity": 97, "duration": 151}, {"note": 0, "velocity": 0, "duration": 89}, {"note": 67, "velocity": 117, "duration": 523}, {"note": 0, "velocity": 0, "duration": 197}, {"note": 60, "velocity": 100, "duration": 178}, {"note": 0, "velocity": 0, "duration": 62}, {"note": 67, "velocity": 99, "duration": 155}, {"note": 0, "velocity": 0, "duration": 85}, {"note": 67, "velocity": 107, "duration": 150}, {"note": 0, "velocity": 0, "duration": 90}, {"note": 65, "velocity": 107, "duration": 91}, {"note": 0, "velocity": 0, "duration": 149}, {"note": 67, "velocity": 117, "duration": 115}, {"note": 0, "velocity": 0, "duration": 125}, {"note": 67, "velocity": 127, "duration": 72}, {"note": 65, "velocity": 102, "duration": 63}, {"note": 67, "velocity": 127, "duration": 183}, {"note": 69, "velocity": 122, "duration": 197}, {"note": 0, "velocity": 0, "duration": 283}, {"note": 60, "velocity": 112, "duration": 63}, {"note": 65, "velocity": 99, "duration": 64}, {"note": 67, "velocity": 112, "duration": 128}, {"note": 0, "velocity": 0, "duration": 112}, {"note": 65, "velocity": 112, "duration": 138}, {"note": 0, "velocity": 0, "duration": 102}, {"note": 67, "velocity": 122, "duration": 67}, {"note": 67, "velocity": 112, "duration": 92}, {"note": 0, "velocity": 0, "duration": 148}, {"note": 65, "velocity": 102, "duration": 58}, {"note": 0, "velocity": 0, "duration": 62}, {"note": 69, "velocity": 122, "duration": 172}, {"note": 0, "velocity": 0, "duration": 308}, {"note": 69, "velocity": 112, "duration": 175}, {"note": 0, "velocity": 0, "duration": 65}, {"note": 70, "velocity": 122, "duration": 135}, {"note": 0, "velocity": 0, "duration": 105}, {"note": 72, "velocity": 117, "duration": 207}, {"note": 70, "velocity": 99, "duration": 35}, {"note": 0, "velocity": 0, "duration": 205}, {"note": 70, "velocity": 127, "duration": 200}, {"note": 0, "velocity": 0, "duration": 160}, {"note": 65, "velocity": 102, "duration": 283}, {"note": 0, "velocity": 0, "duration": 317}, {"note": 62, "velocity": 102, "duration": 211}, {"note": 65, "velocity": 112, "duration": 180}, {"note": 72, "velocity": 99, "duration": 195}, {"note": 70, "velocity": 122, "duration": 212}, {"note": 69, "velocity": 127, "duration": 148}, {"note": 0, "velocity": 0, "duration": 92}, {"note": 70, "velocity": 127, "duration": 68}, {"note": 69, "velocity": 127, "duration": 241}, {"note": 0, "velocity": 0, "duration": 119}, {"note": 70, "velocity": 112, "duration": 66}, {"note": 69, "velocity": 100, "duration": 148}, {"note": 0, "velocity": 0, "duration": 92}, {"note": 65, "velocity": 100, "duration": 181}, {"note": 65, "velocity": 95, "duration": 70}, {"note": 67, "velocity": 122, "duration": 118}, {"note": 0, "velocity": 0, "duration": 122}, {"note": 65, "velocity": 99, "duration": 139}, {"note": 0, "velocity": 0, "duration": 101}, {"note": 67, "velocity": 127, "duration": 145}, {"note": 0, "velocity": 0, "duration": 95}, {"note": 65, "velocity": 102, "duration": 147}, {"note": 0, "velocity": 0, "duration": 93}, {"note": 67, "velocity": 127, "duration": 152}, {"note": 65, "velocity": 107, "duration": 167}, {"note": 0, "velocity": 0, "duration": 73}, {"note": 69, "velocity": 122, "duration": 184}, {"note": 0, "velocity": 0, "duration": 176}, {"note": 60, "velocity": 99, "duration": 58}, {"note": 0, "velocity": 0, "duration": 62}, {"note": 65, "velocity": 99, "duration": 55}, {"note": 0, "velocity": 0, "duration": 65}, {"note": 67, "velocity": 127, "duration": 150}, {"note": 0, "velocity": 0, "duration": 90}, {"note": 65, "velocity": 102, "duration": 129}, {"note": 0, "velocity": 0, "duration": 111}, {"note": 67, "velocity": 122, "duration": 129}, {"note": 67, "velocity": 112, "duration": 9}, {"note": 0, "velocity": 0, "duration": 231}, {"note": 65, "velocity": 96, "duration": 91}, {"note": 67, "velocity": 107, "duration": 122}, {"note": 0, "velocity": 0, "duration": 118}, {"note": 69, "velocity": 112, "duration": 218}, {"note": 0, "velocity": 0, "duration": 262}, {"note": 69, "velocity": 102, "duration": 83}, {"note": 70, "velocity": 117, "duration": 56}, {"note": 0, "velocity": 0, "duration": 64}, {"note": 72, "velocity": 112, "duration": 137}, {"note": 0, "velocity": 0, "duration": 103}, {"note": 70, "velocity": 127, "duration": 142}, {"note": 0, "velocity": 0, "duration": 98}, {"note": 69, "velocity": 122, "duration": 161}, {"note": 0, "velocity": 0, "duration": 79}, {"note": 65, "velocity": 100, "duration": 159}, {"note": 0, "velocity": 0, "duration": 561}, {"note": 62, "velocity": 107, "duration": 186}, {"note": 65, "velocity": 102, "duration": 174}, {"note": 0, "velocity": 0, "duration": 66}, {"note": 72, "velocity": 127, "duration": 206}, {"note": 70, "velocity": 117, "duration": 156}, {"note": 0, "velocity": 0, "duration": 84}, {"note": 69, "velocity": 122, "duration": 145}, {"note": 0, "velocity": 0, "duration": 95}, {"note": 70, "velocity": 122, "duration": 64}, {"note": 69, "velocity": 117, "duration": 189}, {"note": 0, "velocity": 0, "duration": 171}, {"note": 65, "velocity": 96, "duration": 140}, {"note": 0, "velocity": 0, "duration": 100}, {"note": 67, "velocity": 127, "duration": 159}, {"note": 0, "velocity": 0, "duration": 81}, {"note": 67, "velocity": 112, "duration": 199}, {"note": 65, "velocity": 117, "duration": 1033}, {"note": 0, "velocity": 0, "duration": 2087}, {"note": 69, "velocity": 96, "duration": 145}, {"note": 0, "velocity": 0, "duration": 95}, {"note": 65, "velocity": 99, "duration": 188}, {"note": 67, "velocity": 117, "duration": 56}, {"note": 0, "velocity": 0, "duration": 64}, {"note": 69, "velocity": 127, "duration": 836}, {"note": 0, "velocity": 0, "duration": 1204}, {"note": 72, "velocity": 122, "duration": 1365}, {"note": 0, "velocity": 0, "duration": 75}, {"note": 60, "velocity": 100, "duration": 178}, {"note": 0, "velocity": 0, "duration": 62}, {"note": 65, "velocity": 99, "duration": 155}, {"note": 0, "velocity": 0, "duration": 85}, {"note": 67, "velocity": 107, "duration": 150}, {"note": 0, "velocity": 0, "duration": 90}, {"note": 65, "velocity": 107, "duration": 91}, {"note": 0, "velocity": 0, "duration": 149}, {"note": 67, "velocity": 117, "duration": 115}, {"note": 67, "velocity": 127, "duration": 72}, {"note": 0, "velocity": 0, "duration": 168}, {"note": 65, "velocity": 102, "duration": 63}, {"note": 67, "velocity": 127, "duration": 183}, {"note": 69, "velocity": 122, "duration": 197}, {"note": 0, "velocity": 0, "duration": 283}, {"note": 60, "velocity": 112, "duration": 63}, {"note": 65, "velocity": 99, "duration": 64}, {"note": 67, "velocity": 112, "duration": 128}, {"note": 0, "velocity": 0, "duration": 112}, {"note": 65, "velocity": 112, "duration": 138}, {"note": 0, "velocity": 0, "duration": 102}, {"note": 67, "velocity": 122, "duration": 67}, {"note": 67, "velocity": 112, "duration": 92}, {"note": 0, "velocity": 0, "duration": 148}, {"note": 65, "velocity": 102, "duration": 58}, {"note": 0, "velocity": 0, "duration": 62}, {"note": 69, "velocity": 122, "duration": 172}, {"note": 0, "velocity": 0, "duration": 308}, {"note": 69, "velocity": 112, "duration": 175}, {"note": 0, "velocity": 0, "duration": 65}, {"note": 70, "velocity": 122, "duration": 135}, {"note": 0, "velocity": 0, "duration": 105}, {"note": 72, "velocity": 117, "duration": 207}, {"note": 70, "velocity": 99, "duration": 35}, {"note": 0, "velocity": 0, "duration": 205}, {"note": 70, "velocity": 127, "duration": 200}, {"note": 65, "velocity": 102, "duration": 283}, {"note": 0, "velocity": 0, "duration": 437}, {"note": 62, "velocity": 102, "duration": 211}, {"note": 65, "velocity": 112, "duration": 180}, {"note": 72, "velocity": 99, "duration": 195}, {"note": 70, "velocity": 122, "duration": 212}, {"note": 69, "velocity": 127, "duration": 148}, {"note": 0, "velocity": 0, "duration": 92}, {"note": 70, "velocity": 127, "duration": 68}, {"note": 69, "velocity": 127, "duration": 241}, {"note": 0, "velocity": 0, "duration": 119}, {"note": 70, "velocity": 112, "duration": 66}, {"note": 69, "velocity": 100, "duration": 148}, {"note": 0, "velocity": 0, "duration": 92}, {"note": 65, "velocity": 100, "duration": 181}, {"note": 65, "velocity": 95, "duration": 70}, {"note": 67, "velocity": 122, "duration": 118}, {"note": 0, "velocity": 0, "duration": 122}, {"note": 65, "velocity": 99, "duration": 139}, {"note": 0, "velocity": 0, "duration": 101}, {"note": 67, "velocity": 127, "duration": 145}, {"note": 0, "velocity": 0, "duration": 95}, {"note": 65, "velocity": 102, "duration": 147}, {"note": 0, "velocity": 0, "duration": 93}, {"note": 67, "velocity": 127, "duration": 152}, {"note": 65, "velocity": 107, "duration": 167}, {"note": 0, "velocity": 0, "duration": 73}, {"note": 69, "velocity": 122, "duration": 184}, {"note": 0, "velocity": 0, "duration": 176}, {"note": 60, "velocity": 99, "duration": 58}, {"note": 0, "velocity": 0, "duration": 62}, {"note": 65, "velocity": 99, "duration": 55}, {"note": 0, "velocity": 0, "duration": 65}, {"note": 67, "velocity": 127, "duration": 150}, {"note": 0, "velocity": 0, "duration": 90}, {"note": 65, "velocity": 102, "duration": 129}, {"note": 0, "velocity": 0, "duration": 111}, {"note": 67, "velocity": 122, "duration": 129}, {"note": 67, "velocity": 112, "duration": 9}, {"note": 0, "velocity": 0, "duration": 231}, {"note": 65, "velocity": 96, "duration": 91}, {"note": 67, "velocity": 107, "duration": 122}, {"note": 0, "velocity": 0, "duration": 118}, {"note": 69, "velocity": 112, "duration": 218}, {"note": 0, "velocity": 0, "duration": 262}, {"note": 69, "velocity": 102, "duration": 83}, {"note": 70, "velocity": 117, "duration": 56}, {"note": 0, "velocity": 0, "duration": 64}, {"note": 72, "velocity": 112, "duration": 137}, {"note": 0, "velocity": 0, "duration": 103}, {"note": 70, "velocity": 127, "duration": 142}, {"note": 0, "velocity": 0, "duration": 98}, {"note": 69, "velocity": 122, "duration": 161}, {"note": 0, "velocity": 0, "duration": 79}, {"note": 65, "velocity": 100, "duration": 159}, {"note": 0, "velocity": 0, "duration": 561}, {"note": 62, "velocity": 107, "duration": 186}, {"note": 65, "velocity": 102, "duration": 174}, {"note": 0, "velocity": 0, "duration": 66}, {"note": 72, "velocity": 127, "duration": 206}, {"note": 70, "velocity": 117, "duration": 156}, {"note": 0, "velocity": 0, "duration": 84}, {"note": 69, "velocity": 122, "duration": 145}, {"note": 0, "velocity": 0, "duration": 95}, {"note": 70, "velocity": 122, "duration": 64}, {"note": 69, "velocity": 117, "duration": 189}, {"note": 0, "velocity": 0, "duration": 171}, {"note": 65, "velocity": 96, "duration": 140}, {"note": 0, "velocity": 0, "duration": 100}, {"note": 67, "velocity": 127, "duration": 159}, {"note": 0, "velocity": 0, "duration": 81}, {"note": 67, "velocity": 112, "duration": 199}, {"note": 65, "velocity": 117, "duration": 1033}, {"note": 0, "velocity": 0, "duration": 6407}, {"note": 60, "velocity": 86, "duration": 212}, {"note": 67, "velocity": 100, "duration": 200}, {"note": 65, "velocity": 96, "duration": 151}, {"note": 0, "velocity": 0, "duration": 89}, {"note": 67, "velocity": 100, "duration": 196}, {"note": 65, "velocity": 92, "duration": 144}, {"note": 0, "velocity": 0, "duration": 96}, {"note": 67, "velocity": 102, "duration": 157}, {"note": 65, "velocity": 77, "duration": 123}, {"note": 0, "velocity": 0, "duration": 117}, {"note": 69, "velocity": 97, "duration": 304}, {"note": 60, "velocity": 97, "duration": 125}, {"note": 65, "velocity": 75, "duration": 139}, {"note": 67, "velocity": 92, "duration": 184}, {"note": 65, "velocity": 96, "duration": 155}, {"note": 0, "velocity": 0, "duration": 85}, {"note": 67, "velocity": 102, "duration": 148}, {"note": 0, "velocity": 0, "duration": 92}, {"note": 67, "velocity": 112, "duration": 77}, {"note": 65, "velocity": 76, "duration": 43}, {"note": 0, "velocity": 0, "duration": 77}, {"note": 65, "velocity": 92, "duration": 74}, {"note": 0, "velocity": 0, "duration": 166}, {"note": 67, "velocity": 93, "duration": 70}, {"note": 0, "velocity": 0, "duration": 170}, {"note": 69, "velocity": 79, "duration": 1311}]]