[[{"note": 63, "velocity": 97, "duration": 115}, {"note": 65, "velocity": 69, "duration": 93}, {"note": 66, "velocity": 92, "duration": 151}, {"note": 0, "velocity": 0, "duration": 89}, {"note": 63, "velocity": 89, "duration": 75}, {"note": 66, "velocity": 89, "duration": 111}, {"note": 0, "velocity": 0, "duration": 129}, {"note": 63, "velocity": 100, "duration": 139}, {"note": 0, "velocity": 0, "duration": 941}, {"note": 63, "velocity": 92, "duration": 81}, {"note": 65, "velocity": 74, "duration": 64}, {"note": 66, "velocity": 92, "duration": 87}, {"note": 0, "velocity": 0, "duration": 153}, {"note": 68, "velocity": 102, "duration": 58}, {"note": 0, "velocity": 0, "duration": 62}, {"note": 66, "velocity": 96, "duration": 63}, {"note": 0, "velocity": 0, "duration": 177}, {"note": 63, "velocity": 96, "duration": 95}, {"note": 0, "velocity": 0, "duration": 985}, {"note": 63, "velocity": 95, "duration": 60}, {"note": 65, "velocity": 83, "duration": 52}, {"note": 0, "velocity": 0, "duration": 68}, {"note": 66, "velocity": 100, "duration": 116}, {"note": 0, "velocity": 0, "duration": 124}, {"note": 68, "velocity": 88, "duration": 52}, {"note": 0, "velocity": 0, "duration": 68}, {"note": 70, "velocity": 102, "duration": 178}, {"note": 0, "velocity": 0, "duration": 302}, {"note": 70, "velocity": 100, "duration": 74}, {"note": 0, "velocity": 0, "duration": 166}, {"note": 73, "velocity": 107, "duration": 95}, {"note": 0, "velocity": 0, "duration": 145}, {"note": 70, "velocity": 92, "duration": 36}, {"note": 0, "velocity": 0, "duration": 84}, {"note": 70, "velocity": 97, "duration": 161}, {"note": 0, "velocity": 0, "duration": 79}, {"note": 68, "velocity": 95, "duration": 429}, {"note": 68, "velocity": 100, "duration": 69}, {"note": 0, "velocity": 0, "duration": 171}, {"note": 66, "velocity": 88, "duration": 45}, {"note": 0, "velocity": 0, "duration": 75}, {"note": 66, "velocity": 100, "duration": 243}, {"note": 65, "velocity": 79, "duration": 479}, {"note": 0, "velocity": 0, "duration": 361}, {"note": 58, "velocity": 92, "duration": 59}, {"note": 0, "velocity": 0, "duration": 61}, {"note": 63, "velocity": 88, "duration": 58}, {"note": 0, "velocity": 0, "duration": 62}, {"note": 65, "velocity": 96, "duration": 56}, {"note": 0, "velocity": 0, "duration": 64}, {"note": 66, "velocity": 107, "duration": 148}, {"note": 0, "velocity": 0, "duration": 92}, {"note": 63, "velocity": 93, "duration": 51}, {"note": 0, "velocity": 0, "duration": 69}, {"note": 66, "velocity": 99, "duration": 52}, {"note": 0, "velocity": 0, "duration": 188}, {"note": 63, "velocity": 95, "duration": 326}, {"note": 0, "velocity": 0, "duration": 634}, {"note": 58, "velocity": 96, "duration": 40}, {"note": 0, "velocity": 0, "duration": 80}, {"note": 63, "velocity": 92, "duration": 43}, {"note": 0, "velocity": 0, "duration": 77}, {"note": 65, "velocity": 99, "duration": 36}, {"note": 0, "velocity": 0, "duration": 84}, {"note": 66, "velocity": 127, "duration": 109}, {"note": 0, "velocity": 0, "duration": 131}, {"note": 68, "velocity": 117, "duration": 67}, {"note": 66, "velocity": 102, "duration": 96}, {"note": 0, "velocity": 0, "duration": 144}, {"note": 63, "velocity": 100, "duration": 301}, {"note": 0, "velocity": 0, "duration": 779}, {"note": 63, "velocity": 92, "duration": 50}, {"note": 0, "velocity": 0, "duration": 70}, {"note": 63, "velocity": 77, "duration": 48}, {"note": 0, "velocity": 0, "duration": 72}, {"note": 63, "velocity": 93, "duration": 173}, {"note": 0, "velocity": 0, "duration": 67}, {"note": 63, "velocity": 73, "duration": 50}, {"note": 0, "velocity": 0, "duration": 70}, {"note": 63, "velocity": 92, "duration": 272}, {"note": 0, "velocity": 0, "duration": 328}, {"note": 62, "velocity": 95, "duration": 87}, {"note": 0, "velocity": 0, "duration": 153}, {"note": 63, "velocity": 75, "duration": 82}, {"note": 65, "velocity": 82, "duration": 65}, {"note": 63, "velocity": 90, "duration": 629}, {"note": 0, "velocity": 0, "duration": 1771}, {"note": 66, "velocity": 107, "duration": 183}, {"note": 68, "velocity": 100, "duration": 56}, {"note": 0, "velocity": 0, "duration": 64}, {"note": 70, "velocity": 127, "duration": 372}, {"note": 0, "velocity": 0, "duration": 228}, {"note": 70, "velocity": 107, "duration": 70}, {"note": 73, "velocity": 99, "duration": 44}, {"note": 0, "velocity": 0, "duration": 76}, {"note": 73, "velocity": 99, "duration": 80}, {"note": 70, "velocity": 95, "duration": 62}, {"note": 73, "velocity": 122, "duration": 150}, {"note": 0, "velocity": 0, "duration": 90}, {"note": 75, "velocity": 95, "duration": 47}, {"note": 0, "velocity": 0, "duration": 73}, {"note": 75, "velocity": 107, "duration": 228}, {"note": 73, "velocity": 97, "duration": 540}, {"note": 0, "velocity": 0, "duration": 300}, {"note": 75, "velocity": 107, "duration": 160}, {"note": 0, "velocity": 0, "duration": 80}, {"note": 77, "velocity": 112, "duration": 79}, {"note": 78, "velocity": 127, "duration": 550}, {"note": 0, "velocity": 0, "duration": 290}, {"note": 78, "velocity": 127, "duration": 122}, {"note": 77, "velocity": 95, "duration": 57}, {"note": 0, "velocity": 0, "duration": 63}, {"note": 78, "velocity": 112, "duration": 141}, {"note": 0, "velocity": 0, "duration": 99}, {"note": 77, "velocity": 112, "duration": 132}, {"note": 0, "velocity": 0, "duration": 108}, {"note": 78, "velocity": 122, "duration": 125}, {"note": 0, "velocity": 0, "duration": 115}, {"note": 70, "velocity": 100, "duration": 80}, {"note": 73, "velocity": 127, "duration": 570}, {"note": 0, "velocity": 0, "duration": 990}, {"note": 70, "velocity": 112, "duration": 166}, {"note": 0, "velocity": 0, "duration": 74}, {"note": 73, "velocity": 102, "duration": 67}, {"note": 75, "velocity": 107, "duration": 467}, {"note": 0, "velocity": 0, "duration": 613}, {"note": 75, "velocity": 127, "duration": 77}, {"note": 0, "velocity": 0, "duration": 163}, {"note": 73, "velocity": 127, "duration": 105}, {"note": 0, "velocity": 0, "duration": 135}, {"note": 75, "velocity": 127, "duration": 101}, {"note": 0, "velocity": 0, "duration": 139}, {"note": 66, "velocity": 99, "duration": 101}, {"note": 0, "velocity": 0, "duration": 139}, {"note": 66, "velocity": 102, "duration": 134}, {"note": 73, "velocity": 107, "duration": 58}, {"note": 0, "velocity": 0, "duration": 182}, {"note": 70, "velocity": 117, "duration": 511}, {"note": 0, "velocity": 0, "duration": 809}, {"note": 71, "velocity": 127, "duration": 119}, {"note": 70, "velocity": 89, "duration": 135}, {"note": 71, "velocity": 112, "duration": 405}, {"note": 0, "velocity": 0, "duration": 435}, {"note": 70, "velocity": 93, "duration": 122}, {"note": 71, "velocity": 127, "duration": 112}, {"note": 0, "velocity": 0, "duration": 128}, {"note": 70, "velocity": 81, "duration": 130}, {"note": 71, "velocity": 112, "duration": 237}, {"note": 0, "velocity": 0, "duration": 123}, {"note": 66, "velocity": 107, "duration": 202}, {"note": 68, "velocity": 97, "duration": 651}, {"note": 0, "velocity": 0, "duration": 1749}, {"note": 66, "velocity": 107, "duration": 183}, {"note": 68, "velocity": 100, "duration": 56}, {"note": 0, "velocity": 0, "duration": 64}, {"note": 70, "velocity": 127, "duration": 372}, {"note": 0, "velocity": 0, "duration": 228}, {"note": 70, "velocity": 107, "duration": 70}, {"note": 73, "velocity": 99, "duration": 44}, {"note": 0, "velocity": 0, "duration": 76}, {"note": 73, "velocity": 99, "duration": 80}, {"note": 70, "velocity": 95, "duration": 62}, {"note": 73, "velocity": 122, "duration": 150}, {"note": 0, "velocity": 0, "duration": 90}, {"note": 75, "velocity": 95, "duration": 47}, {"note": 0, "velocity": 0, "duration": 73}, {"note": 75, "velocity": 107, "duration": 228}, {"note": 73, "velocity": 97, "duration": 540}, {"note": 0, "velocity": 0, "duration": 300}, {"note": 75, "velocity": 107, "duration": 160}, {"note": 0, "velocity": 0, "duration": 80}, {"note": 77, "velocity": 112, "duration": 79}, {"note": 78, "velocity": 127, "duration": 550}, {"note": 0, "velocity": 0, "duration": 290}, {"note": 77, "velocity": 127, "duration": 122}, {"note": 0, "velocity": 0, "duration": 118}, {"note": 78, "velocity": 112, "duration": 141}, {"note": 0, "velocity": 0, "duration": 99}, {"note": 77, "velocity": 112, "duration": 132}, {"note": 0, "velocity": 0, "duration": 108}, {"note": 78, "velocity": 122, "duration": 125}, {"note": 0, "velocity": 0, "duration": 115}, {"note": 70, "velocity": 100, "duration": 80}, {"note": 0, "velocity": 0, "duration": 160}, {"note": 73, "velocity": 127, "duration": 570}, {"note": 0, "velocity": 0, "duration": 870}, {"note": 70, "velocity": 112, "duration": 166}, {"note": 0, "velocity": 0, "duration": 74}, {"note": 73, "velocity": 102, "duration": 67}, {"note": 0, "velocity": 0, "duration": 173}, {"note": 75, "velocity": 107, "duration": 173}, {"note": 0, "velocity": 0, "duration": 67}, {"note": 73, "velocity": 97, "duration": 48}, {"note": 0, "velocity": 0, "duration": 72}, {"note": 75, "velocity": 117, "duration": 735}, {"note": 0, "velocity": 0, "duration": 345}, {"note": 75, "velocity": 122, "duration": 92}, {"note": 0, "velocity": 0, "duration": 148}, {"note": 70, "velocity": 102, "duration": 44}, {"note": 0, "velocity": 0, "duration": 76}, {"note": 70, "velocity": 102, "duration": 67}, {"note": 73, "velocity": 102, "duration": 66}, {"note": 70, "velocity": 99, "duration": 1112}, {"note": 0, "velocity": 0, "duration": 448}, {"note": 71, "velocity": 127, "duration": 119}, {"note": 70, "velocity": 89, "duration": 135}, {"note": 71, "velocity": 112, "duration": 405}, {"note": 0, "velocity": 0, "duration": 435}, {"note": 70, "velocity": 100, "duration": 101}, {"note": 75, "velocity": 127, "duration": 262}, {"note": 0, "velocity": 0, "duration": 98}, {"note": 78, "velocity": 127, "duration": 320}, {"note": 75, "velocity": 122, "duration": 181}, {"note": 75, "velocity": 127, "duration": 1389}, {"note": 0, "velocity": 0, "duration": 6531}, {"note": 63, "velocity": 97, "duration": 115}, {"note": 65, "velocity": 69, "duration": 93}, {"note": 66, "velocity": 92, "duration": 151}, {"note": 0, "velocity": 0, "duration": 89}, {"note": 63, "velocity": 89, "duration": 75}, {"note": 66, "velocity": 89, "duration": 111}, {"note": 0, "velocity": 0, "duration": 129}, {"note": 63, "velocity": 100, "duration": 139}, {"note": 0, "velocity": 0, "duration": 941}, {"note": 63, "velocity": 92, "duration": 81}, {"note": 65, "velocity": 74, "duration": 64}, {"note": 66, "velocity": 92, "duration": 87}, {"note": 0, "velocity": 0, "duration": 153}, {"note": 68, "velocity": 102, "duration": 58}, {"note": 0, "velocity": 0, "duration": 62}, {"note": 66, "velocity": 96, "duration": 63}, {"note": 0, "velocity": 0, "duration": 177}, {"note": 63, "velocity": 96, "duration": 95}, {"note": 0, "velocity": 0, "duration": 985}, {"note": 63, "velocity": 95, "duration": 60}, {"note": 65, "velocity": 83, "duration": 52}, {"note": 0, "velocity": 0, "duration": 68}, {"note": 66, "velocity": 100, "duration": 116}, {"note": 0, "velocity": 0, "duration": 124}, {"note": 68, "velocity": 88, "duration": 52}, {"note": 0, "velocity": 0, "duration": 68}, {"note": 70, "velocity": 102, "duration": 178}, {"note": 0, "velocity": 0, "duration": 302}, {"note": 70, "velocity": 100, "duration": 74}, {"note": 0, "velocity": 0, "duration": 166}, {"note": 73, "velocity": 107, "duration": 95}, {"note": 0, "velocity": 0, "duration": 145}, {"note": 70, "velocity": 92, "duration": 36}, {"note": 0, "velocity": 0, "duration": 84}, {"note": 70, "velocity": 97, "duration": 161}, {"note": 0, "velocity": 0, "duration": 79}, {"note": 68, "velocity": 95, "duration": 240}, {"note": 0, "velocity": 0, "duration": 120}, {"note": 68, "velocity": 100, "duration": 69}, {"note": 0, "velocity": 0, "duration": 171}, {"note": 66, "velocity": 88, "duration": 45}, {"note": 0, "velocity": 0, "duration": 75}, {"note": 66, "velocity": 100, "duration": 243}, {"note": 65, "velocity": 79, "duration": 479}, {"note": 0, "velocity": 0, "duration": 361}, {"note": 58, "velocity": 92, "duration": 59}, {"note": 0, "velocity": 0, "duration": 61}, {"note": 63, "velocity": 88, "duration": 58}, {"note": 0, "velocity": 0, "duration": 62}, {"note": 65, "velocity": 96, "duration": 56}, {"note": 0, "velocity": 0, "duration": 64}, {"note": 66, "velocity": 107, "duration": 148}, {"note": 0, "velocity": 0, "duration": 92}, {"note": 63, "velocity": 93, "duration": 51}, {"note": 0, "velocity": 0, "duration": 69}, {"note": 66, "velocity": 99, "duration": 52}, {"note": 0, "velocity": 0, "duration": 188}, {"note": 63, "velocity": 95, "duration": 326}, {"note": 0, "velocity": 0, "duration": 634}, {"note": 58, "velocity": 96, "duration": 40}, {"note": 0, "velocity": 0, "duration": 80}, {"note": 63, "velocity": 92, "duration": 43}, {"note": 0, "velocity": 0, "duration": 77}, {"note": 65, "velocity": 99, "duration": 36}, {"note": 0, "velocity": 0, "duration": 84}, {"note": 66, "velocity": 127, "duration": 109}, {"note": 0, "velocity": 0, "duration": 131}, {"note": 68, "velocity": 117, "duration": 67}, {"note": 66, "velocity": 102, "duration": 96}, {"note": 0, "velocity": 0, "duration": 144}, {"note": 63, "velocity": 100, "duration": 301}, {"note": 0, "velocity": 0, "duration": 779}, {"note": 63, "velocity": 92, "duration": 50}, {"note": 0, "velocity": 0, "duration": 70}, {"note": 63, "velocity": 77, "duration": 48}, {"note": 0, "velocity": 0, "duration": 72}, {"note": 63, "velocity": 93, "duration": 173}, {"note": 0, "velocity": 0, "duration": 67}, {"note": 63, "velocity": 73, "duration": 50}, {"note": 0, "velocity": 0, "duration": 70}, {"note": 63, "velocity": 92, "duration": 272}, {"note": 0, "velocity": 0, "duration": 328}, {"note": 61, "velocity": 95, "duration": 87}, {"note": 0, "velocity": 0, "duration": 153}, {"note": 63, "velocity": 75, "duration": 82}, {"note": 65, "velocity": 82, "duration": 65}, {"note": 63, "velocity": 90, "duration": 1753}, {"note": 0, "velocity": 0, "duration": 647}, {"note": 66, "velocity": 107, "duration": 183}, {"note": 68, "velocity": 100, "duration": 56}, {"note": 0, "velocity": 0, "duration": 64}, {"note": 70, "velocity": 127, "duration": 372}, {"note": 0, "velocity": 0, "duration": 228}, {"note": 70, "velocity": 107, "duration": 70}, {"note": 73, "velocity": 99, "duration": 44}, {"note": 0, "velocity": 0, "duration": 76}, {"note": 73, "velocity": 99, "duration": 80}, {"note": 70, "velocity": 95, "duration": 62}, {"note": 73, "velocity": 122, "duration": 150}, {"note": 0, "velocity": 0, "duration": 90}, {"note": 75, "velocity": 95, "duration": 47}, {"note": 0, "velocity": 0, "duration": 73}, {"note": 75, "velocity": 107, "duration": 228}, {"note": 73, "velocity": 97, "duration": 540}, {"note": 0, "velocity": 0, "duration": 300}, {"note": 75, "velocity": 107, "duration": 160}, {"note": 0, "velocity": 0, "duration": 80}, {"note": 77, "velocity": 112, "duration": 79}, {"note": 78, "velocity": 127, "duration": 550}, {"note": 0, "velocity": 0, "duration": 290}, {"note": 78, "velocity": 127, "duration": 122}, {"note": 77, "velocity": 95, "duration": 57}, {"note": 0, "velocity": 0, "duration": 63}, {"note": 78, "velocity": 112, "duration": 141}, {"note": 0, "velocity": 0, "duration": 99}, {"note": 77, "velocity": 112, "duration": 132}, {"note": 0, "velocity": 0, "duration": 108}, {"note": 78, "velocity": 122, "duration": 125}, {"note": 0, "velocity": 0, "duration": 115}, {"note": 70, "velocity": 100, "duration": 80}, {"note": 73, "velocity": 127, "duration": 570}, {"note": 0, "velocity": 0, "duration": 990}, {"note": 70, "velocity": 112, "duration": 166}, {"note": 0, "velocity": 0, "duration": 74}, {"note": 73, "velocity": 102, "duration": 67}, {"note": 75, "velocity": 107, "duration": 467}, {"note": 0, "velocity": 0, "duration": 613}, {"note": 75, "velocity": 127, "duration": 77}, {"note": 0, "velocity": 0, "duration": 163}, {"note": 73, "velocity": 127, "duration": 105}, {"note": 0, "velocity": 0, "duration": 135}, {"note": 75, "velocity": 127, "duration": 101}, {"note": 0, "velocity": 0, "duration": 139}, {"note": 66, "velocity": 99, "duration": 101}, {"note": 0, "velocity": 0, "duration": 139}, {"note": 66, "velocity": 102, "duration": 134}, {"note": 73, "velocity": 107, "duration": 58}, {"note": 0, "velocity": 0, "duration": 182}, {"note": 70, "velocity": 117, "duration": 511}, {"note": 0, "velocity": 0, "duration": 809}, {"note": 71, "velocity": 127, "duration": 119}, {"note": 70, "velocity": 89, "duration": 135}, {"note": 71, "velocity": 112, "duration": 405}, {"note": 0, "velocity": 0, "duration": 435}, {"note": 70, "velocity": 93, "duration": 122}, {"note": 71, "velocity": 127, "duration": 112}, {"note": 0, "velocity": 0, "duration": 128}, {"note": 70, "velocity": 81, "duration": 130}, {"note": 71, "velocity": 112, "duration": 237}, {"note": 0, "velocity": 0, "duration": 123}, {"note": 66, "velocity": 107, "duration": 202}, {"note": 68, "velocity": 97, "duration": 651}, {"note": 0, "velocity": 0, "duration": 1749}, {"note": 66, "velocity": 107, "duration": 183}, {"note": 68, "velocity": 100, "duration": 56}, {"note": 0, "velocity": 0, "duration": 64}, {"note": 70, "velocity": 127, "duration": 372}, {"note": 0, "velocity": 0, "duration": 228}, {"note": 70, "velocity": 107, "duration": 70}, {"note": 73, "velocity": 99, "duration": 44}, {"note": 0, "velocity": 0, "duration": 76}, {"note": 73, "velocity": 99, "duration": 80}, {"note": 70, "velocity": 95, "duration": 62}, {"note": 73, "velocity": 122, "duration": 150}, {"note": 0, "velocity": 0, "duration": 90}, {"note": 75, "velocity": 95, "duration": 47}, {"note": 0, "velocity": 0, "duration": 73}, {"note": 75, "velocity": 107, "duration": 228}, {"note": 73, "velocity": 97, "duration": 540}, {"note": 0, "velocity": 0, "duration": 300}, {"note": 75, "velocity": 107, "duration": 160}, {"note": 0, "velocity": 0, "duration": 80}, {"note": 77, "velocity": 112, "duration": 79}, {"note": 78, "velocity": 127, "duration": 550}, {"note": 0, "velocity": 0, "duration": 290}, {"note": 77, "velocity": 127, "duration": 122}, {"note": 0, "velocity": 0, "duration": 118}, {"note": 78, "velocity": 112, "duration": 141}, {"note": 0, "velocity": 0, "duration": 99}, {"note": 77, "velocity": 112, "duration": 132}, {"note": 0, "velocity": 0, "duration": 108}, {"note": 78, "velocity": 122, "duration": 125}, {"note": 0, "velocity": 0, "duration": 115}, {"note": 70, "velocity": 100, "duration": 80}, {"note": 0, "velocity": 0, "duration": 160}, {"note": 73, "velocity": 127, "duration": 570}, {"note": 0, "velocity": 0, "duration": 870}, {"note": 70, "velocity": 112, "duration": 166}, {"note": 0, "velocity": 0, "duration": 74}, {"note": 73, "velocity": 102, "duration": 67}, {"note": 0, "velocity": 0, "duration": 173}, {"note": 75, "velocity": 107, "duration": 173}, {"note": 0, "velocity": 0, "duration": 67}, {"note": 73, "velocity": 97, "duration": 48}, {"note": 0, "velocity": 0, "duration": 72}, {"note": 75, "velocity": 117, "duration": 735}, {"note": 0, "velocity": 0, "duration": 345}, {"note": 75, "velocity": 122, "duration": 92}, {"note": 0, "velocity": 0, "duration": 148}, {"note": 70, "velocity": 102, "duration": 44}, {"note": 0, "velocity": 0, "duration": 76}, {"note": 70, "velocity": 102, "duration": 67}, {"note": 73, "velocity": 102, "duration": 66}, {"note": 70, "velocity": 99, "duration": 1112}, {"note": 0, "velocity": 0, "duration": 448}, {"note": 71, "velocity": 127, "duration": 119}, {"note": 70, "velocity": 89, "duration": 135}, {"note": 71, "velocity": 112, "duration": 405}, {"note": 0, "velocity": 0, "duration": 435}, {"note": 70, "velocity": 100, "duration": 101}, {"note": 75, "velocity": 127, "duration": 262}, {"note": 0, "velocity": 0, "duration": 98}, {"note": 78, "velocity": 127, "duration": 320}, {"note": 75, "velocity": 122, "duration": 181}, {"note": 75, "velocity": 127, "duration": 1389}, {"note": 0, "velocity": 0, "duration": 1011}, {"note": 66, "velocity": 107, "duration": 183}, {"note": 68, "velocity": 100, "duration": 56}, {"note": 0, "velocity": 0, "duration": 64}, {"note": 70, "velocity": 127, "duration": 372}, {"note": 0, "velocity": 0, "duration": 228}, {"note": 70, "velocity": 107, "duration": 70}, {"note": 73, "velocity": 99, "duration": 44}, {"note": 0, "velocity": 0, "duration": 76}, {"note": 73, "velocity": 99, "duration": 80}, {"note": 70, "velocity": 95, "duration": 62}, {"note": 73, "velocity": 122, "duration": 150}, {"note": 0, "velocity": 0, "duration": 90}, {"note": 75, "velocity": 95, "duration": 47}, {"note": 0, "velocity": 0, "duration": 73}, {"note": 75, "velocity": 107, "duration": 228}, {"note": 73, "velocity": 97, "duration": 540}, {"note": 0, "velocity": 0, "duration": 300}, {"note": 75, "velocity": 107, "duration": 160}, {"note": 0, "velocity": 0, "duration": 80}, {"note": 77, "velocity": 112, "duration": 79}, {"note": 78, "velocity": 127, "duration": 550}, {"note": 0, "velocity": 0, "duration": 290}, {"note": 78, "velocity": 127, "duration": 122}, {"note": 77, "velocity": 95, "duration": 57}, {"note": 0, "velocity": 0, "duration": 63}, {"note": 78, "velocity": 112, "duration": 141}, {"note": 0, "velocity": 0, "duration": 99}, {"note": 77, "velocity": 112, "duration": 132}, {"note": 0, "velocity": 0, "duration": 108}, {"note": 78, "velocity": 122, "duration": 125}, {"note": 0, "velocity": 0, "duration": 115}, {"note": 70, "velocity": 100, "duration": 80}, {"note": 73, "velocity": 127, "duration": 570}, {"note": 0, "velocity": 0, "duration": 990}, {"note": 70, "velocity": 112, "duration": 166}, {"note": 0, "velocity": 0, "duration": 74}, {"note": 73, "velocity": 102, "duration": 67}, {"note": 75, "velocity": 107, "duration": 467}, {"note": 0, "velocity": 0, "duration": 613}, {"note": 75, "velocity": 127, "duration": 77}, {"note": 0, "velocity": 0, "duration": 163}, {"note": 73, "velocity": 127, "duration": 105}, {"note": 0, "velocity": 0, "duration": 135}, {"note": 75, "velocity": 127, "duration": 101}, {"note": 0, "velocity": 0, "duration": 139}, {"note": 66, "velocity": 99, "duration": 101}, {"note": 0, "velocity": 0, "duration": 139}, {"note": 66, "velocity": 102, "duration": 134}, {"note": 73, "velocity": 107, "duration": 58}, {"note": 0, "velocity": 0, "duration": 182}, {"note": 70, "velocity": 117, "duration": 511}, {"note": 0, "velocity": 0, "duration": 809}, {"note": 71, "velocity": 127, "duration": 119}, {"note": 70, "velocity": 89, "duration": 135}, {"note": 71, "velocity": 112, "duration": 405}, {"note": 0, "velocity": 0, "duration": 435}, {"note": 70, "velocity": 93, "duration": 122}, {"note": 71, "velocity": 127, "duration": 112}, {"note": 0, "velocity": 0, "duration": 128}, {"note": 70, "velocity": 81, "duration": 130}, {"note": 71, "velocity": 112, "duration": 237}, {"note": 0, "velocity": 0, "duration": 123}, {"note": 66, "velocity": 107, "duration": 202}, {"note": 68, "velocity": 97, "duration": 651}, {"note": 0, "velocity": 0, "duration": 1749}, {"note": 66, "velocity": 107, "duration": 183}, {"note": 68, "velocity": 100, "duration": 56}, {"note": 0, "velocity": 0, "duration": 64}, {"note": 70, "velocity": 127, "duration": 372}, {"note": 0, "velocity": 0, "duration": 228}, {"note": 70, "velocity": 107, "duration": 70}, {"note": 73, "velocity": 99, "duration": 44}, {"note": 0, "velocity": 0, "duration": 76}, {"note": 73, "velocity": 99, "duration": 80}, {"note": 70, "velocity": 95, "duration": 62}, {"note": 73, "velocity": 122, "duration": 150}, {"note": 0, "velocity": 0, "duration": 90}, {"note": 75, "velocity": 95, "duration": 47}, {"note": 0, "velocity": 0, "duration": 73}, {"note": 75, "velocity": 107, "duration": 228}, {"note": 73, "velocity": 97, "duration": 540}, {"note": 0, "velocity": 0, "duration": 300}, {"note": 75, "velocity": 107, "duration": 160}, {"note": 0, "velocity": 0, "duration": 80}, {"note": 77, "velocity": 112, "duration": 79}, {"note": 78, "velocity": 127, "duration": 550}, {"note": 0, "velocity": 0, "duration": 290}, {"note": 77, "velocity": 127, "duration": 122}, {"note": 0, "velocity": 0, "duration": 118}, {"note": 78, "velocity": 112, "duration": 141}, {"note": 0, "velocity": 0, "duration": 99}, {"note": 77, "velocity": 112, "duration": 132}, {"note": 0, "velocity": 0, "duration": 108}, {"note": 78, "velocity": 122, "duration": 125}, {"note": 0, "velocity": 0, "duration": 115}, {"note": 70, "velocity": 100, "duration": 80}, {"note": 0, "velocity": 0, "duration": 160}, {"note": 73, "velocity": 127, "duration": 570}, {"note": 0, "velocity": 0, "duration": 870}, {"note": 70, "velocity": 112, "duration": 166}, {"note": 0, "velocity": 0, "duration": 74}, {"note": 73, "velocity": 102, "duration": 67}, {"note": 0, "velocity": 0, "duration": 173}, {"note": 75, "velocity": 107, "duration": 173}, {"note": 0, "velocity": 0, "duration": 67}, {"note": 73, "velocity": 97, "duration": 48}, {"note": 0, "velocity": 0, "duration": 72}, {"note": 75, "velocity": 117, "duration": 735}, {"note": 0, "velocity": 0, "duration": 345}, {"note": 75, "velocity": 122, "duration": 92}, {"note": 0, "velocity": 0, "duration": 148}, {"note": 70, "velocity": 102, "duration": 44}, {"note": 0, "velocity": 0, "duration": 76}, {"note": 70, "velocity": 102, "duration": 67}, {"note": 73, "velocity": 102, "duration": 66}, {"note": 70, "velocity": 99, "duration": 1112}, {"note": 0, "velocity": 0, "duration": 448}, {"note": 71, "velocity": 127, "duration": 119}, {"note": 70, "velocity": 89, "duration": 135}, {"note": 71, "velocity": 112, "duration": 405}, {"note": 0, "velocity": 0, "duration": 435}, {"note": 70, "velocity": 100, "duration": 101}, {"note": 75, "velocity": 127, "duration": 262}, {"note": 0, "velocity": 0, "duration": 98}, {"note": 78, "velocity": 127, "duration": 320}, {"note": 75, "velocity": 122, "duration": 181}, {"note": 75, "velocity": 127, "duration": 1389}, {"note": 73, "velocity": 117, "duration": 177}, {"note": 0, "velocity": 0, "duration": 63}, {"note": 73, "velocity": 117, "duration": 147}, {"note": 0, "velocity": 0, "duration": 93}, {"note": 75, "velocity": 127, "duration": 166}, {"note": 0, "velocity": 0, "duration": 74}, {"note": 73, "velocity": 112, "duration": 50}, {"note": 0, "velocity": 0, "duration": 70}, {"note": 75, "velocity": 127, "duration": 695}, {"note": 0, "velocity": 0, "duration": 385}, {"note": 75, "velocity": 112, "duration": 67}, {"note": 0, "velocity": 0, "duration": 173}, {"note": 70, "velocity": 93, "duration": 109}, {"note": 0, "velocity": 0, "duration": 131}, {"note": 70, "velocity": 107, "duration": 83}, {"note": 73, "velocity": 112, "duration": 82}, {"note": 0, "velocity": 0, "duration": 158}, {"note": 70, "velocity": 107, "duration": 438}, {"note": 0, "velocity": 0, "duration": 882}, {"note": 71, "velocity": 127, "duration": 115}, {"note": 70, "velocity": 81, "duration": 150}, {"note": 71, "velocity": 99, "duration": 294}, {"note": 0, "velocity": 0, "duration": 426}, {"note": 71, "velocity": 117, "duration": 178}, {"note": 0, "velocity": 0, "duration": 62}, {"note": 75, "velocity": 112, "duration": 201}, {"note": 0, "velocity": 0, "duration": 159}, {"note": 78, "velocity": 117, "duration": 259}, {"note": 0, "velocity": 0, "duration": 101}, {"note": 75, "velocity": 102, "duration": 124}, {"note": 0, "velocity": 0, "duration": 116}, {"note": 75, "velocity": 127, "duration": 1368}]]