[[{"note": 55, "velocity": 85, "duration": 246}, {"note": 56, "velocity": 69, "duration": 143}, {"note": 0, "velocity": 0, "duration": 97}, {"note": 58, "velocity": 90, "duration": 179}, {"note": 0, "velocity": 0, "duration": 61}, {"note": 60, "velocity": 85, "duration": 135}, {"note": 0, "velocity": 0, "duration": 105}, {"note": 58, "velocity": 92, "duration": 674}, {"note": 0, "velocity": 0, "duration": 286}, {"note": 53, "velocity": 88, "duration": 253}, {"note": 58, "velocity": 72, "duration": 156}, {"note": 0, "velocity": 0, "duration": 84}, {"note": 58, "velocity": 89, "duration": 196}, {"note": 60, "velocity": 78, "duration": 141}, {"note": 0, "velocity": 0, "duration": 99}, {"note": 58, "velocity": 83, "duration": 992}, {"note": 51, "velocity": 83, "duration": 211}, {"note": 53, "velocity": 79, "duration": 206}, {"note": 55, "velocity": 76, "duration": 171}, {"note": 0, "velocity": 0, "duration": 69}, {"note": 63, "velocity": 102, "duration": 184}, {"note": 60, "velocity": 89, "duration": 625}, {"note": 55, "velocity": 92, "duration": 514}, {"note": 58, "velocity": 74, "duration": 1567}, {"note": 0, "velocity": 0, "duration": 353}, {"note": 60, "velocity": 97, "duration": 216}, {"note": 63, "velocity": 86, "duration": 166}, {"note": 0, "velocity": 0, "duration": 74}, {"note": 63, "velocity": 88, "duration": 218}, {"note": 65, "velocity": 85, "duration": 217}, {"note": 63, "velocity": 86, "duration": 652}, {"note": 0, "velocity": 0, "duration": 68}, {"note": 60, "velocity": 88, "duration": 129}, {"note": 0, "velocity": 0, "duration": 111}, {"note": 58, "velocity": 77, "duration": 168}, {"note": 0, "velocity": 0, "duration": 72}, {"note": 60, "velocity": 81, "duration": 138}, {"note": 0, "velocity": 0, "duration": 102}, {"note": 55, "velocity": 73, "duration": 153}, {"note": 0, "velocity": 0, "duration": 87}, {"note": 53, "velocity": 52, "duration": 138}, {"note": 0, "velocity": 0, "duration": 102}, {"note": 51, "velocity": 57, "duration": 510}, {"note": 0, "velocity": 0, "duration": 450}, {"note": 48, "velocity": 89, "duration": 218}, {"note": 51, "velocity": 74, "duration": 163}, {"note": 0, "velocity": 0, "duration": 77}, {"note": 53, "velocity": 76, "duration": 148}, {"note": 0, "velocity": 0, "duration": 92}, {"note": 58, "velocity": 86, "duration": 148}, {"note": 0, "velocity": 0, "duration": 92}, {"note": 55, "velocity": 79, "duration": 393}, {"note": 0, "velocity": 0, "duration": 87}, {"note": 53, "velocity": 89, "duration": 224}, {"note": 55, "velocity": 72, "duration": 122}, {"note": 53, "velocity": 69, "duration": 134}, {"note": 51, "velocity": 63, "duration": 1729}, {"note": 0, "velocity": 0, "duration": 1631}, {"note": 55, "velocity": 96, "duration": 229}, {"note": 58, "velocity": 99, "duration": 177}, {"note": 0, "velocity": 0, "duration": 63}, {"note": 67, "velocity": 107, "duration": 498}, {"note": 0, "velocity": 0, "duration": 222}, {"note": 67, "velocity": 112, "duration": 146}, {"note": 0, "velocity": 0, "duration": 94}, {"note": 67, "velocity": 107, "duration": 181}, {"note": 65, "velocity": 112, "duration": 158}, {"note": 0, "velocity": 0, "duration": 82}, {"note": 65, "velocity": 102, "duration": 151}, {"note": 0, "velocity": 0, "duration": 89}, {"note": 63, "velocity": 107, "duration": 168}, {"note": 0, "velocity": 0, "duration": 72}, {"note": 58, "velocity": 90, "duration": 1057}, {"note": 0, "velocity": 0, "duration": 383}, {"note": 55, "velocity": 93, "duration": 240}, {"note": 58, "velocity": 96, "duration": 191}, {"note": 63, "velocity": 112, "duration": 626}, {"note": 0, "velocity": 0, "duration": 94}, {"note": 63, "velocity": 117, "duration": 176}, {"note": 0, "velocity": 0, "duration": 64}, {"note": 63, "velocity": 117, "duration": 291}, {"note": 60, "velocity": 99, "duration": 148}, {"note": 0, "velocity": 0, "duration": 92}, {"note": 60, "velocity": 100, "duration": 152}, {"note": 0, "velocity": 0, "duration": 88}, {"note": 58, "velocity": 102, "duration": 108}, {"note": 60, "velocity": 92, "duration": 95}, {"note": 55, "velocity": 86, "duration": 1117}, {"note": 0, "velocity": 0, "duration": 323}, {"note": 55, "velocity": 107, "duration": 238}, {"note": 58, "velocity": 107, "duration": 190}, {"note": 67, "velocity": 102, "duration": 606}, {"note": 0, "velocity": 0, "duration": 114}, {"note": 67, "velocity": 127, "duration": 162}, {"note": 0, "velocity": 0, "duration": 78}, {"note": 67, "velocity": 117, "duration": 244}, {"note": 65, "velocity": 96, "duration": 155}, {"note": 0, "velocity": 0, "duration": 85}, {"note": 65, "velocity": 112, "duration": 194}, {"note": 63, "velocity": 117, "duration": 183}, {"note": 60, "velocity": 122, "duration": 1085}, {"note": 0, "velocity": 0, "duration": 355}, {"note": 60, "velocity": 102, "duration": 237}, {"note": 63, "velocity": 99, "duration": 240}, {"note": 65, "velocity": 100, "duration": 518}, {"note": 0, "velocity": 0, "duration": 202}, {"note": 65, "velocity": 97, "duration": 143}, {"note": 0, "velocity": 0, "duration": 97}, {"note": 65, "velocity": 112, "duration": 184}, {"note": 65, "velocity": 112, "duration": 121}, {"note": 67, "velocity": 100, "duration": 84}, {"note": 62, "velocity": 93, "duration": 221}, {"note": 60, "velocity": 85, "duration": 209}, {"note": 58, "velocity": 85, "duration": 958}, {"note": 0, "velocity": 0, "duration": 962}, {"note": 55, "velocity": 85, "duration": 246}, {"note": 56, "velocity": 69, "duration": 143}, {"note": 0, "velocity": 0, "duration": 97}, {"note": 58, "velocity": 90, "duration": 179}, {"note": 0, "velocity": 0, "duration": 61}, {"note": 60, "velocity": 85, "duration": 135}, {"note": 0, "velocity": 0, "duration": 105}, {"note": 58, "velocity": 92, "duration": 674}, {"note": 0, "velocity": 0, "duration": 286}, {"note": 53, "velocity": 88, "duration": 253}, {"note": 58, "velocity": 72, "duration": 156}, {"note": 0, "velocity": 0, "duration": 84}, {"note": 58, "velocity": 89, "duration": 196}, {"note": 60, "velocity": 78, "duration": 141}, {"note": 0, "velocity": 0, "duration": 99}, {"note": 58, "velocity": 83, "duration": 992}, {"note": 51, "velocity": 83, "duration": 211}, {"note": 53, "velocity": 79, "duration": 206}, {"note": 55, "velocity": 76, "duration": 171}, {"note": 0, "velocity": 0, "duration": 69}, {"note": 63, "velocity": 102, "duration": 184}, {"note": 60, "velocity": 89, "duration": 625}, {"note": 55, "velocity": 92, "duration": 514}, {"note": 58, "velocity": 74, "duration": 1567}, {"note": 0, "velocity": 0, "duration": 353}, {"note": 60, "velocity": 97, "duration": 216}, {"note": 63, "velocity": 86, "duration": 166}, {"note": 0, "velocity": 0, "duration": 74}, {"note": 63, "velocity": 88, "duration": 218}, {"note": 65, "velocity": 85, "duration": 217}, {"note": 63, "velocity": 86, "duration": 652}, {"note": 0, "velocity": 0, "duration": 68}, {"note": 60, "velocity": 88, "duration": 129}, {"note": 0, "velocity": 0, "duration": 111}, {"note": 58, "velocity": 77, "duration": 168}, {"note": 0, "velocity": 0, "duration": 72}, {"note": 60, "velocity": 81, "duration": 138}, {"note": 0, "velocity": 0, "duration": 102}, {"note": 55, "velocity": 73, "duration": 153}, {"note": 0, "velocity": 0, "duration": 87}, {"note": 53, "velocity": 52, "duration": 138}, {"note": 0, "velocity": 0, "duration": 102}, {"note": 51, "velocity": 57, "duration": 510}, {"note": 0, "velocity": 0, "duration": 450}, {"note": 48, "velocity": 89, "duration": 218}, {"note": 51, "velocity": 74, "duration": 163}, {"note": 0, "velocity": 0, "duration": 77}, {"note": 53, "velocity": 76, "duration": 148}, {"note": 0, "velocity": 0, "duration": 92}, {"note": 58, "velocity": 86, "duration": 148}, {"note": 0, "velocity": 0, "duration": 92}, {"note": 55, "velocity": 79, "duration": 393}, {"note": 0, "velocity": 0, "duration": 87}, {"note": 53, "velocity": 89, "duration": 224}, {"note": 55, "velocity": 72, "duration": 122}, {"note": 53, "velocity": 69, "duration": 134}, {"note": 51, "velocity": 63, "duration": 1729}, {"note": 0, "velocity": 0, "duration": 9791}, {"note": 55, "velocity": 85, "duration": 246}, {"note": 56, "velocity": 69, "duration": 143}, {"note": 0, "velocity": 0, "duration": 97}, {"note": 58, "velocity": 90, "duration": 179}, {"note": 0, "velocity": 0, "duration": 61}, {"note": 60, "velocity": 85, "duration": 135}, {"note": 0, "velocity": 0, "duration": 105}, {"note": 58, "velocity": 92, "duration": 674}, {"note": 0, "velocity": 0, "duration": 286}, {"note": 53, "velocity": 88, "duration": 253}, {"note": 58, "velocity": 72, "duration": 156}, {"note": 0, "velocity": 0, "duration": 84}, {"note": 58, "velocity": 89, "duration": 196}, {"note": 60, "velocity": 78, "duration": 141}, {"note": 0, "velocity": 0, "duration": 99}, {"note": 58, "velocity": 83, "duration": 992}, {"note": 51, "velocity": 83, "duration": 211}, {"note": 53, "velocity": 79, "duration": 206}, {"note": 55, "velocity": 76, "duration": 171}, {"note": 0, "velocity": 0, "duration": 69}, {"note": 63, "velocity": 102, "duration": 184}, {"note": 60, "velocity": 89, "duration": 625}, {"note": 55, "velocity": 92, "duration": 514}, {"note": 58, "velocity": 74, "duration": 1567}, {"note": 0, "velocity": 0, "duration": 353}, {"note": 60, "velocity": 97, "duration": 216}, {"note": 63, "velocity": 86, "duration": 166}, {"note": 0, "velocity": 0, "duration": 74}, {"note": 63, "velocity": 88, "duration": 218}, {"note": 65, "velocity": 85, "duration": 217}, {"note": 63, "velocity": 86, "duration": 652}, {"note": 0, "velocity": 0, "duration": 68}, {"note": 60, "velocity": 88, "duration": 129}, {"note": 0, "velocity": 0, "duration": 111}, {"note": 58, "velocity": 77, "duration": 168}, {"note": 0, "velocity": 0, "duration": 72}, {"note": 60, "velocity": 81, "duration": 138}, {"note": 0, "velocity": 0, "duration": 102}, {"note": 55, "velocity": 73, "duration": 153}, {"note": 0, "velocity": 0, "duration": 87}, {"note": 53, "velocity": 52, "duration": 138}, {"note": 0, "velocity": 0, "duration": 102}, {"note": 51, "velocity": 57, "duration": 510}, {"note": 0, "velocity": 0, "duration": 450}, {"note": 48, "velocity": 89, "duration": 218}, {"note": 51, "velocity": 74, "duration": 163}, {"note": 0, "velocity": 0, "duration": 77}, {"note": 53, "velocity": 76, "duration": 148}, {"note": 0, "velocity": 0, "duration": 92}, {"note": 58, "velocity": 86, "duration": 148}, {"note": 0, "velocity": 0, "duration": 92}, {"note": 55, "velocity": 79, "duration": 393}, {"note": 0, "velocity": 0, "duration": 87}, {"note": 53, "velocity": 89, "duration": 224}, {"note": 55, "velocity": 72, "duration": 122}, {"note": 53, "velocity": 69, "duration": 134}, {"note": 51, "velocity": 63, "duration": 1166}, {"note": 0, "velocity": 0, "duration": 274}, {"note": 55, "velocity": 96, "duration": 229}, {"note": 58, "velocity": 99, "duration": 177}, {"note": 0, "velocity": 0, "duration": 63}, {"note": 67, "velocity": 107, "duration": 498}, {"note": 0, "velocity": 0, "duration": 222}, {"note": 67, "velocity": 112, "duration": 146}, {"note": 0, "velocity": 0, "duration": 94}, {"note": 67, "velocity": 107, "duration": 181}, {"note": 65, "velocity": 112, "duration": 158}, {"note": 0, "velocity": 0, "duration": 82}, {"note": 65, "velocity": 102, "duration": 151}, {"note": 0, "velocity": 0, "duration": 89}, {"note": 63, "velocity": 107, "duration": 168}, {"note": 0, "velocity": 0, "duration": 72}, {"note": 58, "velocity": 90, "duration": 1057}, {"note": 0, "velocity": 0, "duration": 383}, {"note": 55, "velocity": 93, "duration": 240}, {"note": 58, "velocity": 96, "duration": 191}, {"note": 63, "velocity": 112, "duration": 626}, {"note": 0, "velocity": 0, "duration": 94}, {"note": 63, "velocity": 117, "duration": 176}, {"note": 0, "velocity": 0, "duration": 64}, {"note": 63, "velocity": 117, "duration": 291}, {"note": 60, "velocity": 99, "duration": 148}, {"note": 0, "velocity": 0, "duration": 92}, {"note": 60, "velocity": 100, "duration": 152}, {"note": 0, "velocity": 0, "duration": 88}, {"note": 58, "velocity": 102, "duration": 108}, {"note": 60, "velocity": 92, "duration": 95}, {"note": 55, "velocity": 86, "duration": 1117}, {"note": 0, "velocity": 0, "duration": 323}, {"note": 55, "velocity": 107, "duration": 238}, {"note": 58, "velocity": 107, "duration": 190}, {"note": 67, "velocity": 102, "duration": 606}, {"note": 0, "velocity": 0, "duration": 114}, {"note": 67, "velocity": 127, "duration": 162}, {"note": 0, "velocity": 0, "duration": 78}, {"note": 67, "velocity": 117, "duration": 244}, {"note": 65, "velocity": 96, "duration": 155}, {"note": 0, "velocity": 0, "duration": 85}, {"note": 65, "velocity": 112, "duration": 194}, {"note": 63, "velocity": 117, "duration": 183}, {"note": 60, "velocity": 122, "duration": 1085}, {"note": 0, "velocity": 0, "duration": 355}, {"note": 60, "velocity": 102, "duration": 237}, {"note": 63, "velocity": 99, "duration": 240}, {"note": 65, "velocity": 100, "duration": 518}, {"note": 0, "velocity": 0, "duration": 202}, {"note": 65, "velocity": 97, "duration": 143}, {"note": 0, "velocity": 0, "duration": 97}, {"note": 65, "velocity": 112, "duration": 184}, {"note": 65, "velocity": 112, "duration": 121}, {"note": 67, "velocity": 100, "duration": 84}, {"note": 62, "velocity": 93, "duration": 221}, {"note": 60, "velocity": 85, "duration": 209}, {"note": 58, "velocity": 85, "duration": 958}, {"note": 0, "velocity": 0, "duration": 962}, {"note": 55, "velocity": 85, "duration": 246}, {"note": 56, "velocity": 69, "duration": 143}, {"note": 0, "velocity": 0, "duration": 97}, {"note": 58, "velocity": 90, "duration": 179}, {"note": 0, "velocity": 0, "duration": 61}, {"note": 60, "velocity": 85, "duration": 135}, {"note": 0, "velocity": 0, "duration": 105}, {"note": 58, "velocity": 92, "duration": 674}, {"note": 0, "velocity": 0, "duration": 286}, {"note": 53, "velocity": 88, "duration": 253}, {"note": 58, "velocity": 72, "duration": 156}, {"note": 0, "velocity": 0, "duration": 84}, {"note": 58, "velocity": 89, "duration": 196}, {"note": 60, "velocity": 78, "duration": 141}, {"note": 0, "velocity": 0, "duration": 99}, {"note": 58, "velocity": 83, "duration": 992}, {"note": 51, "velocity": 83, "duration": 211}, {"note": 53, "velocity": 79, "duration": 206}, {"note": 55, "velocity": 76, "duration": 171}, {"note": 0, "velocity": 0, "duration": 69}, {"note": 63, "velocity": 102, "duration": 184}, {"note": 60, "velocity": 89, "duration": 625}, {"note": 55, "velocity": 92, "duration": 514}, {"note": 58, "velocity": 74, "duration": 1567}, {"note": 0, "velocity": 0, "duration": 353}, {"note": 60, "velocity": 97, "duration": 216}, {"note": 63, "velocity": 86, "duration": 166}, {"note": 0, "velocity": 0, "duration": 74}, {"note": 63, "velocity": 88, "duration": 218}, {"note": 65, "velocity": 85, "duration": 217}, {"note": 63, "velocity": 86, "duration": 652}, {"note": 0, "velocity": 0, "duration": 68}, {"note": 60, "velocity": 88, "duration": 129}, {"note": 0, "velocity": 0, "duration": 111}, {"note": 58, "velocity": 77, "duration": 168}, {"note": 0, "velocity": 0, "duration": 72}, {"note": 60, "velocity": 81, "duration": 138}, {"note": 0, "velocity": 0, "duration": 102}, {"note": 55, "velocity": 73, "duration": 153}, {"note": 0, "velocity": 0, "duration": 87}, {"note": 53, "velocity": 52, "duration": 138}, {"note": 0, "velocity": 0, "duration": 102}, {"note": 51, "velocity": 57, "duration": 510}, {"note": 0, "velocity": 0, "duration": 450}, {"note": 48, "velocity": 89, "duration": 218}, {"note": 51, "velocity": 74, "duration": 163}, {"note": 0, "velocity": 0, "duration": 77}, {"note": 53, "velocity": 76, "duration": 148}, {"note": 0, "velocity": 0, "duration": 92}, {"note": 58, "velocity": 86, "duration": 148}, {"note": 0, "velocity": 0, "duration": 92}, {"note": 55, "velocity": 79, "duration": 393}, {"note": 0, "velocity": 0, "duration": 87}, {"note": 53, "velocity": 89, "duration": 224}, {"note": 55, "velocity": 72, "duration": 122}, {"note": 53, "velocity": 69, "duration": 134}, {"note": 51, "velocity": 63, "duration": 1729}, {"note": 0, "velocity": 0, "duration": 2111}, {"note": 57, "velocity": 85, "duration": 246}, {"note": 58, "velocity": 69, "duration": 143}, {"note": 0, "velocity": 0, "duration": 97}, {"note": 60, "velocity": 90, "duration": 179}, {"note": 0, "velocity": 0, "duration": 61}, {"note": 62, "velocity": 85, "duration": 135}, {"note": 0, "velocity": 0, "duration": 105}, {"note": 60, "velocity": 92, "duration": 674}, {"note": 0, "velocity": 0, "duration": 286}, {"note": 55, "velocity": 88, "duration": 253}, {"note": 60, "velocity": 72, "duration": 156}, {"note": 0, "velocity": 0, "duration": 84}, {"note": 60, "velocity": 89, "duration": 196}, {"note": 62, "velocity": 78, "duration": 141}, {"note": 0, "velocity": 0, "duration": 99}, {"note": 60, "velocity": 83, "duration": 992}, {"note": 53, "velocity": 83, "duration": 211}, {"note": 55, "velocity": 79, "duration": 206}, {"note": 57, "velocity": 76, "duration": 171}, {"note": 0, "velocity": 0, "duration": 69}, {"note": 65, "velocity": 102, "duration": 184}, {"note": 62, "velocity": 89, "duration": 625}, {"note": 57, "velocity": 92, "duration": 514}, {"note": 60, "velocity": 74, "duration": 1567}, {"note": 0, "velocity": 0, "duration": 353}, {"note": 62, "velocity": 97, "duration": 216}, {"note": 65, "velocity": 86, "duration": 166}, {"note": 0, "velocity": 0, "duration": 74}, {"note": 65, "velocity": 88, "duration": 218}, {"note": 67, "velocity": 85, "duration": 217}, {"note": 65, "velocity": 86, "duration": 652}, {"note": 0, "velocity": 0, "duration": 68}, {"note": 62, "velocity": 88, "duration": 129}, {"note": 0, "velocity": 0, "duration": 111}, {"note": 60, "velocity": 77, "duration": 168}, {"note": 0, "velocity": 0, "duration": 72}, {"note": 62, "velocity": 81, "duration": 138}, {"note": 0, "velocity": 0, "duration": 102}, {"note": 57, "velocity": 73, "duration": 153}, {"note": 0, "velocity": 0, "duration": 87}, {"note": 55, "velocity": 52, "duration": 138}, {"note": 0, "velocity": 0, "duration": 102}, {"note": 53, "velocity": 57, "duration": 510}, {"note": 0, "velocity": 0, "duration": 450}, {"note": 50, "velocity": 89, "duration": 218}, {"note": 53, "velocity": 74, "duration": 163}, {"note": 0, "velocity": 0, "duration": 77}, {"note": 55, "velocity": 76, "duration": 148}, {"note": 0, "velocity": 0, "duration": 92}, {"note": 60, "velocity": 86, "duration": 148}, {"note": 0, "velocity": 0, "duration": 92}, {"note": 57, "velocity": 79, "duration": 393}, {"note": 0, "velocity": 0, "duration": 87}, {"note": 55, "velocity": 89, "duration": 224}, {"note": 57, "velocity": 72, "duration": 122}, {"note": 55, "velocity": 69, "duration": 134}, {"note": 53, "velocity": 63, "duration": 958}, {"note": 0, "velocity": 0, "duration": 962}, {"note": 62, "velocity": 97, "duration": 216}, {"note": 65, "velocity": 86, "duration": 166}, {"note": 0, "velocity": 0, "duration": 74}, {"note": 65, "velocity": 88, "duration": 218}, {"note": 67, "velocity": 85, "duration": 217}, {"note": 65, "velocity": 86, "duration": 652}, {"note": 0, "velocity": 0, "duration": 68}, {"note": 62, "velocity": 88, "duration": 129}, {"note": 0, "velocity": 0, "duration": 111}, {"note": 60, "velocity": 77, "duration": 168}, {"note": 0, "velocity": 0, "duration": 72}, {"note": 62, "velocity": 81, "duration": 138}, {"note": 0, "velocity": 0, "duration": 102}, {"note": 57, "velocity": 73, "duration": 153}, {"note": 0, "velocity": 0, "duration": 87}, {"note": 55, "velocity": 52, "duration": 138}, {"note": 0, "velocity": 0, "duration": 102}, {"note": 53, "velocity": 57, "duration": 510}, {"note": 0, "velocity": 0, "duration": 450}, {"note": 50, "velocity": 89, "duration": 218}, {"note": 53, "velocity": 74, "duration": 163}, {"note": 0, "velocity": 0, "duration": 77}, {"note": 55, "velocity": 76, "duration": 148}, {"note": 0, "velocity": 0, "duration": 92}, {"note": 60, "velocity": 86, "duration": 148}, {"note": 0, "velocity": 0, "duration": 92}, {"note": 57, "velocity": 79, "duration": 393}, {"note": 0, "velocity": 0, "duration": 87}, {"note": 55, "velocity": 89, "duration": 224}, {"note": 57, "velocity": 72, "duration": 122}, {"note": 55, "velocity": 69, "duration": 134}, {"note": 53, "velocity": 63, "duration": 958}, {"note": 0, "velocity": 0, "duration": 962}, {"note": 50, "velocity": 89, "duration": 218}, {"note": 53, "velocity": 74, "duration": 163}, {"note": 0, "velocity": 0, "duration": 77}, {"note": 55, "velocity": 76, "duration": 148}, {"note": 0, "velocity": 0, "duration": 92}, {"note": 60, "velocity": 86, "duration": 148}, {"note": 0, "velocity": 0, "duration": 273}, {"note": 57, "velocity": 86, "duration": 515}, {"note": 0, "velocity": 0, "duration": 130}, {"note": 55, "velocity": 82, "duration": 1762}, {"note": 0, "velocity": 0, "duration": 241}, {"note": 53, "velocity": 97, "duration": 2715}]]