[[{"note": 60, "velocity": 88, "duration": 460}, {"note": 62, "velocity": 76, "duration": 404}, {"note": 0, "velocity": 0, "duration": 76}, {"note": 60, "velocity": 97, "duration": 211}, {"note": 62, "velocity": 78, "duration": 242}, {"note": 65, "velocity": 89, "duration": 198}, {"note": 62, "velocity": 90, "duration": 208}, {"note": 60, "velocity": 93, "duration": 261}, {"note": 58, "velocity": 75, "duration": 499}, {"note": 60, "velocity": 99, "duration": 253}, {"note": 62, "velocity": 92, "duration": 453}, {"note": 60, "velocity": 107, "duration": 252}, {"note": 62, "velocity": 88, "duration": 254}, {"note": 60, "velocity": 86, "duration": 265}, {"note": 58, "velocity": 64, "duration": 463}, {"note": 60, "velocity": 96, "duration": 152}, {"note": 0, "velocity": 0, "duration": 88}, {"note": 60, "velocity": 95, "duration": 196}, {"note": 62, "velocity": 92, "duration": 185}, {"note": 65, "velocity": 99, "duration": 168}, {"note": 0, "velocity": 0, "duration": 72}, {"note": 62, "velocity": 88, "duration": 153}, {"note": 0, "velocity": 0, "duration": 87}, {"note": 60, "velocity": 85, "duration": 218}, {"note": 58, "velocity": 75, "duration": 473}, {"note": 60, "velocity": 97, "duration": 120}, {"note": 0, "velocity": 0, "duration": 120}, {"note": 62, "velocity": 97, "duration": 405}, {"note": 0, "velocity": 0, "duration": 75}, {"note": 60, "velocity": 127, "duration": 201}, {"note": 62, "velocity": 89, "duration": 213}, {"note": 55, "velocity": 97, "duration": 216}, {"note": 58, "velocity": 96, "duration": 180}, {"note": 58, "velocity": 92, "duration": 216}, {"note": 55, "velocity": 74, "duration": 237}, {"note": 60, "velocity": 89, "duration": 407}, {"note": 0, "velocity": 0, "duration": 73}, {"note": 69, "velocity": 122, "duration": 207}, {"note": 67, "velocity": 95, "duration": 169}, {"note": 0, "velocity": 0, "duration": 71}, {"note": 65, "velocity": 97, "duration": 192}, {"note": 60, "velocity": 96, "duration": 189}, {"note": 60, "velocity": 92, "duration": 227}, {"note": 65, "velocity": 95, "duration": 244}, {"note": 62, "velocity": 85, "duration": 406}, {"note": 0, "velocity": 0, "duration": 74}, {"note": 60, "velocity": 100, "duration": 197}, {"note": 62, "velocity": 97, "duration": 189}, {"note": 60, "velocity": 102, "duration": 139}, {"note": 0, "velocity": 0, "duration": 101}, {"note": 58, "velocity": 96, "duration": 170}, {"note": 0, "velocity": 0, "duration": 70}, {"note": 58, "velocity": 97, "duration": 186}, {"note": 58, "velocity": 96, "duration": 160}, {"note": 0, "velocity": 0, "duration": 80}, {"note": 58, "velocity": 97, "duration": 189}, {"note": 0, "velocity": 0, "duration": 531}, {"note": 55, "velocity": 89, "duration": 243}, {"note": 60, "velocity": 89, "duration": 1052}, {"note": 0, "velocity": 0, "duration": 868}, {"note": 60, "velocity": 88, "duration": 460}, {"note": 62, "velocity": 76, "duration": 404}, {"note": 0, "velocity": 0, "duration": 76}, {"note": 60, "velocity": 97, "duration": 211}, {"note": 62, "velocity": 78, "duration": 242}, {"note": 65, "velocity": 89, "duration": 198}, {"note": 62, "velocity": 90, "duration": 208}, {"note": 60, "velocity": 93, "duration": 261}, {"note": 58, "velocity": 75, "duration": 499}, {"note": 60, "velocity": 99, "duration": 253}, {"note": 62, "velocity": 92, "duration": 453}, {"note": 60, "velocity": 107, "duration": 252}, {"note": 62, "velocity": 88, "duration": 254}, {"note": 60, "velocity": 86, "duration": 265}, {"note": 58, "velocity": 64, "duration": 463}, {"note": 60, "velocity": 96, "duration": 152}, {"note": 0, "velocity": 0, "duration": 88}, {"note": 60, "velocity": 95, "duration": 196}, {"note": 62, "velocity": 92, "duration": 185}, {"note": 65, "velocity": 99, "duration": 168}, {"note": 0, "velocity": 0, "duration": 72}, {"note": 62, "velocity": 88, "duration": 153}, {"note": 0, "velocity": 0, "duration": 87}, {"note": 60, "velocity": 85, "duration": 218}, {"note": 58, "velocity": 75, "duration": 473}, {"note": 60, "velocity": 97, "duration": 120}, {"note": 0, "velocity": 0, "duration": 120}, {"note": 62, "velocity": 97, "duration": 405}, {"note": 0, "velocity": 0, "duration": 75}, {"note": 60, "velocity": 127, "duration": 201}, {"note": 62, "velocity": 89, "duration": 213}, {"note": 55, "velocity": 97, "duration": 216}, {"note": 58, "velocity": 96, "duration": 180}, {"note": 58, "velocity": 92, "duration": 216}, {"note": 55, "velocity": 74, "duration": 237}, {"note": 60, "velocity": 89, "duration": 407}, {"note": 0, "velocity": 0, "duration": 73}, {"note": 69, "velocity": 122, "duration": 207}, {"note": 67, "velocity": 95, "duration": 169}, {"note": 0, "velocity": 0, "duration": 71}, {"note": 65, "velocity": 97, "duration": 192}, {"note": 60, "velocity": 96, "duration": 189}, {"note": 60, "velocity": 92, "duration": 227}, {"note": 65, "velocity": 95, "duration": 244}, {"note": 62, "velocity": 85, "duration": 406}, {"note": 0, "velocity": 0, "duration": 74}, {"note": 60, "velocity": 100, "duration": 197}, {"note": 62, "velocity": 97, "duration": 189}, {"note": 55, "velocity": 102, "duration": 139}, {"note": 0, "velocity": 0, "duration": 101}, {"note": 58, "velocity": 96, "duration": 170}, {"note": 0, "velocity": 0, "duration": 70}, {"note": 58, "velocity": 97, "duration": 186}, {"note": 58, "velocity": 96, "duration": 160}, {"note": 0, "velocity": 0, "duration": 80}, {"note": 58, "velocity": 97, "duration": 189}, {"note": 0, "velocity": 0, "duration": 531}, {"note": 55, "velocity": 89, "duration": 243}, {"note": 65, "velocity": 89, "duration": 1052}, {"note": 0, "velocity": 0, "duration": 388}, {"note": 65, "velocity": 107, "duration": 127}, {"note": 0, "velocity": 0, "duration": 113}, {"note": 60, "velocity": 112, "duration": 140}, {"note": 0, "velocity": 0, "duration": 100}, {"note": 62, "velocity": 117, "duration": 495}, {"note": 0, "velocity": 0, "duration": 225}, {"note": 60, "velocity": 112, "duration": 193}, {"note": 62, "velocity": 122, "duration": 373}, {"note": 0, "velocity": 0, "duration": 107}, {"note": 62, "velocity": 112, "duration": 149}, {"note": 0, "velocity": 0, "duration": 91}, {"note": 63, "velocity": 122, "duration": 173}, {"note": 0, "velocity": 0, "duration": 67}, {"note": 65, "velocity": 112, "duration": 386}, {"note": 0, "velocity": 0, "duration": 1054}, {"note": 60, "velocity": 122, "duration": 256}, {"note": 62, "velocity": 97, "duration": 159}, {"note": 0, "velocity": 0, "duration": 81}, {"note": 60, "velocity": 102, "duration": 210}, {"note": 58, "velocity": 92, "duration": 447}, {"note": 57, "velocity": 102, "duration": 231}, {"note": 58, "velocity": 99, "duration": 356}, {"note": 0, "velocity": 0, "duration": 124}, {"note": 58, "velocity": 102, "duration": 190}, {"note": 60, "velocity": 97, "duration": 177}, {"note": 0, "velocity": 0, "duration": 63}, {"note": 62, "velocity": 102, "duration": 459}, {"note": 0, "velocity": 0, "duration": 741}, {"note": 58, "velocity": 112, "duration": 133}, {"note": 0, "velocity": 0, "duration": 107}, {"note": 70, "velocity": 122, "duration": 186}, {"note": 65, "velocity": 100, "duration": 160}, {"note": 0, "velocity": 0, "duration": 80}, {"note": 67, "velocity": 100, "duration": 491}, {"note": 0, "velocity": 0, "duration": 229}, {"note": 65, "velocity": 117, "duration": 532}, {"note": 0, "velocity": 0, "duration": 188}, {"note": 65, "velocity": 102, "duration": 118}, {"note": 0, "velocity": 0, "duration": 122}, {"note": 62, "velocity": 97, "duration": 137}, {"note": 0, "velocity": 0, "duration": 103}, {"note": 65, "velocity": 117, "duration": 407}, {"note": 0, "velocity": 0, "duration": 73}, {"note": 67, "velocity": 127, "duration": 286}, {"note": 0, "velocity": 0, "duration": 194}, {"note": 58, "velocity": 112, "duration": 486}, {"note": 0, "velocity": 0, "duration": 234}, {"note": 62, "velocity": 100, "duration": 170}, {"note": 0, "velocity": 0, "duration": 70}, {"note": 65, "velocity": 100, "duration": 177}, {"note": 0, "velocity": 0, "duration": 63}, {"note": 63, "velocity": 107, "duration": 160}, {"note": 0, "velocity": 0, "duration": 80}, {"note": 63, "velocity": 122, "duration": 189}, {"note": 62, "velocity": 100, "duration": 134}, {"note": 0, "velocity": 0, "duration": 106}, {"note": 63, "velocity": 122, "duration": 219}, {"note": 62, "velocity": 102, "duration": 178}, {"note": 0, "velocity": 0, "duration": 62}, {"note": 60, "velocity": 107, "duration": 168}, {"note": 0, "velocity": 0, "duration": 72}, {"note": 58, "velocity": 100, "duration": 163}, {"note": 0, "velocity": 0, "duration": 77}, {"note": 60, "velocity": 97, "duration": 1154}, {"note": 0, "velocity": 0, "duration": 286}, {"note": 65, "velocity": 107, "duration": 127}, {"note": 0, "velocity": 0, "duration": 113}, {"note": 60, "velocity": 112, "duration": 140}, {"note": 0, "velocity": 0, "duration": 100}, {"note": 62, "velocity": 117, "duration": 495}, {"note": 0, "velocity": 0, "duration": 225}, {"note": 60, "velocity": 112, "duration": 193}, {"note": 62, "velocity": 122, "duration": 373}, {"note": 0, "velocity": 0, "duration": 107}, {"note": 62, "velocity": 112, "duration": 149}, {"note": 0, "velocity": 0, "duration": 91}, {"note": 63, "velocity": 122, "duration": 173}, {"note": 0, "velocity": 0, "duration": 67}, {"note": 65, "velocity": 112, "duration": 386}, {"note": 0, "velocity": 0, "duration": 1054}, {"note": 60, "velocity": 122, "duration": 256}, {"note": 62, "velocity": 97, "duration": 159}, {"note": 0, "velocity": 0, "duration": 81}, {"note": 60, "velocity": 102, "duration": 210}, {"note": 58, "velocity": 92, "duration": 447}, {"note": 57, "velocity": 102, "duration": 231}, {"note": 58, "velocity": 99, "duration": 356}, {"note": 0, "velocity": 0, "duration": 124}, {"note": 58, "velocity": 102, "duration": 190}, {"note": 60, "velocity": 97, "duration": 177}, {"note": 0, "velocity": 0, "duration": 63}, {"note": 62, "velocity": 102, "duration": 459}, {"note": 0, "velocity": 0, "duration": 741}, {"note": 58, "velocity": 112, "duration": 133}, {"note": 0, "velocity": 0, "duration": 107}, {"note": 70, "velocity": 122, "duration": 186}, {"note": 65, "velocity": 100, "duration": 160}, {"note": 0, "velocity": 0, "duration": 80}, {"note": 67, "velocity": 100, "duration": 491}, {"note": 0, "velocity": 0, "duration": 229}, {"note": 65, "velocity": 117, "duration": 532}, {"note": 0, "velocity": 0, "duration": 188}, {"note": 65, "velocity": 102, "duration": 118}, {"note": 0, "velocity": 0, "duration": 122}, {"note": 62, "velocity": 97, "duration": 137}, {"note": 0, "velocity": 0, "duration": 103}, {"note": 65, "velocity": 117, "duration": 407}, {"note": 0, "velocity": 0, "duration": 73}, {"note": 67, "velocity": 127, "duration": 286}, {"note": 0, "velocity": 0, "duration": 194}, {"note": 58, "velocity": 112, "duration": 486}, {"note": 0, "velocity": 0, "duration": 234}, {"note": 62, "velocity": 100, "duration": 170}, {"note": 0, "velocity": 0, "duration": 70}, {"note": 65, "velocity": 100, "duration": 177}, {"note": 0, "velocity": 0, "duration": 63}, {"note": 63, "velocity": 107, "duration": 160}, {"note": 0, "velocity": 0, "duration": 80}, {"note": 63, "velocity": 122, "duration": 189}, {"note": 62, "velocity": 100, "duration": 134}, {"note": 0, "velocity": 0, "duration": 106}, {"note": 62, "velocity": 112, "duration": 234}, {"note": 60, "velocity": 99, "duration": 364}, {"note": 0, "velocity": 0, "duration": 116}, {"note": 58, "velocity": 117, "duration": 229}, {"note": 60, "velocity": 107, "duration": 269}, {"note": 58, "velocity": 99, "duration": 1043}, {"note": 0, "velocity": 0, "duration": 637}, {"note": 60, "velocity": 88, "duration": 460}, {"note": 62, "velocity": 76, "duration": 404}, {"note": 0, "velocity": 0, "duration": 76}, {"note": 60, "velocity": 97, "duration": 211}, {"note": 62, "velocity": 78, "duration": 242}, {"note": 65, "velocity": 89, "duration": 198}, {"note": 62, "velocity": 90, "duration": 208}, {"note": 60, "velocity": 93, "duration": 261}, {"note": 58, "velocity": 75, "duration": 499}, {"note": 60, "velocity": 99, "duration": 253}, {"note": 62, "velocity": 92, "duration": 453}, {"note": 60, "velocity": 107, "duration": 252}, {"note": 62, "velocity": 88, "duration": 254}, {"note": 60, "velocity": 86, "duration": 265}, {"note": 58, "velocity": 64, "duration": 463}, {"note": 60, "velocity": 96, "duration": 152}, {"note": 0, "velocity": 0, "duration": 88}, {"note": 60, "velocity": 95, "duration": 196}, {"note": 62, "velocity": 92, "duration": 185}, {"note": 65, "velocity": 99, "duration": 168}, {"note": 0, "velocity": 0, "duration": 72}, {"note": 62, "velocity": 88, "duration": 153}, {"note": 0, "velocity": 0, "duration": 87}, {"note": 60, "velocity": 85, "duration": 218}, {"note": 58, "velocity": 75, "duration": 473}, {"note": 60, "velocity": 97, "duration": 120}, {"note": 0, "velocity": 0, "duration": 120}, {"note": 62, "velocity": 97, "duration": 405}, {"note": 0, "velocity": 0, "duration": 75}, {"note": 60, "velocity": 127, "duration": 201}, {"note": 62, "velocity": 89, "duration": 213}, {"note": 55, "velocity": 97, "duration": 216}, {"note": 58, "velocity": 96, "duration": 180}, {"note": 58, "velocity": 92, "duration": 216}, {"note": 55, "velocity": 74, "duration": 237}, {"note": 60, "velocity": 89, "duration": 407}, {"note": 0, "velocity": 0, "duration": 73}, {"note": 69, "velocity": 122, "duration": 207}, {"note": 67, "velocity": 95, "duration": 169}, {"note": 0, "velocity": 0, "duration": 71}, {"note": 65, "velocity": 97, "duration": 192}, {"note": 60, "velocity": 96, "duration": 189}, {"note": 60, "velocity": 92, "duration": 227}, {"note": 65, "velocity": 95, "duration": 244}, {"note": 62, "velocity": 85, "duration": 406}, {"note": 0, "velocity": 0, "duration": 74}, {"note": 60, "velocity": 100, "duration": 197}, {"note": 62, "velocity": 97, "duration": 189}, {"note": 55, "velocity": 102, "duration": 139}, {"note": 0, "velocity": 0, "duration": 101}, {"note": 58, "velocity": 96, "duration": 170}, {"note": 0, "velocity": 0, "duration": 70}, {"note": 58, "velocity": 97, "duration": 186}, {"note": 58, "velocity": 96, "duration": 160}, {"note": 0, "velocity": 0, "duration": 80}, {"note": 58, "velocity": 97, "duration": 189}, {"note": 0, "velocity": 0, "duration": 531}, {"note": 55, "velocity": 89, "duration": 243}, {"note": 65, "velocity": 89, "duration": 1052}, {"note": 0, "velocity": 0, "duration": 388}, {"note": 65, "velocity": 107, "duration": 127}, {"note": 0, "velocity": 0, "duration": 113}, {"note": 60, "velocity": 112, "duration": 140}, {"note": 0, "velocity": 0, "duration": 100}, {"note": 62, "velocity": 117, "duration": 495}, {"note": 0, "velocity": 0, "duration": 225}, {"note": 60, "velocity": 112, "duration": 193}, {"note": 62, "velocity": 122, "duration": 373}, {"note": 0, "velocity": 0, "duration": 107}, {"note": 62, "velocity": 112, "duration": 149}, {"note": 0, "velocity": 0, "duration": 91}, {"note": 63, "velocity": 122, "duration": 173}, {"note": 0, "velocity": 0, "duration": 67}, {"note": 65, "velocity": 112, "duration": 386}, {"note": 0, "velocity": 0, "duration": 1054}, {"note": 60, "velocity": 122, "duration": 256}, {"note": 62, "velocity": 97, "duration": 159}, {"note": 0, "velocity": 0, "duration": 81}, {"note": 60, "velocity": 102, "duration": 210}, {"note": 58, "velocity": 92, "duration": 447}, {"note": 57, "velocity": 102, "duration": 231}, {"note": 58, "velocity": 99, "duration": 356}, {"note": 0, "velocity": 0, "duration": 124}, {"note": 58, "velocity": 102, "duration": 190}, {"note": 60, "velocity": 97, "duration": 177}, {"note": 0, "velocity": 0, "duration": 63}, {"note": 62, "velocity": 102, "duration": 459}, {"note": 0, "velocity": 0, "duration": 741}, {"note": 58, "velocity": 112, "duration": 133}, {"note": 0, "velocity": 0, "duration": 107}, {"note": 70, "velocity": 122, "duration": 186}, {"note": 65, "velocity": 100, "duration": 160}, {"note": 0, "velocity": 0, "duration": 80}, {"note": 67, "velocity": 100, "duration": 491}, {"note": 0, "velocity": 0, "duration": 229}, {"note": 65, "velocity": 117, "duration": 532}, {"note": 0, "velocity": 0, "duration": 188}, {"note": 65, "velocity": 102, "duration": 118}, {"note": 0, "velocity": 0, "duration": 122}, {"note": 62, "velocity": 97, "duration": 137}, {"note": 0, "velocity": 0, "duration": 103}, {"note": 65, "velocity": 117, "duration": 407}, {"note": 0, "velocity": 0, "duration": 73}, {"note": 67, "velocity": 127, "duration": 286}, {"note": 0, "velocity": 0, "duration": 194}, {"note": 58, "velocity": 112, "duration": 486}, {"note": 0, "velocity": 0, "duration": 234}, {"note": 62, "velocity": 100, "duration": 170}, {"note": 0, "velocity": 0, "duration": 70}, {"note": 65, "velocity": 100, "duration": 177}, {"note": 0, "velocity": 0, "duration": 63}, {"note": 63, "velocity": 107, "duration": 160}, {"note": 0, "velocity": 0, "duration": 80}, {"note": 63, "velocity": 122, "duration": 189}, {"note": 62, "velocity": 100, "duration": 134}, {"note": 0, "velocity": 0, "duration": 106}, {"note": 63, "velocity": 122, "duration": 219}, {"note": 62, "velocity": 102, "duration": 178}, {"note": 0, "velocity": 0, "duration": 62}, {"note": 60, "velocity": 107, "duration": 168}, {"note": 0, "velocity": 0, "duration": 72}, {"note": 58, "velocity": 100, "duration": 163}, {"note": 0, "velocity": 0, "duration": 77}, {"note": 60, "velocity": 97, "duration": 1154}, {"note": 0, "velocity": 0, "duration": 286}, {"note": 65, "velocity": 107, "duration": 127}, {"note": 0, "velocity": 0, "duration": 113}, {"note": 60, "velocity": 112, "duration": 140}, {"note": 0, "velocity": 0, "duration": 100}, {"note": 62, "velocity": 117, "duration": 495}, {"note": 0, "velocity": 0, "duration": 225}, {"note": 60, "velocity": 112, "duration": 193}, {"note": 62, "velocity": 122, "duration": 373}, {"note": 0, "velocity": 0, "duration": 107}, {"note": 62, "velocity": 112, "duration": 149}, {"note": 0, "velocity": 0, "duration": 91}, {"note": 63, "velocity": 122, "duration": 173}, {"note": 0, "velocity": 0, "duration": 67}, {"note": 65, "velocity": 112, "duration": 386}, {"note": 0, "velocity": 0, "duration": 1054}, {"note": 60, "velocity": 122, "duration": 256}, {"note": 62, "velocity": 97, "duration": 159}, {"note": 0, "velocity": 0, "duration": 81}, {"note": 60, "velocity": 102, "duration": 210}, {"note": 58, "velocity": 92, "duration": 447}, {"note": 57, "velocity": 102, "duration": 231}, {"note": 58, "velocity": 99, "duration": 356}, {"note": 0, "velocity": 0, "duration": 124}, {"note": 58, "velocity": 102, "duration": 190}, {"note": 60, "velocity": 97, "duration": 177}, {"note": 0, "velocity": 0, "duration": 63}, {"note": 62, "velocity": 102, "duration": 459}, {"note": 0, "velocity": 0, "duration": 741}, {"note": 58, "velocity": 112, "duration": 133}, {"note": 0, "velocity": 0, "duration": 107}, {"note": 70, "velocity": 122, "duration": 186}, {"note": 65, "velocity": 100, "duration": 160}, {"note": 0, "velocity": 0, "duration": 80}, {"note": 67, "velocity": 100, "duration": 491}, {"note": 0, "velocity": 0, "duration": 229}, {"note": 65, "velocity": 117, "duration": 532}, {"note": 0, "velocity": 0, "duration": 188}, {"note": 65, "velocity": 102, "duration": 118}, {"note": 0, "velocity": 0, "duration": 122}, {"note": 62, "velocity": 97, "duration": 137}, {"note": 0, "velocity": 0, "duration": 103}, {"note": 65, "velocity": 117, "duration": 407}, {"note": 0, "velocity": 0, "duration": 73}, {"note": 72, "velocity": 127, "duration": 286}, {"note": 0, "velocity": 0, "duration": 194}, {"note": 70, "velocity": 112, "duration": 486}, {"note": 0, "velocity": 0, "duration": 234}, {"note": 62, "velocity": 100, "duration": 170}, {"note": 0, "velocity": 0, "duration": 70}, {"note": 65, "velocity": 100, "duration": 177}, {"note": 0, "velocity": 0, "duration": 63}, {"note": 63, "velocity": 107, "duration": 160}, {"note": 0, "velocity": 0, "duration": 80}, {"note": 63, "velocity": 122, "duration": 189}, {"note": 62, "velocity": 100, "duration": 134}, {"note": 0, "velocity": 0, "duration": 106}, {"note": 62, "velocity": 112, "duration": 234}, {"note": 60, "velocity": 99, "duration": 364}, {"note": 0, "velocity": 0, "duration": 116}, {"note": 58, "velocity": 117, "duration": 229}, {"note": 60, "velocity": 107, "duration": 269}, {"note": 58, "velocity": 99, "duration": 1043}, {"note": 0, "velocity": 0, "duration": 637}, {"note": 67, "velocity": 127, "duration": 559}, {"note": 0, "velocity": 0, "duration": 161}, {"note": 67, "velocity": 122, "duration": 175}, {"note": 0, "velocity": 0, "duration": 65}, {"note": 69, "velocity": 127, "duration": 439}, {"note": 0, "velocity": 0, "duration": 281}, {"note": 69, "velocity": 107, "duration": 169}, {"note": 0, "velocity": 0, "duration": 71}, {"note": 70, "velocity": 127, "duration": 837}, {"note": 0, "velocity": 0, "duration": 363}, {"note": 67, "velocity": 117, "duration": 208}, {"note": 74, "velocity": 122, "duration": 165}, {"note": 0, "velocity": 0, "duration": 75}, {"note": 79, "velocity": 102, "duration": 212}, {"note": 75, "velocity": 127, "duration": 307}, {"note": 74, "velocity": 127, "duration": 144}, {"note": 0, "velocity": 0, "duration": 96}, {"note": 75, "velocity": 127, "duration": 180}, {"note": 74, "velocity": 122, "duration": 159}, {"note": 0, "velocity": 0, "duration": 81}, {"note": 75, "velocity": 127, "duration": 193}, {"note": 74, "velocity": 127, "duration": 163}, {"note": 0, "velocity": 0, "duration": 77}, {"note": 67, "velocity": 107, "duration": 196}, {"note": 70, "velocity": 127, "duration": 167}, {"note": 0, "velocity": 0, "duration": 73}, {"note": 72, "velocity": 127, "duration": 946}, {"note": 0, "velocity": 0, "duration": 494}, {"note": 65, "velocity": 107, "duration": 127}, {"note": 0, "velocity": 0, "duration": 113}, {"note": 60, "velocity": 112, "duration": 140}, {"note": 0, "velocity": 0, "duration": 100}, {"note": 62, "velocity": 117, "duration": 495}, {"note": 0, "velocity": 0, "duration": 225}, {"note": 60, "velocity": 112, "duration": 193}, {"note": 62, "velocity": 122, "duration": 373}, {"note": 0, "velocity": 0, "duration": 107}, {"note": 62, "velocity": 112, "duration": 149}, {"note": 0, "velocity": 0, "duration": 91}, {"note": 63, "velocity": 122, "duration": 173}, {"note": 0, "velocity": 0, "duration": 67}, {"note": 65, "velocity": 112, "duration": 386}, {"note": 0, "velocity": 0, "duration": 1054}, {"note": 60, "velocity": 122, "duration": 256}, {"note": 62, "velocity": 97, "duration": 159}, {"note": 0, "velocity": 0, "duration": 81}, {"note": 60, "velocity": 102, "duration": 210}, {"note": 58, "velocity": 92, "duration": 447}, {"note": 57, "velocity": 102, "duration": 231}, {"note": 58, "velocity": 99, "duration": 356}, {"note": 0, "velocity": 0, "duration": 124}, {"note": 58, "velocity": 102, "duration": 190}, {"note": 60, "velocity": 97, "duration": 177}, {"note": 0, "velocity": 0, "duration": 63}, {"note": 62, "velocity": 102, "duration": 459}, {"note": 0, "velocity": 0, "duration": 741}, {"note": 58, "velocity": 112, "duration": 133}, {"note": 0, "velocity": 0, "duration": 107}, {"note": 70, "velocity": 122, "duration": 186}, {"note": 65, "velocity": 100, "duration": 160}, {"note": 0, "velocity": 0, "duration": 80}, {"note": 67, "velocity": 100, "duration": 491}, {"note": 0, "velocity": 0, "duration": 229}, {"note": 65, "velocity": 117, "duration": 532}, {"note": 0, "velocity": 0, "duration": 188}, {"note": 65, "velocity": 102, "duration": 118}, {"note": 0, "velocity": 0, "duration": 122}, {"note": 62, "velocity": 97, "duration": 137}, {"note": 0, "velocity": 0, "duration": 103}, {"note": 65, "velocity": 117, "duration": 407}, {"note": 0, "velocity": 0, "duration": 73}, {"note": 67, "velocity": 127, "duration": 286}, {"note": 0, "velocity": 0, "duration": 194}, {"note": 58, "velocity": 112, "duration": 486}, {"note": 0, "velocity": 0, "duration": 234}, {"note": 62, "velocity": 100, "duration": 170}, {"note": 0, "velocity": 0, "duration": 70}, {"note": 65, "velocity": 100, "duration": 177}, {"note": 0, "velocity": 0, "duration": 63}, {"note": 63, "velocity": 107, "duration": 160}, {"note": 0, "velocity": 0, "duration": 80}, {"note": 63, "velocity": 122, "duration": 189}, {"note": 62, "velocity": 100, "duration": 134}, {"note": 0, "velocity": 0, "duration": 106}, {"note": 63, "velocity": 122, "duration": 219}, {"note": 62, "velocity": 102, "duration": 178}, {"note": 0, "velocity": 0, "duration": 62}, {"note": 60, "velocity": 107, "duration": 168}, {"note": 0, "velocity": 0, "duration": 72}, {"note": 58, "velocity": 100, "duration": 163}, {"note": 0, "velocity": 0, "duration": 77}, {"note": 60, "velocity": 97, "duration": 1154}, {"note": 0, "velocity": 0, "duration": 286}, {"note": 65, "velocity": 107, "duration": 127}, {"note": 0, "velocity": 0, "duration": 113}, {"note": 60, "velocity": 112, "duration": 140}, {"note": 0, "velocity": 0, "duration": 100}, {"note": 62, "velocity": 117, "duration": 495}, {"note": 0, "velocity": 0, "duration": 225}, {"note": 60, "velocity": 112, "duration": 193}, {"note": 62, "velocity": 122, "duration": 373}, {"note": 0, "velocity": 0, "duration": 107}, {"note": 62, "velocity": 112, "duration": 149}, {"note": 0, "velocity": 0, "duration": 91}, {"note": 63, "velocity": 122, "duration": 173}, {"note": 0, "velocity": 0, "duration": 67}, {"note": 65, "velocity": 112, "duration": 386}, {"note": 0, "velocity": 0, "duration": 1054}, {"note": 60, "velocity": 122, "duration": 256}, {"note": 62, "velocity": 97, "duration": 159}, {"note": 0, "velocity": 0, "duration": 81}, {"note": 60, "velocity": 102, "duration": 210}, {"note": 58, "velocity": 92, "duration": 447}, {"note": 57, "velocity": 102, "duration": 231}, {"note": 58, "velocity": 99, "duration": 356}, {"note": 0, "velocity": 0, "duration": 124}, {"note": 58, "velocity": 102, "duration": 190}, {"note": 60, "velocity": 97, "duration": 177}, {"note": 0, "velocity": 0, "duration": 63}, {"note": 62, "velocity": 102, "duration": 459}, {"note": 0, "velocity": 0, "duration": 741}, {"note": 58, "velocity": 112, "duration": 133}, {"note": 0, "velocity": 0, "duration": 107}, {"note": 70, "velocity": 122, "duration": 186}, {"note": 65, "velocity": 100, "duration": 160}, {"note": 0, "velocity": 0, "duration": 80}, {"note": 67, "velocity": 100, "duration": 491}, {"note": 0, "velocity": 0, "duration": 229}, {"note": 65, "velocity": 117, "duration": 532}, {"note": 0, "velocity": 0, "duration": 188}, {"note": 65, "velocity": 102, "duration": 118}, {"note": 0, "velocity": 0, "duration": 122}, {"note": 62, "velocity": 97, "duration": 137}, {"note": 0, "velocity": 0, "duration": 103}, {"note": 65, "velocity": 117, "duration": 407}, {"note": 0, "velocity": 0, "duration": 73}, {"note": 72, "velocity": 127, "duration": 286}, {"note": 0, "velocity": 0, "duration": 194}, {"note": 70, "velocity": 112, "duration": 486}, {"note": 0, "velocity": 0, "duration": 234}, {"note": 62, "velocity": 100, "duration": 170}, {"note": 0, "velocity": 0, "duration": 70}, {"note": 65, "velocity": 100, "duration": 177}, {"note": 0, "velocity": 0, "duration": 63}, {"note": 63, "velocity": 107, "duration": 160}, {"note": 0, "velocity": 0, "duration": 80}, {"note": 63, "velocity": 122, "duration": 189}, {"note": 62, "velocity": 100, "duration": 134}, {"note": 0, "velocity": 0, "duration": 106}, {"note": 62, "velocity": 112, "duration": 234}, {"note": 60, "velocity": 99, "duration": 364}, {"note": 0, "velocity": 0, "duration": 116}, {"note": 58, "velocity": 117, "duration": 229}, {"note": 60, "velocity": 107, "duration": 269}, {"note": 58, "velocity": 99, "duration": 718}]]