[[{"note": 54, "velocity": 95, "duration": 72}, {"note": 63, "velocity": 102, "duration": 125}, {"note": 0, "velocity": 0, "duration": 115}, {"note": 61, "velocity": 107, "duration": 68}, {"note": 63, "velocity": 112, "duration": 138}, {"note": 0, "velocity": 0, "duration": 102}, {"note": 66, "velocity": 102, "duration": 189}, {"note": 61, "velocity": 100, "duration": 657}, {"note": 0, "velocity": 0, "duration": 183}, {"note": 56, "velocity": 95, "duration": 83}, {"note": 58, "velocity": 97, "duration": 65}, {"note": 59, "velocity": 95, "duration": 134}, {"note": 0, "velocity": 0, "duration": 106}, {"note": 58, "velocity": 86, "duration": 55}, {"note": 0, "velocity": 0, "duration": 65}, {"note": 59, "velocity": 93, "duration": 244}, {"note": 0, "velocity": 0, "duration": 116}, {"note": 54, "velocity": 73, "duration": 67}, {"note": 63, "velocity": 100, "duration": 764}, {"note": 0, "velocity": 0, "duration": 196}, {"note": 59, "velocity": 89, "duration": 67}, {"note": 68, "velocity": 112, "duration": 156}, {"note": 0, "velocity": 0, "duration": 84}, {"note": 64, "velocity": 100, "duration": 55}, {"note": 0, "velocity": 0, "duration": 65}, {"note": 64, "velocity": 92, "duration": 145}, {"note": 0, "velocity": 0, "duration": 95}, {"note": 66, "velocity": 107, "duration": 69}, {"note": 0, "velocity": 0, "duration": 291}, {"note": 66, "velocity": 112, "duration": 86}, {"note": 0, "velocity": 0, "duration": 154}, {"note": 58, "velocity": 93, "duration": 77}, {"note": 59, "velocity": 93, "duration": 380}, {"note": 0, "velocity": 0, "duration": 100}, {"note": 54, "velocity": 72, "duration": 124}, {"note": 59, "velocity": 90, "duration": 175}, {"note": 0, "velocity": 0, "duration": 65}, {"note": 61, "velocity": 77, "duration": 80}, {"note": 63, "velocity": 107, "duration": 293}, {"note": 0, "velocity": 0, "duration": 67}, {"note": 61, "velocity": 93, "duration": 58}, {"note": 0, "velocity": 0, "duration": 62}, {"note": 61, "velocity": 96, "duration": 592}, {"note": 0, "velocity": 0, "duration": 368}, {"note": 54, "velocity": 97, "duration": 80}, {"note": 63, "velocity": 99, "duration": 109}, {"note": 0, "velocity": 0, "duration": 131}, {"note": 61, "velocity": 112, "duration": 76}, {"note": 63, "velocity": 117, "duration": 258}, {"note": 0, "velocity": 0, "duration": 102}, {"note": 66, "velocity": 112, "duration": 88}, {"note": 68, "velocity": 107, "duration": 184}, {"note": 66, "velocity": 107, "duration": 466}, {"note": 0, "velocity": 0, "duration": 134}, {"note": 59, "velocity": 95, "duration": 48}, {"note": 0, "velocity": 0, "duration": 72}, {"note": 59, "velocity": 78, "duration": 50}, {"note": 0, "velocity": 0, "duration": 70}, {"note": 59, "velocity": 90, "duration": 132}, {"note": 0, "velocity": 0, "duration": 108}, {"note": 58, "velocity": 102, "duration": 58}, {"note": 0, "velocity": 0, "duration": 62}, {"note": 59, "velocity": 95, "duration": 318}, {"note": 64, "velocity": 96, "duration": 190}, {"note": 63, "velocity": 97, "duration": 541}, {"note": 0, "velocity": 0, "duration": 299}, {"note": 59, "velocity": 88, "duration": 58}, {"note": 0, "velocity": 0, "duration": 62}, {"note": 68, "velocity": 112, "duration": 183}, {"note": 64, "velocity": 83, "duration": 58}, {"note": 0, "velocity": 0, "duration": 62}, {"note": 64, "velocity": 95, "duration": 276}, {"note": 66, "velocity": 102, "duration": 197}, {"note": 0, "velocity": 0, "duration": 163}, {"note": 66, "velocity": 127, "duration": 131}, {"note": 70, "velocity": 127, "duration": 163}, {"note": 0, "velocity": 0, "duration": 77}, {"note": 71, "velocity": 112, "duration": 353}, {"note": 0, "velocity": 0, "duration": 127}, {"note": 54, "velocity": 89, "duration": 67}, {"note": 59, "velocity": 102, "duration": 127}, {"note": 0, "velocity": 0, "duration": 113}, {"note": 61, "velocity": 100, "duration": 68}, {"note": 63, "velocity": 127, "duration": 287}, {"note": 0, "velocity": 0, "duration": 73}, {"note": 61, "velocity": 122, "duration": 32}, {"note": 0, "velocity": 0, "duration": 88}, {"note": 61, "velocity": 117, "duration": 238}, {"note": 59, "velocity": 86, "duration": 1231}, {"note": 0, "velocity": 0, "duration": 209}, {"note": 59, "velocity": 95, "duration": 48}, {"note": 0, "velocity": 0, "duration": 72}, {"note": 63, "velocity": 96, "duration": 69}, {"note": 66, "velocity": 122, "duration": 47}, {"note": 0, "velocity": 0, "duration": 73}, {"note": 68, "velocity": 127, "duration": 561}, {"note": 0, "velocity": 0, "duration": 159}, {"note": 68, "velocity": 122, "duration": 48}, {"note": 0, "velocity": 0, "duration": 72}, {"note": 66, "velocity": 122, "duration": 257}, {"note": 0, "velocity": 0, "duration": 103}, {"note": 64, "velocity": 96, "duration": 90}, {"note": 63, "velocity": 102, "duration": 240}, {"note": 0, "velocity": 0, "duration": 120}, {"note": 61, "velocity": 107, "duration": 67}, {"note": 64, "velocity": 107, "duration": 202}, {"note": 63, "velocity": 102, "duration": 1311}, {"note": 0, "velocity": 0, "duration": 489}, {"note": 64, "velocity": 112, "duration": 173}, {"note": 0, "velocity": 0, "duration": 67}, {"note": 64, "velocity": 112, "duration": 152}, {"note": 0, "velocity": 0, "duration": 88}, {"note": 64, "velocity": 127, "duration": 105}, {"note": 0, "velocity": 0, "duration": 135}, {"note": 64, "velocity": 102, "duration": 163}, {"note": 0, "velocity": 0, "duration": 77}, {"note": 63, "velocity": 112, "duration": 171}, {"note": 0, "velocity": 0, "duration": 69}, {"note": 61, "velocity": 122, "duration": 44}, {"note": 0, "velocity": 0, "duration": 76}, {"note": 63, "velocity": 127, "duration": 276}, {"note": 0, "velocity": 0, "duration": 84}, {"note": 61, "velocity": 107, "duration": 75}, {"note": 58, "velocity": 93, "duration": 92}, {"note": 61, "velocity": 102, "duration": 114}, {"note": 59, "velocity": 76, "duration": 470}, {"note": 0, "velocity": 0, "duration": 1330}, {"note": 59, "velocity": 107, "duration": 160}, {"note": 0, "velocity": 0, "duration": 80}, {"note": 61, "velocity": 127, "duration": 153}, {"note": 0, "velocity": 0, "duration": 87}, {"note": 63, "velocity": 127, "duration": 159}, {"note": 0, "velocity": 0, "duration": 81}, {"note": 64, "velocity": 127, "duration": 162}, {"note": 0, "velocity": 0, "duration": 78}, {"note": 66, "velocity": 127, "duration": 198}, {"note": 59, "velocity": 99, "duration": 59}, {"note": 0, "velocity": 0, "duration": 61}, {"note": 59, "velocity": 96, "duration": 321}, {"note": 0, "velocity": 0, "duration": 159}, {"note": 59, "velocity": 92, "duration": 50}, {"note": 0, "velocity": 0, "duration": 70}, {"note": 68, "velocity": 127, "duration": 177}, {"note": 0, "velocity": 0, "duration": 63}, {"note": 70, "velocity": 117, "duration": 73}, {"note": 71, "velocity": 107, "duration": 230}, {"note": 70, "velocity": 122, "duration": 106}, {"note": 68, "velocity": 117, "duration": 96}, {"note": 66, "velocity": 96, "duration": 48}, {"note": 0, "velocity": 0, "duration": 72}, {"note": 66, "velocity": 117, "duration": 500}, {"note": 0, "velocity": 0, "duration": 460}, {"note": 65, "velocity": 107, "duration": 161}, {"note": 0, "velocity": 0, "duration": 79}, {"note": 66, "velocity": 122, "duration": 163}, {"note": 0, "velocity": 0, "duration": 77}, {"note": 68, "velocity": 122, "duration": 147}, {"note": 0, "velocity": 0, "duration": 93}, {"note": 61, "velocity": 117, "duration": 38}, {"note": 0, "velocity": 0, "duration": 82}, {"note": 61, "velocity": 127, "duration": 341}, {"note": 61, "velocity": 127, "duration": 141}, {"note": 0, "velocity": 0, "duration": 99}, {"note": 65, "velocity": 102, "duration": 159}, {"note": 0, "velocity": 0, "duration": 81}, {"note": 68, "velocity": 127, "duration": 66}, {"note": 0, "velocity": 0, "duration": 174}, {"note": 68, "velocity": 127, "duration": 480}, {"note": 0, "velocity": 0, "duration": 120}, {"note": 66, "velocity": 102, "duration": 61}, {"note": 66, "velocity": 112, "duration": 55}, {"note": 0, "velocity": 0, "duration": 65}, {"note": 66, "velocity": 127, "duration": 112}, {"note": 0, "velocity": 0, "duration": 248}, {"note": 66, "velocity": 127, "duration": 150}, {"note": 0, "velocity": 0, "duration": 90}, {"note": 68, "velocity": 127, "duration": 146}, {"note": 0, "velocity": 0, "duration": 94}, {"note": 70, "velocity": 127, "duration": 164}, {"note": 0, "velocity": 0, "duration": 76}, {"note": 71, "velocity": 127, "duration": 194}, {"note": 64, "velocity": 100, "duration": 135}, {"note": 0, "velocity": 0, "duration": 105}, {"note": 64, "velocity": 117, "duration": 88}, {"note": 63, "velocity": 100, "duration": 84}, {"note": 0, "velocity": 0, "duration": 156}, {"note": 61, "velocity": 122, "duration": 389}, {"note": 0, "velocity": 0, "duration": 211}, {"note": 66, "velocity": 127, "duration": 102}, {"note": 68, "velocity": 127, "duration": 95}, {"note": 0, "velocity": 0, "duration": 145}, {"note": 70, "velocity": 127, "duration": 69}, {"note": 71, "velocity": 127, "duration": 207}, {"note": 66, "velocity": 127, "duration": 128}, {"note": 0, "velocity": 0, "duration": 112}, {"note": 66, "velocity": 127, "duration": 140}, {"note": 0, "velocity": 0, "duration": 100}, {"note": 64, "velocity": 112, "duration": 58}, {"note": 0, "velocity": 0, "duration": 62}, {"note": 63, "velocity": 117, "duration": 418}, {"note": 0, "velocity": 0, "duration": 182}, {"note": 66, "velocity": 127, "duration": 123}, {"note": 68, "velocity": 122, "duration": 93}, {"note": 0, "velocity": 0, "duration": 147}, {"note": 70, "velocity": 122, "duration": 69}, {"note": 71, "velocity": 127, "duration": 206}, {"note": 64, "velocity": 102, "duration": 134}, {"note": 0, "velocity": 0, "duration": 106}, {"note": 64, "velocity": 112, "duration": 147}, {"note": 0, "velocity": 0, "duration": 93}, {"note": 63, "velocity": 112, "duration": 46}, {"note": 0, "velocity": 0, "duration": 74}, {"note": 61, "velocity": 102, "duration": 266}, {"note": 0, "velocity": 0, "duration": 94}, {"note": 61, "velocity": 117, "duration": 162}, {"note": 0, "velocity": 0, "duration": 78}, {"note": 70, "velocity": 127, "duration": 176}, {"note": 0, "velocity": 0, "duration": 64}, {"note": 68, "velocity": 127, "duration": 144}, {"note": 63, "velocity": 107, "duration": 53}, {"note": 0, "velocity": 0, "duration": 67}, {"note": 63, "velocity": 122, "duration": 225}, {"note": 63, "velocity": 117, "duration": 105}, {"note": 0, "velocity": 0, "duration": 135}, {"note": 64, "velocity": 97, "duration": 269}, {"note": 68, "velocity": 127, "duration": 189}, {"note": 70, "velocity": 122, "duration": 126}, {"note": 66, "velocity": 117, "duration": 335}, {"note": 0, "velocity": 0, "duration": 145}, {"note": 66, "velocity": 127, "duration": 122}, {"note": 68, "velocity": 127, "duration": 72}, {"note": 0, "velocity": 0, "duration": 168}, {"note": 70, "velocity": 127, "duration": 64}, {"note": 71, "velocity": 127, "duration": 201}, {"note": 64, "velocity": 122, "duration": 181}, {"note": 64, "velocity": 117, "duration": 142}, {"note": 0, "velocity": 0, "duration": 98}, {"note": 63, "velocity": 127, "duration": 45}, {"note": 0, "velocity": 0, "duration": 75}, {"note": 61, "velocity": 117, "duration": 296}, {"note": 0, "velocity": 0, "duration": 304}, {"note": 66, "velocity": 127, "duration": 95}, {"note": 68, "velocity": 127, "duration": 112}, {"note": 0, "velocity": 0, "duration": 128}, {"note": 70, "velocity": 127, "duration": 68}, {"note": 71, "velocity": 127, "duration": 152}, {"note": 0, "velocity": 0, "duration": 88}, {"note": 66, "velocity": 127, "duration": 128}, {"note": 0, "velocity": 0, "duration": 112}, {"note": 66, "velocity": 127, "duration": 55}, {"note": 0, "velocity": 0, "duration": 65}, {"note": 64, "velocity": 122, "duration": 119}, {"note": 0, "velocity": 0, "duration": 121}, {"note": 63, "velocity": 127, "duration": 334}, {"note": 0, "velocity": 0, "duration": 506}, {"note": 66, "velocity": 127, "duration": 50}, {"note": 0, "velocity": 0, "duration": 70}, {"note": 64, "velocity": 96, "duration": 68}, {"note": 63, "velocity": 127, "duration": 138}, {"note": 0, "velocity": 0, "duration": 102}, {"note": 59, "velocity": 95, "duration": 47}, {"note": 0, "velocity": 0, "duration": 73}, {"note": 59, "velocity": 97, "duration": 203}, {"note": 0, "velocity": 0, "duration": 157}, {"note": 56, "velocity": 95, "duration": 141}, {"note": 59, "velocity": 86, "duration": 78}, {"note": 66, "velocity": 122, "duration": 174}, {"note": 0, "velocity": 0, "duration": 66}, {"note": 64, "velocity": 99, "duration": 85}, {"note": 59, "velocity": 93, "duration": 335}, {"note": 0, "velocity": 0, "duration": 145}, {"note": 61, "velocity": 96, "duration": 100}, {"note": 0, "velocity": 0, "duration": 140}, {"note": 59, "velocity": 93, "duration": 918}, {"note": 0, "velocity": 0, "duration": 7482}, {"note": 54, "velocity": 97, "duration": 80}, {"note": 63, "velocity": 99, "duration": 109}, {"note": 0, "velocity": 0, "duration": 131}, {"note": 61, "velocity": 112, "duration": 76}, {"note": 63, "velocity": 117, "duration": 258}, {"note": 0, "velocity": 0, "duration": 102}, {"note": 66, "velocity": 107, "duration": 184}, {"note": 61, "velocity": 107, "duration": 466}, {"note": 0, "velocity": 0, "duration": 374}, {"note": 59, "velocity": 95, "duration": 48}, {"note": 0, "velocity": 0, "duration": 72}, {"note": 59, "velocity": 84, "duration": 50}, {"note": 0, "velocity": 0, "duration": 70}, {"note": 59, "velocity": 90, "duration": 132}, {"note": 0, "velocity": 0, "duration": 108}, {"note": 58, "velocity": 102, "duration": 58}, {"note": 0, "velocity": 0, "duration": 62}, {"note": 59, "velocity": 95, "duration": 318}, {"note": 64, "velocity": 96, "duration": 190}, {"note": 63, "velocity": 97, "duration": 541}, {"note": 0, "velocity": 0, "duration": 299}, {"note": 59, "velocity": 88, "duration": 58}, {"note": 0, "velocity": 0, "duration": 62}, {"note": 68, "velocity": 112, "duration": 183}, {"note": 64, "velocity": 83, "duration": 58}, {"note": 0, "velocity": 0, "duration": 62}, {"note": 64, "velocity": 95, "duration": 276}, {"note": 66, "velocity": 102, "duration": 197}, {"note": 0, "velocity": 0, "duration": 163}, {"note": 66, "velocity": 127, "duration": 131}, {"note": 70, "velocity": 127, "duration": 163}, {"note": 0, "velocity": 0, "duration": 77}, {"note": 71, "velocity": 112, "duration": 353}, {"note": 0, "velocity": 0, "duration": 127}, {"note": 54, "velocity": 89, "duration": 67}, {"note": 59, "velocity": 102, "duration": 127}, {"note": 0, "velocity": 0, "duration": 113}, {"note": 61, "velocity": 100, "duration": 68}, {"note": 63, "velocity": 127, "duration": 287}, {"note": 0, "velocity": 0, "duration": 73}, {"note": 61, "velocity": 122, "duration": 32}, {"note": 0, "velocity": 0, "duration": 88}, {"note": 61, "velocity": 117, "duration": 238}, {"note": 59, "velocity": 100, "duration": 1231}, {"note": 0, "velocity": 0, "duration": 209}, {"note": 59, "velocity": 95, "duration": 48}, {"note": 0, "velocity": 0, "duration": 72}, {"note": 63, "velocity": 96, "duration": 69}, {"note": 66, "velocity": 122, "duration": 47}, {"note": 0, "velocity": 0, "duration": 73}, {"note": 68, "velocity": 127, "duration": 561}, {"note": 0, "velocity": 0, "duration": 159}, {"note": 68, "velocity": 122, "duration": 48}, {"note": 0, "velocity": 0, "duration": 72}, {"note": 66, "velocity": 122, "duration": 257}, {"note": 0, "velocity": 0, "duration": 103}, {"note": 64, "velocity": 96, "duration": 90}, {"note": 63, "velocity": 102, "duration": 240}, {"note": 0, "velocity": 0, "duration": 120}, {"note": 61, "velocity": 107, "duration": 67}, {"note": 64, "velocity": 107, "duration": 202}, {"note": 63, "velocity": 102, "duration": 1311}, {"note": 0, "velocity": 0, "duration": 489}, {"note": 64, "velocity": 112, "duration": 173}, {"note": 0, "velocity": 0, "duration": 67}, {"note": 64, "velocity": 112, "duration": 152}, {"note": 0, "velocity": 0, "duration": 88}, {"note": 64, "velocity": 127, "duration": 105}, {"note": 0, "velocity": 0, "duration": 135}, {"note": 64, "velocity": 102, "duration": 163}, {"note": 0, "velocity": 0, "duration": 77}, {"note": 63, "velocity": 112, "duration": 171}, {"note": 0, "velocity": 0, "duration": 69}, {"note": 61, "velocity": 122, "duration": 44}, {"note": 0, "velocity": 0, "duration": 76}, {"note": 63, "velocity": 127, "duration": 276}, {"note": 0, "velocity": 0, "duration": 84}, {"note": 61, "velocity": 107, "duration": 75}, {"note": 58, "velocity": 93, "duration": 92}, {"note": 61, "velocity": 102, "duration": 114}, {"note": 59, "velocity": 76, "duration": 470}, {"note": 0, "velocity": 0, "duration": 1330}, {"note": 59, "velocity": 107, "duration": 160}, {"note": 0, "velocity": 0, "duration": 80}, {"note": 61, "velocity": 127, "duration": 153}, {"note": 0, "velocity": 0, "duration": 87}, {"note": 63, "velocity": 127, "duration": 159}, {"note": 0, "velocity": 0, "duration": 81}, {"note": 64, "velocity": 127, "duration": 162}, {"note": 0, "velocity": 0, "duration": 78}, {"note": 66, "velocity": 127, "duration": 198}, {"note": 59, "velocity": 99, "duration": 59}, {"note": 0, "velocity": 0, "duration": 61}, {"note": 59, "velocity": 96, "duration": 321}, {"note": 0, "velocity": 0, "duration": 159}, {"note": 59, "velocity": 92, "duration": 50}, {"note": 0, "velocity": 0, "duration": 70}, {"note": 68, "velocity": 127, "duration": 177}, {"note": 0, "velocity": 0, "duration": 63}, {"note": 70, "velocity": 117, "duration": 73}, {"note": 71, "velocity": 107, "duration": 230}, {"note": 70, "velocity": 122, "duration": 106}, {"note": 68, "velocity": 117, "duration": 96}, {"note": 66, "velocity": 96, "duration": 48}, {"note": 0, "velocity": 0, "duration": 72}, {"note": 66, "velocity": 117, "duration": 500}, {"note": 0, "velocity": 0, "duration": 460}, {"note": 65, "velocity": 107, "duration": 161}, {"note": 0, "velocity": 0, "duration": 79}, {"note": 66, "velocity": 122, "duration": 163}, {"note": 0, "velocity": 0, "duration": 77}, {"note": 68, "velocity": 122, "duration": 147}, {"note": 0, "velocity": 0, "duration": 93}, {"note": 61, "velocity": 117, "duration": 38}, {"note": 0, "velocity": 0, "duration": 82}, {"note": 61, "velocity": 127, "duration": 341}, {"note": 61, "velocity": 127, "duration": 141}, {"note": 0, "velocity": 0, "duration": 99}, {"note": 65, "velocity": 102, "duration": 159}, {"note": 0, "velocity": 0, "duration": 81}, {"note": 68, "velocity": 127, "duration": 66}, {"note": 0, "velocity": 0, "duration": 174}, {"note": 68, "velocity": 127, "duration": 480}, {"note": 0, "velocity": 0, "duration": 120}, {"note": 66, "velocity": 102, "duration": 61}, {"note": 66, "velocity": 112, "duration": 55}, {"note": 0, "velocity": 0, "duration": 65}, {"note": 66, "velocity": 127, "duration": 112}, {"note": 0, "velocity": 0, "duration": 248}, {"note": 66, "velocity": 127, "duration": 150}, {"note": 0, "velocity": 0, "duration": 90}, {"note": 68, "velocity": 127, "duration": 146}, {"note": 0, "velocity": 0, "duration": 94}, {"note": 70, "velocity": 127, "duration": 164}, {"note": 0, "velocity": 0, "duration": 76}, {"note": 71, "velocity": 127, "duration": 194}, {"note": 64, "velocity": 100, "duration": 135}, {"note": 0, "velocity": 0, "duration": 105}, {"note": 64, "velocity": 117, "duration": 88}, {"note": 63, "velocity": 100, "duration": 84}, {"note": 0, "velocity": 0, "duration": 156}, {"note": 61, "velocity": 122, "duration": 389}, {"note": 0, "velocity": 0, "duration": 211}, {"note": 66, "velocity": 127, "duration": 102}, {"note": 68, "velocity": 127, "duration": 95}, {"note": 0, "velocity": 0, "duration": 145}, {"note": 70, "velocity": 127, "duration": 69}, {"note": 71, "velocity": 127, "duration": 207}, {"note": 66, "velocity": 127, "duration": 128}, {"note": 0, "velocity": 0, "duration": 112}, {"note": 66, "velocity": 127, "duration": 140}, {"note": 0, "velocity": 0, "duration": 100}, {"note": 64, "velocity": 112, "duration": 58}, {"note": 0, "velocity": 0, "duration": 62}, {"note": 63, "velocity": 117, "duration": 418}, {"note": 0, "velocity": 0, "duration": 182}, {"note": 66, "velocity": 127, "duration": 123}, {"note": 68, "velocity": 122, "duration": 93}, {"note": 0, "velocity": 0, "duration": 147}, {"note": 70, "velocity": 122, "duration": 69}, {"note": 71, "velocity": 127, "duration": 206}, {"note": 64, "velocity": 102, "duration": 134}, {"note": 0, "velocity": 0, "duration": 106}, {"note": 64, "velocity": 112, "duration": 147}, {"note": 0, "velocity": 0, "duration": 93}, {"note": 63, "velocity": 112, "duration": 46}, {"note": 0, "velocity": 0, "duration": 74}, {"note": 61, "velocity": 102, "duration": 266}, {"note": 0, "velocity": 0, "duration": 94}, {"note": 61, "velocity": 117, "duration": 162}, {"note": 0, "velocity": 0, "duration": 78}, {"note": 70, "velocity": 127, "duration": 176}, {"note": 0, "velocity": 0, "duration": 64}, {"note": 68, "velocity": 127, "duration": 144}, {"note": 63, "velocity": 107, "duration": 53}, {"note": 0, "velocity": 0, "duration": 67}, {"note": 63, "velocity": 122, "duration": 225}, {"note": 63, "velocity": 117, "duration": 105}, {"note": 0, "velocity": 0, "duration": 135}, {"note": 64, "velocity": 97, "duration": 269}, {"note": 68, "velocity": 127, "duration": 189}, {"note": 70, "velocity": 122, "duration": 126}, {"note": 66, "velocity": 117, "duration": 335}, {"note": 0, "velocity": 0, "duration": 145}, {"note": 66, "velocity": 127, "duration": 122}, {"note": 68, "velocity": 127, "duration": 72}, {"note": 0, "velocity": 0, "duration": 168}, {"note": 70, "velocity": 127, "duration": 64}, {"note": 71, "velocity": 127, "duration": 201}, {"note": 64, "velocity": 122, "duration": 181}, {"note": 64, "velocity": 117, "duration": 142}, {"note": 0, "velocity": 0, "duration": 98}, {"note": 63, "velocity": 127, "duration": 45}, {"note": 0, "velocity": 0, "duration": 75}, {"note": 61, "velocity": 117, "duration": 296}, {"note": 0, "velocity": 0, "duration": 304}, {"note": 66, "velocity": 127, "duration": 95}, {"note": 68, "velocity": 127, "duration": 112}, {"note": 0, "velocity": 0, "duration": 128}, {"note": 70, "velocity": 127, "duration": 68}, {"note": 71, "velocity": 127, "duration": 152}, {"note": 0, "velocity": 0, "duration": 88}, {"note": 71, "velocity": 112, "duration": 127}, {"note": 0, "velocity": 0, "duration": 113}, {"note": 73, "velocity": 127, "duration": 136}, {"note": 0, "velocity": 0, "duration": 104}, {"note": 70, "velocity": 127, "duration": 67}, {"note": 73, "velocity": 127, "duration": 143}, {"note": 0, "velocity": 0, "duration": 97}, {"note": 71, "velocity": 122, "duration": 429}, {"note": 0, "velocity": 0, "duration": 171}, {"note": 66, "velocity": 127, "duration": 50}, {"note": 0, "velocity": 0, "duration": 70}, {"note": 64, "velocity": 96, "duration": 68}, {"note": 63, "velocity": 127, "duration": 138}, {"note": 0, "velocity": 0, "duration": 102}, {"note": 59, "velocity": 95, "duration": 47}, {"note": 0, "velocity": 0, "duration": 73}, {"note": 59, "velocity": 97, "duration": 203}, {"note": 0, "velocity": 0, "duration": 157}, {"note": 56, "velocity": 95, "duration": 141}, {"note": 59, "velocity": 86, "duration": 78}, {"note": 66, "velocity": 122, "duration": 174}, {"note": 0, "velocity": 0, "duration": 66}, {"note": 64, "velocity": 99, "duration": 85}, {"note": 59, "velocity": 93, "duration": 335}, {"note": 0, "velocity": 0, "duration": 145}, {"note": 61, "velocity": 96, "duration": 100}, {"note": 0, "velocity": 0, "duration": 140}, {"note": 59, "velocity": 93, "duration": 918}, {"note": 0, "velocity": 0, "duration": 1002}, {"note": 59, "velocity": 112, "duration": 158}, {"note": 0, "velocity": 0, "duration": 82}, {"note": 61, "velocity": 117, "duration": 92}, {"note": 63, "velocity": 127, "duration": 185}, {"note": 66, "velocity": 122, "duration": 200}, {"note": 68, "velocity": 112, "duration": 147}, {"note": 66, "velocity": 127, "duration": 648}, {"note": 0, "velocity": 0, "duration": 3912}, {"note": 59, "velocity": 95, "duration": 75}, {"note": 71, "velocity": 117, "duration": 1380}, {"note": 0, "velocity": 0, "duration": 180}, {"note": 71, "velocity": 127, "duration": 106}, {"note": 73, "velocity": 127, "duration": 104}, {"note": 0, "velocity": 0, "duration": 136}, {"note": 74, "velocity": 122, "duration": 71}, {"note": 73, "velocity": 127, "duration": 1015}, {"note": 0, "velocity": 0, "duration": 185}, {"note": 73, "velocity": 127, "duration": 118}, {"note": 75, "velocity": 112, "duration": 98}, {"note": 73, "velocity": 127, "duration": 180}, {"note": 71, "velocity": 107, "duration": 141}, {"note": 0, "velocity": 0, "duration": 99}, {"note": 71, "velocity": 117, "duration": 208}, {"note": 64, "velocity": 112, "duration": 140}, {"note": 0, "velocity": 0, "duration": 100}, {"note": 64, "velocity": 122, "duration": 113}, {"note": 63, "velocity": 127, "duration": 82}, {"note": 0, "velocity": 0, "duration": 158}, {"note": 61, "velocity": 127, "duration": 429}, {"note": 0, "velocity": 0, "duration": 171}, {"note": 66, "velocity": 127, "duration": 102}, {"note": 68, "velocity": 127, "duration": 95}, {"note": 0, "velocity": 0, "duration": 145}, {"note": 70, "velocity": 127, "duration": 69}, {"note": 71, "velocity": 127, "duration": 207}, {"note": 66, "velocity": 127, "duration": 128}, {"note": 0, "velocity": 0, "duration": 112}, {"note": 66, "velocity": 127, "duration": 140}, {"note": 0, "velocity": 0, "duration": 100}, {"note": 64, "velocity": 112, "duration": 58}, {"note": 0, "velocity": 0, "duration": 62}, {"note": 63, "velocity": 117, "duration": 418}, {"note": 0, "velocity": 0, "duration": 182}, {"note": 66, "velocity": 127, "duration": 123}, {"note": 68, "velocity": 122, "duration": 93}, {"note": 0, "velocity": 0, "duration": 147}, {"note": 70, "velocity": 122, "duration": 69}, {"note": 71, "velocity": 127, "duration": 206}, {"note": 64, "velocity": 102, "duration": 134}, {"note": 0, "velocity": 0, "duration": 106}, {"note": 64, "velocity": 112, "duration": 147}, {"note": 0, "velocity": 0, "duration": 93}, {"note": 63, "velocity": 112, "duration": 46}, {"note": 0, "velocity": 0, "duration": 74}, {"note": 61, "velocity": 102, "duration": 266}, {"note": 0, "velocity": 0, "duration": 94}, {"note": 61, "velocity": 117, "duration": 162}, {"note": 0, "velocity": 0, "duration": 78}, {"note": 70, "velocity": 127, "duration": 176}, {"note": 0, "velocity": 0, "duration": 64}, {"note": 68, "velocity": 127, "duration": 144}, {"note": 63, "velocity": 107, "duration": 53}, {"note": 0, "velocity": 0, "duration": 67}, {"note": 63, "velocity": 122, "duration": 225}, {"note": 63, "velocity": 117, "duration": 105}, {"note": 0, "velocity": 0, "duration": 135}, {"note": 64, "velocity": 97, "duration": 269}, {"note": 68, "velocity": 127, "duration": 189}, {"note": 70, "velocity": 122, "duration": 126}, {"note": 66, "velocity": 117, "duration": 335}, {"note": 0, "velocity": 0, "duration": 145}, {"note": 66, "velocity": 127, "duration": 122}, {"note": 68, "velocity": 127, "duration": 72}, {"note": 0, "velocity": 0, "duration": 168}, {"note": 70, "velocity": 127, "duration": 64}, {"note": 71, "velocity": 127, "duration": 201}, {"note": 64, "velocity": 122, "duration": 181}, {"note": 64, "velocity": 117, "duration": 142}, {"note": 0, "velocity": 0, "duration": 98}, {"note": 63, "velocity": 127, "duration": 45}, {"note": 0, "velocity": 0, "duration": 75}, {"note": 61, "velocity": 117, "duration": 296}, {"note": 0, "velocity": 0, "duration": 64}, {"note": 75, "velocity": 127, "duration": 137}, {"note": 0, "velocity": 0, "duration": 103}, {"note": 73, "velocity": 127, "duration": 147}, {"note": 0, "velocity": 0, "duration": 93}, {"note": 71, "velocity": 112, "duration": 144}, {"note": 0, "velocity": 0, "duration": 96}, {"note": 71, "velocity": 127, "duration": 173}, {"note": 0, "velocity": 0, "duration": 67}, {"note": 66, "velocity": 117, "duration": 55}, {"note": 0, "velocity": 0, "duration": 65}, {"note": 66, "velocity": 112, "duration": 143}, {"note": 0, "velocity": 0, "duration": 97}, {"note": 73, "velocity": 127, "duration": 129}, {"note": 0, "velocity": 0, "duration": 111}, {"note": 73, "velocity": 127, "duration": 209}, {"note": 71, "velocity": 127, "duration": 404}, {"note": 0, "velocity": 0, "duration": 196}, {"note": 66, "velocity": 127, "duration": 50}, {"note": 0, "velocity": 0, "duration": 70}, {"note": 64, "velocity": 96, "duration": 68}, {"note": 63, "velocity": 127, "duration": 138}, {"note": 0, "velocity": 0, "duration": 102}, {"note": 59, "velocity": 95, "duration": 47}, {"note": 0, "velocity": 0, "duration": 73}, {"note": 59, "velocity": 97, "duration": 203}, {"note": 0, "velocity": 0, "duration": 157}, {"note": 56, "velocity": 95, "duration": 141}, {"note": 59, "velocity": 86, "duration": 78}, {"note": 66, "velocity": 122, "duration": 174}, {"note": 0, "velocity": 0, "duration": 66}, {"note": 68, "velocity": 99, "duration": 85}, {"note": 59, "velocity": 93, "duration": 335}, {"note": 0, "velocity": 0, "duration": 505}, {"note": 61, "velocity": 122, "duration": 75}, {"note": 59, "velocity": 117, "duration": 1309}]]