[[{"note": 64, "velocity": 112, "duration": 577}, {"note": 0, "velocity": 0, "duration": 143}, {"note": 67, "velocity": 122, "duration": 191}, {"note": 69, "velocity": 107, "duration": 324}, {"note": 67, "velocity": 107, "duration": 227}, {"note": 69, "velocity": 127, "duration": 235}, {"note": 72, "velocity": 102, "duration": 141}, {"note": 0, "velocity": 0, "duration": 99}, {"note": 69, "velocity": 127, "duration": 225}, {"note": 67, "velocity": 99, "duration": 997}, {"note": 0, "velocity": 0, "duration": 683}, {"note": 67, "velocity": 122, "duration": 538}, {"note": 0, "velocity": 0, "duration": 182}, {"note": 69, "velocity": 122, "duration": 135}, {"note": 0, "velocity": 0, "duration": 105}, {"note": 64, "velocity": 112, "duration": 227}, {"note": 62, "velocity": 95, "duration": 202}, {"note": 64, "velocity": 102, "duration": 213}, {"note": 67, "velocity": 102, "duration": 207}, {"note": 62, "velocity": 100, "duration": 977}, {"note": 0, "velocity": 0, "duration": 943}, {"note": 62, "velocity": 99, "duration": 589}, {"note": 0, "velocity": 0, "duration": 131}, {"note": 64, "velocity": 102, "duration": 208}, {"note": 67, "velocity": 112, "duration": 347}, {"note": 0, "velocity": 0, "duration": 133}, {"note": 72, "velocity": 117, "duration": 303}, {"note": 0, "velocity": 0, "duration": 177}, {"note": 69, "velocity": 122, "duration": 329}, {"note": 0, "velocity": 0, "duration": 151}, {"note": 72, "velocity": 127, "duration": 310}, {"note": 0, "velocity": 0, "duration": 170}, {"note": 69, "velocity": 117, "duration": 228}, {"note": 72, "velocity": 97, "duration": 134}, {"note": 69, "velocity": 96, "duration": 113}, {"note": 67, "velocity": 95, "duration": 332}, {"note": 0, "velocity": 0, "duration": 148}, {"note": 67, "velocity": 100, "duration": 361}, {"note": 0, "velocity": 0, "duration": 119}, {"note": 67, "velocity": 102, "duration": 206}, {"note": 62, "velocity": 92, "duration": 232}, {"note": 64, "velocity": 96, "duration": 346}, {"note": 0, "velocity": 0, "duration": 134}, {"note": 62, "velocity": 117, "duration": 250}, {"note": 64, "velocity": 88, "duration": 214}, {"note": 60, "velocity": 92, "duration": 1073}, {"note": 0, "velocity": 0, "duration": 847}, {"note": 64, "velocity": 112, "duration": 577}, {"note": 0, "velocity": 0, "duration": 143}, {"note": 67, "velocity": 122, "duration": 191}, {"note": 69, "velocity": 107, "duration": 324}, {"note": 67, "velocity": 107, "duration": 227}, {"note": 69, "velocity": 127, "duration": 235}, {"note": 72, "velocity": 102, "duration": 141}, {"note": 0, "velocity": 0, "duration": 99}, {"note": 69, "velocity": 127, "duration": 225}, {"note": 67, "velocity": 99, "duration": 997}, {"note": 0, "velocity": 0, "duration": 683}, {"note": 67, "velocity": 122, "duration": 538}, {"note": 0, "velocity": 0, "duration": 182}, {"note": 69, "velocity": 122, "duration": 135}, {"note": 0, "velocity": 0, "duration": 105}, {"note": 64, "velocity": 112, "duration": 227}, {"note": 62, "velocity": 95, "duration": 202}, {"note": 64, "velocity": 102, "duration": 213}, {"note": 67, "velocity": 102, "duration": 207}, {"note": 62, "velocity": 100, "duration": 977}, {"note": 0, "velocity": 0, "duration": 943}, {"note": 62, "velocity": 99, "duration": 589}, {"note": 0, "velocity": 0, "duration": 131}, {"note": 64, "velocity": 102, "duration": 208}, {"note": 67, "velocity": 112, "duration": 347}, {"note": 0, "velocity": 0, "duration": 133}, {"note": 72, "velocity": 117, "duration": 303}, {"note": 0, "velocity": 0, "duration": 177}, {"note": 69, "velocity": 122, "duration": 329}, {"note": 0, "velocity": 0, "duration": 151}, {"note": 72, "velocity": 127, "duration": 310}, {"note": 0, "velocity": 0, "duration": 170}, {"note": 69, "velocity": 117, "duration": 228}, {"note": 72, "velocity": 97, "duration": 134}, {"note": 69, "velocity": 96, "duration": 113}, {"note": 67, "velocity": 95, "duration": 332}, {"note": 0, "velocity": 0, "duration": 148}, {"note": 67, "velocity": 100, "duration": 361}, {"note": 0, "velocity": 0, "duration": 119}, {"note": 67, "velocity": 102, "duration": 206}, {"note": 62, "velocity": 92, "duration": 232}, {"note": 64, "velocity": 96, "duration": 346}, {"note": 0, "velocity": 0, "duration": 134}, {"note": 62, "velocity": 117, "duration": 250}, {"note": 64, "velocity": 88, "duration": 214}, {"note": 60, "velocity": 92, "duration": 1073}, {"note": 0, "velocity": 0, "duration": 847}, {"note": 60, "velocity": 99, "duration": 202}, {"note": 57, "velocity": 77, "duration": 238}, {"note": 60, "velocity": 99, "duration": 215}, {"note": 62, "velocity": 96, "duration": 242}, {"note": 64, "velocity": 117, "duration": 343}, {"note": 0, "velocity": 0, "duration": 617}, {"note": 62, "velocity": 102, "duration": 209}, {"note": 64, "velocity": 96, "duration": 218}, {"note": 57, "velocity": 92, "duration": 255}, {"note": 60, "velocity": 88, "duration": 234}, {"note": 55, "velocity": 93, "duration": 755}, {"note": 0, "velocity": 0, "duration": 205}, {"note": 57, "velocity": 96, "duration": 168}, {"note": 0, "velocity": 0, "duration": 72}, {"note": 60, "velocity": 99, "duration": 165}, {"note": 0, "velocity": 0, "duration": 75}, {"note": 62, "velocity": 88, "duration": 157}, {"note": 0, "velocity": 0, "duration": 83}, {"note": 64, "velocity": 102, "duration": 134}, {"note": 0, "velocity": 0, "duration": 106}, {"note": 67, "velocity": 117, "duration": 252}, {"note": 64, "velocity": 99, "duration": 186}, {"note": 72, "velocity": 107, "duration": 225}, {"note": 69, "velocity": 96, "duration": 215}, {"note": 67, "velocity": 99, "duration": 1208}, {"note": 0, "velocity": 0, "duration": 712}, {"note": 72, "velocity": 127, "duration": 338}, {"note": 0, "velocity": 0, "duration": 142}, {"note": 72, "velocity": 122, "duration": 181}, {"note": 69, "velocity": 100, "duration": 181}, {"note": 67, "velocity": 122, "duration": 380}, {"note": 0, "velocity": 0, "duration": 100}, {"note": 69, "velocity": 122, "duration": 339}, {"note": 0, "velocity": 0, "duration": 141}, {"note": 67, "velocity": 117, "duration": 337}, {"note": 0, "velocity": 0, "duration": 143}, {"note": 67, "velocity": 112, "duration": 215}, {"note": 64, "velocity": 95, "duration": 233}, {"note": 62, "velocity": 100, "duration": 585}, {"note": 0, "velocity": 0, "duration": 375}, {"note": 67, "velocity": 117, "duration": 314}, {"note": 0, "velocity": 0, "duration": 166}, {"note": 67, "velocity": 122, "duration": 239}, {"note": 69, "velocity": 122, "duration": 239}, {"note": 64, "velocity": 117, "duration": 329}, {"note": 0, "velocity": 0, "duration": 151}, {"note": 62, "velocity": 127, "duration": 216}, {"note": 64, "velocity": 99, "duration": 148}, {"note": 62, "velocity": 99, "duration": 178}, {"note": 60, "velocity": 102, "duration": 1321}, {"note": 0, "velocity": 0, "duration": 15959}, {"note": 60, "velocity": 99, "duration": 202}, {"note": 57, "velocity": 77, "duration": 238}, {"note": 60, "velocity": 99, "duration": 215}, {"note": 62, "velocity": 96, "duration": 242}, {"note": 64, "velocity": 117, "duration": 343}, {"note": 0, "velocity": 0, "duration": 617}, {"note": 62, "velocity": 102, "duration": 209}, {"note": 64, "velocity": 96, "duration": 218}, {"note": 57, "velocity": 92, "duration": 255}, {"note": 60, "velocity": 88, "duration": 234}, {"note": 55, "velocity": 93, "duration": 755}, {"note": 0, "velocity": 0, "duration": 205}, {"note": 57, "velocity": 96, "duration": 168}, {"note": 0, "velocity": 0, "duration": 72}, {"note": 60, "velocity": 99, "duration": 165}, {"note": 0, "velocity": 0, "duration": 75}, {"note": 62, "velocity": 88, "duration": 157}, {"note": 0, "velocity": 0, "duration": 83}, {"note": 64, "velocity": 102, "duration": 134}, {"note": 0, "velocity": 0, "duration": 106}, {"note": 67, "velocity": 117, "duration": 252}, {"note": 64, "velocity": 99, "duration": 186}, {"note": 72, "velocity": 107, "duration": 225}, {"note": 69, "velocity": 96, "duration": 215}, {"note": 67, "velocity": 99, "duration": 1208}, {"note": 0, "velocity": 0, "duration": 712}, {"note": 72, "velocity": 127, "duration": 338}, {"note": 0, "velocity": 0, "duration": 142}, {"note": 72, "velocity": 122, "duration": 181}, {"note": 69, "velocity": 100, "duration": 181}, {"note": 67, "velocity": 122, "duration": 380}, {"note": 0, "velocity": 0, "duration": 100}, {"note": 69, "velocity": 122, "duration": 339}, {"note": 0, "velocity": 0, "duration": 141}, {"note": 67, "velocity": 117, "duration": 337}, {"note": 0, "velocity": 0, "duration": 143}, {"note": 67, "velocity": 112, "duration": 215}, {"note": 64, "velocity": 95, "duration": 233}, {"note": 62, "velocity": 100, "duration": 585}, {"note": 0, "velocity": 0, "duration": 375}, {"note": 67, "velocity": 117, "duration": 314}, {"note": 0, "velocity": 0, "duration": 166}, {"note": 69, "velocity": 122, "duration": 239}, {"note": 0, "velocity": 0, "duration": 241}, {"note": 64, "velocity": 117, "duration": 329}, {"note": 0, "velocity": 0, "duration": 151}, {"note": 62, "velocity": 127, "duration": 216}, {"note": 64, "velocity": 99, "duration": 230}, {"note": 60, "velocity": 102, "duration": 1321}]]