[[{"note": 69, "velocity": 107, "duration": 48}, {"note": 0, "velocity": 0, "duration": 72}, {"note": 69, "velocity": 95, "duration": 50}, {"note": 0, "velocity": 0, "duration": 70}, {"note": 69, "velocity": 97, "duration": 44}, {"note": 0, "velocity": 0, "duration": 76}, {"note": 69, "velocity": 95, "duration": 38}, {"note": 0, "velocity": 0, "duration": 82}, {"note": 69, "velocity": 102, "duration": 152}, {"note": 0, "velocity": 0, "duration": 88}, {"note": 66, "velocity": 112, "duration": 179}, {"note": 0, "velocity": 0, "duration": 61}, {"note": 64, "velocity": 112, "duration": 735}, {"note": 0, "velocity": 0, "duration": 225}, {"note": 69, "velocity": 122, "duration": 40}, {"note": 0, "velocity": 0, "duration": 80}, {"note": 69, "velocity": 102, "duration": 45}, {"note": 0, "velocity": 0, "duration": 75}, {"note": 69, "velocity": 99, "duration": 44}, {"note": 0, "velocity": 0, "duration": 76}, {"note": 69, "velocity": 97, "duration": 38}, {"note": 0, "velocity": 0, "duration": 82}, {"note": 69, "velocity": 112, "duration": 83}, {"note": 0, "velocity": 0, "duration": 157}, {"note": 66, "velocity": 122, "duration": 146}, {"note": 0, "velocity": 0, "duration": 94}, {"note": 64, "velocity": 102, "duration": 103}, {"note": 62, "velocity": 100, "duration": 607}, {"note": 0, "velocity": 0, "duration": 233}, {"note": 62, "velocity": 99, "duration": 38}, {"note": 0, "velocity": 0, "duration": 82}, {"note": 62, "velocity": 95, "duration": 46}, {"note": 0, "velocity": 0, "duration": 74}, {"note": 62, "velocity": 89, "duration": 42}, {"note": 0, "velocity": 0, "duration": 78}, {"note": 62, "velocity": 86, "duration": 48}, {"note": 0, "velocity": 0, "duration": 72}, {"note": 62, "velocity": 100, "duration": 143}, {"note": 0, "velocity": 0, "duration": 97}, {"note": 66, "velocity": 99, "duration": 164}, {"note": 0, "velocity": 0, "duration": 76}, {"note": 64, "velocity": 90, "duration": 402}, {"note": 59, "velocity": 95, "duration": 509}, {"note": 0, "velocity": 0, "duration": 211}, {"note": 59, "velocity": 100, "duration": 45}, {"note": 0, "velocity": 0, "duration": 75}, {"note": 59, "velocity": 90, "duration": 46}, {"note": 0, "velocity": 0, "duration": 74}, {"note": 59, "velocity": 92, "duration": 47}, {"note": 0, "velocity": 0, "duration": 73}, {"note": 59, "velocity": 96, "duration": 47}, {"note": 0, "velocity": 0, "duration": 73}, {"note": 62, "velocity": 112, "duration": 114}, {"note": 0, "velocity": 0, "duration": 126}, {"note": 54, "velocity": 99, "duration": 192}, {"note": 57, "velocity": 97, "duration": 691}, {"note": 0, "velocity": 0, "duration": 269}, {"note": 69, "velocity": 107, "duration": 52}, {"note": 0, "velocity": 0, "duration": 68}, {"note": 69, "velocity": 100, "duration": 46}, {"note": 0, "velocity": 0, "duration": 74}, {"note": 69, "velocity": 102, "duration": 46}, {"note": 0, "velocity": 0, "duration": 74}, {"note": 69, "velocity": 93, "duration": 46}, {"note": 0, "velocity": 0, "duration": 74}, {"note": 69, "velocity": 112, "duration": 154}, {"note": 0, "velocity": 0, "duration": 86}, {"note": 66, "velocity": 107, "duration": 159}, {"note": 0, "velocity": 0, "duration": 81}, {"note": 64, "velocity": 96, "duration": 664}, {"note": 0, "velocity": 0, "duration": 296}, {"note": 69, "velocity": 112, "duration": 43}, {"note": 0, "velocity": 0, "duration": 77}, {"note": 69, "velocity": 107, "duration": 42}, {"note": 0, "velocity": 0, "duration": 78}, {"note": 69, "velocity": 100, "duration": 43}, {"note": 0, "velocity": 0, "duration": 77}, {"note": 69, "velocity": 93, "duration": 35}, {"note": 0, "velocity": 0, "duration": 85}, {"note": 69, "velocity": 95, "duration": 96}, {"note": 0, "velocity": 0, "duration": 144}, {"note": 66, "velocity": 127, "duration": 131}, {"note": 0, "velocity": 0, "duration": 109}, {"note": 64, "velocity": 97, "duration": 231}, {"note": 62, "velocity": 95, "duration": 519}, {"note": 0, "velocity": 0, "duration": 201}, {"note": 62, "velocity": 100, "duration": 40}, {"note": 0, "velocity": 0, "duration": 80}, {"note": 62, "velocity": 88, "duration": 40}, {"note": 0, "velocity": 0, "duration": 80}, {"note": 62, "velocity": 82, "duration": 46}, {"note": 0, "velocity": 0, "duration": 74}, {"note": 62, "velocity": 96, "duration": 44}, {"note": 0, "velocity": 0, "duration": 76}, {"note": 62, "velocity": 100, "duration": 140}, {"note": 0, "velocity": 0, "duration": 100}, {"note": 66, "velocity": 117, "duration": 161}, {"note": 0, "velocity": 0, "duration": 79}, {"note": 64, "velocity": 117, "duration": 371}, {"note": 59, "velocity": 90, "duration": 286}, {"note": 0, "velocity": 0, "duration": 434}, {"note": 59, "velocity": 95, "duration": 54}, {"note": 0, "velocity": 0, "duration": 66}, {"note": 59, "velocity": 85, "duration": 52}, {"note": 0, "velocity": 0, "duration": 68}, {"note": 59, "velocity": 93, "duration": 57}, {"note": 0, "velocity": 0, "duration": 63}, {"note": 59, "velocity": 97, "duration": 77}, {"note": 62, "velocity": 99, "duration": 119}, {"note": 0, "velocity": 0, "duration": 121}, {"note": 54, "velocity": 95, "duration": 186}, {"note": 57, "velocity": 107, "duration": 196}, {"note": 0, "velocity": 0, "duration": 764}, {"note": 69, "velocity": 107, "duration": 389}, {"note": 0, "velocity": 0, "duration": 91}, {"note": 74, "velocity": 122, "duration": 251}, {"note": 0, "velocity": 0, "duration": 229}, {"note": 71, "velocity": 127, "duration": 167}, {"note": 0, "velocity": 0, "duration": 73}, {"note": 69, "velocity": 112, "duration": 78}, {"note": 71, "velocity": 99, "duration": 77}, {"note": 67, "velocity": 117, "duration": 255}, {"note": 0, "velocity": 0, "duration": 225}, {"note": 64, "velocity": 112, "duration": 111}, {"note": 67, "velocity": 95, "duration": 142}, {"note": 64, "velocity": 96, "duration": 115}, {"note": 67, "velocity": 95, "duration": 68}, {"note": 71, "velocity": 122, "duration": 237}, {"note": 0, "velocity": 0, "duration": 123}, {"note": 69, "velocity": 112, "duration": 66}, {"note": 69, "velocity": 122, "duration": 634}, {"note": 0, "velocity": 0, "duration": 326}, {"note": 69, "velocity": 112, "duration": 300}, {"note": 0, "velocity": 0, "duration": 180}, {"note": 74, "velocity": 127, "duration": 288}, {"note": 0, "velocity": 0, "duration": 192}, {"note": 71, "velocity": 112, "duration": 151}, {"note": 0, "velocity": 0, "duration": 89}, {"note": 69, "velocity": 127, "duration": 103}, {"note": 71, "velocity": 102, "duration": 95}, {"note": 67, "velocity": 117, "duration": 235}, {"note": 0, "velocity": 0, "duration": 125}, {"note": 66, "velocity": 122, "duration": 102}, {"note": 64, "velocity": 96, "duration": 114}, {"note": 67, "velocity": 97, "duration": 126}, {"note": 64, "velocity": 100, "duration": 100}, {"note": 67, "velocity": 102, "duration": 83}, {"note": 69, "velocity": 127, "duration": 99}, {"note": 71, "velocity": 117, "duration": 234}, {"note": 0, "velocity": 0, "duration": 126}, {"note": 71, "velocity": 122, "duration": 206}, {"note": 62, "velocity": 107, "duration": 489}, {"note": 0, "velocity": 0, "duration": 231}, {"note": 64, "velocity": 100, "duration": 118}, {"note": 67, "velocity": 97, "duration": 110}, {"note": 64, "velocity": 93, "duration": 132}, {"note": 67, "velocity": 100, "duration": 120}, {"note": 71, "velocity": 100, "duration": 163}, {"note": 0, "velocity": 0, "duration": 77}, {"note": 69, "velocity": 127, "duration": 127}, {"note": 0, "velocity": 0, "duration": 113}, {"note": 64, "velocity": 102, "duration": 110}, {"note": 67, "velocity": 83, "duration": 130}, {"note": 64, "velocity": 100, "duration": 115}, {"note": 67, "velocity": 100, "duration": 134}, {"note": 71, "velocity": 100, "duration": 181}, {"note": 62, "velocity": 102, "duration": 143}, {"note": 0, "velocity": 0, "duration": 97}, {"note": 69, "velocity": 112, "duration": 181}, {"note": 74, "velocity": 122, "duration": 152}, {"note": 0, "velocity": 0, "duration": 88}, {"note": 74, "velocity": 127, "duration": 103}, {"note": 71, "velocity": 127, "duration": 118}, {"note": 0, "velocity": 0, "duration": 122}, {"note": 69, "velocity": 102, "duration": 72}, {"note": 69, "velocity": 112, "duration": 218}, {"note": 67, "velocity": 99, "duration": 454}, {"note": 66, "velocity": 127, "duration": 134}, {"note": 0, "velocity": 0, "duration": 106}, {"note": 64, "velocity": 112, "duration": 85}, {"note": 67, "velocity": 112, "duration": 124}, {"note": 64, "velocity": 96, "duration": 112}, {"note": 67, "velocity": 102, "duration": 96}, {"note": 71, "velocity": 127, "duration": 161}, {"note": 0, "velocity": 0, "duration": 79}, {"note": 69, "velocity": 112, "duration": 70}, {"note": 0, "velocity": 0, "duration": 170}, {"note": 64, "velocity": 97, "duration": 88}, {"note": 67, "velocity": 100, "duration": 90}, {"note": 64, "velocity": 95, "duration": 71}, {"note": 67, "velocity": 112, "duration": 62}, {"note": 71, "velocity": 127, "duration": 157}, {"note": 0, "velocity": 0, "duration": 83}, {"note": 62, "velocity": 102, "duration": 147}, {"note": 0, "velocity": 0, "duration": 93}, {"note": 59, "velocity": 99, "duration": 95}, {"note": 62, "velocity": 93, "duration": 80}, {"note": 59, "velocity": 96, "duration": 92}, {"note": 62, "velocity": 102, "duration": 58}, {"note": 0, "velocity": 0, "duration": 62}, {"note": 66, "velocity": 117, "duration": 166}, {"note": 0, "velocity": 0, "duration": 74}, {"note": 64, "velocity": 117, "duration": 149}, {"note": 0, "velocity": 0, "duration": 91}, {"note": 62, "velocity": 127, "duration": 548}, {"note": 0, "velocity": 0, "duration": 412}, {"note": 69, "velocity": 127, "duration": 53}, {"note": 0, "velocity": 0, "duration": 67}, {"note": 69, "velocity": 112, "duration": 123}, {"note": 0, "velocity": 0, "duration": 117}, {"note": 69, "velocity": 127, "duration": 43}, {"note": 0, "velocity": 0, "duration": 77}, {"note": 69, "velocity": 107, "duration": 132}, {"note": 0, "velocity": 0, "duration": 108}, {"note": 66, "velocity": 127, "duration": 141}, {"note": 0, "velocity": 0, "duration": 99}, {"note": 64, "velocity": 122, "duration": 550}, {"note": 0, "velocity": 0, "duration": 410}, {"note": 59, "velocity": 112, "duration": 43}, {"note": 0, "velocity": 0, "duration": 77}, {"note": 62, "velocity": 100, "duration": 43}, {"note": 0, "velocity": 0, "duration": 77}, {"note": 59, "velocity": 96, "duration": 52}, {"note": 0, "velocity": 0, "duration": 68}, {"note": 62, "velocity": 107, "duration": 44}, {"note": 0, "velocity": 0, "duration": 76}, {"note": 66, "velocity": 127, "duration": 133}, {"note": 0, "velocity": 0, "duration": 107}, {"note": 64, "velocity": 117, "duration": 97}, {"note": 66, "velocity": 97, "duration": 67}, {"note": 62, "velocity": 122, "duration": 615}, {"note": 0, "velocity": 0, "duration": 8025}, {"note": 69, "velocity": 107, "duration": 48}, {"note": 0, "velocity": 0, "duration": 72}, {"note": 69, "velocity": 95, "duration": 50}, {"note": 0, "velocity": 0, "duration": 70}, {"note": 69, "velocity": 97, "duration": 44}, {"note": 0, "velocity": 0, "duration": 76}, {"note": 69, "velocity": 95, "duration": 38}, {"note": 0, "velocity": 0, "duration": 82}, {"note": 69, "velocity": 102, "duration": 152}, {"note": 0, "velocity": 0, "duration": 88}, {"note": 66, "velocity": 112, "duration": 179}, {"note": 0, "velocity": 0, "duration": 61}, {"note": 64, "velocity": 112, "duration": 735}, {"note": 0, "velocity": 0, "duration": 225}, {"note": 69, "velocity": 122, "duration": 40}, {"note": 0, "velocity": 0, "duration": 80}, {"note": 69, "velocity": 102, "duration": 45}, {"note": 0, "velocity": 0, "duration": 75}, {"note": 69, "velocity": 99, "duration": 44}, {"note": 0, "velocity": 0, "duration": 76}, {"note": 69, "velocity": 97, "duration": 38}, {"note": 0, "velocity": 0, "duration": 82}, {"note": 69, "velocity": 112, "duration": 83}, {"note": 0, "velocity": 0, "duration": 157}, {"note": 66, "velocity": 122, "duration": 146}, {"note": 0, "velocity": 0, "duration": 94}, {"note": 64, "velocity": 102, "duration": 103}, {"note": 62, "velocity": 100, "duration": 607}, {"note": 0, "velocity": 0, "duration": 233}, {"note": 62, "velocity": 99, "duration": 38}, {"note": 0, "velocity": 0, "duration": 82}, {"note": 62, "velocity": 95, "duration": 46}, {"note": 0, "velocity": 0, "duration": 74}, {"note": 62, "velocity": 89, "duration": 42}, {"note": 0, "velocity": 0, "duration": 78}, {"note": 62, "velocity": 86, "duration": 48}, {"note": 0, "velocity": 0, "duration": 72}, {"note": 62, "velocity": 100, "duration": 143}, {"note": 0, "velocity": 0, "duration": 97}, {"note": 66, "velocity": 99, "duration": 164}, {"note": 0, "velocity": 0, "duration": 76}, {"note": 64, "velocity": 90, "duration": 402}, {"note": 59, "velocity": 95, "duration": 509}, {"note": 0, "velocity": 0, "duration": 211}, {"note": 59, "velocity": 100, "duration": 45}, {"note": 0, "velocity": 0, "duration": 75}, {"note": 59, "velocity": 90, "duration": 46}, {"note": 0, "velocity": 0, "duration": 74}, {"note": 59, "velocity": 92, "duration": 47}, {"note": 0, "velocity": 0, "duration": 73}, {"note": 59, "velocity": 96, "duration": 47}, {"note": 0, "velocity": 0, "duration": 73}, {"note": 62, "velocity": 112, "duration": 114}, {"note": 0, "velocity": 0, "duration": 126}, {"note": 54, "velocity": 99, "duration": 192}, {"note": 57, "velocity": 97, "duration": 691}, {"note": 0, "velocity": 0, "duration": 269}, {"note": 69, "velocity": 107, "duration": 52}, {"note": 0, "velocity": 0, "duration": 68}, {"note": 69, "velocity": 100, "duration": 46}, {"note": 0, "velocity": 0, "duration": 74}, {"note": 69, "velocity": 102, "duration": 46}, {"note": 0, "velocity": 0, "duration": 74}, {"note": 69, "velocity": 93, "duration": 46}, {"note": 0, "velocity": 0, "duration": 74}, {"note": 69, "velocity": 112, "duration": 154}, {"note": 0, "velocity": 0, "duration": 86}, {"note": 66, "velocity": 107, "duration": 159}, {"note": 0, "velocity": 0, "duration": 81}, {"note": 64, "velocity": 96, "duration": 664}, {"note": 0, "velocity": 0, "duration": 296}, {"note": 69, "velocity": 112, "duration": 43}, {"note": 0, "velocity": 0, "duration": 77}, {"note": 69, "velocity": 107, "duration": 42}, {"note": 0, "velocity": 0, "duration": 78}, {"note": 69, "velocity": 100, "duration": 43}, {"note": 0, "velocity": 0, "duration": 77}, {"note": 69, "velocity": 93, "duration": 35}, {"note": 0, "velocity": 0, "duration": 85}, {"note": 69, "velocity": 95, "duration": 96}, {"note": 0, "velocity": 0, "duration": 144}, {"note": 66, "velocity": 127, "duration": 131}, {"note": 0, "velocity": 0, "duration": 109}, {"note": 64, "velocity": 97, "duration": 231}, {"note": 62, "velocity": 95, "duration": 519}, {"note": 0, "velocity": 0, "duration": 201}, {"note": 62, "velocity": 100, "duration": 40}, {"note": 0, "velocity": 0, "duration": 80}, {"note": 62, "velocity": 88, "duration": 40}, {"note": 0, "velocity": 0, "duration": 80}, {"note": 62, "velocity": 82, "duration": 46}, {"note": 0, "velocity": 0, "duration": 74}, {"note": 62, "velocity": 96, "duration": 44}, {"note": 0, "velocity": 0, "duration": 76}, {"note": 62, "velocity": 100, "duration": 140}, {"note": 0, "velocity": 0, "duration": 100}, {"note": 66, "velocity": 117, "duration": 161}, {"note": 0, "velocity": 0, "duration": 79}, {"note": 64, "velocity": 117, "duration": 371}, {"note": 59, "velocity": 90, "duration": 286}, {"note": 0, "velocity": 0, "duration": 434}, {"note": 59, "velocity": 95, "duration": 54}, {"note": 0, "velocity": 0, "duration": 66}, {"note": 59, "velocity": 85, "duration": 52}, {"note": 0, "velocity": 0, "duration": 68}, {"note": 59, "velocity": 93, "duration": 57}, {"note": 0, "velocity": 0, "duration": 63}, {"note": 59, "velocity": 97, "duration": 77}, {"note": 62, "velocity": 99, "duration": 119}, {"note": 0, "velocity": 0, "duration": 121}, {"note": 54, "velocity": 95, "duration": 186}, {"note": 57, "velocity": 107, "duration": 196}, {"note": 0, "velocity": 0, "duration": 764}, {"note": 69, "velocity": 107, "duration": 389}, {"note": 0, "velocity": 0, "duration": 91}, {"note": 74, "velocity": 122, "duration": 251}, {"note": 0, "velocity": 0, "duration": 229}, {"note": 71, "velocity": 127, "duration": 167}, {"note": 0, "velocity": 0, "duration": 73}, {"note": 69, "velocity": 112, "duration": 78}, {"note": 71, "velocity": 99, "duration": 77}, {"note": 67, "velocity": 117, "duration": 255}, {"note": 0, "velocity": 0, "duration": 225}, {"note": 64, "velocity": 112, "duration": 111}, {"note": 67, "velocity": 95, "duration": 142}, {"note": 64, "velocity": 96, "duration": 115}, {"note": 67, "velocity": 95, "duration": 68}, {"note": 71, "velocity": 122, "duration": 237}, {"note": 0, "velocity": 0, "duration": 123}, {"note": 69, "velocity": 112, "duration": 66}, {"note": 69, "velocity": 122, "duration": 634}, {"note": 0, "velocity": 0, "duration": 326}, {"note": 69, "velocity": 112, "duration": 300}, {"note": 0, "velocity": 0, "duration": 180}, {"note": 74, "velocity": 127, "duration": 288}, {"note": 0, "velocity": 0, "duration": 192}, {"note": 71, "velocity": 112, "duration": 151}, {"note": 0, "velocity": 0, "duration": 89}, {"note": 69, "velocity": 127, "duration": 103}, {"note": 71, "velocity": 102, "duration": 95}, {"note": 67, "velocity": 117, "duration": 235}, {"note": 0, "velocity": 0, "duration": 125}, {"note": 66, "velocity": 122, "duration": 102}, {"note": 64, "velocity": 96, "duration": 114}, {"note": 67, "velocity": 97, "duration": 126}, {"note": 64, "velocity": 100, "duration": 100}, {"note": 67, "velocity": 102, "duration": 83}, {"note": 69, "velocity": 127, "duration": 99}, {"note": 71, "velocity": 117, "duration": 234}, {"note": 0, "velocity": 0, "duration": 126}, {"note": 71, "velocity": 122, "duration": 206}, {"note": 62, "velocity": 107, "duration": 489}, {"note": 0, "velocity": 0, "duration": 231}, {"note": 64, "velocity": 100, "duration": 118}, {"note": 67, "velocity": 97, "duration": 110}, {"note": 64, "velocity": 93, "duration": 132}, {"note": 67, "velocity": 100, "duration": 120}, {"note": 71, "velocity": 100, "duration": 163}, {"note": 0, "velocity": 0, "duration": 77}, {"note": 69, "velocity": 127, "duration": 127}, {"note": 0, "velocity": 0, "duration": 113}, {"note": 64, "velocity": 102, "duration": 110}, {"note": 67, "velocity": 83, "duration": 130}, {"note": 64, "velocity": 100, "duration": 115}, {"note": 67, "velocity": 100, "duration": 134}, {"note": 71, "velocity": 100, "duration": 181}, {"note": 62, "velocity": 102, "duration": 143}, {"note": 0, "velocity": 0, "duration": 97}, {"note": 69, "velocity": 112, "duration": 181}, {"note": 74, "velocity": 122, "duration": 152}, {"note": 0, "velocity": 0, "duration": 88}, {"note": 74, "velocity": 127, "duration": 103}, {"note": 71, "velocity": 127, "duration": 118}, {"note": 0, "velocity": 0, "duration": 122}, {"note": 69, "velocity": 102, "duration": 72}, {"note": 69, "velocity": 112, "duration": 218}, {"note": 67, "velocity": 99, "duration": 454}, {"note": 66, "velocity": 127, "duration": 134}, {"note": 0, "velocity": 0, "duration": 106}, {"note": 64, "velocity": 112, "duration": 85}, {"note": 67, "velocity": 112, "duration": 124}, {"note": 64, "velocity": 96, "duration": 112}, {"note": 67, "velocity": 102, "duration": 96}, {"note": 71, "velocity": 127, "duration": 161}, {"note": 0, "velocity": 0, "duration": 79}, {"note": 69, "velocity": 112, "duration": 70}, {"note": 0, "velocity": 0, "duration": 170}, {"note": 64, "velocity": 97, "duration": 88}, {"note": 67, "velocity": 100, "duration": 90}, {"note": 64, "velocity": 95, "duration": 71}, {"note": 67, "velocity": 112, "duration": 62}, {"note": 71, "velocity": 127, "duration": 157}, {"note": 0, "velocity": 0, "duration": 83}, {"note": 62, "velocity": 102, "duration": 147}, {"note": 0, "velocity": 0, "duration": 93}, {"note": 59, "velocity": 99, "duration": 95}, {"note": 62, "velocity": 93, "duration": 80}, {"note": 59, "velocity": 96, "duration": 92}, {"note": 62, "velocity": 102, "duration": 58}, {"note": 0, "velocity": 0, "duration": 62}, {"note": 66, "velocity": 117, "duration": 166}, {"note": 0, "velocity": 0, "duration": 74}, {"note": 64, "velocity": 117, "duration": 149}, {"note": 0, "velocity": 0, "duration": 91}, {"note": 62, "velocity": 127, "duration": 548}, {"note": 0, "velocity": 0, "duration": 412}, {"note": 69, "velocity": 127, "duration": 53}, {"note": 0, "velocity": 0, "duration": 67}, {"note": 69, "velocity": 112, "duration": 123}, {"note": 0, "velocity": 0, "duration": 117}, {"note": 69, "velocity": 127, "duration": 43}, {"note": 0, "velocity": 0, "duration": 77}, {"note": 69, "velocity": 107, "duration": 132}, {"note": 0, "velocity": 0, "duration": 108}, {"note": 66, "velocity": 127, "duration": 141}, {"note": 0, "velocity": 0, "duration": 99}, {"note": 64, "velocity": 122, "duration": 550}, {"note": 0, "velocity": 0, "duration": 410}, {"note": 59, "velocity": 112, "duration": 43}, {"note": 0, "velocity": 0, "duration": 77}, {"note": 62, "velocity": 100, "duration": 43}, {"note": 0, "velocity": 0, "duration": 77}, {"note": 59, "velocity": 96, "duration": 52}, {"note": 0, "velocity": 0, "duration": 68}, {"note": 62, "velocity": 107, "duration": 44}, {"note": 0, "velocity": 0, "duration": 76}, {"note": 66, "velocity": 127, "duration": 133}, {"note": 0, "velocity": 0, "duration": 107}, {"note": 64, "velocity": 117, "duration": 97}, {"note": 66, "velocity": 97, "duration": 67}, {"note": 62, "velocity": 122, "duration": 615}, {"note": 0, "velocity": 0, "duration": 326}, {"note": 71, "velocity": 100, "duration": 69}, {"note": 71, "velocity": 93, "duration": 55}, {"note": 0, "velocity": 0, "duration": 67}, {"note": 71, "velocity": 99, "duration": 54}, {"note": 0, "velocity": 0, "duration": 62}, {"note": 71, "velocity": 107, "duration": 56}, {"note": 0, "velocity": 0, "duration": 77}, {"note": 74, "velocity": 127, "duration": 520}, {"note": 74, "velocity": 112, "duration": 51}, {"note": 0, "velocity": 0, "duration": 174}, {"note": 66, "velocity": 117, "duration": 912}, {"note": 0, "velocity": 0, "duration": 110}, {"note": 69, "velocity": 127, "duration": 1940}]]