[[{"note": 70, "velocity": 74, "duration": 120}, {"note": 0, "velocity": 0, "duration": 120}, {"note": 70, "velocity": 85, "duration": 298}, {"note": 0, "velocity": 0, "duration": 182}, {"note": 70, "velocity": 82, "duration": 402}, {"note": 0, "velocity": 0, "duration": 78}, {"note": 70, "velocity": 85, "duration": 345}, {"note": 0, "velocity": 0, "duration": 135}, {"note": 79, "velocity": 81, "duration": 159}, {"note": 0, "velocity": 0, "duration": 81}, {"note": 75, "velocity": 83, "duration": 1402}, {"note": 0, "velocity": 0, "duration": 518}, {"note": 70, "velocity": 77, "duration": 147}, {"note": 0, "velocity": 0, "duration": 93}, {"note": 70, "velocity": 82, "duration": 305}, {"note": 0, "velocity": 0, "duration": 175}, {"note": 70, "velocity": 82, "duration": 391}, {"note": 0, "velocity": 0, "duration": 89}, {"note": 70, "velocity": 85, "duration": 404}, {"note": 0, "velocity": 0, "duration": 76}, {"note": 72, "velocity": 79, "duration": 144}, {"note": 0, "velocity": 0, "duration": 96}, {"note": 70, "velocity": 80, "duration": 842}, {"note": 0, "velocity": 0, "duration": 1318}, {"note": 70, "velocity": 83, "duration": 356}, {"note": 0, "velocity": 0, "duration": 124}, {"note": 70, "velocity": 80, "duration": 328}, {"note": 0, "velocity": 0, "duration": 152}, {"note": 70, "velocity": 83, "duration": 341}, {"note": 0, "velocity": 0, "duration": 139}, {"note": 82, "velocity": 79, "duration": 143}, {"note": 0, "velocity": 0, "duration": 97}, {"note": 79, "velocity": 78, "duration": 1128}, {"note": 0, "velocity": 0, "duration": 552}, {"note": 77, "velocity": 85, "duration": 219}, {"note": 75, "velocity": 87, "duration": 200}, {"note": 77, "velocity": 80, "duration": 360}, {"note": 0, "velocity": 0, "duration": 120}, {"note": 77, "velocity": 81, "duration": 350}, {"note": 0, "velocity": 0, "duration": 130}, {"note": 77, "velocity": 84, "duration": 400}, {"note": 0, "velocity": 0, "duration": 80}, {"note": 72, "velocity": 85, "duration": 204}, {"note": 75, "velocity": 82, "duration": 136}, {"note": 0, "velocity": 0, "duration": 104}, {"note": 77, "velocity": 80, "duration": 1534}, {"note": 0, "velocity": 0, "duration": 146}, {"note": 70, "velocity": 73, "duration": 153}, {"note": 0, "velocity": 0, "duration": 87}, {"note": 70, "velocity": 82, "duration": 345}, {"note": 0, "velocity": 0, "duration": 135}, {"note": 70, "velocity": 83, "duration": 382}, {"note": 0, "velocity": 0, "duration": 98}, {"note": 70, "velocity": 85, "duration": 358}, {"note": 0, "velocity": 0, "duration": 122}, {"note": 79, "velocity": 78, "duration": 186}, {"note": 75, "velocity": 83, "duration": 936}, {"note": 0, "velocity": 0, "duration": 984}, {"note": 70, "velocity": 83, "duration": 139}, {"note": 0, "velocity": 0, "duration": 101}, {"note": 70, "velocity": 84, "duration": 314}, {"note": 0, "velocity": 0, "duration": 166}, {"note": 70, "velocity": 85, "duration": 337}, {"note": 0, "velocity": 0, "duration": 143}, {"note": 70, "velocity": 85, "duration": 339}, {"note": 0, "velocity": 0, "duration": 141}, {"note": 72, "velocity": 80, "duration": 153}, {"note": 0, "velocity": 0, "duration": 87}, {"note": 70, "velocity": 79, "duration": 1570}, {"note": 0, "velocity": 0, "duration": 590}, {"note": 70, "velocity": 82, "duration": 357}, {"note": 0, "velocity": 0, "duration": 123}, {"note": 70, "velocity": 85, "duration": 325}, {"note": 0, "velocity": 0, "duration": 155}, {"note": 70, "velocity": 85, "duration": 322}, {"note": 0, "velocity": 0, "duration": 158}, {"note": 82, "velocity": 81, "duration": 147}, {"note": 0, "velocity": 0, "duration": 93}, {"note": 79, "velocity": 78, "duration": 980}, {"note": 0, "velocity": 0, "duration": 700}, {"note": 77, "velocity": 85, "duration": 211}, {"note": 75, "velocity": 82, "duration": 137}, {"note": 0, "velocity": 0, "duration": 103}, {"note": 77, "velocity": 80, "duration": 342}, {"note": 0, "velocity": 0, "duration": 138}, {"note": 77, "velocity": 78, "duration": 355}, {"note": 0, "velocity": 0, "duration": 125}, {"note": 77, "velocity": 79, "duration": 381}, {"note": 0, "velocity": 0, "duration": 99}, {"note": 72, "velocity": 80, "duration": 188}, {"note": 74, "velocity": 79, "duration": 169}, {"note": 0, "velocity": 0, "duration": 71}, {"note": 75, "velocity": 79, "duration": 1738}, {"note": 0, "velocity": 0, "duration": 182}, {"note": 79, "velocity": 82, "duration": 248}, {"note": 0, "velocity": 0, "duration": 112}, {"note": 80, "velocity": 74, "duration": 98}, {"note": 82, "velocity": 78, "duration": 105}, {"note": 0, "velocity": 0, "duration": 135}, {"note": 82, "velocity": 79, "duration": 115}, {"note": 0, "velocity": 0, "duration": 125}, {"note": 82, "velocity": 73, "duration": 122}, {"note": 0, "velocity": 0, "duration": 118}, {"note": 84, "velocity": 74, "duration": 148}, {"note": 0, "velocity": 0, "duration": 92}, {"note": 82, "velocity": 80, "duration": 663}, {"note": 0, "velocity": 0, "duration": 1737}, {"note": 75, "velocity": 94, "duration": 292}, {"note": 0, "velocity": 0, "duration": 68}, {"note": 77, "velocity": 78, "duration": 131}, {"note": 79, "velocity": 74, "duration": 142}, {"note": 0, "velocity": 0, "duration": 98}, {"note": 79, "velocity": 78, "duration": 110}, {"note": 0, "velocity": 0, "duration": 130}, {"note": 79, "velocity": 78, "duration": 162}, {"note": 0, "velocity": 0, "duration": 78}, {"note": 82, "velocity": 79, "duration": 131}, {"note": 0, "velocity": 0, "duration": 109}, {"note": 79, "velocity": 81, "duration": 718}, {"note": 0, "velocity": 0, "duration": 1682}, {"note": 79, "velocity": 82, "duration": 248}, {"note": 0, "velocity": 0, "duration": 112}, {"note": 80, "velocity": 74, "duration": 98}, {"note": 82, "velocity": 78, "duration": 105}, {"note": 0, "velocity": 0, "duration": 135}, {"note": 82, "velocity": 79, "duration": 115}, {"note": 0, "velocity": 0, "duration": 125}, {"note": 82, "velocity": 73, "duration": 122}, {"note": 0, "velocity": 0, "duration": 118}, {"note": 84, "velocity": 74, "duration": 148}, {"note": 0, "velocity": 0, "duration": 92}, {"note": 82, "velocity": 80, "duration": 663}, {"note": 0, "velocity": 0, "duration": 1737}, {"note": 75, "velocity": 94, "duration": 292}, {"note": 0, "velocity": 0, "duration": 68}, {"note": 77, "velocity": 78, "duration": 131}, {"note": 79, "velocity": 74, "duration": 142}, {"note": 0, "velocity": 0, "duration": 98}, {"note": 79, "velocity": 78, "duration": 110}, {"note": 0, "velocity": 0, "duration": 130}, {"note": 79, "velocity": 78, "duration": 162}, {"note": 0, "velocity": 0, "duration": 78}, {"note": 82, "velocity": 79, "duration": 131}, {"note": 0, "velocity": 0, "duration": 109}, {"note": 79, "velocity": 81, "duration": 718}, {"note": 0, "velocity": 0, "duration": 1682}, {"note": 72, "velocity": 80, "duration": 146}, {"note": 0, "velocity": 0, "duration": 94}, {"note": 72, "velocity": 81, "duration": 387}, {"note": 0, "velocity": 0, "duration": 93}, {"note": 74, "velocity": 78, "duration": 245}, {"note": 75, "velocity": 87, "duration": 404}, {"note": 0, "velocity": 0, "duration": 76}, {"note": 84, "velocity": 84, "duration": 127}, {"note": 0, "velocity": 0, "duration": 113}, {"note": 84, "velocity": 77, "duration": 175}, {"note": 0, "velocity": 0, "duration": 65}, {"note": 82, "velocity": 77, "duration": 387}, {"note": 0, "velocity": 0, "duration": 93}, {"note": 80, "velocity": 65, "duration": 187}, {"note": 79, "velocity": 79, "duration": 226}, {"note": 77, "velocity": 81, "duration": 779}, {"note": 0, "velocity": 0, "duration": 181}, {"note": 79, "velocity": 79, "duration": 239}, {"note": 0, "velocity": 0, "duration": 121}, {"note": 80, "velocity": 74, "duration": 79}, {"note": 82, "velocity": 80, "duration": 106}, {"note": 0, "velocity": 0, "duration": 134}, {"note": 84, "velocity": 79, "duration": 110}, {"note": 0, "velocity": 0, "duration": 130}, {"note": 82, "velocity": 80, "duration": 641}, {"note": 0, "velocity": 0, "duration": 319}, {"note": 75, "velocity": 84, "duration": 207}, {"note": 0, "velocity": 0, "duration": 153}, {"note": 77, "velocity": 78, "duration": 109}, {"note": 79, "velocity": 69, "duration": 123}, {"note": 0, "velocity": 0, "duration": 117}, {"note": 82, "velocity": 79, "duration": 116}, {"note": 0, "velocity": 0, "duration": 124}, {"note": 79, "velocity": 76, "duration": 402}, {"note": 0, "velocity": 0, "duration": 558}, {"note": 72, "velocity": 78, "duration": 127}, {"note": 0, "velocity": 0, "duration": 113}, {"note": 72, "velocity": 78, "duration": 432}, {"note": 75, "velocity": 80, "duration": 210}, {"note": 74, "velocity": 78, "duration": 424}, {"note": 72, "velocity": 79, "duration": 200}, {"note": 70, "velocity": 76, "duration": 190}, {"note": 75, "velocity": 81, "duration": 1918}, {"note": 0, "velocity": 0, "duration": 1682}, {"note": 70, "velocity": 74, "duration": 120}, {"note": 0, "velocity": 0, "duration": 120}, {"note": 70, "velocity": 85, "duration": 298}, {"note": 0, "velocity": 0, "duration": 182}, {"note": 70, "velocity": 82, "duration": 381}, {"note": 0, "velocity": 0, "duration": 99}, {"note": 70, "velocity": 85, "duration": 345}, {"note": 0, "velocity": 0, "duration": 135}, {"note": 79, "velocity": 81, "duration": 159}, {"note": 0, "velocity": 0, "duration": 81}, {"note": 75, "velocity": 83, "duration": 1402}, {"note": 0, "velocity": 0, "duration": 518}, {"note": 70, "velocity": 77, "duration": 147}, {"note": 0, "velocity": 0, "duration": 93}, {"note": 70, "velocity": 82, "duration": 305}, {"note": 0, "velocity": 0, "duration": 175}, {"note": 70, "velocity": 82, "duration": 413}, {"note": 0, "velocity": 0, "duration": 67}, {"note": 70, "velocity": 85, "duration": 404}, {"note": 0, "velocity": 0, "duration": 76}, {"note": 72, "velocity": 79, "duration": 144}, {"note": 0, "velocity": 0, "duration": 96}, {"note": 70, "velocity": 80, "duration": 842}, {"note": 0, "velocity": 0, "duration": 1318}, {"note": 70, "velocity": 83, "duration": 356}, {"note": 0, "velocity": 0, "duration": 124}, {"note": 70, "velocity": 80, "duration": 328}, {"note": 0, "velocity": 0, "duration": 152}, {"note": 70, "velocity": 83, "duration": 341}, {"note": 0, "velocity": 0, "duration": 139}, {"note": 82, "velocity": 79, "duration": 143}, {"note": 0, "velocity": 0, "duration": 97}, {"note": 79, "velocity": 78, "duration": 1128}, {"note": 0, "velocity": 0, "duration": 552}, {"note": 77, "velocity": 85, "duration": 219}, {"note": 75, "velocity": 87, "duration": 200}, {"note": 77, "velocity": 80, "duration": 360}, {"note": 0, "velocity": 0, "duration": 120}, {"note": 77, "velocity": 81, "duration": 350}, {"note": 0, "velocity": 0, "duration": 130}, {"note": 77, "velocity": 84, "duration": 400}, {"note": 0, "velocity": 0, "duration": 80}, {"note": 72, "velocity": 85, "duration": 204}, {"note": 75, "velocity": 82, "duration": 136}, {"note": 0, "velocity": 0, "duration": 104}, {"note": 77, "velocity": 80, "duration": 1534}, {"note": 0, "velocity": 0, "duration": 146}, {"note": 70, "velocity": 73, "duration": 153}, {"note": 0, "velocity": 0, "duration": 87}, {"note": 70, "velocity": 82, "duration": 345}, {"note": 0, "velocity": 0, "duration": 135}, {"note": 70, "velocity": 83, "duration": 382}, {"note": 0, "velocity": 0, "duration": 98}, {"note": 70, "velocity": 85, "duration": 358}, {"note": 0, "velocity": 0, "duration": 122}, {"note": 79, "velocity": 78, "duration": 186}, {"note": 75, "velocity": 83, "duration": 936}, {"note": 0, "velocity": 0, "duration": 984}, {"note": 70, "velocity": 83, "duration": 139}, {"note": 0, "velocity": 0, "duration": 101}, {"note": 70, "velocity": 84, "duration": 314}, {"note": 0, "velocity": 0, "duration": 166}, {"note": 70, "velocity": 85, "duration": 337}, {"note": 0, "velocity": 0, "duration": 143}, {"note": 70, "velocity": 85, "duration": 339}, {"note": 0, "velocity": 0, "duration": 141}, {"note": 72, "velocity": 80, "duration": 153}, {"note": 0, "velocity": 0, "duration": 87}, {"note": 70, "velocity": 79, "duration": 1570}, {"note": 0, "velocity": 0, "duration": 590}, {"note": 70, "velocity": 82, "duration": 357}, {"note": 0, "velocity": 0, "duration": 123}, {"note": 70, "velocity": 85, "duration": 325}, {"note": 0, "velocity": 0, "duration": 155}, {"note": 70, "velocity": 85, "duration": 322}, {"note": 0, "velocity": 0, "duration": 158}, {"note": 82, "velocity": 81, "duration": 147}, {"note": 0, "velocity": 0, "duration": 93}, {"note": 79, "velocity": 78, "duration": 980}, {"note": 0, "velocity": 0, "duration": 700}, {"note": 77, "velocity": 85, "duration": 211}, {"note": 75, "velocity": 82, "duration": 137}, {"note": 0, "velocity": 0, "duration": 103}, {"note": 77, "velocity": 80, "duration": 342}, {"note": 0, "velocity": 0, "duration": 138}, {"note": 77, "velocity": 78, "duration": 355}, {"note": 0, "velocity": 0, "duration": 125}, {"note": 77, "velocity": 79, "duration": 381}, {"note": 0, "velocity": 0, "duration": 99}, {"note": 72, "velocity": 80, "duration": 188}, {"note": 74, "velocity": 79, "duration": 169}, {"note": 0, "velocity": 0, "duration": 71}, {"note": 75, "velocity": 79, "duration": 1738}, {"note": 0, "velocity": 0, "duration": 182}, {"note": 79, "velocity": 82, "duration": 248}, {"note": 0, "velocity": 0, "duration": 112}, {"note": 80, "velocity": 74, "duration": 98}, {"note": 82, "velocity": 78, "duration": 105}, {"note": 0, "velocity": 0, "duration": 135}, {"note": 82, "velocity": 79, "duration": 115}, {"note": 0, "velocity": 0, "duration": 125}, {"note": 82, "velocity": 73, "duration": 122}, {"note": 0, "velocity": 0, "duration": 118}, {"note": 84, "velocity": 74, "duration": 148}, {"note": 0, "velocity": 0, "duration": 92}, {"note": 82, "velocity": 80, "duration": 663}, {"note": 0, "velocity": 0, "duration": 1737}, {"note": 75, "velocity": 94, "duration": 292}, {"note": 0, "velocity": 0, "duration": 68}, {"note": 77, "velocity": 78, "duration": 131}, {"note": 79, "velocity": 74, "duration": 142}, {"note": 0, "velocity": 0, "duration": 98}, {"note": 79, "velocity": 78, "duration": 110}, {"note": 0, "velocity": 0, "duration": 130}, {"note": 79, "velocity": 78, "duration": 162}, {"note": 0, "velocity": 0, "duration": 78}, {"note": 82, "velocity": 79, "duration": 131}, {"note": 0, "velocity": 0, "duration": 109}, {"note": 79, "velocity": 81, "duration": 718}, {"note": 0, "velocity": 0, "duration": 1682}, {"note": 79, "velocity": 82, "duration": 248}, {"note": 0, "velocity": 0, "duration": 112}, {"note": 80, "velocity": 74, "duration": 98}, {"note": 82, "velocity": 78, "duration": 105}, {"note": 0, "velocity": 0, "duration": 135}, {"note": 82, "velocity": 79, "duration": 115}, {"note": 0, "velocity": 0, "duration": 125}, {"note": 82, "velocity": 73, "duration": 122}, {"note": 0, "velocity": 0, "duration": 118}, {"note": 84, "velocity": 74, "duration": 148}, {"note": 0, "velocity": 0, "duration": 92}, {"note": 82, "velocity": 80, "duration": 663}, {"note": 0, "velocity": 0, "duration": 1737}, {"note": 75, "velocity": 94, "duration": 292}, {"note": 0, "velocity": 0, "duration": 68}, {"note": 77, "velocity": 78, "duration": 131}, {"note": 79, "velocity": 74, "duration": 142}, {"note": 0, "velocity": 0, "duration": 98}, {"note": 79, "velocity": 78, "duration": 110}, {"note": 0, "velocity": 0, "duration": 130}, {"note": 79, "velocity": 78, "duration": 162}, {"note": 0, "velocity": 0, "duration": 78}, {"note": 82, "velocity": 79, "duration": 131}, {"note": 0, "velocity": 0, "duration": 109}, {"note": 79, "velocity": 81, "duration": 718}, {"note": 0, "velocity": 0, "duration": 1682}, {"note": 72, "velocity": 80, "duration": 146}, {"note": 0, "velocity": 0, "duration": 94}, {"note": 72, "velocity": 81, "duration": 387}, {"note": 0, "velocity": 0, "duration": 93}, {"note": 74, "velocity": 78, "duration": 245}, {"note": 75, "velocity": 87, "duration": 404}, {"note": 0, "velocity": 0, "duration": 76}, {"note": 84, "velocity": 84, "duration": 127}, {"note": 0, "velocity": 0, "duration": 113}, {"note": 84, "velocity": 77, "duration": 175}, {"note": 0, "velocity": 0, "duration": 65}, {"note": 82, "velocity": 77, "duration": 387}, {"note": 0, "velocity": 0, "duration": 93}, {"note": 80, "velocity": 65, "duration": 187}, {"note": 79, "velocity": 79, "duration": 226}, {"note": 77, "velocity": 81, "duration": 779}, {"note": 0, "velocity": 0, "duration": 181}, {"note": 79, "velocity": 79, "duration": 239}, {"note": 0, "velocity": 0, "duration": 121}, {"note": 80, "velocity": 74, "duration": 79}, {"note": 82, "velocity": 80, "duration": 106}, {"note": 0, "velocity": 0, "duration": 134}, {"note": 84, "velocity": 79, "duration": 110}, {"note": 0, "velocity": 0, "duration": 130}, {"note": 82, "velocity": 80, "duration": 641}, {"note": 0, "velocity": 0, "duration": 319}, {"note": 75, "velocity": 84, "duration": 207}, {"note": 0, "velocity": 0, "duration": 153}, {"note": 77, "velocity": 78, "duration": 109}, {"note": 79, "velocity": 69, "duration": 123}, {"note": 0, "velocity": 0, "duration": 117}, {"note": 82, "velocity": 79, "duration": 116}, {"note": 0, "velocity": 0, "duration": 124}, {"note": 79, "velocity": 76, "duration": 402}, {"note": 0, "velocity": 0, "duration": 558}, {"note": 72, "velocity": 78, "duration": 127}, {"note": 0, "velocity": 0, "duration": 113}, {"note": 72, "velocity": 78, "duration": 432}, {"note": 75, "velocity": 80, "duration": 210}, {"note": 74, "velocity": 78, "duration": 424}, {"note": 72, "velocity": 79, "duration": 200}, {"note": 70, "velocity": 76, "duration": 190}, {"note": 75, "velocity": 81, "duration": 1918}]]