[[{"note": 70, "velocity": 80, "duration": 90}, {"note": 0, "velocity": 0, "duration": 150}, {"note": 70, "velocity": 74, "duration": 312}, {"note": 68, "velocity": 69, "duration": 86}, {"note": 70, "velocity": 68, "duration": 137}, {"note": 68, "velocity": 76, "duration": 216}, {"note": 65, "velocity": 77, "duration": 594}, {"note": 0, "velocity": 0, "duration": 246}, {"note": 63, "velocity": 70, "duration": 162}, {"note": 0, "velocity": 0, "duration": 78}, {"note": 63, "velocity": 75, "duration": 323}, {"note": 61, "velocity": 71, "duration": 112}, {"note": 63, "velocity": 69, "duration": 138}, {"note": 65, "velocity": 77, "duration": 142}, {"note": 0, "velocity": 0, "duration": 98}, {"note": 65, "velocity": 77, "duration": 599}, {"note": 0, "velocity": 0, "duration": 241}, {"note": 70, "velocity": 76, "duration": 145}, {"note": 0, "velocity": 0, "duration": 95}, {"note": 70, "velocity": 77, "duration": 177}, {"note": 0, "velocity": 0, "duration": 63}, {"note": 72, "velocity": 77, "duration": 133}, {"note": 0, "velocity": 0, "duration": 107}, {"note": 73, "velocity": 77, "duration": 202}, {"note": 68, "velocity": 65, "duration": 103}, {"note": 0, "velocity": 0, "duration": 137}, {"note": 68, "velocity": 76, "duration": 98}, {"note": 65, "velocity": 79, "duration": 323}, {"note": 63, "velocity": 66, "duration": 784}, {"note": 0, "velocity": 0, "duration": 1376}, {"note": 70, "velocity": 71, "duration": 147}, {"note": 0, "velocity": 0, "duration": 93}, {"note": 70, "velocity": 73, "duration": 292}, {"note": 0, "velocity": 0, "duration": 68}, {"note": 68, "velocity": 71, "duration": 75}, {"note": 70, "velocity": 78, "duration": 100}, {"note": 68, "velocity": 77, "duration": 161}, {"note": 0, "velocity": 0, "duration": 79}, {"note": 65, "velocity": 78, "duration": 636}, {"note": 0, "velocity": 0, "duration": 204}, {"note": 63, "velocity": 76, "duration": 136}, {"note": 0, "velocity": 0, "duration": 104}, {"note": 63, "velocity": 75, "duration": 279}, {"note": 0, "velocity": 0, "duration": 81}, {"note": 61, "velocity": 76, "duration": 80}, {"note": 63, "velocity": 77, "duration": 73}, {"note": 65, "velocity": 77, "duration": 140}, {"note": 0, "velocity": 0, "duration": 100}, {"note": 65, "velocity": 77, "duration": 641}, {"note": 0, "velocity": 0, "duration": 199}, {"note": 66, "velocity": 74, "duration": 156}, {"note": 0, "velocity": 0, "duration": 84}, {"note": 66, "velocity": 77, "duration": 142}, {"note": 0, "velocity": 0, "duration": 98}, {"note": 68, "velocity": 70, "duration": 159}, {"note": 0, "velocity": 0, "duration": 81}, {"note": 66, "velocity": 78, "duration": 384}, {"note": 0, "velocity": 0, "duration": 96}, {"note": 65, "velocity": 81, "duration": 238}, {"note": 63, "velocity": 75, "duration": 124}, {"note": 65, "velocity": 73, "duration": 1547}, {"note": 0, "velocity": 0, "duration": 493}, {"note": 69, "velocity": 72, "duration": 385}, {"note": 0, "velocity": 0, "duration": 95}, {"note": 69, "velocity": 74, "duration": 167}, {"note": 0, "velocity": 0, "duration": 73}, {"note": 70, "velocity": 77, "duration": 90}, {"note": 72, "velocity": 75, "duration": 403}, {"note": 0, "velocity": 0, "duration": 197}, {"note": 70, "velocity": 73, "duration": 186}, {"note": 72, "velocity": 75, "duration": 87}, {"note": 73, "velocity": 68, "duration": 1007}, {"note": 0, "velocity": 0, "duration": 73}, {"note": 72, "velocity": 73, "duration": 733}, {"note": 0, "velocity": 0, "duration": 227}, {"note": 73, "velocity": 78, "duration": 391}, {"note": 0, "velocity": 0, "duration": 89}, {"note": 73, "velocity": 75, "duration": 173}, {"note": 0, "velocity": 0, "duration": 67}, {"note": 72, "velocity": 73, "duration": 82}, {"note": 70, "velocity": 77, "duration": 180}, {"note": 68, "velocity": 73, "duration": 274}, {"note": 0, "velocity": 0, "duration": 86}, {"note": 70, "velocity": 79, "duration": 157}, {"note": 0, "velocity": 0, "duration": 83}, {"note": 72, "velocity": 76, "duration": 140}, {"note": 0, "velocity": 0, "duration": 100}, {"note": 73, "velocity": 78, "duration": 377}, {"note": 0, "velocity": 0, "duration": 103}, {"note": 73, "velocity": 79, "duration": 188}, {"note": 72, "velocity": 71, "duration": 63}, {"note": 72, "velocity": 78, "duration": 816}, {"note": 0, "velocity": 0, "duration": 264}, {"note": 73, "velocity": 78, "duration": 434}, {"note": 72, "velocity": 77, "duration": 354}, {"note": 0, "velocity": 0, "duration": 126}, {"note": 73, "velocity": 78, "duration": 171}, {"note": 0, "velocity": 0, "duration": 69}, {"note": 75, "velocity": 78, "duration": 71}, {"note": 75, "velocity": 81, "duration": 299}, {"note": 0, "velocity": 0, "duration": 61}, {"note": 70, "velocity": 71, "duration": 87}, {"note": 72, "velocity": 78, "duration": 72}, {"note": 73, "velocity": 78, "duration": 389}, {"note": 0, "velocity": 0, "duration": 91}, {"note": 73, "velocity": 76, "duration": 212}, {"note": 72, "velocity": 65, "duration": 58}, {"note": 0, "velocity": 0, "duration": 62}, {"note": 72, "velocity": 76, "duration": 925}, {"note": 0, "velocity": 0, "duration": 155}, {"note": 73, "velocity": 78, "duration": 384}, {"note": 0, "velocity": 0, "duration": 96}, {"note": 73, "velocity": 78, "duration": 175}, {"note": 0, "velocity": 0, "duration": 65}, {"note": 72, "velocity": 80, "duration": 82}, {"note": 70, "velocity": 77, "duration": 171}, {"note": 0, "velocity": 0, "duration": 69}, {"note": 68, "velocity": 71, "duration": 267}, {"note": 0, "velocity": 0, "duration": 93}, {"note": 70, "velocity": 78, "duration": 181}, {"note": 72, "velocity": 75, "duration": 238}, {"note": 73, "velocity": 78, "duration": 358}, {"note": 0, "velocity": 0, "duration": 122}, {"note": 73, "velocity": 77, "duration": 332}, {"note": 0, "velocity": 0, "duration": 148}, {"note": 75, "velocity": 78, "duration": 311}, {"note": 73, "velocity": 80, "duration": 277}, {"note": 0, "velocity": 0, "duration": 83}, {"note": 75, "velocity": 81, "duration": 188}, {"note": 77, "velocity": 77, "duration": 1388}, {"note": 0, "velocity": 0, "duration": 772}, {"note": 75, "velocity": 78, "duration": 149}, {"note": 0, "velocity": 0, "duration": 91}, {"note": 75, "velocity": 79, "duration": 142}, {"note": 0, "velocity": 0, "duration": 98}, {"note": 75, "velocity": 78, "duration": 129}, {"note": 0, "velocity": 0, "duration": 111}, {"note": 75, "velocity": 79, "duration": 269}, {"note": 0, "velocity": 0, "duration": 91}, {"note": 73, "velocity": 78, "duration": 356}, {"note": 72, "velocity": 78, "duration": 197}, {"note": 73, "velocity": 72, "duration": 358}, {"note": 0, "velocity": 0, "duration": 122}, {"note": 73, "velocity": 77, "duration": 202}, {"note": 72, "velocity": 72, "duration": 69}, {"note": 73, "velocity": 75, "duration": 550}, {"note": 73, "velocity": 79, "duration": 209}, {"note": 72, "velocity": 73, "duration": 77}, {"note": 73, "velocity": 78, "duration": 1166}, {"note": 0, "velocity": 0, "duration": 394}, {"note": 68, "velocity": 78, "duration": 167}, {"note": 0, "velocity": 0, "duration": 73}, {"note": 70, "velocity": 73, "duration": 72}, {"note": 70, "velocity": 77, "duration": 1320}, {"note": 0, "velocity": 0, "duration": 4560}, {"note": 73, "velocity": 75, "duration": 1788}, {"note": 70, "velocity": 77, "duration": 145}, {"note": 72, "velocity": 77, "duration": 145}, {"note": 70, "velocity": 70, "duration": 118}, {"note": 68, "velocity": 70, "duration": 1156}, {"note": 0, "velocity": 0, "duration": 764}, {"note": 70, "velocity": 80, "duration": 90}, {"note": 0, "velocity": 0, "duration": 150}, {"note": 70, "velocity": 74, "duration": 312}, {"note": 68, "velocity": 69, "duration": 86}, {"note": 70, "velocity": 68, "duration": 137}, {"note": 68, "velocity": 76, "duration": 216}, {"note": 65, "velocity": 77, "duration": 594}, {"note": 0, "velocity": 0, "duration": 246}, {"note": 63, "velocity": 70, "duration": 162}, {"note": 0, "velocity": 0, "duration": 78}, {"note": 63, "velocity": 75, "duration": 323}, {"note": 61, "velocity": 71, "duration": 112}, {"note": 63, "velocity": 69, "duration": 138}, {"note": 65, "velocity": 77, "duration": 142}, {"note": 0, "velocity": 0, "duration": 98}, {"note": 65, "velocity": 77, "duration": 599}, {"note": 0, "velocity": 0, "duration": 241}, {"note": 70, "velocity": 76, "duration": 145}, {"note": 0, "velocity": 0, "duration": 95}, {"note": 70, "velocity": 77, "duration": 177}, {"note": 0, "velocity": 0, "duration": 63}, {"note": 72, "velocity": 77, "duration": 133}, {"note": 0, "velocity": 0, "duration": 107}, {"note": 73, "velocity": 77, "duration": 202}, {"note": 68, "velocity": 65, "duration": 103}, {"note": 0, "velocity": 0, "duration": 137}, {"note": 68, "velocity": 76, "duration": 98}, {"note": 65, "velocity": 79, "duration": 323}, {"note": 63, "velocity": 66, "duration": 784}, {"note": 0, "velocity": 0, "duration": 1376}, {"note": 70, "velocity": 71, "duration": 147}, {"note": 0, "velocity": 0, "duration": 93}, {"note": 70, "velocity": 73, "duration": 292}, {"note": 0, "velocity": 0, "duration": 68}, {"note": 68, "velocity": 71, "duration": 75}, {"note": 70, "velocity": 78, "duration": 100}, {"note": 68, "velocity": 77, "duration": 161}, {"note": 0, "velocity": 0, "duration": 79}, {"note": 65, "velocity": 78, "duration": 636}, {"note": 0, "velocity": 0, "duration": 204}, {"note": 63, "velocity": 76, "duration": 136}, {"note": 0, "velocity": 0, "duration": 104}, {"note": 63, "velocity": 75, "duration": 279}, {"note": 0, "velocity": 0, "duration": 81}, {"note": 61, "velocity": 76, "duration": 80}, {"note": 63, "velocity": 77, "duration": 73}, {"note": 65, "velocity": 77, "duration": 140}, {"note": 0, "velocity": 0, "duration": 100}, {"note": 65, "velocity": 77, "duration": 641}, {"note": 0, "velocity": 0, "duration": 199}, {"note": 66, "velocity": 74, "duration": 156}, {"note": 0, "velocity": 0, "duration": 84}, {"note": 66, "velocity": 77, "duration": 142}, {"note": 0, "velocity": 0, "duration": 98}, {"note": 68, "velocity": 70, "duration": 159}, {"note": 0, "velocity": 0, "duration": 81}, {"note": 66, "velocity": 78, "duration": 384}, {"note": 0, "velocity": 0, "duration": 96}, {"note": 65, "velocity": 81, "duration": 238}, {"note": 63, "velocity": 75, "duration": 124}, {"note": 65, "velocity": 73, "duration": 1547}, {"note": 0, "velocity": 0, "duration": 373}, {"note": 65, "velocity": 78, "duration": 118}, {"note": 69, "velocity": 72, "duration": 385}, {"note": 0, "velocity": 0, "duration": 95}, {"note": 69, "velocity": 74, "duration": 167}, {"note": 0, "velocity": 0, "duration": 73}, {"note": 70, "velocity": 77, "duration": 90}, {"note": 72, "velocity": 75, "duration": 403}, {"note": 0, "velocity": 0, "duration": 197}, {"note": 70, "velocity": 73, "duration": 186}, {"note": 72, "velocity": 75, "duration": 87}, {"note": 73, "velocity": 68, "duration": 1007}, {"note": 0, "velocity": 0, "duration": 73}, {"note": 72, "velocity": 73, "duration": 733}, {"note": 0, "velocity": 0, "duration": 227}, {"note": 73, "velocity": 78, "duration": 391}, {"note": 0, "velocity": 0, "duration": 89}, {"note": 73, "velocity": 75, "duration": 173}, {"note": 0, "velocity": 0, "duration": 67}, {"note": 72, "velocity": 73, "duration": 82}, {"note": 70, "velocity": 77, "duration": 180}, {"note": 68, "velocity": 73, "duration": 274}, {"note": 0, "velocity": 0, "duration": 86}, {"note": 70, "velocity": 79, "duration": 157}, {"note": 0, "velocity": 0, "duration": 83}, {"note": 72, "velocity": 76, "duration": 140}, {"note": 0, "velocity": 0, "duration": 100}, {"note": 73, "velocity": 78, "duration": 377}, {"note": 0, "velocity": 0, "duration": 103}, {"note": 73, "velocity": 79, "duration": 188}, {"note": 72, "velocity": 71, "duration": 63}, {"note": 72, "velocity": 78, "duration": 816}, {"note": 0, "velocity": 0, "duration": 264}, {"note": 73, "velocity": 78, "duration": 434}, {"note": 72, "velocity": 77, "duration": 354}, {"note": 0, "velocity": 0, "duration": 126}, {"note": 73, "velocity": 78, "duration": 171}, {"note": 0, "velocity": 0, "duration": 69}, {"note": 75, "velocity": 78, "duration": 71}, {"note": 75, "velocity": 81, "duration": 299}, {"note": 0, "velocity": 0, "duration": 61}, {"note": 70, "velocity": 71, "duration": 87}, {"note": 72, "velocity": 78, "duration": 72}, {"note": 73, "velocity": 78, "duration": 389}, {"note": 0, "velocity": 0, "duration": 91}, {"note": 73, "velocity": 76, "duration": 212}, {"note": 72, "velocity": 65, "duration": 58}, {"note": 0, "velocity": 0, "duration": 62}, {"note": 72, "velocity": 76, "duration": 925}, {"note": 0, "velocity": 0, "duration": 155}, {"note": 73, "velocity": 78, "duration": 384}, {"note": 0, "velocity": 0, "duration": 96}, {"note": 73, "velocity": 78, "duration": 175}, {"note": 0, "velocity": 0, "duration": 65}, {"note": 72, "velocity": 80, "duration": 82}, {"note": 70, "velocity": 77, "duration": 171}, {"note": 0, "velocity": 0, "duration": 69}, {"note": 68, "velocity": 71, "duration": 267}, {"note": 0, "velocity": 0, "duration": 93}, {"note": 70, "velocity": 78, "duration": 181}, {"note": 72, "velocity": 75, "duration": 238}, {"note": 73, "velocity": 78, "duration": 358}, {"note": 0, "velocity": 0, "duration": 122}, {"note": 73, "velocity": 77, "duration": 332}, {"note": 0, "velocity": 0, "duration": 148}, {"note": 75, "velocity": 78, "duration": 311}, {"note": 73, "velocity": 80, "duration": 277}, {"note": 0, "velocity": 0, "duration": 83}, {"note": 75, "velocity": 81, "duration": 188}, {"note": 77, "velocity": 77, "duration": 1388}, {"note": 0, "velocity": 0, "duration": 772}, {"note": 75, "velocity": 78, "duration": 149}, {"note": 0, "velocity": 0, "duration": 91}, {"note": 75, "velocity": 79, "duration": 142}, {"note": 0, "velocity": 0, "duration": 98}, {"note": 75, "velocity": 78, "duration": 129}, {"note": 0, "velocity": 0, "duration": 111}, {"note": 75, "velocity": 79, "duration": 269}, {"note": 0, "velocity": 0, "duration": 91}, {"note": 73, "velocity": 78, "duration": 356}, {"note": 72, "velocity": 78, "duration": 197}, {"note": 73, "velocity": 72, "duration": 358}, {"note": 0, "velocity": 0, "duration": 122}, {"note": 73, "velocity": 77, "duration": 202}, {"note": 72, "velocity": 72, "duration": 69}, {"note": 73, "velocity": 75, "duration": 550}, {"note": 73, "velocity": 79, "duration": 209}, {"note": 72, "velocity": 73, "duration": 77}, {"note": 73, "velocity": 78, "duration": 1166}, {"note": 0, "velocity": 0, "duration": 394}, {"note": 68, "velocity": 78, "duration": 167}, {"note": 0, "velocity": 0, "duration": 73}, {"note": 70, "velocity": 73, "duration": 72}, {"note": 70, "velocity": 77, "duration": 1320}, {"note": 0, "velocity": 0, "duration": 14400}, {"note": 75, "velocity": 78, "duration": 149}, {"note": 0, "velocity": 0, "duration": 91}, {"note": 75, "velocity": 79, "duration": 142}, {"note": 0, "velocity": 0, "duration": 98}, {"note": 75, "velocity": 78, "duration": 129}, {"note": 0, "velocity": 0, "duration": 111}, {"note": 75, "velocity": 79, "duration": 269}, {"note": 0, "velocity": 0, "duration": 91}, {"note": 73, "velocity": 78, "duration": 356}, {"note": 72, "velocity": 78, "duration": 197}, {"note": 73, "velocity": 72, "duration": 358}, {"note": 0, "velocity": 0, "duration": 122}, {"note": 73, "velocity": 77, "duration": 202}, {"note": 72, "velocity": 72, "duration": 69}, {"note": 73, "velocity": 75, "duration": 550}, {"note": 73, "velocity": 79, "duration": 209}, {"note": 72, "velocity": 73, "duration": 77}, {"note": 73, "velocity": 78, "duration": 1166}, {"note": 0, "velocity": 0, "duration": 394}, {"note": 73, "velocity": 78, "duration": 167}, {"note": 0, "velocity": 0, "duration": 73}, {"note": 75, "velocity": 73, "duration": 72}, {"note": 75, "velocity": 77, "duration": 1320}, {"note": 0, "velocity": 0, "duration": 240}, {"note": 70, "velocity": 73, "duration": 186}, {"note": 72, "velocity": 75, "duration": 87}, {"note": 73, "velocity": 68, "duration": 1007}, {"note": 0, "velocity": 0, "duration": 73}, {"note": 72, "velocity": 73, "duration": 733}, {"note": 0, "velocity": 0, "duration": 227}, {"note": 73, "velocity": 78, "duration": 391}, {"note": 0, "velocity": 0, "duration": 89}, {"note": 73, "velocity": 75, "duration": 173}, {"note": 0, "velocity": 0, "duration": 67}, {"note": 72, "velocity": 73, "duration": 82}, {"note": 70, "velocity": 77, "duration": 180}, {"note": 68, "velocity": 73, "duration": 274}, {"note": 0, "velocity": 0, "duration": 86}, {"note": 70, "velocity": 79, "duration": 157}, {"note": 0, "velocity": 0, "duration": 83}, {"note": 72, "velocity": 76, "duration": 140}, {"note": 0, "velocity": 0, "duration": 100}, {"note": 73, "velocity": 78, "duration": 377}, {"note": 0, "velocity": 0, "duration": 103}, {"note": 73, "velocity": 79, "duration": 188}, {"note": 72, "velocity": 71, "duration": 63}, {"note": 72, "velocity": 78, "duration": 816}, {"note": 0, "velocity": 0, "duration": 264}, {"note": 73, "velocity": 78, "duration": 434}, {"note": 72, "velocity": 77, "duration": 354}, {"note": 0, "velocity": 0, "duration": 126}, {"note": 73, "velocity": 78, "duration": 171}, {"note": 0, "velocity": 0, "duration": 69}, {"note": 75, "velocity": 78, "duration": 71}, {"note": 75, "velocity": 81, "duration": 299}, {"note": 0, "velocity": 0, "duration": 61}, {"note": 70, "velocity": 71, "duration": 87}, {"note": 72, "velocity": 78, "duration": 72}, {"note": 73, "velocity": 78, "duration": 389}, {"note": 0, "velocity": 0, "duration": 91}, {"note": 73, "velocity": 76, "duration": 212}, {"note": 72, "velocity": 65, "duration": 58}, {"note": 0, "velocity": 0, "duration": 62}, {"note": 72, "velocity": 76, "duration": 925}, {"note": 0, "velocity": 0, "duration": 155}, {"note": 73, "velocity": 78, "duration": 384}, {"note": 0, "velocity": 0, "duration": 96}, {"note": 73, "velocity": 78, "duration": 175}, {"note": 0, "velocity": 0, "duration": 65}, {"note": 72, "velocity": 80, "duration": 82}, {"note": 70, "velocity": 77, "duration": 171}, {"note": 0, "velocity": 0, "duration": 69}, {"note": 68, "velocity": 71, "duration": 267}, {"note": 0, "velocity": 0, "duration": 93}, {"note": 70, "velocity": 78, "duration": 181}, {"note": 72, "velocity": 75, "duration": 238}, {"note": 73, "velocity": 78, "duration": 358}, {"note": 0, "velocity": 0, "duration": 122}, {"note": 73, "velocity": 77, "duration": 332}, {"note": 0, "velocity": 0, "duration": 148}, {"note": 75, "velocity": 78, "duration": 311}, {"note": 73, "velocity": 80, "duration": 277}, {"note": 0, "velocity": 0, "duration": 83}, {"note": 75, "velocity": 81, "duration": 188}, {"note": 77, "velocity": 77, "duration": 1388}, {"note": 0, "velocity": 0, "duration": 772}, {"note": 75, "velocity": 78, "duration": 149}, {"note": 0, "velocity": 0, "duration": 91}, {"note": 75, "velocity": 79, "duration": 142}, {"note": 0, "velocity": 0, "duration": 98}, {"note": 75, "velocity": 78, "duration": 129}, {"note": 0, "velocity": 0, "duration": 111}, {"note": 75, "velocity": 79, "duration": 269}, {"note": 0, "velocity": 0, "duration": 91}, {"note": 73, "velocity": 78, "duration": 356}, {"note": 72, "velocity": 78, "duration": 197}, {"note": 73, "velocity": 72, "duration": 358}, {"note": 0, "velocity": 0, "duration": 122}, {"note": 73, "velocity": 77, "duration": 202}, {"note": 72, "velocity": 72, "duration": 69}, {"note": 73, "velocity": 75, "duration": 550}, {"note": 73, "velocity": 79, "duration": 209}, {"note": 72, "velocity": 73, "duration": 77}, {"note": 73, "velocity": 78, "duration": 1166}, {"note": 0, "velocity": 0, "duration": 394}, {"note": 68, "velocity": 78, "duration": 167}, {"note": 0, "velocity": 0, "duration": 73}, {"note": 70, "velocity": 73, "duration": 72}, {"note": 70, "velocity": 77, "duration": 1320}]]