[[{"note": 76, "velocity": 85, "duration": 69}, {"note": 77, "velocity": 78, "duration": 76}, {"note": 79, "velocity": 74, "duration": 76}, {"note": 0, "velocity": 0, "duration": 164}, {"note": 77, "velocity": 78, "duration": 74}, {"note": 0, "velocity": 0, "duration": 166}, {"note": 76, "velocity": 81, "duration": 80}, {"note": 0, "velocity": 0, "duration": 160}, {"note": 77, "velocity": 80, "duration": 72}, {"note": 0, "velocity": 0, "duration": 168}, {"note": 79, "velocity": 78, "duration": 76}, {"note": 0, "velocity": 0, "duration": 164}, {"note": 77, "velocity": 80, "duration": 80}, {"note": 0, "velocity": 0, "duration": 160}, {"note": 76, "velocity": 81, "duration": 93}, {"note": 0, "velocity": 0, "duration": 147}, {"note": 77, "velocity": 80, "duration": 93}, {"note": 0, "velocity": 0, "duration": 147}, {"note": 79, "velocity": 76, "duration": 101}, {"note": 0, "velocity": 0, "duration": 139}, {"note": 79, "velocity": 76, "duration": 62}, {"note": 79, "velocity": 71, "duration": 54}, {"note": 0, "velocity": 0, "duration": 66}, {"note": 79, "velocity": 74, "duration": 118}, {"note": 0, "velocity": 0, "duration": 122}, {"note": 88, "velocity": 80, "duration": 154}, {"note": 0, "velocity": 0, "duration": 86}, {"note": 84, "velocity": 75, "duration": 480}, {"note": 0, "velocity": 0, "duration": 240}, {"note": 74, "velocity": 81, "duration": 66}, {"note": 76, "velocity": 75, "duration": 144}, {"note": 77, "velocity": 77, "duration": 92}, {"note": 0, "velocity": 0, "duration": 148}, {"note": 76, "velocity": 76, "duration": 109}, {"note": 0, "velocity": 0, "duration": 131}, {"note": 77, "velocity": 76, "duration": 113}, {"note": 0, "velocity": 0, "duration": 127}, {"note": 86, "velocity": 79, "duration": 96}, {"note": 0, "velocity": 0, "duration": 144}, {"note": 83, "velocity": 75, "duration": 332}, {"note": 0, "velocity": 0, "duration": 388}, {"note": 74, "velocity": 81, "duration": 77}, {"note": 76, "velocity": 78, "duration": 80}, {"note": 77, "velocity": 78, "duration": 101}, {"note": 0, "velocity": 0, "duration": 139}, {"note": 76, "velocity": 80, "duration": 93}, {"note": 0, "velocity": 0, "duration": 147}, {"note": 77, "velocity": 74, "duration": 120}, {"note": 0, "velocity": 0, "duration": 120}, {"note": 81, "velocity": 76, "duration": 125}, {"note": 0, "velocity": 0, "duration": 115}, {"note": 79, "velocity": 75, "duration": 271}, {"note": 0, "velocity": 0, "duration": 449}, {"note": 76, "velocity": 85, "duration": 69}, {"note": 77, "velocity": 78, "duration": 76}, {"note": 79, "velocity": 74, "duration": 76}, {"note": 0, "velocity": 0, "duration": 164}, {"note": 77, "velocity": 78, "duration": 74}, {"note": 0, "velocity": 0, "duration": 166}, {"note": 76, "velocity": 81, "duration": 80}, {"note": 0, "velocity": 0, "duration": 160}, {"note": 77, "velocity": 80, "duration": 72}, {"note": 0, "velocity": 0, "duration": 168}, {"note": 79, "velocity": 78, "duration": 76}, {"note": 0, "velocity": 0, "duration": 164}, {"note": 77, "velocity": 80, "duration": 80}, {"note": 0, "velocity": 0, "duration": 160}, {"note": 76, "velocity": 81, "duration": 93}, {"note": 0, "velocity": 0, "duration": 147}, {"note": 77, "velocity": 80, "duration": 93}, {"note": 0, "velocity": 0, "duration": 147}, {"note": 79, "velocity": 76, "duration": 101}, {"note": 0, "velocity": 0, "duration": 139}, {"note": 79, "velocity": 76, "duration": 62}, {"note": 79, "velocity": 71, "duration": 54}, {"note": 0, "velocity": 0, "duration": 66}, {"note": 79, "velocity": 74, "duration": 118}, {"note": 0, "velocity": 0, "duration": 122}, {"note": 88, "velocity": 80, "duration": 154}, {"note": 0, "velocity": 0, "duration": 86}, {"note": 86, "velocity": 75, "duration": 480}, {"note": 0, "velocity": 0, "duration": 240}, {"note": 74, "velocity": 81, "duration": 66}, {"note": 76, "velocity": 75, "duration": 144}, {"note": 77, "velocity": 77, "duration": 92}, {"note": 0, "velocity": 0, "duration": 148}, {"note": 76, "velocity": 76, "duration": 109}, {"note": 0, "velocity": 0, "duration": 131}, {"note": 77, "velocity": 76, "duration": 113}, {"note": 0, "velocity": 0, "duration": 127}, {"note": 86, "velocity": 79, "duration": 96}, {"note": 0, "velocity": 0, "duration": 144}, {"note": 84, "velocity": 72, "duration": 207}, {"note": 83, "velocity": 76, "duration": 101}, {"note": 0, "velocity": 0, "duration": 139}, {"note": 81, "velocity": 75, "duration": 154}, {"note": 0, "velocity": 0, "duration": 86}, {"note": 83, "velocity": 75, "duration": 134}, {"note": 0, "velocity": 0, "duration": 106}, {"note": 84, "velocity": 75, "duration": 1133}, {"note": 0, "velocity": 0, "duration": 307}, {"note": 79, "velocity": 76, "duration": 370}, {"note": 0, "velocity": 0, "duration": 110}, {"note": 79, "velocity": 74, "duration": 354}, {"note": 0, "velocity": 0, "duration": 126}, {"note": 88, "velocity": 74, "duration": 133}, {"note": 0, "velocity": 0, "duration": 107}, {"note": 88, "velocity": 76, "duration": 133}, {"note": 0, "velocity": 0, "duration": 107}, {"note": 84, "velocity": 78, "duration": 375}, {"note": 0, "velocity": 0, "duration": 105}, {"note": 79, "velocity": 78, "duration": 439}, {"note": 76, "velocity": 79, "duration": 1312}, {"note": 0, "velocity": 0, "duration": 128}, {"note": 79, "velocity": 76, "duration": 309}, {"note": 0, "velocity": 0, "duration": 171}, {"note": 77, "velocity": 80, "duration": 378}, {"note": 0, "velocity": 0, "duration": 102}, {"note": 86, "velocity": 69, "duration": 124}, {"note": 0, "velocity": 0, "duration": 116}, {"note": 86, "velocity": 77, "duration": 171}, {"note": 0, "velocity": 0, "duration": 69}, {"note": 83, "velocity": 74, "duration": 350}, {"note": 0, "velocity": 0, "duration": 130}, {"note": 77, "velocity": 75, "duration": 399}, {"note": 0, "velocity": 0, "duration": 81}, {"note": 74, "velocity": 74, "duration": 1226}, {"note": 0, "velocity": 0, "duration": 454}, {"note": 76, "velocity": 78, "duration": 70}, {"note": 77, "velocity": 75, "duration": 79}, {"note": 79, "velocity": 75, "duration": 80}, {"note": 0, "velocity": 0, "duration": 160}, {"note": 77, "velocity": 74, "duration": 86}, {"note": 0, "velocity": 0, "duration": 154}, {"note": 76, "velocity": 81, "duration": 84}, {"note": 0, "velocity": 0, "duration": 156}, {"note": 77, "velocity": 75, "duration": 90}, {"note": 0, "velocity": 0, "duration": 150}, {"note": 79, "velocity": 74, "duration": 89}, {"note": 0, "velocity": 0, "duration": 151}, {"note": 77, "velocity": 76, "duration": 84}, {"note": 0, "velocity": 0, "duration": 156}, {"note": 76, "velocity": 76, "duration": 103}, {"note": 0, "velocity": 0, "duration": 137}, {"note": 77, "velocity": 75, "duration": 111}, {"note": 0, "velocity": 0, "duration": 129}, {"note": 79, "velocity": 75, "duration": 89}, {"note": 0, "velocity": 0, "duration": 151}, {"note": 79, "velocity": 74, "duration": 97}, {"note": 79, "velocity": 74, "duration": 97}, {"note": 79, "velocity": 75, "duration": 110}, {"note": 0, "velocity": 0, "duration": 130}, {"note": 84, "velocity": 78, "duration": 98}, {"note": 0, "velocity": 0, "duration": 142}, {"note": 88, "velocity": 78, "duration": 420}, {"note": 0, "velocity": 0, "duration": 300}, {"note": 74, "velocity": 78, "duration": 73}, {"note": 76, "velocity": 78, "duration": 76}, {"note": 77, "velocity": 74, "duration": 71}, {"note": 0, "velocity": 0, "duration": 169}, {"note": 76, "velocity": 83, "duration": 88}, {"note": 0, "velocity": 0, "duration": 152}, {"note": 77, "velocity": 69, "duration": 116}, {"note": 0, "velocity": 0, "duration": 124}, {"note": 86, "velocity": 78, "duration": 106}, {"note": 0, "velocity": 0, "duration": 134}, {"note": 84, "velocity": 78, "duration": 102}, {"note": 0, "velocity": 0, "duration": 138}, {"note": 83, "velocity": 75, "duration": 116}, {"note": 0, "velocity": 0, "duration": 124}, {"note": 81, "velocity": 74, "duration": 109}, {"note": 0, "velocity": 0, "duration": 131}, {"note": 83, "velocity": 74, "duration": 132}, {"note": 0, "velocity": 0, "duration": 108}, {"note": 84, "velocity": 78, "duration": 1472}, {"note": 0, "velocity": 0, "duration": 9808}, {"note": 76, "velocity": 85, "duration": 69}, {"note": 77, "velocity": 78, "duration": 76}, {"note": 79, "velocity": 74, "duration": 76}, {"note": 0, "velocity": 0, "duration": 164}, {"note": 77, "velocity": 78, "duration": 74}, {"note": 0, "velocity": 0, "duration": 166}, {"note": 76, "velocity": 81, "duration": 80}, {"note": 0, "velocity": 0, "duration": 160}, {"note": 77, "velocity": 80, "duration": 72}, {"note": 0, "velocity": 0, "duration": 168}, {"note": 79, "velocity": 78, "duration": 76}, {"note": 0, "velocity": 0, "duration": 164}, {"note": 77, "velocity": 80, "duration": 80}, {"note": 0, "velocity": 0, "duration": 160}, {"note": 76, "velocity": 81, "duration": 93}, {"note": 0, "velocity": 0, "duration": 147}, {"note": 77, "velocity": 80, "duration": 93}, {"note": 0, "velocity": 0, "duration": 147}, {"note": 79, "velocity": 76, "duration": 101}, {"note": 0, "velocity": 0, "duration": 139}, {"note": 79, "velocity": 76, "duration": 62}, {"note": 79, "velocity": 71, "duration": 54}, {"note": 0, "velocity": 0, "duration": 66}, {"note": 79, "velocity": 74, "duration": 118}, {"note": 0, "velocity": 0, "duration": 122}, {"note": 88, "velocity": 80, "duration": 154}, {"note": 0, "velocity": 0, "duration": 86}, {"note": 84, "velocity": 75, "duration": 480}, {"note": 0, "velocity": 0, "duration": 240}, {"note": 74, "velocity": 81, "duration": 66}, {"note": 76, "velocity": 75, "duration": 144}, {"note": 77, "velocity": 77, "duration": 92}, {"note": 0, "velocity": 0, "duration": 148}, {"note": 76, "velocity": 76, "duration": 109}, {"note": 0, "velocity": 0, "duration": 131}, {"note": 77, "velocity": 76, "duration": 113}, {"note": 0, "velocity": 0, "duration": 127}, {"note": 86, "velocity": 79, "duration": 96}, {"note": 0, "velocity": 0, "duration": 144}, {"note": 83, "velocity": 75, "duration": 332}, {"note": 0, "velocity": 0, "duration": 388}, {"note": 74, "velocity": 81, "duration": 77}, {"note": 76, "velocity": 78, "duration": 80}, {"note": 77, "velocity": 78, "duration": 101}, {"note": 0, "velocity": 0, "duration": 139}, {"note": 76, "velocity": 80, "duration": 93}, {"note": 0, "velocity": 0, "duration": 147}, {"note": 77, "velocity": 74, "duration": 120}, {"note": 0, "velocity": 0, "duration": 120}, {"note": 81, "velocity": 76, "duration": 125}, {"note": 0, "velocity": 0, "duration": 115}, {"note": 79, "velocity": 75, "duration": 271}, {"note": 0, "velocity": 0, "duration": 449}, {"note": 76, "velocity": 85, "duration": 69}, {"note": 77, "velocity": 78, "duration": 76}, {"note": 79, "velocity": 74, "duration": 76}, {"note": 0, "velocity": 0, "duration": 164}, {"note": 77, "velocity": 78, "duration": 74}, {"note": 0, "velocity": 0, "duration": 166}, {"note": 76, "velocity": 81, "duration": 80}, {"note": 0, "velocity": 0, "duration": 160}, {"note": 77, "velocity": 80, "duration": 72}, {"note": 0, "velocity": 0, "duration": 168}, {"note": 79, "velocity": 78, "duration": 76}, {"note": 0, "velocity": 0, "duration": 164}, {"note": 77, "velocity": 80, "duration": 80}, {"note": 0, "velocity": 0, "duration": 160}, {"note": 76, "velocity": 81, "duration": 93}, {"note": 0, "velocity": 0, "duration": 147}, {"note": 77, "velocity": 80, "duration": 93}, {"note": 0, "velocity": 0, "duration": 147}, {"note": 79, "velocity": 76, "duration": 101}, {"note": 0, "velocity": 0, "duration": 139}, {"note": 79, "velocity": 76, "duration": 62}, {"note": 79, "velocity": 71, "duration": 54}, {"note": 0, "velocity": 0, "duration": 66}, {"note": 79, "velocity": 74, "duration": 118}, {"note": 0, "velocity": 0, "duration": 122}, {"note": 88, "velocity": 80, "duration": 154}, {"note": 0, "velocity": 0, "duration": 86}, {"note": 86, "velocity": 75, "duration": 480}, {"note": 0, "velocity": 0, "duration": 240}, {"note": 74, "velocity": 81, "duration": 66}, {"note": 76, "velocity": 75, "duration": 144}, {"note": 77, "velocity": 77, "duration": 92}, {"note": 0, "velocity": 0, "duration": 148}, {"note": 76, "velocity": 76, "duration": 109}, {"note": 0, "velocity": 0, "duration": 131}, {"note": 77, "velocity": 76, "duration": 113}, {"note": 0, "velocity": 0, "duration": 127}, {"note": 86, "velocity": 79, "duration": 96}, {"note": 0, "velocity": 0, "duration": 144}, {"note": 84, "velocity": 72, "duration": 207}, {"note": 83, "velocity": 76, "duration": 101}, {"note": 0, "velocity": 0, "duration": 139}, {"note": 81, "velocity": 75, "duration": 154}, {"note": 0, "velocity": 0, "duration": 86}, {"note": 83, "velocity": 75, "duration": 134}, {"note": 0, "velocity": 0, "duration": 106}, {"note": 84, "velocity": 75, "duration": 1133}, {"note": 0, "velocity": 0, "duration": 307}, {"note": 79, "velocity": 76, "duration": 370}, {"note": 0, "velocity": 0, "duration": 110}, {"note": 79, "velocity": 74, "duration": 354}, {"note": 0, "velocity": 0, "duration": 126}, {"note": 88, "velocity": 74, "duration": 133}, {"note": 0, "velocity": 0, "duration": 107}, {"note": 88, "velocity": 76, "duration": 133}, {"note": 0, "velocity": 0, "duration": 107}, {"note": 84, "velocity": 78, "duration": 375}, {"note": 0, "velocity": 0, "duration": 105}, {"note": 79, "velocity": 78, "duration": 439}, {"note": 76, "velocity": 79, "duration": 1312}, {"note": 0, "velocity": 0, "duration": 128}, {"note": 79, "velocity": 76, "duration": 309}, {"note": 0, "velocity": 0, "duration": 171}, {"note": 77, "velocity": 80, "duration": 378}, {"note": 0, "velocity": 0, "duration": 102}, {"note": 86, "velocity": 69, "duration": 124}, {"note": 0, "velocity": 0, "duration": 116}, {"note": 86, "velocity": 77, "duration": 171}, {"note": 0, "velocity": 0, "duration": 69}, {"note": 83, "velocity": 74, "duration": 350}, {"note": 0, "velocity": 0, "duration": 130}, {"note": 77, "velocity": 75, "duration": 399}, {"note": 0, "velocity": 0, "duration": 81}, {"note": 74, "velocity": 74, "duration": 1226}, {"note": 0, "velocity": 0, "duration": 454}, {"note": 76, "velocity": 78, "duration": 70}, {"note": 77, "velocity": 75, "duration": 79}, {"note": 79, "velocity": 75, "duration": 80}, {"note": 0, "velocity": 0, "duration": 160}, {"note": 77, "velocity": 74, "duration": 86}, {"note": 0, "velocity": 0, "duration": 154}, {"note": 76, "velocity": 81, "duration": 84}, {"note": 0, "velocity": 0, "duration": 156}, {"note": 77, "velocity": 75, "duration": 90}, {"note": 0, "velocity": 0, "duration": 150}, {"note": 79, "velocity": 74, "duration": 89}, {"note": 0, "velocity": 0, "duration": 151}, {"note": 77, "velocity": 76, "duration": 84}, {"note": 0, "velocity": 0, "duration": 156}, {"note": 76, "velocity": 76, "duration": 103}, {"note": 0, "velocity": 0, "duration": 137}, {"note": 77, "velocity": 75, "duration": 111}, {"note": 0, "velocity": 0, "duration": 129}, {"note": 79, "velocity": 75, "duration": 89}, {"note": 0, "velocity": 0, "duration": 151}, {"note": 79, "velocity": 74, "duration": 97}, {"note": 79, "velocity": 74, "duration": 97}, {"note": 79, "velocity": 75, "duration": 110}, {"note": 0, "velocity": 0, "duration": 130}, {"note": 84, "velocity": 78, "duration": 98}, {"note": 0, "velocity": 0, "duration": 142}, {"note": 88, "velocity": 78, "duration": 420}, {"note": 0, "velocity": 0, "duration": 300}, {"note": 74, "velocity": 78, "duration": 73}, {"note": 76, "velocity": 78, "duration": 76}, {"note": 77, "velocity": 74, "duration": 71}, {"note": 0, "velocity": 0, "duration": 169}, {"note": 76, "velocity": 83, "duration": 88}, {"note": 0, "velocity": 0, "duration": 152}, {"note": 77, "velocity": 69, "duration": 116}, {"note": 0, "velocity": 0, "duration": 124}, {"note": 86, "velocity": 78, "duration": 106}, {"note": 0, "velocity": 0, "duration": 134}, {"note": 84, "velocity": 78, "duration": 102}, {"note": 0, "velocity": 0, "duration": 138}, {"note": 83, "velocity": 75, "duration": 116}, {"note": 0, "velocity": 0, "duration": 124}, {"note": 81, "velocity": 74, "duration": 109}, {"note": 0, "velocity": 0, "duration": 131}, {"note": 83, "velocity": 74, "duration": 132}, {"note": 0, "velocity": 0, "duration": 108}, {"note": 84, "velocity": 78, "duration": 1472}]]